<?xml version="1.0" encoding="UTF-8" standalone="no"?>
<!DOCTYPE svg PUBLIC "-//W3C//DTD SVG 1.1//EN"
 "http://www.w3.org/Graphics/SVG/1.1/DTD/svg11.dtd">
<!-- Generated by graphviz version 2.40.1 (20161225.0304)
 -->
<!-- Title: %3 Pages: 1 -->
<svg width="968pt" height="260pt"
 viewBox="0.00 0.00 967.81 260.00" xmlns="http://www.w3.org/2000/svg" xmlns:xlink="http://www.w3.org/1999/xlink">
<g id="graph0" class="graph" transform="scale(1 1) rotate(0) translate(4 256)">
<title>%3</title>
<polygon fill="#242424" stroke="transparent" points="-4,4 -4,-256 963.8092,-256 963.8092,4 -4,4"/>
<!-- cli -->
<g id="node1" class="node">
<title>cli</title>
<polygon fill="#343434" stroke="#343434" points="54,-252 0,-252 0,-216 54,-216 54,-252"/>
<text text-anchor="middle" x="27" y="-230.3" font-family="Courier,monospace" font-size="14.00" fill="#b6ecf3">cli</text>
</g>
<!-- rolling_pin.blob_etl -->
<g id="node2" class="node">
<title>rolling_pin.blob_etl</title>
<polygon fill="#343434" stroke="#343434" points="304,-108 122,-108 122,-72 304,-72 304,-108"/>
<text text-anchor="middle" x="213" y="-86.3" font-family="Courier,monospace" font-size="14.00" fill="#b6ecf3">rolling_pin.blob_etl</text>
</g>
<!-- rolling_pin.radon_etl -->
<g id="node3" class="node">
<title>rolling_pin.radon_etl</title>
<polygon fill="#343434" stroke="#343434" points="755,-36 565,-36 565,0 755,0 755,-36"/>
<text text-anchor="middle" x="660" y="-14.3" font-family="Courier,monospace" font-size="14.00" fill="#b6ecf3">rolling_pin.radon_etl</text>
</g>
<!-- rolling_pin.blob_etl&#45;&gt;rolling_pin.radon_etl -->
<g id="edge1" class="edge">
<title>rolling_pin.blob_etl&#45;&gt;rolling_pin.radon_etl</title>
<path fill="none" stroke="#b6ecf3" d="M304.0472,-74.3164C308.765,-73.5274 313.4377,-72.7512 318,-72 397.2643,-58.9488 486.9721,-44.808 554.6191,-34.2719"/>
<polygon fill="#b6ecf3" stroke="#b6ecf3" points="555.5154,-37.6746 564.8582,-32.6784 554.4389,-30.7579 555.5154,-37.6746"/>
</g>
<!-- rolling_pin.repo_etl -->
<g id="node4" class="node">
<title>rolling_pin.repo_etl</title>
<polygon fill="#343434" stroke="#343434" points="542,-108 360,-108 360,-72 542,-72 542,-108"/>
<text text-anchor="middle" x="451" y="-86.3" font-family="Courier,monospace" font-size="14.00" fill="#b6ecf3">rolling_pin.repo_etl</text>
</g>
<!-- rolling_pin.tools -->
<g id="node5" class="node">
<title>rolling_pin.tools</title>
<polygon fill="#343434" stroke="#343434" points="220.5,-180 63.5,-180 63.5,-144 220.5,-144 220.5,-180"/>
<text text-anchor="middle" x="142" y="-158.3" font-family="Courier,monospace" font-size="14.00" fill="#b6ecf3">rolling_pin.tools</text>
</g>
<!-- rolling_pin.tools&#45;&gt;rolling_pin.blob_etl -->
<g id="edge2" class="edge">
<title>rolling_pin.tools&#45;&gt;rolling_pin.blob_etl</title>
<path fill="none" stroke="#b6ecf3" d="M159.9163,-143.8314C168.3442,-135.2848 178.541,-124.9443 187.736,-115.6198"/>
<polygon fill="#b6ecf3" stroke="#b6ecf3" points="190.3131,-117.9912 194.8425,-108.4133 185.3289,-113.0761 190.3131,-117.9912"/>
</g>
<!-- rolling_pin.tools&#45;&gt;rolling_pin.radon_etl -->
<g id="edge3" class="edge">
<title>rolling_pin.tools&#45;&gt;rolling_pin.radon_etl</title>
<path fill="none" stroke="#b6ecf3" d="M126.9826,-143.9379C112.3277,-124.041 94.7018,-92.1936 113,-72 142.0286,-39.9646 404.0414,-26.2248 554.6545,-20.931"/>
<polygon fill="#b6ecf3" stroke="#b6ecf3" points="554.9823,-24.4219 564.8558,-20.5794 554.7411,-17.4261 554.9823,-24.4219"/>
</g>
<!-- rolling_pin.tools&#45;&gt;rolling_pin.repo_etl -->
<g id="edge4" class="edge">
<title>rolling_pin.tools&#45;&gt;rolling_pin.repo_etl</title>
<path fill="none" stroke="#b6ecf3" d="M219.5749,-143.9243C263.4614,-133.6983 318.4657,-120.8818 363.8375,-110.3097"/>
<polygon fill="#b6ecf3" stroke="#b6ecf3" points="364.7164,-113.6988 373.6612,-108.0207 363.1278,-106.8814 364.7164,-113.6988"/>
</g>
<!-- rolling_pin.utils -->
<g id="node6" class="node">
<title>rolling_pin.utils</title>
<polygon fill="#343434" stroke="#343434" points="658.5,-180 501.5,-180 501.5,-144 658.5,-144 658.5,-180"/>
<text text-anchor="middle" x="580" y="-158.3" font-family="Courier,monospace" font-size="14.00" fill="#b6ecf3">rolling_pin.utils</text>
</g>
<!-- rolling_pin.utils&#45;&gt;rolling_pin.repo_etl -->
<g id="edge5" class="edge">
<title>rolling_pin.utils&#45;&gt;rolling_pin.repo_etl</title>
<path fill="none" stroke="#b6ecf3" d="M547.4479,-143.8314C530.7952,-134.5368 510.3415,-123.1208 492.5615,-113.1971"/>
<polygon fill="#b6ecf3" stroke="#b6ecf3" points="493.9795,-109.9803 483.5417,-108.1628 490.5679,-116.0927 493.9795,-109.9803"/>
</g>
<!-- rolling_pin -->
<g id="node7" class="node">
<title>rolling_pin</title>
<polygon fill="#343434" stroke="#343434" points="526.5,-252 419.5,-252 419.5,-216 526.5,-216 526.5,-252"/>
<text text-anchor="middle" x="473" y="-230.3" font-family="Courier,monospace" font-size="14.00" fill="#a0d17b">rolling_pin</text>
</g>
<!-- rolling_pin&#45;&gt;rolling_pin.blob_etl -->
<g id="edge6" class="edge">
<title>rolling_pin&#45;&gt;rolling_pin.blob_etl</title>
<path fill="none" stroke="#a0d17b" d="M419.0788,-224.5188C366.7209,-214.4884 291.7658,-197.6911 268,-180 246.7931,-164.2137 232.013,-137.6082 223.1557,-117.4077"/>
<polygon fill="#a0d17b" stroke="#a0d17b" points="226.3498,-115.9731 219.2812,-108.081 219.8855,-118.6586 226.3498,-115.9731"/>
</g>
<!-- rolling_pin&#45;&gt;rolling_pin.radon_etl -->
<g id="edge7" class="edge">
<title>rolling_pin&#45;&gt;rolling_pin.radon_etl</title>
<path fill="none" stroke="#a0d17b" d="M526.8402,-229.2851C616.0917,-220.9642 790.554,-202.4165 848,-180 900.7131,-159.4304 926.6269,-158.0623 953,-108 960.4574,-93.8442 963.2372,-84.2963 953,-72 929.1754,-43.3833 839.4706,-29.8747 765.5255,-23.532"/>
<polygon fill="#a0d17b" stroke="#a0d17b" points="765.4578,-20.0147 755.2047,-22.6837 764.8843,-26.9912 765.4578,-20.0147"/>
</g>
<!-- rolling_pin&#45;&gt;rolling_pin.repo_etl -->
<g id="edge8" class="edge">
<title>rolling_pin&#45;&gt;rolling_pin.repo_etl</title>
<path fill="none" stroke="#a0d17b" d="M470.2137,-215.7623C466.4613,-191.201 459.7461,-147.2474 455.3319,-118.3541"/>
<polygon fill="#a0d17b" stroke="#a0d17b" points="458.7339,-117.4463 453.7637,-108.0896 451.8142,-118.5035 458.7339,-117.4463"/>
</g>
<!-- rolling_pin&#45;&gt;rolling_pin.tools -->
<g id="edge9" class="edge">
<title>rolling_pin&#45;&gt;rolling_pin.tools</title>
<path fill="none" stroke="#a0d17b" d="M419.4513,-222.3519C368.4951,-211.2678 290.8839,-194.3856 230.6913,-181.2924"/>
<polygon fill="#a0d17b" stroke="#a0d17b" points="231.3235,-177.8481 220.8081,-179.1425 229.8356,-184.6882 231.3235,-177.8481"/>
</g>
<!-- rolling_pin&#45;&gt;rolling_pin.utils -->
<g id="edge10" class="edge">
<title>rolling_pin&#45;&gt;rolling_pin.utils</title>
<path fill="none" stroke="#a0d17b" d="M500.0006,-215.8314C513.4331,-206.7927 529.8473,-195.7476 544.3039,-186.0198"/>
<polygon fill="#a0d17b" stroke="#a0d17b" points="546.6654,-188.6494 553.008,-180.1628 542.7575,-182.8418 546.6654,-188.6494"/>
</g>
<!-- IPython.display -->
<g id="node8" class="node">
<title>IPython.display</title>
<polygon fill="#343434" stroke="#343434" points="212,-252 72,-252 72,-216 212,-216 212,-252"/>
<text text-anchor="middle" x="142" y="-230.3" font-family="Courier,monospace" font-size="14.00" fill="#de958e">IPython.display</text>
</g>
<!-- IPython.display&#45;&gt;rolling_pin.tools -->
<g id="edge11" class="edge">
<title>IPython.display&#45;&gt;rolling_pin.tools</title>
<path fill="none" stroke="#de958e" d="M142,-215.8314C142,-208.131 142,-198.9743 142,-190.4166"/>
<polygon fill="#de958e" stroke="#de958e" points="145.5001,-190.4132 142,-180.4133 138.5001,-190.4133 145.5001,-190.4132"/>
</g>
<!-- cufflinks -->
<g id="node9" class="node">
<title>cufflinks</title>
<polygon fill="#343434" stroke="#343434" points="651.5,-108 560.5,-108 560.5,-72 651.5,-72 651.5,-108"/>
<text text-anchor="middle" x="606" y="-86.3" font-family="Courier,monospace" font-size="14.00" fill="#de958e">cufflinks</text>
</g>
<!-- cufflinks&#45;&gt;rolling_pin.radon_etl -->
<g id="edge12" class="edge">
<title>cufflinks&#45;&gt;rolling_pin.radon_etl</title>
<path fill="none" stroke="#de958e" d="M619.6265,-71.8314C625.846,-63.5386 633.3322,-53.557 640.16,-44.4533"/>
<polygon fill="#de958e" stroke="#de958e" points="642.99,-46.5133 646.19,-36.4133 637.39,-42.3133 642.99,-46.5133"/>
</g>
<!-- networkx -->
<g id="node10" class="node">
<title>networkx</title>
<polygon fill="#343434" stroke="#343434" points="444.5,-180 361.5,-180 361.5,-144 444.5,-144 444.5,-180"/>
<text text-anchor="middle" x="403" y="-158.3" font-family="Courier,monospace" font-size="14.00" fill="#de958e">networkx</text>
</g>
<!-- networkx&#45;&gt;rolling_pin.blob_etl -->
<g id="edge13" class="edge">
<title>networkx&#45;&gt;rolling_pin.blob_etl</title>
<path fill="none" stroke="#de958e" d="M361.3037,-146.1993C334.6088,-136.0833 299.6114,-122.8212 270.3184,-111.7207"/>
<polygon fill="#de958e" stroke="#de958e" points="271.2146,-108.3174 260.6232,-108.0467 268.734,-114.8632 271.2146,-108.3174"/>
</g>
<!-- networkx&#45;&gt;rolling_pin.repo_etl -->
<g id="edge14" class="edge">
<title>networkx&#45;&gt;rolling_pin.repo_etl</title>
<path fill="none" stroke="#de958e" d="M415.1124,-143.8314C420.5281,-135.7079 427.0242,-125.9637 432.9921,-117.0118"/>
<polygon fill="#de958e" stroke="#de958e" points="436.0896,-118.6753 438.7245,-108.4133 430.2653,-114.7923 436.0896,-118.6753"/>
</g>
<!-- numpy -->
<g id="node11" class="node">
<title>numpy</title>
<polygon fill="#343434" stroke="#343434" points="839,-180 781,-180 781,-144 839,-144 839,-180"/>
<text text-anchor="middle" x="810" y="-158.3" font-family="Courier,monospace" font-size="14.00" fill="#de958e">numpy</text>
</g>
<!-- numpy&#45;&gt;rolling_pin.radon_etl -->
<g id="edge15" class="edge">
<title>numpy&#45;&gt;rolling_pin.radon_etl</title>
<path fill="none" stroke="#de958e" d="M839.0731,-158.668C869.1246,-153.5023 914.5794,-140.4852 936,-108 944.8079,-94.6425 946.1697,-84.3522 936,-72 914.2595,-45.5938 833.6433,-31.9168 765.1091,-24.9453"/>
<polygon fill="#de958e" stroke="#de958e" points="765.3872,-21.4558 755.0936,-23.9646 764.705,-28.4225 765.3872,-21.4558"/>
</g>
<!-- numpy&#45;&gt;rolling_pin.repo_etl -->
<g id="edge16" class="edge">
<title>numpy&#45;&gt;rolling_pin.repo_etl</title>
<path fill="none" stroke="#de958e" d="M780.9256,-156.1689C731.3814,-146.2325 628.4069,-125.5802 550.5985,-109.9752"/>
<polygon fill="#de958e" stroke="#de958e" points="551.2522,-106.5367 540.7592,-108.0018 549.8757,-113.4 551.2522,-106.5367"/>
</g>
<!-- pandas -->
<g id="node12" class="node">
<title>pandas</title>
<polygon fill="#343434" stroke="#343434" points="343,-180 277,-180 277,-144 343,-144 343,-180"/>
<text text-anchor="middle" x="310" y="-158.3" font-family="Courier,monospace" font-size="14.00" fill="#de958e">pandas</text>
</g>
<!-- pandas&#45;&gt;rolling_pin.blob_etl -->
<g id="edge17" class="edge">
<title>pandas&#45;&gt;rolling_pin.blob_etl</title>
<path fill="none" stroke="#de958e" d="M285.5228,-143.8314C273.4605,-134.8779 258.746,-123.9558 245.7314,-114.2955"/>
<polygon fill="#de958e" stroke="#de958e" points="247.5852,-111.3127 237.4694,-108.1628 243.413,-116.9335 247.5852,-111.3127"/>
</g>
<!-- pandas&#45;&gt;rolling_pin.radon_etl -->
<g id="edge18" class="edge">
<title>pandas&#45;&gt;rolling_pin.radon_etl</title>
<path fill="none" stroke="#de958e" d="M313.1139,-143.6618C317.654,-122.89 328.18,-89.644 351,-72 382.3362,-47.7715 477.8337,-33.6418 554.4566,-25.9571"/>
<polygon fill="#de958e" stroke="#de958e" points="555.0433,-29.4166 564.6556,-24.9607 554.3626,-22.4498 555.0433,-29.4166"/>
</g>
<!-- pandas&#45;&gt;rolling_pin.repo_etl -->
<g id="edge19" class="edge">
<title>pandas&#45;&gt;rolling_pin.repo_etl</title>
<path fill="none" stroke="#de958e" d="M343.0582,-145.1192C361.9754,-135.4593 385.9595,-123.2122 406.5127,-112.7169"/>
<polygon fill="#de958e" stroke="#de958e" points="408.3698,-115.6986 415.6841,-108.0336 405.1863,-109.4643 408.3698,-115.6986"/>
</g>
<!-- radon.cli -->
<g id="node13" class="node">
<title>radon.cli</title>
<polygon fill="#343434" stroke="#343434" points="760.5,-108 669.5,-108 669.5,-72 760.5,-72 760.5,-108"/>
<text text-anchor="middle" x="715" y="-86.3" font-family="Courier,monospace" font-size="14.00" fill="#de958e">radon.cli</text>
</g>
<!-- radon.cli&#45;&gt;rolling_pin.radon_etl -->
<g id="edge20" class="edge">
<title>radon.cli&#45;&gt;rolling_pin.radon_etl</title>
<path fill="none" stroke="#de958e" d="M701.1212,-71.8314C694.7864,-63.5386 687.1616,-53.557 680.2074,-44.4533"/>
<polygon fill="#de958e" stroke="#de958e" points="682.9175,-42.2353 674.0657,-36.4133 677.3548,-46.4847 682.9175,-42.2353"/>
</g>
<!-- radon.complexity -->
<g id="node14" class="node">
<title>radon.complexity</title>
<polygon fill="#343434" stroke="#343434" points="927.5,-108 778.5,-108 778.5,-72 927.5,-72 927.5,-108"/>
<text text-anchor="middle" x="853" y="-86.3" font-family="Courier,monospace" font-size="14.00" fill="#de958e">radon.complexity</text>
</g>
<!-- radon.complexity&#45;&gt;rolling_pin.radon_etl -->
<g id="edge21" class="edge">
<title>radon.complexity&#45;&gt;rolling_pin.radon_etl</title>
<path fill="none" stroke="#de958e" d="M804.298,-71.8314C778.0264,-62.0306 745.4317,-49.8709 717.8716,-39.5894"/>
<polygon fill="#de958e" stroke="#de958e" points="718.9445,-36.2541 708.3518,-36.038 716.4977,-42.8126 718.9445,-36.2541"/>
</g>
</g>
</svg>
