<?xml version="1.0" encoding="UTF-8" standalone="no"?>
<!DOCTYPE svg PUBLIC "-//W3C//DTD SVG 1.1//EN"
 "http://www.w3.org/Graphics/SVG/1.1/DTD/svg11.dtd">
<!-- Generated by graphviz version 2.43.0 (0)
 -->
<!-- Title: %3 Pages: 1 -->
<svg width="1134pt" height="1079pt"
 viewBox="0.00 0.00 1134.00 1079.50" xmlns="http://www.w3.org/2000/svg" xmlns:xlink="http://www.w3.org/1999/xlink">
<g id="graph0" class="graph" transform="scale(1 1) rotate(0) translate(4 1075.5)">
<title>%3</title>
<polygon fill="#242424" stroke="transparent" points="-4,4 -4,-1075.5 1130,-1075.5 1130,4 -4,4"/>
<!-- cli -->
<g id="node1" class="node">
<title>cli</title>
<polygon fill="#343434" stroke="#343434" points="122,-176.5 68,-176.5 68,-140.5 122,-140.5 122,-176.5"/>
<text text-anchor="middle" x="95" y="-154.8" font-family="Courier,monospace" font-size="14.00" fill="#b6ecf3">cli</text>
</g>
<!-- rolling_pin\.blob_etl -->
<g id="node2" class="node">
<title>rolling_pin\.blob_etl</title>
<polygon fill="#343434" stroke="#343434" points="675,-455.5 493,-455.5 493,-419.5 675,-419.5 675,-455.5"/>
<text text-anchor="middle" x="584" y="-433.8" font-family="Courier,monospace" font-size="14.00" fill="#b6ecf3">rolling_pin.blob_etl</text>
</g>
<!-- rolling_pin\.conform_etl -->
<g id="node5" class="node">
<title>rolling_pin\.conform_etl</title>
<polygon fill="#343434" stroke="#343434" points="917,-677.5 711,-677.5 711,-641.5 917,-641.5 917,-677.5"/>
<text text-anchor="middle" x="814" y="-655.8" font-family="Courier,monospace" font-size="14.00" fill="#b6ecf3">rolling_pin.conform_etl</text>
</g>
<!-- rolling_pin\.blob_etl&#45;&gt;rolling_pin\.conform_etl -->
<g id="edge1" class="edge">
<title>rolling_pin\.blob_etl&#45;&gt;rolling_pin\.conform_etl</title>
<path fill="none" stroke="#b6ecf3" d="M660.05,-455.67C665.31,-458.24 670.36,-461.16 675,-464.5 736.86,-508.96 781,-590.01 801,-632.25"/>
<polygon fill="#b6ecf3" stroke="#b6ecf3" points="797.85,-633.78 805.23,-641.38 804.2,-630.84 797.85,-633.78"/>
</g>
<!-- rolling_pin\.radon_etl -->
<g id="node6" class="node">
<title>rolling_pin\.radon_etl</title>
<polygon fill="#343434" stroke="#343434" points="909,-240.5 719,-240.5 719,-204.5 909,-204.5 909,-240.5"/>
<text text-anchor="middle" x="814" y="-218.8" font-family="Courier,monospace" font-size="14.00" fill="#b6ecf3">rolling_pin.radon_etl</text>
</g>
<!-- rolling_pin\.blob_etl&#45;&gt;rolling_pin\.radon_etl -->
<g id="edge2" class="edge">
<title>rolling_pin\.blob_etl&#45;&gt;rolling_pin\.radon_etl</title>
<path fill="none" stroke="#b6ecf3" d="M613.27,-419.24C631.58,-406.91 655.55,-389.77 675,-372.5 719.93,-332.59 765.98,-279.62 791.89,-248.48"/>
<polygon fill="#b6ecf3" stroke="#b6ecf3" points="794.66,-250.61 798.34,-240.68 789.27,-246.15 794.66,-250.61"/>
</g>
<!-- rolling_pin\.toml_etl -->
<g id="node8" class="node">
<title>rolling_pin\.toml_etl</title>
<polygon fill="#343434" stroke="#343434" points="905,-480.5 723,-480.5 723,-444.5 905,-444.5 905,-480.5"/>
<text text-anchor="middle" x="814" y="-458.8" font-family="Courier,monospace" font-size="14.00" fill="#b6ecf3">rolling_pin.toml_etl</text>
</g>
<!-- rolling_pin\.blob_etl&#45;&gt;rolling_pin\.toml_etl -->
<g id="edge3" class="edge">
<title>rolling_pin\.blob_etl&#45;&gt;rolling_pin\.toml_etl</title>
<path fill="none" stroke="#b6ecf3" d="M675.11,-447.38C687.49,-448.73 700.26,-450.13 712.8,-451.51"/>
<polygon fill="#b6ecf3" stroke="#b6ecf3" points="712.47,-454.99 722.8,-452.6 713.24,-448.04 712.47,-454.99"/>
</g>
<!-- rolling_pin\.command -->
<g id="node3" class="node">
<title>rolling_pin\.command</title>
<polygon fill="#343434" stroke="#343434" points="1126,-528.5 953,-528.5 953,-492.5 1126,-492.5 1126,-528.5"/>
<text text-anchor="middle" x="1039.5" y="-506.8" font-family="Courier,monospace" font-size="14.00" fill="#b6ecf3">rolling_pin.command</text>
</g>
<!-- rolling_pin\.conform_config -->
<g id="node4" class="node">
<title>rolling_pin\.conform_config</title>
<polygon fill="#343434" stroke="#343434" points="457,-1017.5 226,-1017.5 226,-981.5 457,-981.5 457,-1017.5"/>
<text text-anchor="middle" x="341.5" y="-995.8" font-family="Courier,monospace" font-size="14.00" fill="#b6ecf3">rolling_pin.conform_config</text>
</g>
<!-- rolling_pin\.conform_config&#45;&gt;rolling_pin\.conform_etl -->
<g id="edge4" class="edge">
<title>rolling_pin\.conform_config&#45;&gt;rolling_pin\.conform_etl</title>
<path fill="none" stroke="#b6ecf3" d="M457.3,-983.14C526.29,-968.55 612.53,-941.41 675,-891.5 744.39,-836.05 786.67,-735.55 803.95,-687.09"/>
<polygon fill="#b6ecf3" stroke="#b6ecf3" points="807.28,-688.17 807.26,-677.57 800.67,-685.87 807.28,-688.17"/>
</g>
<!-- rolling_pin\.conform_etl&#45;&gt;rolling_pin\.command -->
<g id="edge5" class="edge">
<title>rolling_pin\.conform_etl&#45;&gt;rolling_pin\.command</title>
<path fill="none" stroke="#b6ecf3" d="M842.41,-641.23C882.73,-614.34 958.08,-564.11 1002.72,-534.35"/>
<polygon fill="#b6ecf3" stroke="#b6ecf3" points="1004.84,-537.14 1011.22,-528.68 1000.96,-531.32 1004.84,-537.14"/>
</g>
<!-- rolling_pin\.radon_etl&#45;&gt;rolling_pin\.command -->
<g id="edge6" class="edge">
<title>rolling_pin\.radon_etl&#45;&gt;rolling_pin\.command</title>
<path fill="none" stroke="#b6ecf3" d="M828.98,-240.51C867.16,-289.71 973.32,-426.5 1018.13,-484.24"/>
<polygon fill="#b6ecf3" stroke="#b6ecf3" points="1015.63,-486.73 1024.52,-492.49 1021.16,-482.44 1015.63,-486.73"/>
</g>
<!-- rolling_pin\.repo_etl -->
<g id="node7" class="node">
<title>rolling_pin\.repo_etl</title>
<polygon fill="#343434" stroke="#343434" points="675,-601.5 493,-601.5 493,-565.5 675,-565.5 675,-601.5"/>
<text text-anchor="middle" x="584" y="-579.8" font-family="Courier,monospace" font-size="14.00" fill="#b6ecf3">rolling_pin.repo_etl</text>
</g>
<!-- rolling_pin\.repo_etl&#45;&gt;rolling_pin\.command -->
<g id="edge7" class="edge">
<title>rolling_pin\.repo_etl&#45;&gt;rolling_pin\.command</title>
<path fill="none" stroke="#b6ecf3" d="M675.14,-568.99C752.55,-556.52 863.83,-538.61 942.8,-525.9"/>
<polygon fill="#b6ecf3" stroke="#b6ecf3" points="943.44,-529.34 952.76,-524.3 942.33,-522.43 943.44,-529.34"/>
</g>
<!-- rolling_pin\.toml_etl&#45;&gt;rolling_pin\.command -->
<g id="edge8" class="edge">
<title>rolling_pin\.toml_etl&#45;&gt;rolling_pin\.command</title>
<path fill="none" stroke="#b6ecf3" d="M898.86,-480.51C913.8,-483.71 929.44,-487.07 944.64,-490.34"/>
<polygon fill="#b6ecf3" stroke="#b6ecf3" points="944.03,-493.79 954.54,-492.46 945.5,-486.94 944.03,-493.79"/>
</g>
<!-- rolling_pin\.tools -->
<g id="node9" class="node">
<title>rolling_pin\.tools</title>
<polygon fill="#343434" stroke="#343434" points="420,-352.5 263,-352.5 263,-316.5 420,-316.5 420,-352.5"/>
<text text-anchor="middle" x="341.5" y="-330.8" font-family="Courier,monospace" font-size="14.00" fill="#b6ecf3">rolling_pin.tools</text>
</g>
<!-- rolling_pin\.tools&#45;&gt;rolling_pin\.blob_etl -->
<g id="edge9" class="edge">
<title>rolling_pin\.tools&#45;&gt;rolling_pin\.blob_etl</title>
<path fill="none" stroke="#b6ecf3" d="M420.09,-349.86C432.94,-354.16 445.73,-359.6 457,-366.5 477.12,-378.8 473.31,-392.5 493,-405.5 498.36,-409.03 504.15,-412.23 510.13,-415.12"/>
<polygon fill="#b6ecf3" stroke="#b6ecf3" points="509.09,-418.48 519.64,-419.39 511.96,-412.1 509.09,-418.48"/>
</g>
<!-- rolling_pin\.tools&#45;&gt;rolling_pin\.conform_etl -->
<g id="edge10" class="edge">
<title>rolling_pin\.tools&#45;&gt;rolling_pin\.conform_etl</title>
<path fill="none" stroke="#b6ecf3" d="M392.06,-352.56C414.74,-363.1 440.23,-378.51 457,-399.5 491.49,-442.66 452.25,-481.18 493,-518.5 553.94,-574.3 599.67,-522.54 675,-556.5 717.98,-575.87 760.37,-610.46 786.59,-634.16"/>
<polygon fill="#b6ecf3" stroke="#b6ecf3" points="784.46,-636.96 794.19,-641.14 789.19,-631.8 784.46,-636.96"/>
</g>
<!-- rolling_pin\.tools&#45;&gt;rolling_pin\.radon_etl -->
<g id="edge11" class="edge">
<title>rolling_pin\.tools&#45;&gt;rolling_pin\.radon_etl</title>
<path fill="none" stroke="#b6ecf3" d="M346.08,-316.28C357.18,-265.32 396.29,-121.31 493,-64.5 562.74,-23.52 610.67,-15.46 675,-64.5 723.02,-101.1 668.1,-153 711,-195.5 711.95,-196.44 712.93,-197.35 713.94,-198.23"/>
<polygon fill="#b6ecf3" stroke="#b6ecf3" points="712.04,-201.18 722.14,-204.39 716.25,-195.58 712.04,-201.18"/>
</g>
<!-- rolling_pin\.tools&#45;&gt;rolling_pin\.repo_etl -->
<g id="edge12" class="edge">
<title>rolling_pin\.tools&#45;&gt;rolling_pin\.repo_etl</title>
<path fill="none" stroke="#b6ecf3" d="M393.5,-352.52C416.09,-362.95 441.09,-378.28 457,-399.5 498.66,-455.03 446.66,-499.8 493,-551.5 495.72,-554.53 498.76,-557.28 502.01,-559.77"/>
<polygon fill="#b6ecf3" stroke="#b6ecf3" points="500.25,-562.81 510.52,-565.44 504.13,-556.98 500.25,-562.81"/>
</g>
<!-- IPython\.display -->
<g id="node10" class="node">
<title>IPython\.display</title>
<polygon fill="#343434" stroke="#343434" points="165,-477.5 25,-477.5 25,-441.5 165,-441.5 165,-477.5"/>
<text text-anchor="middle" x="95" y="-455.8" font-family="Courier,monospace" font-size="14.00" fill="#de958e">IPython.display</text>
</g>
<!-- IPython\.display&#45;&gt;rolling_pin\.blob_etl -->
<g id="edge13" class="edge">
<title>IPython\.display&#45;&gt;rolling_pin\.blob_etl</title>
<path fill="none" stroke="#de958e" d="M104.82,-441.24C122.37,-407.31 165.29,-335.46 226,-307.5 319.25,-264.54 372.81,-248.73 457,-307.5 495.05,-334.05 460.02,-372.86 493,-405.5 496.2,-408.66 499.74,-411.52 503.5,-414.1"/>
<polygon fill="#de958e" stroke="#de958e" points="501.7,-417.1 512.06,-419.3 505.33,-411.11 501.7,-417.1"/>
</g>
<!-- IPython\.display&#45;&gt;rolling_pin\.conform_etl -->
<g id="edge14" class="edge">
<title>IPython\.display&#45;&gt;rolling_pin\.conform_etl</title>
<path fill="none" stroke="#de958e" d="M100.46,-477.81C112.23,-521.57 148.65,-631.77 226,-675.5 395.5,-771.31 638.8,-715.26 751.45,-680.61"/>
<polygon fill="#de958e" stroke="#de958e" points="752.78,-683.86 761.28,-677.53 750.7,-677.17 752.78,-683.86"/>
</g>
<!-- IPython\.display&#45;&gt;rolling_pin\.repo_etl -->
<g id="edge15" class="edge">
<title>IPython\.display&#45;&gt;rolling_pin\.repo_etl</title>
<path fill="none" stroke="#de958e" d="M118.36,-477.75C143.08,-496.84 184.86,-526.01 226,-540.5 309.37,-569.85 409.73,-579.89 482.78,-583"/>
<polygon fill="#de958e" stroke="#de958e" points="482.77,-586.5 492.9,-583.39 483.04,-579.5 482.77,-586.5"/>
</g>
<!-- IPython\.display&#45;&gt;rolling_pin\.tools -->
<g id="edge16" class="edge">
<title>IPython\.display&#45;&gt;rolling_pin\.tools</title>
<path fill="none" stroke="#de958e" d="M116.62,-441.22C141.11,-420.39 183.96,-386.64 226,-366.5 234.57,-362.39 243.75,-358.73 253.06,-355.48"/>
<polygon fill="#de958e" stroke="#de958e" points="254.39,-358.73 262.78,-352.25 252.18,-352.08 254.39,-358.73"/>
</g>
<!-- rolling_pin -->
<g id="node11" class="node">
<title>rolling_pin</title>
<polygon fill="#343434" stroke="#343434" points="148.5,-769.5 41.5,-769.5 41.5,-733.5 148.5,-733.5 148.5,-769.5"/>
<text text-anchor="middle" x="95" y="-747.8" font-family="Courier,monospace" font-size="14.00" fill="#a0d17b">rolling_pin</text>
</g>
<!-- rolling_pin&#45;&gt;rolling_pin\.blob_etl -->
<g id="edge17" class="edge">
<title>rolling_pin&#45;&gt;rolling_pin\.blob_etl</title>
<path fill="none" stroke="#a0d17b" d="M102.38,-733.36C127.51,-662.06 218.63,-404.63 226,-399.5 310.24,-340.81 355.43,-384.51 457,-399.5 479.84,-402.86 504.27,-409.49 525.49,-416.28"/>
<polygon fill="#a0d17b" stroke="#a0d17b" points="524.4,-419.61 534.99,-419.4 526.58,-412.96 524.4,-419.61"/>
</g>
<!-- rolling_pin&#45;&gt;rolling_pin\.command -->
<g id="edge18" class="edge">
<title>rolling_pin&#45;&gt;rolling_pin\.command</title>
<path fill="none" stroke="#a0d17b" d="M110.51,-769.59C132.4,-795.36 176.6,-841.7 226,-861.5 411.36,-935.76 486.36,-942.97 675,-877.5 851.71,-816.16 981.77,-611.14 1023.89,-537.3"/>
<polygon fill="#a0d17b" stroke="#a0d17b" points="1026.95,-538.99 1028.81,-528.56 1020.85,-535.56 1026.95,-538.99"/>
</g>
<!-- rolling_pin&#45;&gt;rolling_pin\.conform_config -->
<g id="edge19" class="edge">
<title>rolling_pin&#45;&gt;rolling_pin\.conform_config</title>
<path fill="none" stroke="#a0d17b" d="M105.89,-769.62C133.03,-819.09 207.85,-953.67 226,-967.5 230.68,-971.06 235.74,-974.23 241.03,-977.04"/>
<polygon fill="#a0d17b" stroke="#a0d17b" points="239.61,-980.24 250.14,-981.45 242.67,-973.94 239.61,-980.24"/>
</g>
<!-- rolling_pin&#45;&gt;rolling_pin\.conform_etl -->
<g id="edge20" class="edge">
<title>rolling_pin&#45;&gt;rolling_pin\.conform_etl</title>
<path fill="none" stroke="#a0d17b" d="M128.16,-769.63C219.3,-818.41 484.95,-942.44 675,-846.5 741.66,-812.84 784.07,-730.1 802.44,-686.85"/>
<polygon fill="#a0d17b" stroke="#a0d17b" points="805.72,-688.08 806.3,-677.5 799.25,-685.41 805.72,-688.08"/>
</g>
<!-- rolling_pin&#45;&gt;rolling_pin\.radon_etl -->
<g id="edge21" class="edge">
<title>rolling_pin&#45;&gt;rolling_pin\.radon_etl</title>
<path fill="none" stroke="#a0d17b" d="M148.66,-746.09C277.56,-731.74 603.6,-688.38 675,-610.5 728.66,-551.96 685.66,-510.75 711,-435.5 734.5,-365.71 775.23,-289 797.45,-249.44"/>
<polygon fill="#a0d17b" stroke="#a0d17b" points="800.53,-251.09 802.42,-240.66 794.44,-247.64 800.53,-251.09"/>
</g>
<!-- rolling_pin&#45;&gt;rolling_pin\.repo_etl -->
<g id="edge22" class="edge">
<title>rolling_pin&#45;&gt;rolling_pin\.repo_etl</title>
<path fill="none" stroke="#a0d17b" d="M107.83,-733.39C128.08,-704.12 172.43,-647.09 226,-621.5 306.3,-583.13 408.08,-575.74 482.41,-576.71"/>
<polygon fill="#a0d17b" stroke="#a0d17b" points="482.64,-580.21 492.7,-576.9 482.77,-573.21 482.64,-580.21"/>
</g>
<!-- rolling_pin&#45;&gt;rolling_pin\.toml_etl -->
<g id="edge23" class="edge">
<title>rolling_pin&#45;&gt;rolling_pin\.toml_etl</title>
<path fill="none" stroke="#a0d17b" d="M148.78,-756.26C275.68,-766.59 593.46,-785.43 675,-723.5 709.64,-697.19 691.75,-671.5 711,-632.5 736.9,-580.02 773.39,-522.27 794.98,-489.39"/>
<polygon fill="#a0d17b" stroke="#a0d17b" points="798.06,-491.07 800.65,-480.8 792.22,-487.22 798.06,-491.07"/>
</g>
<!-- rolling_pin&#45;&gt;rolling_pin\.tools -->
<g id="edge24" class="edge">
<title>rolling_pin&#45;&gt;rolling_pin\.tools</title>
<path fill="none" stroke="#a0d17b" d="M102.81,-733.29C118.74,-690.48 159.42,-579.98 190,-486.5 207.31,-433.57 186.26,-405.49 226,-366.5 233.78,-358.86 243.23,-353.01 253.32,-348.54"/>
<polygon fill="#a0d17b" stroke="#a0d17b" points="254.73,-351.74 262.74,-344.81 252.16,-345.24 254.73,-351.74"/>
</g>
<!-- lunchbox\.tools -->
<g id="node12" class="node">
<title>lunchbox\.tools</title>
<polygon fill="#343434" stroke="#343434" points="407.5,-666.5 275.5,-666.5 275.5,-630.5 407.5,-630.5 407.5,-666.5"/>
<text text-anchor="middle" x="341.5" y="-644.8" font-family="Courier,monospace" font-size="14.00" fill="#de958e">lunchbox.tools</text>
</g>
<!-- lunchbox\.tools&#45;&gt;rolling_pin\.blob_etl -->
<g id="edge25" class="edge">
<title>lunchbox\.tools&#45;&gt;rolling_pin\.blob_etl</title>
<path fill="none" stroke="#de958e" d="M357.23,-630.35C394.68,-584.22 490.79,-465.97 493,-464.5 495.28,-462.98 497.64,-461.54 500.07,-460.19"/>
<polygon fill="#de958e" stroke="#de958e" points="501.77,-463.25 509.12,-455.61 498.62,-457 501.77,-463.25"/>
</g>
<!-- lunchbox\.tools&#45;&gt;rolling_pin\.conform_etl -->
<g id="edge26" class="edge">
<title>lunchbox\.tools&#45;&gt;rolling_pin\.conform_etl</title>
<path fill="none" stroke="#de958e" d="M351.45,-666.55C371.07,-703.75 421.82,-788.2 493,-820.5 566.66,-853.92 601.51,-854.3 675,-820.5 734.97,-792.91 778.63,-724.99 799.41,-686.76"/>
<polygon fill="#de958e" stroke="#de958e" points="802.61,-688.2 804.2,-677.73 796.42,-684.92 802.61,-688.2"/>
</g>
<!-- lunchbox\.tools&#45;&gt;rolling_pin\.repo_etl -->
<g id="edge27" class="edge">
<title>lunchbox\.tools&#45;&gt;rolling_pin\.repo_etl</title>
<path fill="none" stroke="#de958e" d="M407.58,-630.91C438.09,-622.66 474.65,-612.78 506.48,-604.18"/>
<polygon fill="#de958e" stroke="#de958e" points="507.45,-607.54 516.19,-601.55 505.62,-600.78 507.45,-607.54"/>
</g>
<!-- click -->
<g id="node13" class="node">
<title>click</title>
<polygon fill="#343434" stroke="#343434" points="843,-186.5 785,-186.5 785,-150.5 843,-150.5 843,-186.5"/>
<text text-anchor="middle" x="814" y="-164.8" font-family="Courier,monospace" font-size="14.00" fill="#de958e">click</text>
</g>
<!-- click&#45;&gt;rolling_pin\.command -->
<g id="edge28" class="edge">
<title>click&#45;&gt;rolling_pin\.command</title>
<path fill="none" stroke="#de958e" d="M843.36,-169.2C865.87,-171.2 896.81,-177.4 917,-195.5 1003.88,-273.36 1029.11,-420.58 1036.04,-482.22"/>
<polygon fill="#de958e" stroke="#de958e" points="1032.58,-482.79 1037.09,-492.37 1039.54,-482.06 1032.58,-482.79"/>
</g>
<!-- pandas -->
<g id="node14" class="node">
<title>pandas</title>
<polygon fill="#343434" stroke="#343434" points="128,-230.5 62,-230.5 62,-194.5 128,-194.5 128,-230.5"/>
<text text-anchor="middle" x="95" y="-208.8" font-family="Courier,monospace" font-size="14.00" fill="#de958e">pandas</text>
</g>
<!-- pandas&#45;&gt;rolling_pin\.blob_etl -->
<g id="edge29" class="edge">
<title>pandas&#45;&gt;rolling_pin\.blob_etl</title>
<path fill="none" stroke="#de958e" d="M128.02,-208.92C206.99,-200.83 408.18,-184.91 457,-226.5 518.78,-279.12 439.87,-344.16 493,-405.5 495.54,-408.43 498.36,-411.09 501.4,-413.51"/>
<polygon fill="#de958e" stroke="#de958e" points="499.67,-416.56 509.89,-419.35 503.64,-410.8 499.67,-416.56"/>
</g>
<!-- pandas&#45;&gt;rolling_pin\.conform_etl -->
<g id="edge30" class="edge">
<title>pandas&#45;&gt;rolling_pin\.conform_etl</title>
<path fill="none" stroke="#de958e" d="M128.21,-205.72C207.14,-189.93 407.38,-154.95 457,-195.5 519.16,-246.29 436.38,-315.58 493,-372.5 551.28,-431.08 610.46,-358.89 675,-410.5 705.13,-434.59 693.05,-455.34 711,-489.5 738.23,-541.29 774.28,-599.27 795.42,-632.37"/>
<polygon fill="#de958e" stroke="#de958e" points="792.63,-634.5 800.97,-641.03 798.52,-630.72 792.63,-634.5"/>
</g>
<!-- pandas&#45;&gt;rolling_pin\.radon_etl -->
<g id="edge31" class="edge">
<title>pandas&#45;&gt;rolling_pin\.radon_etl</title>
<path fill="none" stroke="#de958e" d="M128.28,-205.99C146.87,-201.57 170.37,-194.82 190,-185.5 207.6,-177.14 209.24,-170.42 226,-160.5 340.08,-92.95 363.95,-57.86 493,-27.5 571.74,-8.97 612.1,23.36 675,-27.5 734.38,-75.5 658.31,-140.23 711,-195.5 711.79,-196.32 712.6,-197.13 713.44,-197.91"/>
<polygon fill="#de958e" stroke="#de958e" points="711.45,-200.8 721.45,-204.31 715.82,-195.34 711.45,-200.8"/>
</g>
<!-- pandas&#45;&gt;rolling_pin\.repo_etl -->
<g id="edge32" class="edge">
<title>pandas&#45;&gt;rolling_pin\.repo_etl</title>
<path fill="none" stroke="#de958e" d="M128.21,-225.06C149.25,-234.98 175.42,-250.95 190,-273.5 247.13,-361.86 151.2,-433.49 226,-507.5 262.86,-543.96 406.58,-528.4 457,-540.5 470.16,-543.65 497.65,-552.92 523.61,-562.05"/>
<polygon fill="#de958e" stroke="#de958e" points="522.47,-565.36 533.07,-565.39 524.81,-558.76 522.47,-565.36"/>
</g>
<!-- pandas&#45;&gt;rolling_pin\.tools -->
<g id="edge33" class="edge">
<title>pandas&#45;&gt;rolling_pin\.tools</title>
<path fill="none" stroke="#de958e" d="M128.22,-228.57C170.97,-249.91 246.71,-287.7 295.21,-311.9"/>
<polygon fill="#de958e" stroke="#de958e" points="293.72,-315.06 304.23,-316.4 296.85,-308.8 293.72,-315.06"/>
</g>
<!-- networkx -->
<g id="node15" class="node">
<title>networkx</title>
<polygon fill="#343434" stroke="#343434" points="383,-498.5 300,-498.5 300,-462.5 383,-462.5 383,-498.5"/>
<text text-anchor="middle" x="341.5" y="-476.8" font-family="Courier,monospace" font-size="14.00" fill="#de958e">networkx</text>
</g>
<!-- networkx&#45;&gt;rolling_pin\.blob_etl -->
<g id="edge34" class="edge">
<title>networkx&#45;&gt;rolling_pin\.blob_etl</title>
<path fill="none" stroke="#de958e" d="M383.03,-473.25C410.32,-468.37 447.58,-461.71 482.55,-455.46"/>
<polygon fill="#de958e" stroke="#de958e" points="483.6,-458.82 492.83,-453.62 482.37,-451.93 483.6,-458.82"/>
</g>
<!-- networkx&#45;&gt;rolling_pin\.repo_etl -->
<g id="edge35" class="edge">
<title>networkx&#45;&gt;rolling_pin\.repo_etl</title>
<path fill="none" stroke="#de958e" d="M383.12,-486.21C406.06,-490.77 434.55,-498.76 457,-512.5 477.12,-524.8 473.31,-538.5 493,-551.5 498.36,-555.03 504.15,-558.23 510.13,-561.12"/>
<polygon fill="#de958e" stroke="#de958e" points="509.09,-564.48 519.64,-565.39 511.96,-558.1 509.09,-564.48"/>
</g>
<!-- pydot -->
<g id="node16" class="node">
<title>pydot</title>
<polygon fill="#343434" stroke="#343434" points="124,-318.5 66,-318.5 66,-282.5 124,-282.5 124,-318.5"/>
<text text-anchor="middle" x="95" y="-296.8" font-family="Courier,monospace" font-size="14.00" fill="#de958e">pydot</text>
</g>
<!-- pydot&#45;&gt;rolling_pin\.blob_etl -->
<g id="edge36" class="edge">
<title>pydot&#45;&gt;rolling_pin\.blob_etl</title>
<path fill="none" stroke="#de958e" d="M124.48,-285.84C190.65,-254.08 356.73,-187.75 457,-265.5 507.77,-304.86 449.66,-358.07 493,-405.5 495.75,-408.51 498.81,-411.24 502.08,-413.71"/>
<polygon fill="#de958e" stroke="#de958e" points="500.35,-416.76 510.62,-419.34 504.2,-410.91 500.35,-416.76"/>
</g>
<!-- pydot&#45;&gt;rolling_pin\.tools -->
<g id="edge37" class="edge">
<title>pydot&#45;&gt;rolling_pin\.tools</title>
<path fill="none" stroke="#de958e" d="M124.05,-304.4C155.3,-308.74 207.39,-315.99 252.64,-322.28"/>
<polygon fill="#de958e" stroke="#de958e" points="252.39,-325.78 262.78,-323.69 253.36,-318.84 252.39,-325.78"/>
</g>
<!-- numpy -->
<g id="node17" class="node">
<title>numpy</title>
<polygon fill="#343434" stroke="#343434" points="370.5,-444.5 312.5,-444.5 312.5,-408.5 370.5,-408.5 370.5,-444.5"/>
<text text-anchor="middle" x="341.5" y="-422.8" font-family="Courier,monospace" font-size="14.00" fill="#de958e">numpy</text>
</g>
<!-- numpy&#45;&gt;rolling_pin\.radon_etl -->
<g id="edge38" class="edge">
<title>numpy&#45;&gt;rolling_pin\.radon_etl</title>
<path fill="none" stroke="#de958e" d="M370.69,-416.92C396.43,-406.85 433.89,-388.66 457,-361.5 486.8,-326.47 457.04,-293.16 493,-264.5 525.56,-238.54 628.2,-228.56 708.55,-224.76"/>
<polygon fill="#de958e" stroke="#de958e" points="708.9,-228.25 718.73,-224.31 708.58,-221.26 708.9,-228.25"/>
</g>
<!-- numpy&#45;&gt;rolling_pin\.repo_etl -->
<g id="edge39" class="edge">
<title>numpy&#45;&gt;rolling_pin\.repo_etl</title>
<path fill="none" stroke="#de958e" d="M370.84,-425.98C396.33,-427.03 433.31,-432.5 457,-453.5 491.73,-484.27 460.02,-518.86 493,-551.5 496.2,-554.66 499.74,-557.52 503.5,-560.1"/>
<polygon fill="#de958e" stroke="#de958e" points="501.7,-563.1 512.06,-565.3 505.33,-557.11 501.7,-563.1"/>
</g>
<!-- lunchbox\.enforce -->
<g id="node18" class="node">
<title>lunchbox\.enforce</title>
<polygon fill="#343434" stroke="#343434" points="658.5,-509.5 509.5,-509.5 509.5,-473.5 658.5,-473.5 658.5,-509.5"/>
<text text-anchor="middle" x="584" y="-487.8" font-family="Courier,monospace" font-size="14.00" fill="#de958e">lunchbox.enforce</text>
</g>
<!-- lunchbox\.enforce&#45;&gt;rolling_pin\.conform_etl -->
<g id="edge40" class="edge">
<title>lunchbox\.enforce&#45;&gt;rolling_pin\.conform_etl</title>
<path fill="none" stroke="#de958e" d="M647.19,-509.56C656.83,-513.49 666.43,-518.12 675,-523.5 722.94,-553.54 767.45,-602.81 792.35,-633.07"/>
<polygon fill="#de958e" stroke="#de958e" points="789.82,-635.51 798.84,-641.07 795.26,-631.1 789.82,-635.51"/>
</g>
<!-- lunchbox\.enforce&#45;&gt;rolling_pin\.toml_etl -->
<g id="edge41" class="edge">
<title>lunchbox\.enforce&#45;&gt;rolling_pin\.toml_etl</title>
<path fill="none" stroke="#de958e" d="M658.71,-482.12C675.94,-479.93 694.59,-477.56 712.76,-475.25"/>
<polygon fill="#de958e" stroke="#de958e" points="713.32,-478.7 722.8,-473.97 712.43,-471.76 713.32,-478.7"/>
</g>
<!-- plotly\.express -->
<g id="node19" class="node">
<title>plotly\.express</title>
<polygon fill="#343434" stroke="#343434" points="650,-217.5 518,-217.5 518,-181.5 650,-181.5 650,-217.5"/>
<text text-anchor="middle" x="584" y="-195.8" font-family="Courier,monospace" font-size="14.00" fill="#de958e">plotly.express</text>
</g>
<!-- plotly\.express&#45;&gt;rolling_pin\.radon_etl -->
<g id="edge42" class="edge">
<title>plotly\.express&#45;&gt;rolling_pin\.radon_etl</title>
<path fill="none" stroke="#de958e" d="M650.03,-206.06C668.38,-207.91 688.83,-209.97 708.86,-211.99"/>
<polygon fill="#de958e" stroke="#de958e" points="708.67,-215.49 718.97,-213.01 709.37,-208.52 708.67,-215.49"/>
</g>
<!-- radon\.cli -->
<g id="node20" class="node">
<title>radon\.cli</title>
<polygon fill="#343434" stroke="#343434" points="629.5,-163.5 538.5,-163.5 538.5,-127.5 629.5,-127.5 629.5,-163.5"/>
<text text-anchor="middle" x="584" y="-141.8" font-family="Courier,monospace" font-size="14.00" fill="#de958e">radon.cli</text>
</g>
<!-- radon\.cli&#45;&gt;rolling_pin\.radon_etl -->
<g id="edge43" class="edge">
<title>radon\.cli&#45;&gt;rolling_pin\.radon_etl</title>
<path fill="none" stroke="#de958e" d="M629.84,-156.3C644.55,-160.54 660.77,-165.97 675,-172.5 692.26,-180.41 693.61,-187.86 711,-195.5 715.6,-197.51 720.38,-199.41 725.26,-201.19"/>
<polygon fill="#de958e" stroke="#de958e" points="724.14,-204.5 734.73,-204.46 726.42,-197.88 724.14,-204.5"/>
</g>
<!-- radon\.complexity -->
<g id="node21" class="node">
<title>radon\.complexity</title>
<polygon fill="#343434" stroke="#343434" points="658.5,-109.5 509.5,-109.5 509.5,-73.5 658.5,-73.5 658.5,-109.5"/>
<text text-anchor="middle" x="584" y="-87.8" font-family="Courier,monospace" font-size="14.00" fill="#de958e">radon.complexity</text>
</g>
<!-- radon\.complexity&#45;&gt;rolling_pin\.radon_etl -->
<g id="edge44" class="edge">
<title>radon\.complexity&#45;&gt;rolling_pin\.radon_etl</title>
<path fill="none" stroke="#de958e" d="M658.55,-107.61C664.47,-110.64 670.06,-114.23 675,-118.5 703.59,-143.19 682.01,-171.27 711,-195.5 712.53,-196.77 714.11,-197.99 715.74,-199.15"/>
<polygon fill="#de958e" stroke="#de958e" points="713.92,-202.14 724.25,-204.49 717.64,-196.21 713.92,-202.14"/>
</g>
<!-- schematics -->
<g id="node22" class="node">
<title>schematics</title>
<polygon fill="#343434" stroke="#343434" points="144.5,-1017.5 45.5,-1017.5 45.5,-981.5 144.5,-981.5 144.5,-1017.5"/>
<text text-anchor="middle" x="95" y="-995.8" font-family="Courier,monospace" font-size="14.00" fill="#de958e">schematics</text>
</g>
<!-- schematics&#45;&gt;rolling_pin\.conform_config -->
<g id="edge45" class="edge">
<title>schematics&#45;&gt;rolling_pin\.conform_config</title>
<path fill="none" stroke="#de958e" d="M144.6,-999.5C165.31,-999.5 190.53,-999.5 215.88,-999.5"/>
<polygon fill="#de958e" stroke="#de958e" points="215.97,-1003 225.97,-999.5 215.97,-996 215.97,-1003"/>
</g>
<!-- schematics\.exceptions -->
<g id="node23" class="node">
<title>schematics\.exceptions</title>
<polygon fill="#343434" stroke="#343434" points="190,-963.5 0,-963.5 0,-927.5 190,-927.5 190,-963.5"/>
<text text-anchor="middle" x="95" y="-941.8" font-family="Courier,monospace" font-size="14.00" fill="#de958e">schematics.exceptions</text>
</g>
<!-- schematics\.exceptions&#45;&gt;rolling_pin\.conform_config -->
<g id="edge46" class="edge">
<title>schematics\.exceptions&#45;&gt;rolling_pin\.conform_config</title>
<path fill="none" stroke="#de958e" d="M177.75,-963.55C200.59,-968.6 225.55,-974.11 248.92,-979.27"/>
<polygon fill="#de958e" stroke="#de958e" points="248.3,-982.72 258.82,-981.46 249.81,-975.88 248.3,-982.72"/>
</g>
<!-- schematics\.types -->
<g id="node24" class="node">
<title>schematics\.types</title>
<polygon fill="#343434" stroke="#343434" points="169.5,-1071.5 20.5,-1071.5 20.5,-1035.5 169.5,-1035.5 169.5,-1071.5"/>
<text text-anchor="middle" x="95" y="-1049.8" font-family="Courier,monospace" font-size="14.00" fill="#de958e">schematics.types</text>
</g>
<!-- schematics\.types&#45;&gt;rolling_pin\.conform_config -->
<g id="edge47" class="edge">
<title>schematics\.types&#45;&gt;rolling_pin\.conform_config</title>
<path fill="none" stroke="#de958e" d="M169.69,-1037.22C194.63,-1031.71 222.78,-1025.49 248.93,-1019.72"/>
<polygon fill="#de958e" stroke="#de958e" points="249.84,-1023.1 258.85,-1017.53 248.33,-1016.27 249.84,-1023.1"/>
</g>
<!-- toml -->
<g id="node25" class="node">
<title>toml</title>
<polygon fill="#343434" stroke="#343434" points="611,-309.5 557,-309.5 557,-273.5 611,-273.5 611,-309.5"/>
<text text-anchor="middle" x="584" y="-287.8" font-family="Courier,monospace" font-size="14.00" fill="#de958e">toml</text>
</g>
<!-- toml&#45;&gt;rolling_pin\.toml_etl -->
<g id="edge48" class="edge">
<title>toml&#45;&gt;rolling_pin\.toml_etl</title>
<path fill="none" stroke="#de958e" d="M611.29,-295.68C630.07,-299.52 655.38,-306.49 675,-318.5 725.7,-349.52 770.46,-403.68 794.44,-436.01"/>
<polygon fill="#de958e" stroke="#de958e" points="791.64,-438.1 800.37,-444.12 797.3,-433.98 791.64,-438.1"/>
</g>
<!-- toml\.decoder -->
<g id="node26" class="node">
<title>toml\.decoder</title>
<polygon fill="#343434" stroke="#343434" points="642,-363.5 526,-363.5 526,-327.5 642,-327.5 642,-363.5"/>
<text text-anchor="middle" x="584" y="-341.8" font-family="Courier,monospace" font-size="14.00" fill="#de958e">toml.decoder</text>
</g>
<!-- toml\.decoder&#45;&gt;rolling_pin\.toml_etl -->
<g id="edge49" class="edge">
<title>toml\.decoder&#45;&gt;rolling_pin\.toml_etl</title>
<path fill="none" stroke="#de958e" d="M641.44,-363.51C652.73,-367.68 664.38,-372.41 675,-377.5 711.98,-395.21 751.58,-420.3 778.83,-438.63"/>
<polygon fill="#de958e" stroke="#de958e" points="776.98,-441.61 787.22,-444.33 780.91,-435.82 776.98,-441.61"/>
</g>
<!-- yaml -->
<g id="node27" class="node">
<title>yaml</title>
<polygon fill="#343434" stroke="#343434" points="611,-811.5 557,-811.5 557,-775.5 611,-775.5 611,-811.5"/>
<text text-anchor="middle" x="584" y="-789.8" font-family="Courier,monospace" font-size="14.00" fill="#de958e">yaml</text>
</g>
<!-- yaml&#45;&gt;rolling_pin\.conform_etl -->
<g id="edge50" class="edge">
<title>yaml&#45;&gt;rolling_pin\.conform_etl</title>
<path fill="none" stroke="#de958e" d="M611.07,-786.46C629.51,-780.95 654.51,-772.4 675,-761.5 715.76,-739.81 757.74,-707 784.53,-684.48"/>
<polygon fill="#de958e" stroke="#de958e" points="786.98,-686.99 792.34,-677.85 782.45,-681.65 786.98,-686.99"/>
</g>
</g>
</svg>
