<?xml version="1.0" encoding="UTF-8" standalone="no"?>
<!DOCTYPE svg PUBLIC "-//W3C//DTD SVG 1.1//EN"
 "http://www.w3.org/Graphics/SVG/1.1/DTD/svg11.dtd">
<!-- Generated by graphviz version 2.40.1 (20161225.0304)
 -->
<!-- Title: %3 Pages: 1 -->
<svg width="1143pt" height="1082pt"
 viewBox="0.00 0.00 1143.00 1082.14" xmlns="http://www.w3.org/2000/svg" xmlns:xlink="http://www.w3.org/1999/xlink">
<g id="graph0" class="graph" transform="scale(1 1) rotate(0) translate(4 1078.1429)">
<title>%3</title>
<polygon fill="#242424" stroke="transparent" points="-4,4 -4,-1078.1429 1139,-1078.1429 1139,4 -4,4"/>
<!-- cli -->
<g id="node1" class="node">
<title>cli</title>
<polygon fill="#343434" stroke="#343434" points="122,-222.0104 68,-222.0104 68,-186.0104 122,-186.0104 122,-222.0104"/>
<text text-anchor="middle" x="95" y="-200.3104" font-family="Courier,monospace" font-size="14.00" fill="#b6ecf3">cli</text>
</g>
<!-- rolling_pin.app -->
<g id="node2" class="node">
<title>rolling_pin.app</title>
<polygon fill="#343434" stroke="#343434" points="884,-889.0104 744,-889.0104 744,-853.0104 884,-853.0104 884,-889.0104"/>
<text text-anchor="middle" x="814" y="-867.3104" font-family="Courier,monospace" font-size="14.00" fill="#b6ecf3">rolling_pin.app</text>
</g>
<!-- rolling_pin.blob_etl -->
<g id="node3" class="node">
<title>rolling_pin.blob_etl</title>
<polygon fill="#343434" stroke="#343434" points="675,-675.0104 493,-675.0104 493,-639.0104 675,-639.0104 675,-675.0104"/>
<text text-anchor="middle" x="584" y="-653.3104" font-family="Courier,monospace" font-size="14.00" fill="#b6ecf3">rolling_pin.blob_etl</text>
</g>
<!-- rolling_pin.blob_etl&#45;&gt;rolling_pin.app -->
<g id="edge1" class="edge">
<title>rolling_pin.blob_etl&#45;&gt;rolling_pin.app</title>
<path fill="none" stroke="#b6ecf3" d="M659.334,-675.0289C664.8429,-677.6351 670.1374,-680.6118 675,-684.0104 735.3161,-726.1672 780.1001,-802.8386 800.9689,-843.684"/>
<polygon fill="#b6ecf3" stroke="#b6ecf3" points="797.9164,-845.4052 805.5225,-852.7806 804.1759,-842.2717 797.9164,-845.4052"/>
</g>
<!-- rolling_pin.conform_etl -->
<g id="node5" class="node">
<title>rolling_pin.conform_etl</title>
<polygon fill="#343434" stroke="#343434" points="917,-602.0104 711,-602.0104 711,-566.0104 917,-566.0104 917,-602.0104"/>
<text text-anchor="middle" x="814" y="-580.3104" font-family="Courier,monospace" font-size="14.00" fill="#b6ecf3">rolling_pin.conform_etl</text>
</g>
<!-- rolling_pin.blob_etl&#45;&gt;rolling_pin.conform_etl -->
<g id="edge2" class="edge">
<title>rolling_pin.blob_etl&#45;&gt;rolling_pin.conform_etl</title>
<path fill="none" stroke="#b6ecf3" d="M645.7564,-638.9697C655.5551,-636.0259 665.5658,-632.9703 675,-630.0104 699.9403,-622.1858 727.2722,-613.225 751.0502,-605.3034"/>
<polygon fill="#b6ecf3" stroke="#b6ecf3" points="752.2842,-608.5814 760.6605,-602.094 750.0668,-601.9419 752.2842,-608.5814"/>
</g>
<!-- rolling_pin.radon_etl -->
<g id="node6" class="node">
<title>rolling_pin.radon_etl</title>
<polygon fill="#343434" stroke="#343434" points="909,-255.0104 719,-255.0104 719,-219.0104 909,-219.0104 909,-255.0104"/>
<text text-anchor="middle" x="814" y="-233.3104" font-family="Courier,monospace" font-size="14.00" fill="#b6ecf3">rolling_pin.radon_etl</text>
</g>
<!-- rolling_pin.blob_etl&#45;&gt;rolling_pin.radon_etl -->
<g id="edge3" class="edge">
<title>rolling_pin.blob_etl&#45;&gt;rolling_pin.radon_etl</title>
<path fill="none" stroke="#b6ecf3" d="M663.1625,-638.9961C667.4211,-636.3924 671.4153,-633.415 675,-630.0104 702.8318,-603.577 779.9954,-351.0543 805.6126,-265.3238"/>
<polygon fill="#b6ecf3" stroke="#b6ecf3" points="809.0397,-266.0787 808.5417,-255.4956 802.3313,-264.0794 809.0397,-266.0787"/>
</g>
<!-- rolling_pin.conform_config -->
<g id="node4" class="node">
<title>rolling_pin.conform_config</title>
<polygon fill="#343434" stroke="#343434" points="457,-377.0104 226,-377.0104 226,-341.0104 457,-341.0104 457,-377.0104"/>
<text text-anchor="middle" x="341.5" y="-355.3104" font-family="Courier,monospace" font-size="14.00" fill="#b6ecf3">rolling_pin.conform_config</text>
</g>
<!-- rolling_pin.conform_config&#45;&gt;rolling_pin.conform_etl -->
<g id="edge4" class="edge">
<title>rolling_pin.conform_config&#45;&gt;rolling_pin.conform_etl</title>
<path fill="none" stroke="#b6ecf3" d="M427.077,-377.0439C496.7403,-393.9515 596.1003,-423.2467 675,-467.0104 719.6877,-491.7976 763.4829,-532.0694 789.6183,-558.3001"/>
<polygon fill="#b6ecf3" stroke="#b6ecf3" points="787.3185,-560.9531 796.8256,-565.6291 792.3095,-556.045 787.3185,-560.9531"/>
</g>
<!-- rolling_pin.repo_etl -->
<g id="node7" class="node">
<title>rolling_pin.repo_etl</title>
<polygon fill="#343434" stroke="#343434" points="1135,-499.0104 953,-499.0104 953,-463.0104 1135,-463.0104 1135,-499.0104"/>
<text text-anchor="middle" x="1044" y="-477.3104" font-family="Courier,monospace" font-size="14.00" fill="#b6ecf3">rolling_pin.repo_etl</text>
</g>
<!-- rolling_pin.radon_etl&#45;&gt;rolling_pin.repo_etl -->
<g id="edge5" class="edge">
<title>rolling_pin.radon_etl&#45;&gt;rolling_pin.repo_etl</title>
<path fill="none" stroke="#b6ecf3" d="M835.6968,-255.0782C857.1037,-273.2504 890.3928,-302.4514 917,-330.0104 957.0158,-371.4578 999.2688,-423.6203 1023.5474,-454.5289"/>
<polygon fill="#b6ecf3" stroke="#b6ecf3" points="1020.9852,-456.9342 1029.9019,-462.6565 1026.4999,-452.6227 1020.9852,-456.9342"/>
</g>
<!-- rolling_pin.tools -->
<g id="node8" class="node">
<title>rolling_pin.tools</title>
<polygon fill="#343434" stroke="#343434" points="420,-549.0104 263,-549.0104 263,-513.0104 420,-513.0104 420,-549.0104"/>
<text text-anchor="middle" x="341.5" y="-527.3104" font-family="Courier,monospace" font-size="14.00" fill="#b6ecf3">rolling_pin.tools</text>
</g>
<!-- rolling_pin.tools&#45;&gt;rolling_pin.blob_etl -->
<g id="edge6" class="edge">
<title>rolling_pin.tools&#45;&gt;rolling_pin.blob_etl</title>
<path fill="none" stroke="#b6ecf3" d="M402.5742,-549.0244C421.2589,-556.3953 441.0643,-566.2551 457,-579.0104 478.6606,-596.3482 470.4559,-613.8382 493,-630.0104 494.9039,-631.3762 496.8771,-632.6736 498.9059,-633.906"/>
<polygon fill="#b6ecf3" stroke="#b6ecf3" points="497.6572,-637.2104 508.116,-638.9031 500.9955,-631.0577 497.6572,-637.2104"/>
</g>
<!-- rolling_pin.tools&#45;&gt;rolling_pin.conform_etl -->
<g id="edge7" class="edge">
<title>rolling_pin.tools&#45;&gt;rolling_pin.conform_etl</title>
<path fill="none" stroke="#b6ecf3" d="M420.0542,-539.8218C496.6643,-548.4151 613.9902,-561.5755 700.692,-571.3008"/>
<polygon fill="#b6ecf3" stroke="#b6ecf3" points="700.5143,-574.8027 710.8422,-572.4393 701.2947,-567.8463 700.5143,-574.8027"/>
</g>
<!-- rolling_pin.tools&#45;&gt;rolling_pin.radon_etl -->
<g id="edge8" class="edge">
<title>rolling_pin.tools&#45;&gt;rolling_pin.radon_etl</title>
<path fill="none" stroke="#b6ecf3" d="M370.7004,-512.8413C452.6768,-461.8337 684.9022,-317.338 776.3391,-260.4439"/>
<polygon fill="#b6ecf3" stroke="#b6ecf3" points="778.353,-263.3131 784.9945,-255.0583 774.6548,-257.3697 778.353,-263.3131"/>
</g>
<!-- rolling_pin.tools&#45;&gt;rolling_pin.repo_etl -->
<g id="edge9" class="edge">
<title>rolling_pin.tools&#45;&gt;rolling_pin.repo_etl</title>
<path fill="none" stroke="#b6ecf3" d="M420.0408,-525.4203C547.9704,-516.315 801.2244,-498.2898 942.5789,-488.229"/>
<polygon fill="#b6ecf3" stroke="#b6ecf3" points="943.2509,-491.6901 952.9771,-487.4889 942.7538,-484.7078 943.2509,-491.6901"/>
</g>
<!-- flasgger -->
<g id="node9" class="node">
<title>flasgger</title>
<polygon fill="#343434" stroke="#343434" points="625.5,-935.0104 542.5,-935.0104 542.5,-899.0104 625.5,-899.0104 625.5,-935.0104"/>
<text text-anchor="middle" x="584" y="-913.3104" font-family="Courier,monospace" font-size="14.00" fill="#de958e">flasgger</text>
</g>
<!-- flasgger&#45;&gt;rolling_pin.app -->
<g id="edge10" class="edge">
<title>flasgger&#45;&gt;rolling_pin.app</title>
<path fill="none" stroke="#de958e" d="M625.6513,-908.6802C655.7065,-902.6691 697.2335,-894.3637 733.6481,-887.0808"/>
<polygon fill="#de958e" stroke="#de958e" points="734.6502,-890.4498 743.7696,-885.0565 733.2773,-883.5857 734.6502,-890.4498"/>
</g>
<!-- flask -->
<g id="node10" class="node">
<title>flask</title>
<polygon fill="#343434" stroke="#343434" points="613,-989.0104 555,-989.0104 555,-953.0104 613,-953.0104 613,-989.0104"/>
<text text-anchor="middle" x="584" y="-967.3104" font-family="Courier,monospace" font-size="14.00" fill="#de958e">flask</text>
</g>
<!-- flask&#45;&gt;rolling_pin.app -->
<g id="edge11" class="edge">
<title>flask&#45;&gt;rolling_pin.app</title>
<path fill="none" stroke="#de958e" d="M613.1836,-963.9075C631.2835,-959.1227 654.8479,-952.2002 675,-944.0104 709.9383,-929.8116 747.7131,-909.6372 775.0527,-894.0939"/>
<polygon fill="#de958e" stroke="#de958e" points="776.9727,-897.0275 783.9052,-889.0156 773.4895,-890.9557 776.9727,-897.0275"/>
</g>
<!-- IPython.display -->
<g id="node11" class="node">
<title>IPython.display</title>
<polygon fill="#343434" stroke="#343434" points="165,-716.0104 25,-716.0104 25,-680.0104 165,-680.0104 165,-716.0104"/>
<text text-anchor="middle" x="95" y="-694.3104" font-family="Courier,monospace" font-size="14.00" fill="#de958e">IPython.display</text>
</g>
<!-- IPython.display&#45;&gt;rolling_pin.blob_etl -->
<g id="edge12" class="edge">
<title>IPython.display&#45;&gt;rolling_pin.blob_etl</title>
<path fill="none" stroke="#de958e" d="M165.0618,-692.1361C248.2551,-685.1608 387.67,-673.4717 482.6288,-665.5099"/>
<polygon fill="#de958e" stroke="#de958e" points="483.1544,-668.9782 492.8269,-664.6548 482.5694,-662.0027 483.1544,-668.9782"/>
</g>
<!-- IPython.display&#45;&gt;rolling_pin.conform_etl -->
<g id="edge13" class="edge">
<title>IPython.display&#45;&gt;rolling_pin.conform_etl</title>
<path fill="none" stroke="#de958e" d="M165.1592,-706.5255C309.3834,-723.4984 629.4891,-758.2402 675,-738.0104 733.5565,-711.9819 777.8605,-647.746 799.4383,-610.9842"/>
<polygon fill="#de958e" stroke="#de958e" points="802.4965,-612.687 804.4294,-602.2699 796.4222,-609.2079 802.4965,-612.687"/>
</g>
<!-- IPython.display&#45;&gt;rolling_pin.repo_etl -->
<g id="edge14" class="edge">
<title>IPython.display&#45;&gt;rolling_pin.repo_etl</title>
<path fill="none" stroke="#de958e" d="M104.6684,-716.0161C124.0039,-750.7542 170.3912,-828.0023 226,-878.0104 327.8605,-969.6121 360.6697,-996.583 493,-1032.0104 676.4504,-1081.1237 780.4431,-1110.9892 917,-979.0104 986.1906,-912.1394 1028.9427,-604.4419 1040.6913,-509.1934"/>
<polygon fill="#de958e" stroke="#de958e" points="1044.1794,-509.5027 1041.9113,-499.1535 1037.2305,-508.6583 1044.1794,-509.5027"/>
</g>
<!-- IPython.display&#45;&gt;rolling_pin.tools -->
<g id="edge15" class="edge">
<title>IPython.display&#45;&gt;rolling_pin.tools</title>
<path fill="none" stroke="#de958e" d="M121.8491,-679.8206C166.5798,-649.5162 256.3491,-588.6989 306.162,-554.9514"/>
<polygon fill="#de958e" stroke="#de958e" points="308.3682,-557.6844 314.684,-549.1778 304.442,-551.8891 308.3682,-557.6844"/>
</g>
<!-- rolling_pin -->
<g id="node12" class="node">
<title>rolling_pin</title>
<polygon fill="#343434" stroke="#343434" points="148.5,-499.0104 41.5,-499.0104 41.5,-463.0104 148.5,-463.0104 148.5,-499.0104"/>
<text text-anchor="middle" x="95" y="-477.3104" font-family="Courier,monospace" font-size="14.00" fill="#a0d17b">rolling_pin</text>
</g>
<!-- rolling_pin&#45;&gt;rolling_pin.app -->
<g id="edge16" class="edge">
<title>rolling_pin&#45;&gt;rolling_pin.app</title>
<path fill="none" stroke="#a0d17b" d="M121.1049,-499.2231C143.381,-516.3143 174.2353,-543.9945 190,-576.0104 217.3236,-631.501 180.1861,-810.4549 226,-852.0104 262.6758,-885.2773 581.1836,-879.0473 733.5048,-874.0694"/>
<polygon fill="#a0d17b" stroke="#a0d17b" points="733.8579,-877.5596 743.7359,-873.7287 733.6249,-870.5635 733.8579,-877.5596"/>
</g>
<!-- rolling_pin&#45;&gt;rolling_pin.blob_etl -->
<g id="edge17" class="edge">
<title>rolling_pin&#45;&gt;rolling_pin.blob_etl</title>
<path fill="none" stroke="#a0d17b" d="M120.4099,-499.0533C145.9768,-516.441 187.0867,-542.352 226,-558.0104 323.9073,-597.4076 357.4158,-578.068 457,-613.0104 473.6963,-618.8689 476.4701,-623.6977 493,-630.0104 498.0996,-631.958 503.403,-633.8535 508.7722,-635.678"/>
<polygon fill="#a0d17b" stroke="#a0d17b" points="507.8848,-639.0708 518.478,-638.8811 510.0787,-632.4234 507.8848,-639.0708"/>
</g>
<!-- rolling_pin&#45;&gt;rolling_pin.conform_config -->
<g id="edge18" class="edge">
<title>rolling_pin&#45;&gt;rolling_pin.conform_config</title>
<path fill="none" stroke="#a0d17b" d="M148.9433,-468.5198C163.2758,-463.4575 178.0693,-456.4932 190,-447.0104 213.1628,-428.6001 202.1771,-408.5583 226,-391.0104 230.8296,-387.453 236.0362,-384.2909 241.4735,-381.4803"/>
<polygon fill="#a0d17b" stroke="#a0d17b" points="243.2644,-384.5055 250.8162,-377.0744 240.2786,-378.1742 243.2644,-384.5055"/>
</g>
<!-- rolling_pin&#45;&gt;rolling_pin.conform_etl -->
<g id="edge19" class="edge">
<title>rolling_pin&#45;&gt;rolling_pin.conform_etl</title>
<path fill="none" stroke="#a0d17b" d="M148.5546,-482.3645C219.3769,-484.623 347.9634,-490.3453 457,-504.0104 554.8223,-516.2701 579.0024,-522.5614 675,-545.0104 697.7475,-550.33 722.3568,-556.9458 744.4567,-563.2089"/>
<polygon fill="#a0d17b" stroke="#a0d17b" points="743.5121,-566.579 754.0889,-565.9608 745.4351,-559.8483 743.5121,-566.579"/>
</g>
<!-- rolling_pin&#45;&gt;rolling_pin.radon_etl -->
<g id="edge20" class="edge">
<title>rolling_pin&#45;&gt;rolling_pin.radon_etl</title>
<path fill="none" stroke="#a0d17b" d="M148.6953,-463.0606C162.2959,-458.1688 176.7902,-452.6527 190,-447.0104 206.4508,-439.9839 209.0413,-434.7028 226,-429.0104 325.0019,-395.7793 380.0467,-456.6069 457,-386.0104 501.1781,-345.4818 446.3783,-293.7025 493,-256.0104 525.2134,-229.967 627.9509,-227.7333 708.6217,-230.4563"/>
<polygon fill="#a0d17b" stroke="#a0d17b" points="708.7225,-233.9622 718.8442,-230.8314 708.9793,-226.967 708.7225,-233.9622"/>
</g>
<!-- rolling_pin&#45;&gt;rolling_pin.repo_etl -->
<g id="edge21" class="edge">
<title>rolling_pin&#45;&gt;rolling_pin.repo_etl</title>
<path fill="none" stroke="#a0d17b" d="M148.7414,-481.0104C301.841,-481.0104 742.099,-481.0104 942.4894,-481.0104"/>
<polygon fill="#a0d17b" stroke="#a0d17b" points="942.7217,-484.5105 952.7216,-481.0104 942.7216,-477.5105 942.7217,-484.5105"/>
</g>
<!-- rolling_pin&#45;&gt;rolling_pin.tools -->
<g id="edge22" class="edge">
<title>rolling_pin&#45;&gt;rolling_pin.tools</title>
<path fill="none" stroke="#a0d17b" d="M148.7909,-491.9214C179.0901,-498.0673 217.7047,-505.8998 252.3996,-512.9373"/>
<polygon fill="#a0d17b" stroke="#a0d17b" points="252.0515,-516.4379 262.5478,-514.9958 253.4431,-509.5776 252.0515,-516.4379"/>
</g>
<!-- lunchbox.tools -->
<g id="node13" class="node">
<title>lunchbox.tools</title>
<polygon fill="#343434" stroke="#343434" points="407.5,-789.0104 275.5,-789.0104 275.5,-753.0104 407.5,-753.0104 407.5,-789.0104"/>
<text text-anchor="middle" x="341.5" y="-767.3104" font-family="Courier,monospace" font-size="14.00" fill="#de958e">lunchbox.tools</text>
</g>
<!-- lunchbox.tools&#45;&gt;rolling_pin.app -->
<g id="edge23" class="edge">
<title>lunchbox.tools&#45;&gt;rolling_pin.app</title>
<path fill="none" stroke="#de958e" d="M407.6557,-785.6731C423.8482,-789.4826 441.0927,-793.726 457,-798.0104 473.1546,-802.3615 476.764,-804.974 493,-809.0104 574.1729,-829.1909 668.262,-846.6827 733.4984,-857.8941"/>
<polygon fill="#de958e" stroke="#de958e" points="733.2678,-861.4053 743.7144,-859.6389 734.4464,-854.5052 733.2678,-861.4053"/>
</g>
<!-- lunchbox.tools&#45;&gt;rolling_pin.blob_etl -->
<g id="edge24" class="edge">
<title>lunchbox.tools&#45;&gt;rolling_pin.blob_etl</title>
<path fill="none" stroke="#de958e" d="M368.421,-752.9693C397.9625,-733.7974 447.2792,-703.603 493,-684.0104 497.6152,-682.0327 502.4208,-680.1433 507.3062,-678.3492"/>
<polygon fill="#de958e" stroke="#de958e" points="508.4994,-681.6398 516.7703,-675.0183 506.1755,-675.0368 508.4994,-681.6398"/>
</g>
<!-- lunchbox.tools&#45;&gt;rolling_pin.repo_etl -->
<g id="edge25" class="edge">
<title>lunchbox.tools&#45;&gt;rolling_pin.repo_etl</title>
<path fill="none" stroke="#de958e" d="M407.6368,-777.1088C476.091,-781.2973 585.3573,-781.9908 675,-755.0104 794.8461,-718.9396 818.6604,-688.4283 917,-611.0104 957.6151,-579.0362 998.2583,-534.7457 1022.2601,-506.9974"/>
<polygon fill="#de958e" stroke="#de958e" points="1025.0148,-509.1617 1028.8654,-499.2914 1019.7,-504.6061 1025.0148,-509.1617"/>
</g>
<!-- networkx -->
<g id="node14" class="node">
<title>networkx</title>
<polygon fill="#343434" stroke="#343434" points="383,-843.0104 300,-843.0104 300,-807.0104 383,-807.0104 383,-843.0104"/>
<text text-anchor="middle" x="341.5" y="-821.3104" font-family="Courier,monospace" font-size="14.00" fill="#de958e">networkx</text>
</g>
<!-- networkx&#45;&gt;rolling_pin.blob_etl -->
<g id="edge26" class="edge">
<title>networkx&#45;&gt;rolling_pin.blob_etl</title>
<path fill="none" stroke="#de958e" d="M383.0664,-825.0988C407.4311,-822.9853 437.2117,-816.3449 457,-798.0104 495.9752,-761.8988 455.103,-721.2519 493,-684.0104 493.9587,-683.0683 494.9486,-682.1589 495.9669,-681.2809"/>
<polygon fill="#de958e" stroke="#de958e" points="498.3101,-683.9017 504.279,-675.1483 494.1542,-678.2689 498.3101,-683.9017"/>
</g>
<!-- networkx&#45;&gt;rolling_pin.repo_etl -->
<g id="edge27" class="edge">
<title>networkx&#45;&gt;rolling_pin.repo_etl</title>
<path fill="none" stroke="#de958e" d="M350.5183,-843.1657C370.2693,-880.5903 421.3728,-965.5259 493,-998.0104 669.3282,-1077.9791 786.8363,-1041.3424 917,-898.0104 970.7919,-838.7766 1022.3686,-592.8879 1038.6887,-509.112"/>
<polygon fill="#de958e" stroke="#de958e" points="1042.1278,-509.7619 1040.5867,-499.2797 1035.2547,-508.4351 1042.1278,-509.7619"/>
</g>
<!-- pandas -->
<g id="node15" class="node">
<title>pandas</title>
<polygon fill="#343434" stroke="#343434" points="128,-276.0104 62,-276.0104 62,-240.0104 128,-240.0104 128,-276.0104"/>
<text text-anchor="middle" x="95" y="-254.3104" font-family="Courier,monospace" font-size="14.00" fill="#de958e">pandas</text>
</g>
<!-- pandas&#45;&gt;rolling_pin.blob_etl -->
<g id="edge28" class="edge">
<title>pandas&#45;&gt;rolling_pin.blob_etl</title>
<path fill="none" stroke="#de958e" d="M128.0119,-266.289C154.4414,-272.8039 192.5007,-281.9332 226,-289.0104 328.175,-310.5965 385.5501,-255.8488 457,-332.0104 548.2757,-429.3053 406.9246,-528.0862 493,-630.0104 493.628,-630.7541 494.2754,-631.4777 494.9411,-632.182"/>
<polygon fill="#de958e" stroke="#de958e" points="492.8913,-635.0399 502.7148,-639.0085 497.5103,-629.7801 492.8913,-635.0399"/>
</g>
<!-- pandas&#45;&gt;rolling_pin.conform_etl -->
<g id="edge29" class="edge">
<title>pandas&#45;&gt;rolling_pin.conform_etl</title>
<path fill="none" stroke="#de958e" d="M128.1374,-256.0718C192.9854,-253.3064 340.4927,-252.1069 457,-289.0104 474.6586,-294.6038 476.5526,-301.4901 493,-310.0104 571.9399,-350.9041 606.1391,-336.7789 675,-393.0104 732.6397,-440.0787 778.4027,-516.3812 800.1673,-556.8282"/>
<polygon fill="#de958e" stroke="#de958e" points="797.1611,-558.6304 804.9329,-565.8312 803.3478,-555.3556 797.1611,-558.6304"/>
</g>
<!-- pandas&#45;&gt;rolling_pin.radon_etl -->
<g id="edge30" class="edge">
<title>pandas&#45;&gt;rolling_pin.radon_etl</title>
<path fill="none" stroke="#de958e" d="M128.0861,-249.1483C210.0135,-227.3739 420.8919,-172.4102 493,-164.0104 573.3456,-154.6511 596.4642,-144.642 675,-164.0104 713.5184,-173.5098 753.1685,-195.8041 780.2128,-213.2739"/>
<polygon fill="#de958e" stroke="#de958e" points="778.6057,-216.4065 788.8812,-218.988 782.4583,-210.5621 778.6057,-216.4065"/>
</g>
<!-- pandas&#45;&gt;rolling_pin.repo_etl -->
<g id="edge31" class="edge">
<title>pandas&#45;&gt;rolling_pin.repo_etl</title>
<path fill="none" stroke="#de958e" d="M128.2144,-254.9321C147.8986,-251.6617 172.3615,-244.9175 190,-231.0104 215.6279,-210.8041 202.8841,-190.0482 226,-167.0104 322.254,-71.0817 361.4834,-52.2236 493,-18.0104 571.2834,2.3544 598.617,8.6099 675,-18.0104 804.6473,-63.194 831.8308,-102.3248 917,-210.0104 978.8166,-288.1697 1019.2903,-401.3197 1035.7052,-453.1654"/>
<polygon fill="#de958e" stroke="#de958e" points="1032.4441,-454.4658 1038.7543,-462.9765 1039.1287,-452.3883 1032.4441,-454.4658"/>
</g>
<!-- pandas&#45;&gt;rolling_pin.tools -->
<g id="edge32" class="edge">
<title>pandas&#45;&gt;rolling_pin.tools</title>
<path fill="none" stroke="#de958e" d="M128.1911,-259.9239C148.364,-262.7431 173.3555,-269.4218 190,-285.0104 224.7824,-317.5865 202.8392,-344.362 226,-386.0104 251.3406,-431.5787 290.8646,-477.5429 316.4716,-505.1523"/>
<polygon fill="#de958e" stroke="#de958e" points="314.2267,-507.875 323.6209,-512.7739 319.3321,-503.0859 314.2267,-507.875"/>
</g>
<!-- pydot -->
<g id="node16" class="node">
<title>pydot</title>
<polygon fill="#343434" stroke="#343434" points="124,-621.0104 66,-621.0104 66,-585.0104 124,-585.0104 124,-621.0104"/>
<text text-anchor="middle" x="95" y="-599.3104" font-family="Courier,monospace" font-size="14.00" fill="#de958e">pydot</text>
</g>
<!-- pydot&#45;&gt;rolling_pin.blob_etl -->
<g id="edge33" class="edge">
<title>pydot&#45;&gt;rolling_pin.blob_etl</title>
<path fill="none" stroke="#de958e" d="M124.1248,-606.2267C193.1818,-613.8526 369.529,-633.3265 482.6891,-645.8227"/>
<polygon fill="#de958e" stroke="#de958e" points="482.4338,-649.3157 492.7576,-646.9346 483.2022,-642.358 482.4338,-649.3157"/>
</g>
<!-- pydot&#45;&gt;rolling_pin.tools -->
<g id="edge34" class="edge">
<title>pydot&#45;&gt;rolling_pin.tools</title>
<path fill="none" stroke="#de958e" d="M124.2448,-594.4684C159.9185,-584.0484 221.461,-566.0725 269.9574,-551.9073"/>
<polygon fill="#de958e" stroke="#de958e" points="271.1646,-555.201 279.7822,-549.0376 269.2019,-548.4817 271.1646,-555.201"/>
</g>
<!-- cufflinks -->
<g id="node17" class="node">
<title>cufflinks</title>
<polygon fill="#343434" stroke="#343434" points="629.5,-117.0104 538.5,-117.0104 538.5,-81.0104 629.5,-81.0104 629.5,-117.0104"/>
<text text-anchor="middle" x="584" y="-95.3104" font-family="Courier,monospace" font-size="14.00" fill="#de958e">cufflinks</text>
</g>
<!-- cufflinks&#45;&gt;rolling_pin.radon_etl -->
<g id="edge35" class="edge">
<title>cufflinks&#45;&gt;rolling_pin.radon_etl</title>
<path fill="none" stroke="#de958e" d="M629.6266,-111.9386C644.5173,-116.9671 660.8514,-123.3758 675,-131.0104 716.8731,-153.6053 759.592,-188.2818 786.4156,-211.7672"/>
<polygon fill="#de958e" stroke="#de958e" points="784.4044,-214.6612 794.2113,-218.6707 789.0452,-209.4207 784.4044,-214.6612"/>
</g>
<!-- numpy -->
<g id="node18" class="node">
<title>numpy</title>
<polygon fill="#343434" stroke="#343434" points="613,-301.0104 555,-301.0104 555,-265.0104 613,-265.0104 613,-301.0104"/>
<text text-anchor="middle" x="584" y="-279.3104" font-family="Courier,monospace" font-size="14.00" fill="#de958e">numpy</text>
</g>
<!-- numpy&#45;&gt;rolling_pin.radon_etl -->
<g id="edge36" class="edge">
<title>numpy&#45;&gt;rolling_pin.radon_etl</title>
<path fill="none" stroke="#de958e" d="M613.1297,-277.1845C638.5977,-272.0909 677.1201,-264.3864 713.6403,-257.0824"/>
<polygon fill="#de958e" stroke="#de958e" points="714.7559,-260.4287 723.8753,-255.0354 713.383,-253.5646 714.7559,-260.4287"/>
</g>
<!-- numpy&#45;&gt;rolling_pin.repo_etl -->
<g id="edge37" class="edge">
<title>numpy&#45;&gt;rolling_pin.repo_etl</title>
<path fill="none" stroke="#de958e" d="M613.331,-292.6213C631.2786,-298.6755 654.6301,-306.864 675,-315.0104 792.7355,-362.0958 927.8993,-425.3132 997.3766,-458.5024"/>
<polygon fill="#de958e" stroke="#de958e" points="996.2044,-461.8216 1006.7356,-462.9815 999.2263,-455.5074 996.2044,-461.8216"/>
</g>
<!-- radon.cli -->
<g id="node19" class="node">
<title>radon.cli</title>
<polygon fill="#343434" stroke="#343434" points="629.5,-63.0104 538.5,-63.0104 538.5,-27.0104 629.5,-27.0104 629.5,-63.0104"/>
<text text-anchor="middle" x="584" y="-41.3104" font-family="Courier,monospace" font-size="14.00" fill="#de958e">radon.cli</text>
</g>
<!-- radon.cli&#45;&gt;rolling_pin.radon_etl -->
<g id="edge38" class="edge">
<title>radon.cli&#45;&gt;rolling_pin.radon_etl</title>
<path fill="none" stroke="#de958e" d="M629.7617,-53.0623C644.9849,-57.1361 661.4876,-63.1658 675,-72.0104 730.6147,-108.4135 775.9189,-173.6352 798.4823,-210.2281"/>
<polygon fill="#de958e" stroke="#de958e" points="795.5475,-212.1386 803.7213,-218.8796 801.5352,-208.5127 795.5475,-212.1386"/>
</g>
<!-- radon.complexity -->
<g id="node20" class="node">
<title>radon.complexity</title>
<polygon fill="#343434" stroke="#343434" points="658.5,-209.0104 509.5,-209.0104 509.5,-173.0104 658.5,-173.0104 658.5,-209.0104"/>
<text text-anchor="middle" x="584" y="-187.3104" font-family="Courier,monospace" font-size="14.00" fill="#de958e">radon.complexity</text>
</g>
<!-- radon.complexity&#45;&gt;rolling_pin.radon_etl -->
<g id="edge39" class="edge">
<title>radon.complexity&#45;&gt;rolling_pin.radon_etl</title>
<path fill="none" stroke="#de958e" d="M658.6744,-205.9453C676.2418,-209.4588 695.2468,-213.2598 713.7351,-216.9575"/>
<polygon fill="#de958e" stroke="#de958e" points="713.1498,-220.4096 723.6421,-218.9389 714.5227,-213.5456 713.1498,-220.4096"/>
</g>
<!-- schematics -->
<g id="node21" class="node">
<title>schematics</title>
<polygon fill="#343434" stroke="#343434" points="144.5,-330.0104 45.5,-330.0104 45.5,-294.0104 144.5,-294.0104 144.5,-330.0104"/>
<text text-anchor="middle" x="95" y="-308.3104" font-family="Courier,monospace" font-size="14.00" fill="#de958e">schematics</text>
</g>
<!-- schematics&#45;&gt;rolling_pin.conform_config -->
<g id="edge40" class="edge">
<title>schematics&#45;&gt;rolling_pin.conform_config</title>
<path fill="none" stroke="#de958e" d="M144.5864,-321.4651C171.1513,-326.5302 204.9278,-332.9703 236.9749,-339.0807"/>
<polygon fill="#de958e" stroke="#de958e" points="236.3766,-342.5296 246.8552,-340.9646 237.6877,-335.6535 236.3766,-342.5296"/>
</g>
<!-- schematics.exceptions -->
<g id="node22" class="node">
<title>schematics.exceptions</title>
<polygon fill="#343434" stroke="#343434" points="190,-438.0104 0,-438.0104 0,-402.0104 190,-402.0104 190,-438.0104"/>
<text text-anchor="middle" x="95" y="-416.3104" font-family="Courier,monospace" font-size="14.00" fill="#de958e">schematics.exceptions</text>
</g>
<!-- schematics.exceptions&#45;&gt;rolling_pin.conform_config -->
<g id="edge41" class="edge">
<title>schematics.exceptions&#45;&gt;rolling_pin.conform_config</title>
<path fill="none" stroke="#de958e" d="M167.9576,-401.956C196.5284,-394.8858 229.4512,-386.7385 258.8907,-379.4533"/>
<polygon fill="#de958e" stroke="#de958e" points="259.8632,-382.8183 268.7296,-377.0185 258.1816,-376.0233 259.8632,-382.8183"/>
</g>
<!-- schematics.types -->
<g id="node23" class="node">
<title>schematics.types</title>
<polygon fill="#343434" stroke="#343434" points="169.5,-384.0104 20.5,-384.0104 20.5,-348.0104 169.5,-348.0104 169.5,-384.0104"/>
<text text-anchor="middle" x="95" y="-362.3104" font-family="Courier,monospace" font-size="14.00" fill="#de958e">schematics.types</text>
</g>
<!-- schematics.types&#45;&gt;rolling_pin.conform_config -->
<g id="edge42" class="edge">
<title>schematics.types&#45;&gt;rolling_pin.conform_config</title>
<path fill="none" stroke="#de958e" d="M169.6271,-363.8912C184.157,-363.4786 199.7607,-363.0355 215.4253,-362.5907"/>
<polygon fill="#de958e" stroke="#de958e" points="215.8207,-366.0809 225.7173,-362.2984 215.6219,-359.0838 215.8207,-366.0809"/>
</g>
<!-- lunchbox.enforce -->
<g id="node24" class="node">
<title>lunchbox.enforce</title>
<polygon fill="#343434" stroke="#343434" points="658.5,-729.0104 509.5,-729.0104 509.5,-693.0104 658.5,-693.0104 658.5,-729.0104"/>
<text text-anchor="middle" x="584" y="-707.3104" font-family="Courier,monospace" font-size="14.00" fill="#de958e">lunchbox.enforce</text>
</g>
<!-- lunchbox.enforce&#45;&gt;rolling_pin.conform_etl -->
<g id="edge43" class="edge">
<title>lunchbox.enforce&#45;&gt;rolling_pin.conform_etl</title>
<path fill="none" stroke="#de958e" d="M653.9843,-692.8758C661.2131,-690.2282 668.3421,-687.2763 675,-684.0104 716.3612,-663.7219 758.5825,-631.3521 785.4659,-608.9623"/>
<polygon fill="#de958e" stroke="#de958e" points="787.9093,-611.4803 793.2987,-602.3586 783.3973,-606.1285 787.9093,-611.4803"/>
</g>
<!-- yaml -->
<g id="node25" class="node">
<title>yaml</title>
<polygon fill="#343434" stroke="#343434" points="611,-621.0104 557,-621.0104 557,-585.0104 611,-585.0104 611,-621.0104"/>
<text text-anchor="middle" x="584" y="-599.3104" font-family="Courier,monospace" font-size="14.00" fill="#de958e">yaml</text>
</g>
<!-- yaml&#45;&gt;rolling_pin.conform_etl -->
<g id="edge44" class="edge">
<title>yaml&#45;&gt;rolling_pin.conform_etl</title>
<path fill="none" stroke="#de958e" d="M611.2872,-600.7563C633.7714,-598.8989 667.2689,-596.1317 700.5887,-593.3792"/>
<polygon fill="#de958e" stroke="#de958e" points="701.2333,-596.838 710.9112,-592.5265 700.6569,-589.8617 701.2333,-596.838"/>
</g>
</g>
</svg>
