<?xml version="1.0" encoding="UTF-8" standalone="no"?>
<!DOCTYPE svg PUBLIC "-//W3C//DTD SVG 1.1//EN"
 "http://www.w3.org/Graphics/SVG/1.1/DTD/svg11.dtd">
<!-- Generated by graphviz version 2.40.1 (20161225.0304)
 -->
<!-- Title: %3 Pages: 1 -->
<svg width="1003pt" height="815pt"
 viewBox="0.00 0.00 1003.00 814.95" xmlns="http://www.w3.org/2000/svg" xmlns:xlink="http://www.w3.org/1999/xlink">
<g id="graph0" class="graph" transform="scale(1 1) rotate(0) translate(4 810.9451)">
<title>%3</title>
<polygon fill="#242424" stroke="transparent" points="-4,4 -4,-810.9451 999,-810.9451 999,4 -4,4"/>
<!-- cli -->
<g id="node1" class="node">
<title>cli</title>
<polygon fill="#343434" stroke="#343434" points="97,-360.0867 43,-360.0867 43,-324.0867 97,-324.0867 97,-360.0867"/>
<text text-anchor="middle" x="70" y="-338.3867" font-family="Courier,monospace" font-size="14.00" fill="#b6ecf3">cli</text>
</g>
<!-- rolling_pin.app -->
<g id="node2" class="node">
<title>rolling_pin.app</title>
<polygon fill="#343434" stroke="#343434" points="752,-552.0867 612,-552.0867 612,-516.0867 752,-516.0867 752,-552.0867"/>
<text text-anchor="middle" x="682" y="-530.3867" font-family="Courier,monospace" font-size="14.00" fill="#b6ecf3">rolling_pin.app</text>
</g>
<!-- rolling_pin.blob_etl -->
<g id="node3" class="node">
<title>rolling_pin.blob_etl</title>
<polygon fill="#343434" stroke="#343434" points="551,-498.0867 369,-498.0867 369,-462.0867 551,-462.0867 551,-498.0867"/>
<text text-anchor="middle" x="460" y="-476.3867" font-family="Courier,monospace" font-size="14.00" fill="#b6ecf3">rolling_pin.blob_etl</text>
</g>
<!-- rolling_pin.blob_etl&#45;&gt;rolling_pin.app -->
<g id="edge1" class="edge">
<title>rolling_pin.blob_etl&#45;&gt;rolling_pin.app</title>
<path fill="none" stroke="#b6ecf3" d="M534.2314,-498.143C555.9837,-503.4341 579.8598,-509.2417 601.9568,-514.6167"/>
<polygon fill="#b6ecf3" stroke="#b6ecf3" points="601.4264,-518.0897 611.9703,-517.0524 603.0809,-511.288 601.4264,-518.0897"/>
</g>
<!-- rolling_pin.radon_etl -->
<g id="node4" class="node">
<title>rolling_pin.radon_etl</title>
<polygon fill="#343434" stroke="#343434" points="777,-238.0867 587,-238.0867 587,-202.0867 777,-202.0867 777,-238.0867"/>
<text text-anchor="middle" x="682" y="-216.3867" font-family="Courier,monospace" font-size="14.00" fill="#b6ecf3">rolling_pin.radon_etl</text>
</g>
<!-- rolling_pin.blob_etl&#45;&gt;rolling_pin.radon_etl -->
<g id="edge2" class="edge">
<title>rolling_pin.blob_etl&#45;&gt;rolling_pin.radon_etl</title>
<path fill="none" stroke="#b6ecf3" d="M475.6106,-461.804C514.3018,-416.49 614.7415,-298.8579 659.6875,-246.2184"/>
<polygon fill="#b6ecf3" stroke="#b6ecf3" points="662.5749,-248.2268 666.4066,-238.3492 657.2514,-243.6814 662.5749,-248.2268"/>
</g>
<!-- rolling_pin.repo_etl -->
<g id="node5" class="node">
<title>rolling_pin.repo_etl</title>
<polygon fill="#343434" stroke="#343434" points="995,-395.0867 813,-395.0867 813,-359.0867 995,-359.0867 995,-395.0867"/>
<text text-anchor="middle" x="904" y="-373.3867" font-family="Courier,monospace" font-size="14.00" fill="#b6ecf3">rolling_pin.repo_etl</text>
</g>
<!-- rolling_pin.radon_etl&#45;&gt;rolling_pin.repo_etl -->
<g id="edge3" class="edge">
<title>rolling_pin.radon_etl&#45;&gt;rolling_pin.repo_etl</title>
<path fill="none" stroke="#b6ecf3" d="M707.4662,-238.0966C747.5895,-266.472 825.5457,-321.6032 870.2746,-353.2358"/>
<polygon fill="#b6ecf3" stroke="#b6ecf3" points="868.3043,-356.1292 878.4898,-359.0457 872.3461,-350.414 868.3043,-356.1292"/>
</g>
<!-- rolling_pin.tools -->
<g id="node6" class="node">
<title>rolling_pin.tools</title>
<polygon fill="#343434" stroke="#343434" points="333,-460.0867 176,-460.0867 176,-424.0867 333,-424.0867 333,-460.0867"/>
<text text-anchor="middle" x="254.5" y="-438.3867" font-family="Courier,monospace" font-size="14.00" fill="#b6ecf3">rolling_pin.tools</text>
</g>
<!-- rolling_pin.tools&#45;&gt;rolling_pin.blob_etl -->
<g id="edge4" class="edge">
<title>rolling_pin.tools&#45;&gt;rolling_pin.blob_etl</title>
<path fill="none" stroke="#b6ecf3" d="M333.0704,-456.6155C341.4587,-458.1666 350.0749,-459.7599 358.6778,-461.3507"/>
<polygon fill="#b6ecf3" stroke="#b6ecf3" points="358.2865,-464.8376 368.7562,-463.2143 359.5594,-457.9543 358.2865,-464.8376"/>
</g>
<!-- rolling_pin.tools&#45;&gt;rolling_pin.radon_etl -->
<g id="edge5" class="edge">
<title>rolling_pin.tools&#45;&gt;rolling_pin.radon_etl</title>
<path fill="none" stroke="#b6ecf3" d="M283.0344,-423.8943C299.4886,-412.1965 319.521,-395.726 333,-377.0867 358.7293,-341.5071 335.4537,-313.416 369,-285.0867 369.533,-284.6366 493.0221,-259.0791 584.709,-240.1503"/>
<polygon fill="#b6ecf3" stroke="#b6ecf3" points="585.5113,-243.5586 594.5973,-238.1091 584.0961,-236.7031 585.5113,-243.5586"/>
</g>
<!-- rolling_pin.tools&#45;&gt;rolling_pin.repo_etl -->
<g id="edge6" class="edge">
<title>rolling_pin.tools&#45;&gt;rolling_pin.repo_etl</title>
<path fill="none" stroke="#b6ecf3" d="M333.1682,-434.2138C450.8894,-422.4326 672.8859,-400.2159 802.6205,-387.2324"/>
<polygon fill="#b6ecf3" stroke="#b6ecf3" points="803.352,-390.6768 812.9537,-386.1983 802.6549,-383.7116 803.352,-390.6768"/>
</g>
<!-- flasgger -->
<g id="node7" class="node">
<title>flasgger</title>
<polygon fill="#343434" stroke="#343434" points="501.5,-606.0867 418.5,-606.0867 418.5,-570.0867 501.5,-570.0867 501.5,-606.0867"/>
<text text-anchor="middle" x="460" y="-584.3867" font-family="Courier,monospace" font-size="14.00" fill="#de958e">flasgger</text>
</g>
<!-- flasgger&#45;&gt;rolling_pin.app -->
<g id="edge7" class="edge">
<title>flasgger&#45;&gt;rolling_pin.app</title>
<path fill="none" stroke="#de958e" d="M501.7565,-577.9297C529.8785,-571.0892 567.8733,-561.8472 601.7284,-553.6122"/>
<polygon fill="#de958e" stroke="#de958e" points="602.7302,-556.9706 611.6196,-551.2062 601.0757,-550.169 602.7302,-556.9706"/>
</g>
<!-- flask -->
<g id="node8" class="node">
<title>flask</title>
<polygon fill="#343434" stroke="#343434" points="489,-552.0867 431,-552.0867 431,-516.0867 489,-516.0867 489,-552.0867"/>
<text text-anchor="middle" x="460" y="-530.3867" font-family="Courier,monospace" font-size="14.00" fill="#de958e">flask</text>
</g>
<!-- flask&#45;&gt;rolling_pin.app -->
<g id="edge8" class="edge">
<title>flask&#45;&gt;rolling_pin.app</title>
<path fill="none" stroke="#de958e" d="M489.0226,-534.0867C517.5661,-534.0867 562.4499,-534.0867 601.7503,-534.0867"/>
<polygon fill="#de958e" stroke="#de958e" points="601.8722,-537.5868 611.8721,-534.0867 601.8721,-530.5868 601.8722,-537.5868"/>
</g>
<!-- rolling_pin -->
<g id="node9" class="node">
<title>rolling_pin</title>
<polygon fill="#343434" stroke="#343434" points="123.5,-414.0867 16.5,-414.0867 16.5,-378.0867 123.5,-378.0867 123.5,-414.0867"/>
<text text-anchor="middle" x="70" y="-392.3867" font-family="Courier,monospace" font-size="14.00" fill="#a0d17b">rolling_pin</text>
</g>
<!-- rolling_pin&#45;&gt;rolling_pin.app -->
<g id="edge9" class="edge">
<title>rolling_pin&#45;&gt;rolling_pin.app</title>
<path fill="none" stroke="#a0d17b" d="M123.5922,-394.1085C214.602,-392.5463 403.81,-397.1489 551,-453.0867 587.6045,-466.9977 625.1985,-491.4998 650.6714,-509.9234"/>
<polygon fill="#a0d17b" stroke="#a0d17b" points="648.6951,-512.8145 658.8264,-515.9143 652.8395,-507.1731 648.6951,-512.8145"/>
</g>
<!-- rolling_pin&#45;&gt;rolling_pin.blob_etl -->
<g id="edge10" class="edge">
<title>rolling_pin&#45;&gt;rolling_pin.blob_etl</title>
<path fill="none" stroke="#a0d17b" d="M88.8544,-414.0963C108.7375,-431.7917 141.8616,-457.7394 176,-469.0867 234.4061,-488.5002 303.3209,-491.6068 358.6371,-489.6885"/>
<polygon fill="#a0d17b" stroke="#a0d17b" points="358.9527,-493.1786 368.802,-489.2746 358.6679,-486.1844 358.9527,-493.1786"/>
</g>
<!-- rolling_pin&#45;&gt;rolling_pin.radon_etl -->
<g id="edge11" class="edge">
<title>rolling_pin&#45;&gt;rolling_pin.radon_etl</title>
<path fill="none" stroke="#a0d17b" d="M123.7609,-379.1738C129.5151,-376.268 135.0622,-372.9218 140,-369.0867 157.3365,-355.6215 349.4918,-57.1513 369,-47.0867 440.8856,-9.9994 478.5676,-11.0789 551,-47.0867 612.3964,-77.6083 652.705,-152.1675 670.8793,-192.7248"/>
<polygon fill="#a0d17b" stroke="#a0d17b" points="667.7241,-194.246 674.9228,-202.0197 674.1431,-191.4536 667.7241,-194.246"/>
</g>
<!-- rolling_pin&#45;&gt;rolling_pin.repo_etl -->
<g id="edge12" class="edge">
<title>rolling_pin&#45;&gt;rolling_pin.repo_etl</title>
<path fill="none" stroke="#a0d17b" d="M123.5169,-382.7138C129.8248,-379.1837 135.5779,-374.723 140,-369.0867 217.4481,-270.3739 98.2303,-187.5463 176,-89.0867 232.844,-17.1198 278.7863,-32.5777 369,-16.0867 448.5704,-1.5412 474.5336,10.2933 551,-16.0867 671.608,-57.6949 689.5442,-100.1941 777,-193.0867 824.3392,-243.3687 867.2217,-312.6365 888.9759,-350.2115"/>
<polygon fill="#a0d17b" stroke="#a0d17b" points="886.0324,-352.1146 894.0412,-359.0508 892.1059,-348.6342 886.0324,-352.1146"/>
</g>
<!-- rolling_pin&#45;&gt;rolling_pin.tools -->
<g id="edge13" class="edge">
<title>rolling_pin&#45;&gt;rolling_pin.tools</title>
<path fill="none" stroke="#a0d17b" d="M123.861,-409.5154C138.923,-413.2707 155.6467,-417.4403 171.9608,-421.5078"/>
<polygon fill="#a0d17b" stroke="#a0d17b" points="171.4975,-424.9993 182.0472,-424.0225 173.191,-418.2073 171.4975,-424.9993"/>
</g>
<!-- IPython.display -->
<g id="node10" class="node">
<title>IPython.display</title>
<polygon fill="#343434" stroke="#343434" points="140,-582.0867 0,-582.0867 0,-546.0867 140,-546.0867 140,-582.0867"/>
<text text-anchor="middle" x="70" y="-560.3867" font-family="Courier,monospace" font-size="14.00" fill="#de958e">IPython.display</text>
</g>
<!-- IPython.display&#45;&gt;rolling_pin.blob_etl -->
<g id="edge14" class="edge">
<title>IPython.display&#45;&gt;rolling_pin.blob_etl</title>
<path fill="none" stroke="#de958e" d="M140.2521,-554.2113C193.5052,-546.1443 268.3096,-533.5648 333,-518.0867 349.271,-514.1936 352.9803,-511.9106 369,-507.0867 375.4671,-505.1393 382.1959,-503.1234 388.9368,-501.1108"/>
<polygon fill="#de958e" stroke="#de958e" points="390.2091,-504.3838 398.7926,-498.173 388.2095,-497.6755 390.2091,-504.3838"/>
</g>
<!-- IPython.display&#45;&gt;rolling_pin.repo_etl -->
<g id="edge15" class="edge">
<title>IPython.display&#45;&gt;rolling_pin.repo_etl</title>
<path fill="none" stroke="#de958e" d="M75.6911,-582.0939C87.7382,-616.7441 119.4568,-691.9316 176,-722.0867 412.7095,-848.3262 569.9883,-836.7147 777,-666.0867 860.2081,-597.503 890.5326,-463.6298 900.112,-405.3385"/>
<polygon fill="#de958e" stroke="#de958e" points="903.5843,-405.7866 901.6673,-395.3667 896.6679,-404.7078 903.5843,-405.7866"/>
</g>
<!-- IPython.display&#45;&gt;rolling_pin.tools -->
<g id="edge16" class="edge">
<title>IPython.display&#45;&gt;rolling_pin.tools</title>
<path fill="none" stroke="#de958e" d="M97.2236,-546.0851C129.3812,-524.8211 182.9882,-489.3736 218.5393,-465.8655"/>
<polygon fill="#de958e" stroke="#de958e" points="220.7539,-468.5972 227.1647,-460.162 216.8929,-462.7583 220.7539,-468.5972"/>
</g>
<!-- lunchbox.tools -->
<g id="node11" class="node">
<title>lunchbox.tools</title>
<polygon fill="#343434" stroke="#343434" points="320.5,-652.0867 188.5,-652.0867 188.5,-616.0867 320.5,-616.0867 320.5,-652.0867"/>
<text text-anchor="middle" x="254.5" y="-630.3867" font-family="Courier,monospace" font-size="14.00" fill="#de958e">lunchbox.tools</text>
</g>
<!-- lunchbox.tools&#45;&gt;rolling_pin.app -->
<g id="edge17" class="edge">
<title>lunchbox.tools&#45;&gt;rolling_pin.app</title>
<path fill="none" stroke="#de958e" d="M320.6751,-638.8862C381.9059,-641.236 474.7101,-639.4309 551,-615.0867 588.7632,-603.0364 626.7186,-577.7809 651.9807,-558.6544"/>
<polygon fill="#de958e" stroke="#de958e" points="654.2656,-561.3121 660.0426,-552.4309 649.9881,-555.7711 654.2656,-561.3121"/>
</g>
<!-- lunchbox.tools&#45;&gt;rolling_pin.blob_etl -->
<g id="edge18" class="edge">
<title>lunchbox.tools&#45;&gt;rolling_pin.blob_etl</title>
<path fill="none" stroke="#de958e" d="M287.1123,-615.8695C302.4358,-606.133 320.1204,-593.0648 333,-578.0867 356.0675,-551.2605 341.8257,-529.743 369,-507.0867 370.5189,-505.8203 372.0953,-504.6134 373.7205,-503.463"/>
<polygon fill="#de958e" stroke="#de958e" points="375.5777,-506.4297 382.2132,-498.1701 371.8752,-500.489 375.5777,-506.4297"/>
</g>
<!-- lunchbox.tools&#45;&gt;rolling_pin.repo_etl -->
<g id="edge19" class="edge">
<title>lunchbox.tools&#45;&gt;rolling_pin.repo_etl</title>
<path fill="none" stroke="#de958e" d="M320.8604,-644.0273C428.3544,-656.3056 642.0963,-664.3757 777,-561.0867 832.6613,-518.4696 872.9964,-444.4026 891.9261,-404.4735"/>
<polygon fill="#de958e" stroke="#de958e" points="895.1346,-405.874 896.1686,-395.3297 888.7848,-402.9278 895.1346,-405.874"/>
</g>
<!-- pydot -->
<g id="node12" class="node">
<title>pydot</title>
<polygon fill="#343434" stroke="#343434" points="99,-498.0867 41,-498.0867 41,-462.0867 99,-462.0867 99,-498.0867"/>
<text text-anchor="middle" x="70" y="-476.3867" font-family="Courier,monospace" font-size="14.00" fill="#de958e">pydot</text>
</g>
<!-- pydot&#45;&gt;rolling_pin.blob_etl -->
<g id="edge20" class="edge">
<title>pydot&#45;&gt;rolling_pin.blob_etl</title>
<path fill="none" stroke="#de958e" d="M99.4456,-487.8888C120.577,-493.0714 149.8247,-499.399 176,-502.0867 245.4128,-509.2139 263.4787,-508.0637 333,-502.0867 341.3327,-501.3703 349.9392,-500.3941 358.5621,-499.2494"/>
<polygon fill="#de958e" stroke="#de958e" points="359.2585,-502.6861 368.6767,-497.8335 358.2881,-495.7537 359.2585,-502.6861"/>
</g>
<!-- pydot&#45;&gt;rolling_pin.tools -->
<g id="edge21" class="edge">
<title>pydot&#45;&gt;rolling_pin.tools</title>
<path fill="none" stroke="#de958e" d="M99.2346,-474.0655C117.3635,-470.3316 141.7119,-465.3167 165.7438,-460.3671"/>
<polygon fill="#de958e" stroke="#de958e" points="166.5535,-463.7739 175.6418,-458.3285 165.1413,-456.9178 166.5535,-463.7739"/>
</g>
<!-- networkx -->
<g id="node13" class="node">
<title>networkx</title>
<polygon fill="#343434" stroke="#343434" points="296,-713.0867 213,-713.0867 213,-677.0867 296,-677.0867 296,-713.0867"/>
<text text-anchor="middle" x="254.5" y="-691.3867" font-family="Courier,monospace" font-size="14.00" fill="#de958e">networkx</text>
</g>
<!-- networkx&#45;&gt;rolling_pin.blob_etl -->
<g id="edge22" class="edge">
<title>networkx&#45;&gt;rolling_pin.blob_etl</title>
<path fill="none" stroke="#de958e" d="M296.2255,-685.1414C309.6993,-680.0131 323.5745,-672.3716 333,-661.0867 378.0586,-607.1389 320.7799,-558.2282 369,-507.0867 369.7914,-506.2474 370.6075,-505.4338 371.4464,-504.6451"/>
<polygon fill="#de958e" stroke="#de958e" points="373.9074,-507.1601 379.5603,-498.1993 369.5532,-501.6791 373.9074,-507.1601"/>
</g>
<!-- networkx&#45;&gt;rolling_pin.repo_etl -->
<g id="edge23" class="edge">
<title>networkx&#45;&gt;rolling_pin.repo_etl</title>
<path fill="none" stroke="#de958e" d="M296.0716,-700.7293C391.537,-711.3343 629.5505,-724.0908 777,-613.0867 847.7952,-559.7901 883.5442,-455.1747 897.2095,-405.0968"/>
<polygon fill="#de958e" stroke="#de958e" points="900.6336,-405.8381 899.7951,-395.2765 893.8642,-404.0558 900.6336,-405.8381"/>
</g>
<!-- pandas -->
<g id="node14" class="node">
<title>pandas</title>
<polygon fill="#343434" stroke="#343434" points="287.5,-368.0867 221.5,-368.0867 221.5,-332.0867 287.5,-332.0867 287.5,-368.0867"/>
<text text-anchor="middle" x="254.5" y="-346.3867" font-family="Courier,monospace" font-size="14.00" fill="#de958e">pandas</text>
</g>
<!-- pandas&#45;&gt;rolling_pin.blob_etl -->
<g id="edge24" class="edge">
<title>pandas&#45;&gt;rolling_pin.blob_etl</title>
<path fill="none" stroke="#de958e" d="M283.0739,-368.1626C319.4722,-391.1883 382.4614,-431.0355 422.6359,-456.45"/>
<polygon fill="#de958e" stroke="#de958e" points="421.0161,-459.5668 431.3383,-461.9552 424.7584,-453.6511 421.0161,-459.5668"/>
</g>
<!-- pandas&#45;&gt;rolling_pin.radon_etl -->
<g id="edge25" class="edge">
<title>pandas&#45;&gt;rolling_pin.radon_etl</title>
<path fill="none" stroke="#de958e" d="M257.9093,-331.9475C267.0427,-289.1503 296.4729,-182.2472 369,-139.0867 438.5116,-97.7206 473.1922,-116.9744 551,-139.0867 589.5915,-150.054 627.9455,-175.9893 653.0842,-195.5801"/>
<polygon fill="#de958e" stroke="#de958e" points="651.0809,-198.4589 661.0841,-201.9499 655.4412,-192.9828 651.0809,-198.4589"/>
</g>
<!-- pandas&#45;&gt;rolling_pin.repo_etl -->
<g id="edge26" class="edge">
<title>pandas&#45;&gt;rolling_pin.repo_etl</title>
<path fill="none" stroke="#de958e" d="M287.6017,-351.4627C381.6695,-355.3732 653.3828,-366.6684 802.7132,-372.8761"/>
<polygon fill="#de958e" stroke="#de958e" points="802.6724,-376.3774 812.8092,-373.2958 802.9632,-369.3834 802.6724,-376.3774"/>
</g>
<!-- cufflinks -->
<g id="node15" class="node">
<title>cufflinks</title>
<polygon fill="#343434" stroke="#343434" points="505.5,-92.0867 414.5,-92.0867 414.5,-56.0867 505.5,-56.0867 505.5,-92.0867"/>
<text text-anchor="middle" x="460" y="-70.3867" font-family="Courier,monospace" font-size="14.00" fill="#de958e">cufflinks</text>
</g>
<!-- cufflinks&#45;&gt;rolling_pin.radon_etl -->
<g id="edge27" class="edge">
<title>cufflinks&#45;&gt;rolling_pin.radon_etl</title>
<path fill="none" stroke="#de958e" d="M505.9242,-86.4839C520.8348,-91.4771 537.1053,-97.999 551,-106.0867 592.7959,-130.4149 633.6464,-169.0133 658.3266,-194.4473"/>
<polygon fill="#de958e" stroke="#de958e" points="656.0063,-197.0848 665.45,-201.8876 661.0626,-192.2439 656.0063,-197.0848"/>
</g>
<!-- numpy -->
<g id="node16" class="node">
<title>numpy</title>
<polygon fill="#343434" stroke="#343434" points="489,-330.0867 431,-330.0867 431,-294.0867 489,-294.0867 489,-330.0867"/>
<text text-anchor="middle" x="460" y="-308.3867" font-family="Courier,monospace" font-size="14.00" fill="#de958e">numpy</text>
</g>
<!-- numpy&#45;&gt;rolling_pin.radon_etl -->
<g id="edge28" class="edge">
<title>numpy&#45;&gt;rolling_pin.radon_etl</title>
<path fill="none" stroke="#de958e" d="M489.3508,-302.525C507.3056,-296.4887 530.6577,-288.3019 551,-280.0867 579.4859,-268.5826 610.7891,-254.3079 635.6507,-242.5683"/>
<polygon fill="#de958e" stroke="#de958e" points="637.3115,-245.6543 644.8445,-238.2042 634.3097,-239.3306 637.3115,-245.6543"/>
</g>
<!-- numpy&#45;&gt;rolling_pin.repo_etl -->
<g id="edge29" class="edge">
<title>numpy&#45;&gt;rolling_pin.repo_etl</title>
<path fill="none" stroke="#de958e" d="M489.0537,-313.5236C545.1056,-316.6254 671.9189,-325.2458 777,-344.0867 795.1628,-347.3432 814.5463,-351.8427 832.5597,-356.4726"/>
<polygon fill="#de958e" stroke="#de958e" points="831.8493,-359.9045 842.4097,-359.0511 833.6221,-353.1327 831.8493,-359.9045"/>
</g>
<!-- radon.cli -->
<g id="node17" class="node">
<title>radon.cli</title>
<polygon fill="#343434" stroke="#343434" points="505.5,-238.0867 414.5,-238.0867 414.5,-202.0867 505.5,-202.0867 505.5,-238.0867"/>
<text text-anchor="middle" x="460" y="-216.3867" font-family="Courier,monospace" font-size="14.00" fill="#de958e">radon.cli</text>
</g>
<!-- radon.cli&#45;&gt;rolling_pin.radon_etl -->
<g id="edge30" class="edge">
<title>radon.cli&#45;&gt;rolling_pin.radon_etl</title>
<path fill="none" stroke="#de958e" d="M505.7294,-220.0867C526.3677,-220.0867 551.6751,-220.0867 576.6045,-220.0867"/>
<polygon fill="#de958e" stroke="#de958e" points="576.874,-223.5868 586.874,-220.0867 576.8739,-216.5868 576.874,-223.5868"/>
</g>
<!-- radon.complexity -->
<g id="node18" class="node">
<title>radon.complexity</title>
<polygon fill="#343434" stroke="#343434" points="534.5,-184.0867 385.5,-184.0867 385.5,-148.0867 534.5,-148.0867 534.5,-184.0867"/>
<text text-anchor="middle" x="460" y="-162.3867" font-family="Courier,monospace" font-size="14.00" fill="#de958e">radon.complexity</text>
</g>
<!-- radon.complexity&#45;&gt;rolling_pin.radon_etl -->
<g id="edge31" class="edge">
<title>radon.complexity&#45;&gt;rolling_pin.radon_etl</title>
<path fill="none" stroke="#de958e" d="M534.2314,-184.143C554.6888,-189.1191 577.0245,-194.5521 597.9923,-199.6524"/>
<polygon fill="#de958e" stroke="#de958e" points="597.2946,-203.0846 607.8385,-202.0474 598.9491,-196.283 597.2946,-203.0846"/>
</g>
</g>
</svg>
