<?xml version="1.0" encoding="UTF-8" standalone="no"?>
<!DOCTYPE svg PUBLIC "-//W3C//DTD SVG 1.1//EN"
 "http://www.w3.org/Graphics/SVG/1.1/DTD/svg11.dtd">
<!-- Generated by graphviz version 2.40.1 (20161225.0304)
 -->
<!-- Title: %3 Pages: 1 -->
<svg width="916pt" height="260pt"
 viewBox="0.00 0.00 916.11 260.00" xmlns="http://www.w3.org/2000/svg" xmlns:xlink="http://www.w3.org/1999/xlink">
<g id="graph0" class="graph" transform="scale(1 1) rotate(0) translate(4 256)">
<title>%3</title>
<polygon fill="#242424" stroke="transparent" points="-4,4 -4,-256 912.1136,-256 912.1136,4 -4,4"/>
<!-- cli -->
<g id="node1" class="node">
<title>cli</title>
<polygon fill="#343434" stroke="#343434" points="54,-252 0,-252 0,-216 54,-216 54,-252"/>
<text text-anchor="middle" x="27" y="-230.3" font-family="Courier,monospace" font-size="14.00" fill="#b6ecf3">cli</text>
</g>
<!-- rolling_pin.blob_etl -->
<g id="node2" class="node">
<title>rolling_pin.blob_etl</title>
<polygon fill="#343434" stroke="#343434" points="340,-108 158,-108 158,-72 340,-72 340,-108"/>
<text text-anchor="middle" x="249" y="-86.3" font-family="Courier,monospace" font-size="14.00" fill="#b6ecf3">rolling_pin.blob_etl</text>
</g>
<!-- rolling_pin.radon_etl -->
<g id="node3" class="node">
<title>rolling_pin.radon_etl</title>
<polygon fill="#343434" stroke="#343434" points="738,-36 548,-36 548,0 738,0 738,-36"/>
<text text-anchor="middle" x="643" y="-14.3" font-family="Courier,monospace" font-size="14.00" fill="#b6ecf3">rolling_pin.radon_etl</text>
</g>
<!-- rolling_pin.blob_etl&#45;&gt;rolling_pin.radon_etl -->
<g id="edge1" class="edge">
<title>rolling_pin.blob_etl&#45;&gt;rolling_pin.radon_etl</title>
<path fill="none" stroke="#b6ecf3" d="M340.3818,-73.3008C399.2772,-62.5382 476.0535,-48.508 537.5349,-37.2728"/>
<polygon fill="#b6ecf3" stroke="#b6ecf3" points="538.4471,-40.6642 547.655,-35.4235 537.1887,-33.7782 538.4471,-40.6642"/>
</g>
<!-- rolling_pin.repo_etl -->
<g id="node4" class="node">
<title>rolling_pin.repo_etl</title>
<polygon fill="#343434" stroke="#343434" points="578,-108 396,-108 396,-72 578,-72 578,-108"/>
<text text-anchor="middle" x="487" y="-86.3" font-family="Courier,monospace" font-size="14.00" fill="#b6ecf3">rolling_pin.repo_etl</text>
</g>
<!-- rolling_pin.tools -->
<g id="node5" class="node">
<title>rolling_pin.tools</title>
<polygon fill="#343434" stroke="#343434" points="220.5,-180 63.5,-180 63.5,-144 220.5,-144 220.5,-180"/>
<text text-anchor="middle" x="142" y="-158.3" font-family="Courier,monospace" font-size="14.00" fill="#b6ecf3">rolling_pin.tools</text>
</g>
<!-- rolling_pin.tools&#45;&gt;rolling_pin.blob_etl -->
<g id="edge2" class="edge">
<title>rolling_pin.tools&#45;&gt;rolling_pin.blob_etl</title>
<path fill="none" stroke="#b6ecf3" d="M169.0006,-143.8314C182.4331,-134.7927 198.8473,-123.7476 213.3039,-114.0198"/>
<polygon fill="#b6ecf3" stroke="#b6ecf3" points="215.6654,-116.6494 222.008,-108.1628 211.7575,-110.8418 215.6654,-116.6494"/>
</g>
<!-- rolling_pin.tools&#45;&gt;rolling_pin.repo_etl -->
<g id="edge3" class="edge">
<title>rolling_pin.tools&#45;&gt;rolling_pin.repo_etl</title>
<path fill="none" stroke="#b6ecf3" d="M220.7175,-145.572C271.1736,-135.042 337.0095,-121.3024 390.5939,-110.1195"/>
<polygon fill="#b6ecf3" stroke="#b6ecf3" points="391.3762,-113.5318 400.4502,-108.0626 389.9461,-106.6794 391.3762,-113.5318"/>
</g>
<!-- rolling_pin.utils -->
<g id="node6" class="node">
<title>rolling_pin.utils</title>
<polygon fill="#343434" stroke="#343434" points="658.5,-180 501.5,-180 501.5,-144 658.5,-144 658.5,-180"/>
<text text-anchor="middle" x="580" y="-158.3" font-family="Courier,monospace" font-size="14.00" fill="#b6ecf3">rolling_pin.utils</text>
</g>
<!-- rolling_pin.utils&#45;&gt;rolling_pin.repo_etl -->
<g id="edge4" class="edge">
<title>rolling_pin.utils&#45;&gt;rolling_pin.repo_etl</title>
<path fill="none" stroke="#b6ecf3" d="M556.5322,-143.8314C544.9673,-134.8779 530.8596,-123.9558 518.3817,-114.2955"/>
<polygon fill="#b6ecf3" stroke="#b6ecf3" points="520.5102,-111.5171 510.4603,-108.1628 516.225,-117.0521 520.5102,-111.5171"/>
</g>
<!-- IPython.display -->
<g id="node7" class="node">
<title>IPython.display</title>
<polygon fill="#343434" stroke="#343434" points="212,-252 72,-252 72,-216 212,-216 212,-252"/>
<text text-anchor="middle" x="142" y="-230.3" font-family="Courier,monospace" font-size="14.00" fill="#de958e">IPython.display</text>
</g>
<!-- IPython.display&#45;&gt;rolling_pin.tools -->
<g id="edge5" class="edge">
<title>IPython.display&#45;&gt;rolling_pin.tools</title>
<path fill="none" stroke="#de958e" d="M142,-215.8314C142,-208.131 142,-198.9743 142,-190.4166"/>
<polygon fill="#de958e" stroke="#de958e" points="145.5001,-190.4132 142,-180.4133 138.5001,-190.4133 145.5001,-190.4132"/>
</g>
<!-- rolling_pin -->
<g id="node8" class="node">
<title>rolling_pin</title>
<polygon fill="#343434" stroke="#343434" points="526.5,-252 419.5,-252 419.5,-216 526.5,-216 526.5,-252"/>
<text text-anchor="middle" x="473" y="-230.3" font-family="Courier,monospace" font-size="14.00" fill="#a0d17b">rolling_pin</text>
</g>
<!-- rolling_pin&#45;&gt;rolling_pin.blob_etl -->
<g id="edge6" class="edge">
<title>rolling_pin&#45;&gt;rolling_pin.blob_etl</title>
<path fill="none" stroke="#a0d17b" d="M419.1869,-226.3205C365.6588,-217.5814 288.6151,-201.6619 268,-180 252.4875,-163.6998 248.2954,-138.0773 247.6616,-118.3329"/>
<polygon fill="#a0d17b" stroke="#a0d17b" points="251.1607,-118.053 247.6262,-108.0652 244.1608,-118.0772 251.1607,-118.053"/>
</g>
<!-- rolling_pin&#45;&gt;rolling_pin.radon_etl -->
<g id="edge7" class="edge">
<title>rolling_pin&#45;&gt;rolling_pin.radon_etl</title>
<path fill="none" stroke="#a0d17b" d="M526.5638,-226.8924C632.0683,-211.6042 860.1154,-171.7285 901,-108 909.6396,-94.5331 911.0885,-84.4186 901,-72 881.4852,-47.9778 810.5645,-34.2654 748.009,-26.6743"/>
<polygon fill="#a0d17b" stroke="#a0d17b" points="748.3895,-23.1951 738.0503,-25.5079 747.5752,-30.1475 748.3895,-23.1951"/>
</g>
<!-- rolling_pin&#45;&gt;rolling_pin.repo_etl -->
<g id="edge8" class="edge">
<title>rolling_pin&#45;&gt;rolling_pin.repo_etl</title>
<path fill="none" stroke="#a0d17b" d="M474.7731,-215.7623C477.161,-191.201 481.4343,-147.2474 484.2434,-118.3541"/>
<polygon fill="#a0d17b" stroke="#a0d17b" points="487.7571,-118.3814 485.2413,-108.0896 480.79,-117.704 487.7571,-118.3814"/>
</g>
<!-- rolling_pin&#45;&gt;rolling_pin.tools -->
<g id="edge9" class="edge">
<title>rolling_pin&#45;&gt;rolling_pin.tools</title>
<path fill="none" stroke="#a0d17b" d="M419.4513,-222.3519C368.4951,-211.2678 290.8839,-194.3856 230.6913,-181.2924"/>
<polygon fill="#a0d17b" stroke="#a0d17b" points="231.3235,-177.8481 220.8081,-179.1425 229.8356,-184.6882 231.3235,-177.8481"/>
</g>
<!-- rolling_pin&#45;&gt;rolling_pin.utils -->
<g id="edge10" class="edge">
<title>rolling_pin&#45;&gt;rolling_pin.utils</title>
<path fill="none" stroke="#a0d17b" d="M500.0006,-215.8314C513.4331,-206.7927 529.8473,-195.7476 544.3039,-186.0198"/>
<polygon fill="#a0d17b" stroke="#a0d17b" points="546.6654,-188.6494 553.008,-180.1628 542.7575,-182.8418 546.6654,-188.6494"/>
</g>
<!-- networkx -->
<g id="node9" class="node">
<title>networkx</title>
<polygon fill="#343434" stroke="#343434" points="360.5,-180 277.5,-180 277.5,-144 360.5,-144 360.5,-180"/>
<text text-anchor="middle" x="319" y="-158.3" font-family="Courier,monospace" font-size="14.00" fill="#de958e">networkx</text>
</g>
<!-- networkx&#45;&gt;rolling_pin.blob_etl -->
<g id="edge11" class="edge">
<title>networkx&#45;&gt;rolling_pin.blob_etl</title>
<path fill="none" stroke="#de958e" d="M301.336,-143.8314C293.0268,-135.2848 282.9736,-124.9443 273.9082,-115.6198"/>
<polygon fill="#de958e" stroke="#de958e" points="276.3821,-113.1435 266.9018,-108.4133 271.3631,-118.023 276.3821,-113.1435"/>
</g>
<!-- networkx&#45;&gt;rolling_pin.repo_etl -->
<g id="edge12" class="edge">
<title>networkx&#45;&gt;rolling_pin.repo_etl</title>
<path fill="none" stroke="#de958e" d="M360.5281,-144.2022C383.1741,-134.4968 411.4091,-122.3961 435.4524,-112.0918"/>
<polygon fill="#de958e" stroke="#de958e" points="436.97,-115.2494 444.7827,-108.0931 434.2125,-108.8154 436.97,-115.2494"/>
</g>
<!-- numpy -->
<g id="node10" class="node">
<title>numpy</title>
<polygon fill="#343434" stroke="#343434" points="735,-180 677,-180 677,-144 735,-144 735,-180"/>
<text text-anchor="middle" x="706" y="-158.3" font-family="Courier,monospace" font-size="14.00" fill="#de958e">numpy</text>
</g>
<!-- numpy&#45;&gt;rolling_pin.radon_etl -->
<g id="edge13" class="edge">
<title>numpy&#45;&gt;rolling_pin.radon_etl</title>
<path fill="none" stroke="#de958e" d="M676.7819,-146.4405C656,-134.6926 630.7818,-118.8034 625,-108 614.6276,-88.619 620.6612,-63.9908 628.4311,-45.3988"/>
<polygon fill="#de958e" stroke="#de958e" points="631.6214,-46.8381 632.5749,-36.2863 625.2493,-43.9405 631.6214,-46.8381"/>
</g>
<!-- numpy&#45;&gt;rolling_pin.repo_etl -->
<g id="edge14" class="edge">
<title>numpy&#45;&gt;rolling_pin.repo_etl</title>
<path fill="none" stroke="#de958e" d="M676.8014,-147.9867C673.5225,-146.5739 670.2081,-145.2146 667,-144 634.0944,-131.5416 596.9693,-119.9967 565.0192,-110.8066"/>
<polygon fill="#de958e" stroke="#de958e" points="565.8565,-107.406 555.2802,-108.0317 563.9383,-114.138 565.8565,-107.406"/>
</g>
<!-- pandas -->
<g id="node11" class="node">
<title>pandas</title>
<polygon fill="#343434" stroke="#343434" points="445,-180 379,-180 379,-144 445,-144 445,-180"/>
<text text-anchor="middle" x="412" y="-158.3" font-family="Courier,monospace" font-size="14.00" fill="#de958e">pandas</text>
</g>
<!-- pandas&#45;&gt;rolling_pin.blob_etl -->
<g id="edge15" class="edge">
<title>pandas&#45;&gt;rolling_pin.blob_etl</title>
<path fill="none" stroke="#de958e" d="M378.6212,-147.256C355.7262,-137.1428 324.9376,-123.543 299.1121,-112.1354"/>
<polygon fill="#de958e" stroke="#de958e" points="300.4074,-108.8814 289.8459,-108.0423 297.579,-115.2845 300.4074,-108.8814"/>
</g>
<!-- pandas&#45;&gt;rolling_pin.radon_etl -->
<g id="edge16" class="edge">
<title>pandas&#45;&gt;rolling_pin.radon_etl</title>
<path fill="none" stroke="#de958e" d="M398.3796,-143.8459C385.4026,-124.1621 370.1449,-92.7814 387,-72 406.2098,-48.3154 475.6968,-34.6205 537.4342,-26.9517"/>
<polygon fill="#de958e" stroke="#de958e" points="538.1503,-30.391 547.6629,-25.7263 537.3176,-23.4407 538.1503,-30.391"/>
</g>
<!-- pandas&#45;&gt;rolling_pin.repo_etl -->
<g id="edge17" class="edge">
<title>pandas&#45;&gt;rolling_pin.repo_etl</title>
<path fill="none" stroke="#de958e" d="M430.9257,-143.8314C439.9857,-135.1337 450.9809,-124.5783 460.8265,-115.1265"/>
<polygon fill="#de958e" stroke="#de958e" points="463.2904,-117.613 468.0804,-108.1628 458.4426,-112.5633 463.2904,-117.613"/>
</g>
<!-- radon.cli -->
<g id="node12" class="node">
<title>radon.cli</title>
<polygon fill="#343434" stroke="#343434" points="725.5,-108 634.5,-108 634.5,-72 725.5,-72 725.5,-108"/>
<text text-anchor="middle" x="680" y="-86.3" font-family="Courier,monospace" font-size="14.00" fill="#de958e">radon.cli</text>
</g>
<!-- radon.cli&#45;&gt;rolling_pin.radon_etl -->
<g id="edge18" class="edge">
<title>radon.cli&#45;&gt;rolling_pin.radon_etl</title>
<path fill="none" stroke="#de958e" d="M670.6633,-71.8314C666.5757,-63.8771 661.6896,-54.369 657.1691,-45.5723"/>
<polygon fill="#de958e" stroke="#de958e" points="660.1461,-43.7078 652.4624,-36.4133 653.9201,-46.9074 660.1461,-43.7078"/>
</g>
<!-- radon.complexity -->
<g id="node13" class="node">
<title>radon.complexity</title>
<polygon fill="#343434" stroke="#343434" points="892.5,-108 743.5,-108 743.5,-72 892.5,-72 892.5,-108"/>
<text text-anchor="middle" x="818" y="-86.3" font-family="Courier,monospace" font-size="14.00" fill="#de958e">radon.complexity</text>
</g>
<!-- radon.complexity&#45;&gt;rolling_pin.radon_etl -->
<g id="edge19" class="edge">
<title>radon.complexity&#45;&gt;rolling_pin.radon_etl</title>
<path fill="none" stroke="#de958e" d="M773.8401,-71.8314C750.2268,-62.1162 720.9798,-50.0831 696.13,-39.8592"/>
<polygon fill="#de958e" stroke="#de958e" points="697.4219,-36.6061 686.8423,-36.038 694.7585,-43.0797 697.4219,-36.6061"/>
</g>
</g>
</svg>
