<?xml version="1.0" encoding="UTF-8" standalone="no"?>
<!DOCTYPE svg PUBLIC "-//W3C//DTD SVG 1.1//EN"
 "http://www.w3.org/Graphics/SVG/1.1/DTD/svg11.dtd">
<!-- Generated by graphviz version 2.43.0 (0)
 -->
<!-- Title: %3 Pages: 1 -->
<svg width="1134pt" height="951pt"
 viewBox="0.00 0.00 1134.00 950.82" xmlns="http://www.w3.org/2000/svg" xmlns:xlink="http://www.w3.org/1999/xlink">
<g id="graph0" class="graph" transform="scale(1 1) rotate(0) translate(4 946.82)">
<title>%3</title>
<polygon fill="#242424" stroke="transparent" points="-4,4 -4,-946.82 1130,-946.82 1130,4 -4,4"/>
<!-- __init__ -->
<g id="node1" class="node">
<title>__init__</title>
<polygon fill="#343434" stroke="#343434" points="136.5,-138.82 53.5,-138.82 53.5,-102.82 136.5,-102.82 136.5,-138.82"/>
<text text-anchor="middle" x="95" y="-117.12" font-family="Courier,monospace" font-size="14.00" fill="#b6ecf3">__init__</text>
</g>
<!-- cli -->
<g id="node2" class="node">
<title>cli</title>
<polygon fill="#343434" stroke="#343434" points="122,-192.82 68,-192.82 68,-156.82 122,-156.82 122,-192.82"/>
<text text-anchor="middle" x="95" y="-171.12" font-family="Courier,monospace" font-size="14.00" fill="#b6ecf3">cli</text>
</g>
<!-- rolling_pin.__init__ -->
<g id="node3" class="node">
<title>rolling_pin.__init__</title>
<polygon fill="#343434" stroke="#343434" points="432.5,-796.82 250.5,-796.82 250.5,-760.82 432.5,-760.82 432.5,-796.82"/>
<text text-anchor="middle" x="341.5" y="-775.12" font-family="Courier,monospace" font-size="14.00" fill="#b6ecf3">rolling_pin.__init__</text>
</g>
<!-- rolling_pin.blob_etl -->
<g id="node4" class="node">
<title>rolling_pin.blob_etl</title>
<polygon fill="#343434" stroke="#343434" points="675,-520.82 493,-520.82 493,-484.82 675,-484.82 675,-520.82"/>
<text text-anchor="middle" x="584" y="-499.12" font-family="Courier,monospace" font-size="14.00" fill="#b6ecf3">rolling_pin.blob_etl</text>
</g>
<!-- rolling_pin.conform_etl -->
<g id="node7" class="node">
<title>rolling_pin.conform_etl</title>
<polygon fill="#343434" stroke="#343434" points="917,-612.82 711,-612.82 711,-576.82 917,-576.82 917,-612.82"/>
<text text-anchor="middle" x="814" y="-591.12" font-family="Courier,monospace" font-size="14.00" fill="#b6ecf3">rolling_pin.conform_etl</text>
</g>
<!-- rolling_pin.blob_etl&#45;&gt;rolling_pin.conform_etl -->
<g id="edge1" class="edge">
<title>rolling_pin.blob_etl&#45;&gt;rolling_pin.conform_etl</title>
<path fill="none" stroke="#b6ecf3" d="M629.77,-520.89C666.72,-535.79 719.27,-557 758.62,-572.88"/>
<polygon fill="#b6ecf3" stroke="#b6ecf3" points="757.75,-576.3 768.33,-576.79 760.37,-569.81 757.75,-576.3"/>
</g>
<!-- rolling_pin.radon_etl -->
<g id="node8" class="node">
<title>rolling_pin.radon_etl</title>
<polygon fill="#343434" stroke="#343434" points="909,-269.82 719,-269.82 719,-233.82 909,-233.82 909,-269.82"/>
<text text-anchor="middle" x="814" y="-248.12" font-family="Courier,monospace" font-size="14.00" fill="#b6ecf3">rolling_pin.radon_etl</text>
</g>
<!-- rolling_pin.blob_etl&#45;&gt;rolling_pin.radon_etl -->
<g id="edge2" class="edge">
<title>rolling_pin.blob_etl&#45;&gt;rolling_pin.radon_etl</title>
<path fill="none" stroke="#b6ecf3" d="M611.24,-484.8C629.99,-471.31 655.3,-451.8 675,-431.82 723.94,-382.2 771.18,-315.15 795.67,-278.49"/>
<polygon fill="#b6ecf3" stroke="#b6ecf3" points="798.78,-280.12 801.39,-269.85 792.95,-276.25 798.78,-280.12"/>
</g>
<!-- rolling_pin.command -->
<g id="node5" class="node">
<title>rolling_pin.command</title>
<polygon fill="#343434" stroke="#343434" points="1126,-422.82 953,-422.82 953,-386.82 1126,-386.82 1126,-422.82"/>
<text text-anchor="middle" x="1039.5" y="-401.12" font-family="Courier,monospace" font-size="14.00" fill="#b6ecf3">rolling_pin.command</text>
</g>
<!-- rolling_pin.conform_config -->
<g id="node6" class="node">
<title>rolling_pin.conform_config</title>
<polygon fill="#343434" stroke="#343434" points="457,-888.82 226,-888.82 226,-852.82 457,-852.82 457,-888.82"/>
<text text-anchor="middle" x="341.5" y="-867.12" font-family="Courier,monospace" font-size="14.00" fill="#b6ecf3">rolling_pin.conform_config</text>
</g>
<!-- rolling_pin.conform_config&#45;&gt;rolling_pin.conform_etl -->
<g id="edge3" class="edge">
<title>rolling_pin.conform_config&#45;&gt;rolling_pin.conform_etl</title>
<path fill="none" stroke="#b6ecf3" d="M421.38,-852.79C492.08,-834.09 596.44,-800.02 675,-746.82 726.2,-712.14 771.39,-654.66 795.19,-621.2"/>
<polygon fill="#b6ecf3" stroke="#b6ecf3" points="798.18,-623.04 801.05,-612.84 792.45,-619.02 798.18,-623.04"/>
</g>
<!-- rolling_pin.conform_etl&#45;&gt;rolling_pin.command -->
<g id="edge4" class="edge">
<title>rolling_pin.conform_etl&#45;&gt;rolling_pin.command</title>
<path fill="none" stroke="#b6ecf3" d="M836.43,-576.6C876.73,-542.34 963.84,-468.29 1009.4,-429.56"/>
<polygon fill="#b6ecf3" stroke="#b6ecf3" points="1011.78,-432.13 1017.13,-422.98 1007.25,-426.79 1011.78,-432.13"/>
</g>
<!-- rolling_pin.radon_etl&#45;&gt;rolling_pin.command -->
<g id="edge5" class="edge">
<title>rolling_pin.radon_etl&#45;&gt;rolling_pin.command</title>
<path fill="none" stroke="#b6ecf3" d="M841.52,-269.97C881.84,-297.58 958.63,-350.14 1003.49,-380.85"/>
<polygon fill="#b6ecf3" stroke="#b6ecf3" points="1001.79,-383.93 1012.02,-386.69 1005.74,-378.15 1001.79,-383.93"/>
</g>
<!-- rolling_pin.repo_etl -->
<g id="node9" class="node">
<title>rolling_pin.repo_etl</title>
<polygon fill="#343434" stroke="#343434" points="675,-422.82 493,-422.82 493,-386.82 675,-386.82 675,-422.82"/>
<text text-anchor="middle" x="584" y="-401.12" font-family="Courier,monospace" font-size="14.00" fill="#b6ecf3">rolling_pin.repo_etl</text>
</g>
<!-- rolling_pin.repo_etl&#45;&gt;rolling_pin.command -->
<g id="edge6" class="edge">
<title>rolling_pin.repo_etl&#45;&gt;rolling_pin.command</title>
<path fill="none" stroke="#b6ecf3" d="M675.14,-404.82C752.39,-404.82 863.37,-404.82 942.32,-404.82"/>
<polygon fill="#b6ecf3" stroke="#b6ecf3" points="942.76,-408.32 952.76,-404.82 942.76,-401.32 942.76,-408.32"/>
</g>
<!-- rolling_pin.tools -->
<g id="node10" class="node">
<title>rolling_pin.tools</title>
<polygon fill="#343434" stroke="#343434" points="420,-292.82 263,-292.82 263,-256.82 420,-256.82 420,-292.82"/>
<text text-anchor="middle" x="341.5" y="-271.12" font-family="Courier,monospace" font-size="14.00" fill="#b6ecf3">rolling_pin.tools</text>
</g>
<!-- rolling_pin.tools&#45;&gt;rolling_pin.blob_etl -->
<g id="edge7" class="edge">
<title>rolling_pin.tools&#45;&gt;rolling_pin.blob_etl</title>
<path fill="none" stroke="#b6ecf3" d="M366.01,-293.03C390.34,-312.51 428.66,-345.06 457,-377.82 475.87,-399.64 473.44,-410.63 493,-431.82 509.13,-449.29 529.8,-465.91 547.26,-478.68"/>
<polygon fill="#b6ecf3" stroke="#b6ecf3" points="545.38,-481.64 555.54,-484.62 549.46,-475.95 545.38,-481.64"/>
</g>
<!-- rolling_pin.tools&#45;&gt;rolling_pin.conform_etl -->
<g id="edge8" class="edge">
<title>rolling_pin.tools&#45;&gt;rolling_pin.conform_etl</title>
<path fill="none" stroke="#b6ecf3" d="M408.11,-292.84C424.4,-298.17 441.6,-304.56 457,-311.82 474.17,-319.92 475.51,-327.42 493,-334.82 569.55,-367.21 607.27,-329.65 675,-377.82 743.3,-426.39 785.64,-520.42 803.36,-567.11"/>
<polygon fill="#b6ecf3" stroke="#b6ecf3" points="800.12,-568.43 806.87,-576.59 806.68,-566 800.12,-568.43"/>
</g>
<!-- rolling_pin.tools&#45;&gt;rolling_pin.radon_etl -->
<g id="edge9" class="edge">
<title>rolling_pin.tools&#45;&gt;rolling_pin.radon_etl</title>
<path fill="none" stroke="#b6ecf3" d="M420.26,-258.16C443.54,-253.9 469.2,-249.94 493,-247.82 573.57,-240.65 594.12,-246.65 675,-247.82 685.83,-247.98 697.13,-248.2 708.4,-248.47"/>
<polygon fill="#b6ecf3" stroke="#b6ecf3" points="708.65,-251.98 718.73,-248.72 708.82,-244.98 708.65,-251.98"/>
</g>
<!-- rolling_pin.tools&#45;&gt;rolling_pin.repo_etl -->
<g id="edge10" class="edge">
<title>rolling_pin.tools&#45;&gt;rolling_pin.repo_etl</title>
<path fill="none" stroke="#b6ecf3" d="M420.18,-287.42C433.37,-292.01 446.26,-298.28 457,-306.82 483.15,-327.62 467.59,-351.13 493,-372.82 496.92,-376.17 501.21,-379.17 505.74,-381.87"/>
<polygon fill="#b6ecf3" stroke="#b6ecf3" points="504.2,-385.02 514.67,-386.69 507.53,-378.86 504.2,-385.02"/>
</g>
<!-- IPython.display -->
<g id="node11" class="node">
<title>IPython.display</title>
<polygon fill="#343434" stroke="#343434" points="165,-537.82 25,-537.82 25,-501.82 165,-501.82 165,-537.82"/>
<text text-anchor="middle" x="95" y="-516.12" font-family="Courier,monospace" font-size="14.00" fill="#de958e">IPython.display</text>
</g>
<!-- IPython.display&#45;&gt;rolling_pin.blob_etl -->
<g id="edge11" class="edge">
<title>IPython.display&#45;&gt;rolling_pin.blob_etl</title>
<path fill="none" stroke="#de958e" d="M146.86,-537.83C170.58,-545.31 199.39,-553.11 226,-556.82 327.68,-571.01 358.17,-584.63 457,-556.82 475.05,-551.74 476.08,-542.89 493,-534.82 500.64,-531.18 508.81,-527.71 516.99,-524.51"/>
<polygon fill="#de958e" stroke="#de958e" points="518.48,-527.69 526.58,-520.86 515.99,-521.14 518.48,-527.69"/>
</g>
<!-- IPython.display&#45;&gt;rolling_pin.conform_etl -->
<g id="edge12" class="edge">
<title>IPython.display&#45;&gt;rolling_pin.conform_etl</title>
<path fill="none" stroke="#de958e" d="M128.66,-537.91C194.88,-573.38 350.78,-650.79 493,-675.82 572.66,-689.84 596.94,-697.04 675,-675.82 715.4,-664.84 756.05,-638.72 782.66,-619.09"/>
<polygon fill="#de958e" stroke="#de958e" points="784.91,-621.78 790.79,-612.97 780.7,-616.19 784.91,-621.78"/>
</g>
<!-- IPython.display&#45;&gt;rolling_pin.repo_etl -->
<g id="edge13" class="edge">
<title>IPython.display&#45;&gt;rolling_pin.repo_etl</title>
<path fill="none" stroke="#de958e" d="M106.54,-501.73C130.95,-460.53 191.93,-361.95 226,-344.82 317.72,-298.7 359.89,-311.5 457,-344.82 476.17,-351.4 475.22,-363.08 493,-372.82 499.75,-376.52 507.01,-379.93 514.37,-383.03"/>
<polygon fill="#de958e" stroke="#de958e" points="513.14,-386.31 523.72,-386.8 515.75,-379.81 513.14,-386.31"/>
</g>
<!-- IPython.display&#45;&gt;rolling_pin.tools -->
<g id="edge14" class="edge">
<title>IPython.display&#45;&gt;rolling_pin.tools</title>
<path fill="none" stroke="#de958e" d="M107.88,-501.65C126.01,-473.77 161.49,-418.63 190,-370.82 206.71,-342.79 200.33,-326.97 226,-306.82 234.18,-300.4 243.58,-295.26 253.4,-291.16"/>
<polygon fill="#de958e" stroke="#de958e" points="254.82,-294.37 262.91,-287.53 252.32,-287.82 254.82,-294.37"/>
</g>
<!-- click -->
<g id="node12" class="node">
<title>click</title>
<polygon fill="#343434" stroke="#343434" points="843,-215.82 785,-215.82 785,-179.82 843,-179.82 843,-215.82"/>
<text text-anchor="middle" x="814" y="-194.12" font-family="Courier,monospace" font-size="14.00" fill="#de958e">click</text>
</g>
<!-- click&#45;&gt;rolling_pin.command -->
<g id="edge15" class="edge">
<title>click&#45;&gt;rolling_pin.command</title>
<path fill="none" stroke="#de958e" d="M843.24,-199.91C865.09,-202.72 895.2,-209.33 917,-224.82 972.39,-264.19 1010.01,-337.34 1027.42,-377.19"/>
<polygon fill="#de958e" stroke="#de958e" points="1024.28,-378.74 1031.42,-386.57 1030.72,-376 1024.28,-378.74"/>
</g>
<!-- rolling_pin -->
<g id="node13" class="node">
<title>rolling_pin</title>
<polygon fill="#343434" stroke="#343434" points="148.5,-712.82 41.5,-712.82 41.5,-676.82 148.5,-676.82 148.5,-712.82"/>
<text text-anchor="middle" x="95" y="-691.12" font-family="Courier,monospace" font-size="14.00" fill="#a0d17b">rolling_pin</text>
</g>
<!-- rolling_pin&#45;&gt;rolling_pin.__init__ -->
<g id="edge16" class="edge">
<title>rolling_pin&#45;&gt;rolling_pin.__init__</title>
<path fill="none" stroke="#a0d17b" d="M137.72,-712.84C163.01,-723.43 196.07,-736.68 226,-746.82 237.49,-750.71 249.74,-754.5 261.8,-758.04"/>
<polygon fill="#a0d17b" stroke="#a0d17b" points="260.83,-761.4 271.41,-760.81 262.77,-754.67 260.83,-761.4"/>
</g>
<!-- rolling_pin&#45;&gt;rolling_pin.blob_etl -->
<g id="edge17" class="edge">
<title>rolling_pin&#45;&gt;rolling_pin.blob_etl</title>
<path fill="none" stroke="#a0d17b" d="M137.72,-676.77C163,-666.17 196.06,-652.92 226,-642.82 326.94,-608.76 367.75,-637 457,-578.82 478.17,-565.02 472.34,-549.36 493,-534.82 498.07,-531.25 503.58,-528.04 509.3,-525.16"/>
<polygon fill="#a0d17b" stroke="#a0d17b" points="510.83,-528.31 518.41,-520.9 507.87,-521.96 510.83,-528.31"/>
</g>
<!-- rolling_pin&#45;&gt;rolling_pin.command -->
<g id="edge18" class="edge">
<title>rolling_pin&#45;&gt;rolling_pin.command</title>
<path fill="none" stroke="#a0d17b" d="M109.96,-713.03C131.48,-739.44 175.6,-787.23 226,-805.82 322.32,-841.35 355.92,-823.78 457,-805.82 673.8,-767.3 753.38,-769.17 917,-621.82 976.68,-568.07 1013.78,-477.87 1029.6,-432.56"/>
<polygon fill="#a0d17b" stroke="#a0d17b" points="1033.01,-433.42 1032.91,-422.83 1026.38,-431.17 1033.01,-433.42"/>
</g>
<!-- rolling_pin&#45;&gt;rolling_pin.conform_config -->
<g id="edge19" class="edge">
<title>rolling_pin&#45;&gt;rolling_pin.conform_config</title>
<path fill="none" stroke="#a0d17b" d="M115.57,-712.97C135.2,-731.54 165.89,-761.59 190,-789.82 207.55,-810.37 203.77,-823.45 226,-838.82 231.29,-842.48 236.99,-845.72 242.93,-848.59"/>
<polygon fill="#a0d17b" stroke="#a0d17b" points="241.85,-851.95 252.41,-852.81 244.7,-845.55 241.85,-851.95"/>
</g>
<!-- rolling_pin&#45;&gt;rolling_pin.conform_etl -->
<g id="edge20" class="edge">
<title>rolling_pin&#45;&gt;rolling_pin.conform_etl</title>
<path fill="none" stroke="#a0d17b" d="M148.82,-705.63C252.71,-724.59 489.64,-756.4 675,-695.82 720.27,-681.02 762.99,-645.12 788.58,-620.36"/>
<polygon fill="#a0d17b" stroke="#a0d17b" points="791.3,-622.59 795.96,-613.07 786.38,-617.61 791.3,-622.59"/>
</g>
<!-- rolling_pin&#45;&gt;rolling_pin.radon_etl -->
<g id="edge21" class="edge">
<title>rolling_pin&#45;&gt;rolling_pin.radon_etl</title>
<path fill="none" stroke="#a0d17b" d="M148.72,-697.13C223.75,-697.83 362.65,-689.3 457,-624.82 481.74,-607.91 468.38,-584.9 493,-567.82 560.89,-520.71 609.62,-580.35 675,-529.82 758.51,-465.28 795.02,-336.75 807.56,-279.94"/>
<polygon fill="#a0d17b" stroke="#a0d17b" points="811.04,-280.39 809.69,-269.89 804.19,-278.94 811.04,-280.39"/>
</g>
<!-- rolling_pin&#45;&gt;rolling_pin.repo_etl -->
<g id="edge22" class="edge">
<title>rolling_pin&#45;&gt;rolling_pin.repo_etl</title>
<path fill="none" stroke="#a0d17b" d="M110.8,-676.4C131.65,-649.52 169.39,-597.26 190,-546.82 219.05,-475.73 166.31,-426.14 226,-377.82 265.86,-345.56 402.62,-366.1 494.83,-384.78"/>
<polygon fill="#a0d17b" stroke="#a0d17b" points="494.23,-388.23 504.73,-386.81 495.63,-381.37 494.23,-388.23"/>
</g>
<!-- rolling_pin&#45;&gt;rolling_pin.tools -->
<g id="edge23" class="edge">
<title>rolling_pin&#45;&gt;rolling_pin.tools</title>
<path fill="none" stroke="#a0d17b" d="M111.03,-676.49C132.16,-649.72 170.24,-597.6 190,-546.82 223.07,-461.84 174.57,-420.12 226,-344.82 240.09,-324.2 262.45,-308.57 283.69,-297.38"/>
<polygon fill="#a0d17b" stroke="#a0d17b" points="285.33,-300.47 292.7,-292.85 282.19,-294.21 285.33,-300.47"/>
</g>
<!-- cufflinks -->
<g id="node14" class="node">
<title>cufflinks</title>
<polygon fill="#343434" stroke="#343434" points="629.5,-200.82 538.5,-200.82 538.5,-164.82 629.5,-164.82 629.5,-200.82"/>
<text text-anchor="middle" x="584" y="-179.12" font-family="Courier,monospace" font-size="14.00" fill="#de958e">cufflinks</text>
</g>
<!-- cufflinks&#45;&gt;rolling_pin.radon_etl -->
<g id="edge24" class="edge">
<title>cufflinks&#45;&gt;rolling_pin.radon_etl</title>
<path fill="none" stroke="#de958e" d="M629.68,-198.48C653.68,-206.69 683.82,-216.7 711,-224.82 718,-226.91 725.29,-229 732.62,-231.05"/>
<polygon fill="#de958e" stroke="#de958e" points="732.03,-234.52 742.6,-233.81 733.9,-227.77 732.03,-234.52"/>
</g>
<!-- lunchbox.tools -->
<g id="node15" class="node">
<title>lunchbox.tools</title>
<polygon fill="#343434" stroke="#343434" points="407.5,-476.82 275.5,-476.82 275.5,-440.82 407.5,-440.82 407.5,-476.82"/>
<text text-anchor="middle" x="341.5" y="-455.12" font-family="Courier,monospace" font-size="14.00" fill="#de958e">lunchbox.tools</text>
</g>
<!-- lunchbox.tools&#45;&gt;rolling_pin.blob_etl -->
<g id="edge25" class="edge">
<title>lunchbox.tools&#45;&gt;rolling_pin.blob_etl</title>
<path fill="none" stroke="#de958e" d="M407.58,-470.73C430.67,-474.95 457.22,-479.81 482.57,-484.45"/>
<polygon fill="#de958e" stroke="#de958e" points="482.12,-487.92 492.59,-486.28 483.38,-481.04 482.12,-487.92"/>
</g>
<!-- lunchbox.tools&#45;&gt;rolling_pin.repo_etl -->
<g id="edge26" class="edge">
<title>lunchbox.tools&#45;&gt;rolling_pin.repo_etl</title>
<path fill="none" stroke="#de958e" d="M407.58,-444.21C433.72,-438.34 464.29,-431.48 492.52,-425.14"/>
<polygon fill="#de958e" stroke="#de958e" points="493.41,-428.52 502.4,-422.92 491.87,-421.69 493.41,-428.52"/>
</g>
<!-- networkx -->
<g id="node16" class="node">
<title>networkx</title>
<polygon fill="#343434" stroke="#343434" points="383,-422.82 300,-422.82 300,-386.82 383,-386.82 383,-422.82"/>
<text text-anchor="middle" x="341.5" y="-401.12" font-family="Courier,monospace" font-size="14.00" fill="#de958e">networkx</text>
</g>
<!-- networkx&#45;&gt;rolling_pin.blob_etl -->
<g id="edge27" class="edge">
<title>networkx&#45;&gt;rolling_pin.blob_etl</title>
<path fill="none" stroke="#de958e" d="M383.08,-411.5C405.36,-415.88 433.22,-422.53 457,-431.82 489.08,-444.35 522.95,-463.83 547.49,-479.22"/>
<polygon fill="#de958e" stroke="#de958e" points="545.77,-482.28 556.09,-484.69 549.52,-476.37 545.77,-482.28"/>
</g>
<!-- networkx&#45;&gt;rolling_pin.repo_etl -->
<g id="edge28" class="edge">
<title>networkx&#45;&gt;rolling_pin.repo_etl</title>
<path fill="none" stroke="#de958e" d="M383.03,-404.82C410.32,-404.82 447.58,-404.82 482.55,-404.82"/>
<polygon fill="#de958e" stroke="#de958e" points="482.83,-408.32 492.83,-404.82 482.83,-401.32 482.83,-408.32"/>
</g>
<!-- pandas -->
<g id="node17" class="node">
<title>pandas</title>
<polygon fill="#343434" stroke="#343434" points="128,-246.82 62,-246.82 62,-210.82 128,-210.82 128,-246.82"/>
<text text-anchor="middle" x="95" y="-225.12" font-family="Courier,monospace" font-size="14.00" fill="#de958e">pandas</text>
</g>
<!-- pandas&#45;&gt;rolling_pin.blob_etl -->
<g id="edge29" class="edge">
<title>pandas&#45;&gt;rolling_pin.blob_etl</title>
<path fill="none" stroke="#de958e" d="M122.95,-246.89C144.46,-262.76 173.62,-287.82 190,-316.82 227.77,-383.69 167.47,-436.1 226,-485.82 263.37,-517.57 390.71,-516.59 482.66,-511.2"/>
<polygon fill="#de958e" stroke="#de958e" points="483.08,-514.68 492.84,-510.58 482.65,-507.69 483.08,-514.68"/>
</g>
<!-- pandas&#45;&gt;rolling_pin.conform_etl -->
<g id="edge30" class="edge">
<title>pandas&#45;&gt;rolling_pin.conform_etl</title>
<path fill="none" stroke="#de958e" d="M128.16,-224.69C147.38,-221.03 171.56,-214.25 190,-201.82 211.53,-187.31 202.66,-167.19 226,-155.82 318.29,-110.85 376.18,-92.51 457,-155.82 509.61,-197.03 444.29,-256.06 493,-301.82 552.91,-358.11 608.63,-286.31 675,-334.82 755.07,-393.33 793.05,-512.54 806.74,-566.8"/>
<polygon fill="#de958e" stroke="#de958e" points="803.39,-567.86 809.15,-576.75 810.19,-566.21 803.39,-567.86"/>
</g>
<!-- pandas&#45;&gt;rolling_pin.radon_etl -->
<g id="edge31" class="edge">
<title>pandas&#45;&gt;rolling_pin.radon_etl</title>
<path fill="none" stroke="#de958e" d="M128.4,-226.32C148.19,-223.28 172.9,-216.56 190,-201.82 219.22,-176.63 195.66,-146.66 226,-122.82 383.92,1.26 517.56,52.87 675,-71.82 729.76,-115.19 662.29,-174.74 711,-224.82 711.8,-225.64 712.62,-226.44 713.46,-227.21"/>
<polygon fill="#de958e" stroke="#de958e" points="711.5,-230.13 721.53,-233.56 715.83,-224.63 711.5,-230.13"/>
</g>
<!-- pandas&#45;&gt;rolling_pin.repo_etl -->
<g id="edge32" class="edge">
<title>pandas&#45;&gt;rolling_pin.repo_etl</title>
<path fill="none" stroke="#de958e" d="M128.16,-226.28C206.53,-220.74 404.73,-210.86 457,-247.82 491.17,-271.98 467.64,-301.53 493,-334.82 506.81,-352.95 526.41,-368.94 543.79,-381.03"/>
<polygon fill="#de958e" stroke="#de958e" points="541.87,-383.96 552.11,-386.65 545.79,-378.16 541.87,-383.96"/>
</g>
<!-- pandas&#45;&gt;rolling_pin.tools -->
<g id="edge33" class="edge">
<title>pandas&#45;&gt;rolling_pin.tools</title>
<path fill="none" stroke="#de958e" d="M128.22,-234.88C159.85,-240.83 209.55,-250.18 252.9,-258.34"/>
<polygon fill="#de958e" stroke="#de958e" points="252.43,-261.81 262.91,-260.22 253.73,-254.93 252.43,-261.81"/>
</g>
<!-- pydot -->
<g id="node18" class="node">
<title>pydot</title>
<polygon fill="#343434" stroke="#343434" points="124,-361.82 66,-361.82 66,-325.82 124,-325.82 124,-361.82"/>
<text text-anchor="middle" x="95" y="-340.12" font-family="Courier,monospace" font-size="14.00" fill="#de958e">pydot</text>
</g>
<!-- pydot&#45;&gt;rolling_pin.blob_etl -->
<g id="edge34" class="edge">
<title>pydot&#45;&gt;rolling_pin.blob_etl</title>
<path fill="none" stroke="#de958e" d="M106.54,-361.91C130.95,-403.11 191.93,-501.69 226,-518.82 319.36,-565.77 444.42,-544.01 519.04,-523.63"/>
<polygon fill="#de958e" stroke="#de958e" points="520.1,-526.97 528.78,-520.9 518.21,-520.23 520.1,-526.97"/>
</g>
<!-- pydot&#45;&gt;rolling_pin.tools -->
<g id="edge35" class="edge">
<title>pydot&#45;&gt;rolling_pin.tools</title>
<path fill="none" stroke="#de958e" d="M124.14,-335.77C150.46,-328.25 190.88,-316.73 226,-306.82 238.82,-303.2 252.46,-299.38 265.68,-295.67"/>
<polygon fill="#de958e" stroke="#de958e" points="267.01,-298.94 275.69,-292.87 265.12,-292.2 267.01,-298.94"/>
</g>
<!-- numpy -->
<g id="node19" class="node">
<title>numpy</title>
<polygon fill="#343434" stroke="#343434" points="370.5,-200.82 312.5,-200.82 312.5,-164.82 370.5,-164.82 370.5,-200.82"/>
<text text-anchor="middle" x="341.5" y="-179.12" font-family="Courier,monospace" font-size="14.00" fill="#de958e">numpy</text>
</g>
<!-- numpy&#45;&gt;rolling_pin.radon_etl -->
<g id="edge36" class="edge">
<title>numpy&#45;&gt;rolling_pin.radon_etl</title>
<path fill="none" stroke="#de958e" d="M366.94,-164.54C425.96,-122.81 578.48,-29.5 675,-101.82 720.58,-135.97 670.2,-185.07 711,-224.82 711.96,-225.75 712.95,-226.66 713.96,-227.53"/>
<polygon fill="#de958e" stroke="#de958e" points="712.09,-230.5 722.2,-233.65 716.26,-224.88 712.09,-230.5"/>
</g>
<!-- numpy&#45;&gt;rolling_pin.repo_etl -->
<g id="edge37" class="edge">
<title>numpy&#45;&gt;rolling_pin.repo_etl</title>
<path fill="none" stroke="#de958e" d="M370.74,-183.33C396.53,-185.32 434.02,-192.27 457,-214.82 496.74,-253.82 461.53,-288.88 493,-334.82 505.69,-353.34 524.81,-369.2 542.16,-381.11"/>
<polygon fill="#de958e" stroke="#de958e" points="540.23,-384.03 550.5,-386.63 544.1,-378.19 540.23,-384.03"/>
</g>
<!-- lunchbox.enforce -->
<g id="node20" class="node">
<title>lunchbox.enforce</title>
<polygon fill="#343434" stroke="#343434" points="658.5,-666.82 509.5,-666.82 509.5,-630.82 658.5,-630.82 658.5,-666.82"/>
<text text-anchor="middle" x="584" y="-645.12" font-family="Courier,monospace" font-size="14.00" fill="#de958e">lunchbox.enforce</text>
</g>
<!-- lunchbox.enforce&#45;&gt;rolling_pin.conform_etl -->
<g id="edge38" class="edge">
<title>lunchbox.enforce&#45;&gt;rolling_pin.conform_etl</title>
<path fill="none" stroke="#de958e" d="M658.71,-631.36C680.47,-626.21 704.48,-620.52 726.94,-615.2"/>
<polygon fill="#de958e" stroke="#de958e" points="727.88,-618.58 736.8,-612.87 726.26,-611.77 727.88,-618.58"/>
</g>
<!-- radon.cli -->
<g id="node21" class="node">
<title>radon.cli</title>
<polygon fill="#343434" stroke="#343434" points="629.5,-146.82 538.5,-146.82 538.5,-110.82 629.5,-110.82 629.5,-146.82"/>
<text text-anchor="middle" x="584" y="-125.12" font-family="Courier,monospace" font-size="14.00" fill="#de958e">radon.cli</text>
</g>
<!-- radon.cli&#45;&gt;rolling_pin.radon_etl -->
<g id="edge39" class="edge">
<title>radon.cli&#45;&gt;rolling_pin.radon_etl</title>
<path fill="none" stroke="#de958e" d="M629.6,-134.87C645.28,-138.78 662.17,-145.22 675,-155.82 701.66,-177.86 683.98,-203.22 711,-224.82 712.56,-226.06 714.16,-227.25 715.82,-228.38"/>
<polygon fill="#de958e" stroke="#de958e" points="714.05,-231.41 724.42,-233.6 717.69,-225.42 714.05,-231.41"/>
</g>
<!-- radon.complexity -->
<g id="node22" class="node">
<title>radon.complexity</title>
<polygon fill="#343434" stroke="#343434" points="658.5,-292.82 509.5,-292.82 509.5,-256.82 658.5,-256.82 658.5,-292.82"/>
<text text-anchor="middle" x="584" y="-271.12" font-family="Courier,monospace" font-size="14.00" fill="#de958e">radon.complexity</text>
</g>
<!-- radon.complexity&#45;&gt;rolling_pin.radon_etl -->
<g id="edge40" class="edge">
<title>radon.complexity&#45;&gt;rolling_pin.radon_etl</title>
<path fill="none" stroke="#de958e" d="M658.71,-267.38C674.55,-265.79 691.58,-264.07 708.34,-262.38"/>
<polygon fill="#de958e" stroke="#de958e" points="709.12,-265.82 718.72,-261.33 708.42,-258.85 709.12,-265.82"/>
</g>
<!-- schematics -->
<g id="node23" class="node">
<title>schematics</title>
<polygon fill="#343434" stroke="#343434" points="144.5,-942.82 45.5,-942.82 45.5,-906.82 144.5,-906.82 144.5,-942.82"/>
<text text-anchor="middle" x="95" y="-921.12" font-family="Courier,monospace" font-size="14.00" fill="#de958e">schematics</text>
</g>
<!-- schematics&#45;&gt;rolling_pin.conform_config -->
<g id="edge41" class="edge">
<title>schematics&#45;&gt;rolling_pin.conform_config</title>
<path fill="none" stroke="#de958e" d="M144.6,-914.09C174.39,-907.51 213.47,-898.87 248.89,-891.05"/>
<polygon fill="#de958e" stroke="#de958e" points="249.77,-894.44 258.78,-888.87 248.26,-887.61 249.77,-894.44"/>
</g>
<!-- schematics.exceptions -->
<g id="node24" class="node">
<title>schematics.exceptions</title>
<polygon fill="#343434" stroke="#343434" points="190,-888.82 0,-888.82 0,-852.82 190,-852.82 190,-888.82"/>
<text text-anchor="middle" x="95" y="-867.12" font-family="Courier,monospace" font-size="14.00" fill="#de958e">schematics.exceptions</text>
</g>
<!-- schematics.exceptions&#45;&gt;rolling_pin.conform_config -->
<g id="edge42" class="edge">
<title>schematics.exceptions&#45;&gt;rolling_pin.conform_config</title>
<path fill="none" stroke="#de958e" d="M190.18,-870.82C198.59,-870.82 207.19,-870.82 215.81,-870.82"/>
<polygon fill="#de958e" stroke="#de958e" points="215.92,-874.32 225.92,-870.82 215.92,-867.32 215.92,-874.32"/>
</g>
<!-- schematics.types -->
<g id="node25" class="node">
<title>schematics.types</title>
<polygon fill="#343434" stroke="#343434" points="169.5,-834.82 20.5,-834.82 20.5,-798.82 169.5,-798.82 169.5,-834.82"/>
<text text-anchor="middle" x="95" y="-813.12" font-family="Courier,monospace" font-size="14.00" fill="#de958e">schematics.types</text>
</g>
<!-- schematics.types&#45;&gt;rolling_pin.conform_config -->
<g id="edge43" class="edge">
<title>schematics.types&#45;&gt;rolling_pin.conform_config</title>
<path fill="none" stroke="#de958e" d="M169.69,-833.09C194.63,-838.6 222.78,-844.82 248.93,-850.6"/>
<polygon fill="#de958e" stroke="#de958e" points="248.33,-854.05 258.85,-852.79 249.84,-847.21 248.33,-854.05"/>
</g>
<!-- yaml -->
<g id="node26" class="node">
<title>yaml</title>
<polygon fill="#343434" stroke="#343434" points="611,-612.82 557,-612.82 557,-576.82 611,-576.82 611,-612.82"/>
<text text-anchor="middle" x="584" y="-591.12" font-family="Courier,monospace" font-size="14.00" fill="#de958e">yaml</text>
</g>
<!-- yaml&#45;&gt;rolling_pin.conform_etl -->
<g id="edge44" class="edge">
<title>yaml&#45;&gt;rolling_pin.conform_etl</title>
<path fill="none" stroke="#de958e" d="M611.15,-594.82C633.42,-594.82 667.01,-594.82 700.45,-594.82"/>
<polygon fill="#de958e" stroke="#de958e" points="700.81,-598.32 710.81,-594.82 700.81,-591.32 700.81,-598.32"/>
</g>
</g>
</svg>
