<?xml version="1.0" encoding="UTF-8" standalone="no"?>
<!DOCTYPE svg PUBLIC "-//W3C//DTD SVG 1.1//EN"
 "http://www.w3.org/Graphics/SVG/1.1/DTD/svg11.dtd">
<!-- Generated by graphviz version 2.40.1 (20161225.0304)
 -->
<!-- Title: %3 Pages: 1 -->
<svg width="1183pt" height="260pt"
 viewBox="0.00 0.00 1182.50 260.00" xmlns="http://www.w3.org/2000/svg" xmlns:xlink="http://www.w3.org/1999/xlink">
<g id="graph0" class="graph" transform="scale(1 1) rotate(0) translate(4 256)">
<title>%3</title>
<polygon fill="#242424" stroke="transparent" points="-4,4 -4,-256 1178.5,-256 1178.5,4 -4,4"/>
<!-- cli -->
<g id="node1" class="node">
<title>cli</title>
<polygon fill="#343434" stroke="#343434" points="221,-252 167,-252 167,-216 221,-216 221,-252"/>
<text text-anchor="middle" x="194" y="-230.3" font-family="Courier,monospace" font-size="14.00" fill="#b6ecf3">cli</text>
</g>
<!-- rolling_pin.app -->
<g id="node2" class="node">
<title>rolling_pin.app</title>
<polygon fill="#343434" stroke="#343434" points="226,-36 86,-36 86,0 226,0 226,-36"/>
<text text-anchor="middle" x="156" y="-14.3" font-family="Courier,monospace" font-size="14.00" fill="#b6ecf3">rolling_pin.app</text>
</g>
<!-- rolling_pin.blob_etl -->
<g id="node3" class="node">
<title>rolling_pin.blob_etl</title>
<polygon fill="#343434" stroke="#343434" points="436,-108 254,-108 254,-72 436,-72 436,-108"/>
<text text-anchor="middle" x="345" y="-86.3" font-family="Courier,monospace" font-size="14.00" fill="#b6ecf3">rolling_pin.blob_etl</text>
</g>
<!-- rolling_pin.blob_etl&#45;&gt;rolling_pin.app -->
<g id="edge1" class="edge">
<title>rolling_pin.blob_etl&#45;&gt;rolling_pin.app</title>
<path fill="none" stroke="#b6ecf3" d="M297.3073,-71.8314C271.6927,-62.0734 239.9398,-49.977 213.026,-39.7242"/>
<polygon fill="#b6ecf3" stroke="#b6ecf3" points="213.9406,-36.3273 203.3497,-36.038 211.4486,-42.8687 213.9406,-36.3273"/>
</g>
<!-- rolling_pin.radon_etl -->
<g id="node4" class="node">
<title>rolling_pin.radon_etl</title>
<polygon fill="#343434" stroke="#343434" points="1023,-36 833,-36 833,0 1023,0 1023,-36"/>
<text text-anchor="middle" x="928" y="-14.3" font-family="Courier,monospace" font-size="14.00" fill="#b6ecf3">rolling_pin.radon_etl</text>
</g>
<!-- rolling_pin.blob_etl&#45;&gt;rolling_pin.radon_etl -->
<g id="edge2" class="edge">
<title>rolling_pin.blob_etl&#45;&gt;rolling_pin.radon_etl</title>
<path fill="none" stroke="#b6ecf3" d="M436.0739,-73.4891C439.422,-72.9712 442.7391,-72.4727 446,-72 575.1779,-53.2731 724.645,-37.4258 822.4658,-27.8371"/>
<polygon fill="#b6ecf3" stroke="#b6ecf3" points="823.0412,-31.2977 832.6539,-26.8428 822.3612,-24.3308 823.0412,-31.2977"/>
</g>
<!-- rolling_pin.repo_etl -->
<g id="node5" class="node">
<title>rolling_pin.repo_etl</title>
<polygon fill="#343434" stroke="#343434" points="784,-108 602,-108 602,-72 784,-72 784,-108"/>
<text text-anchor="middle" x="693" y="-86.3" font-family="Courier,monospace" font-size="14.00" fill="#b6ecf3">rolling_pin.repo_etl</text>
</g>
<!-- rolling_pin.tools -->
<g id="node6" class="node">
<title>rolling_pin.tools</title>
<polygon fill="#343434" stroke="#343434" points="835.5,-180 678.5,-180 678.5,-144 835.5,-144 835.5,-180"/>
<text text-anchor="middle" x="757" y="-158.3" font-family="Courier,monospace" font-size="14.00" fill="#b6ecf3">rolling_pin.tools</text>
</g>
<!-- rolling_pin.tools&#45;&gt;rolling_pin.blob_etl -->
<g id="edge3" class="edge">
<title>rolling_pin.tools&#45;&gt;rolling_pin.blob_etl</title>
<path fill="none" stroke="#b6ecf3" d="M678.3758,-148.4477C615.4899,-137.5841 525.0691,-121.9102 446,-108 445.8986,-107.9822 445.7971,-107.9643 445.6956,-107.9464"/>
<polygon fill="#b6ecf3" stroke="#b6ecf3" points="446.5703,-104.5468 436.1145,-106.2574 445.355,-111.4405 446.5703,-104.5468"/>
</g>
<!-- rolling_pin.tools&#45;&gt;rolling_pin.radon_etl -->
<g id="edge4" class="edge">
<title>rolling_pin.tools&#45;&gt;rolling_pin.radon_etl</title>
<path fill="none" stroke="#b6ecf3" d="M835.6069,-151.2098C886.2377,-142.4652 945.4131,-128.2497 961,-108 975.4368,-89.2445 963.6484,-63.5515 950.3177,-44.4176"/>
<polygon fill="#b6ecf3" stroke="#b6ecf3" points="952.9425,-42.0814 944.1728,-36.1364 947.321,-46.2527 952.9425,-42.0814"/>
</g>
<!-- rolling_pin.tools&#45;&gt;rolling_pin.repo_etl -->
<g id="edge5" class="edge">
<title>rolling_pin.tools&#45;&gt;rolling_pin.repo_etl</title>
<path fill="none" stroke="#b6ecf3" d="M740.8501,-143.8314C733.3283,-135.3694 724.2435,-125.1489 716.0196,-115.8971"/>
<polygon fill="#b6ecf3" stroke="#b6ecf3" points="718.627,-113.5621 709.3673,-108.4133 713.3951,-118.2127 718.627,-113.5621"/>
</g>
<!-- flasgger -->
<g id="node7" class="node">
<title>flasgger</title>
<polygon fill="#343434" stroke="#343434" points="197.5,-108 114.5,-108 114.5,-72 197.5,-72 197.5,-108"/>
<text text-anchor="middle" x="156" y="-86.3" font-family="Courier,monospace" font-size="14.00" fill="#de958e">flasgger</text>
</g>
<!-- flasgger&#45;&gt;rolling_pin.app -->
<g id="edge6" class="edge">
<title>flasgger&#45;&gt;rolling_pin.app</title>
<path fill="none" stroke="#de958e" d="M156,-71.8314C156,-64.131 156,-54.9743 156,-46.4166"/>
<polygon fill="#de958e" stroke="#de958e" points="159.5001,-46.4132 156,-36.4133 152.5001,-46.4133 159.5001,-46.4132"/>
</g>
<!-- flask -->
<g id="node8" class="node">
<title>flask</title>
<polygon fill="#343434" stroke="#343434" points="58,-108 0,-108 0,-72 58,-72 58,-108"/>
<text text-anchor="middle" x="29" y="-86.3" font-family="Courier,monospace" font-size="14.00" fill="#de958e">flask</text>
</g>
<!-- flask&#45;&gt;rolling_pin.app -->
<g id="edge7" class="edge">
<title>flask&#45;&gt;rolling_pin.app</title>
<path fill="none" stroke="#de958e" d="M58.1364,-73.4817C75.0026,-63.9198 96.4973,-51.7338 115.0437,-41.2193"/>
<polygon fill="#de958e" stroke="#de958e" points="116.9051,-44.1874 123.8782,-36.2108 113.4528,-38.098 116.9051,-44.1874"/>
</g>
<!-- rolling_pin -->
<g id="node9" class="node">
<title>rolling_pin</title>
<polygon fill="#343434" stroke="#343434" points="685.5,-252 578.5,-252 578.5,-216 685.5,-216 685.5,-252"/>
<text text-anchor="middle" x="632" y="-230.3" font-family="Courier,monospace" font-size="14.00" fill="#a0d17b">rolling_pin</text>
</g>
<!-- rolling_pin&#45;&gt;rolling_pin.app -->
<g id="edge8" class="edge">
<title>rolling_pin&#45;&gt;rolling_pin.app</title>
<path fill="none" stroke="#a0d17b" d="M578.4577,-231.7498C503.6521,-227.4153 364.3044,-214.9838 251,-180 181.8699,-158.6554 143.2057,-169.4401 105,-108 91.7228,-86.6485 108.2202,-61.7337 125.8971,-43.5386"/>
<polygon fill="#a0d17b" stroke="#a0d17b" points="128.7329,-45.663 133.4618,-36.1821 123.8526,-40.6447 128.7329,-45.663"/>
</g>
<!-- rolling_pin&#45;&gt;rolling_pin.blob_etl -->
<g id="edge9" class="edge">
<title>rolling_pin&#45;&gt;rolling_pin.blob_etl</title>
<path fill="none" stroke="#a0d17b" d="M578.3899,-230.0125C480.831,-222.2088 282.407,-203.6015 262,-180 251.5351,-167.8969 254.3714,-158.0643 262,-144 268.7935,-131.4754 279.8882,-121.4004 291.7869,-113.5017"/>
<polygon fill="#a0d17b" stroke="#a0d17b" points="293.8488,-116.343 300.5431,-108.1309 290.1888,-110.376 293.8488,-116.343"/>
</g>
<!-- rolling_pin&#45;&gt;rolling_pin.radon_etl -->
<g id="edge10" class="edge">
<title>rolling_pin&#45;&gt;rolling_pin.radon_etl</title>
<path fill="none" stroke="#a0d17b" d="M685.8209,-218.0297C688.915,-217.2967 691.9905,-216.6129 695,-216 758.633,-203.0411 934.7624,-221.1493 985,-180 1023.0392,-148.8423 1032.2017,-115.3527 1009,-72 1002.326,-59.5296 991.3594,-49.4416 979.6199,-41.5111"/>
<polygon fill="#a0d17b" stroke="#a0d17b" points="981.3204,-38.4466 970.9854,-36.1146 977.6104,-44.3826 981.3204,-38.4466"/>
</g>
<!-- rolling_pin&#45;&gt;rolling_pin.repo_etl -->
<g id="edge11" class="edge">
<title>rolling_pin&#45;&gt;rolling_pin.repo_etl</title>
<path fill="none" stroke="#a0d17b" d="M639.6979,-215.7214C647.3625,-197.5326 659.4714,-168.8273 670,-144 673.6029,-135.5041 677.535,-126.2613 681.1126,-117.8633"/>
<polygon fill="#a0d17b" stroke="#a0d17b" points="684.4072,-119.0599 685.1084,-108.4883 677.9677,-116.3152 684.4072,-119.0599"/>
</g>
<!-- rolling_pin&#45;&gt;rolling_pin.tools -->
<g id="edge12" class="edge">
<title>rolling_pin&#45;&gt;rolling_pin.tools</title>
<path fill="none" stroke="#a0d17b" d="M663.5428,-215.8314C679.6791,-206.5368 699.4986,-195.1208 716.7272,-185.1971"/>
<polygon fill="#a0d17b" stroke="#a0d17b" points="718.5489,-188.187 725.4673,-180.1628 715.055,-182.1212 718.5489,-188.187"/>
</g>
<!-- IPython.display -->
<g id="node10" class="node">
<title>IPython.display</title>
<polygon fill="#343434" stroke="#343434" points="844,-252 704,-252 704,-216 844,-216 844,-252"/>
<text text-anchor="middle" x="774" y="-230.3" font-family="Courier,monospace" font-size="14.00" fill="#de958e">IPython.display</text>
</g>
<!-- IPython.display&#45;&gt;rolling_pin.blob_etl -->
<g id="edge13" class="edge">
<title>IPython.display&#45;&gt;rolling_pin.blob_etl</title>
<path fill="none" stroke="#de958e" d="M703.8836,-217.5103C700.8884,-216.9685 697.9177,-216.4616 695,-216 650.924,-209.0276 325.1066,-212.9379 295,-180 277.4631,-160.8139 295.9843,-134.3836 315.2566,-115.1304"/>
<polygon fill="#de958e" stroke="#de958e" points="317.7771,-117.5632 322.6061,-108.1328 312.9502,-112.4936 317.7771,-117.5632"/>
</g>
<!-- IPython.display&#45;&gt;rolling_pin.repo_etl -->
<g id="edge14" class="edge">
<title>IPython.display&#45;&gt;rolling_pin.repo_etl</title>
<path fill="none" stroke="#de958e" d="M809.9291,-215.9923C823.5172,-207.158 837.5017,-195.1235 845,-180 852.1072,-165.6652 854.2277,-157.071 845,-144 836.2921,-131.6653 807.9523,-120.141 778.0638,-110.9328"/>
<polygon fill="#de958e" stroke="#de958e" points="778.9116,-107.5334 768.3283,-108.0265 776.9092,-114.2408 778.9116,-107.5334"/>
</g>
<!-- IPython.display&#45;&gt;rolling_pin.tools -->
<g id="edge15" class="edge">
<title>IPython.display&#45;&gt;rolling_pin.tools</title>
<path fill="none" stroke="#de958e" d="M769.7102,-215.8314C767.892,-208.131 765.7301,-198.9743 763.7095,-190.4166"/>
<polygon fill="#de958e" stroke="#de958e" points="767.0519,-189.3414 761.3476,-180.4133 760.2392,-190.95 767.0519,-189.3414"/>
</g>
<!-- lunchbox.tools -->
<g id="node11" class="node">
<title>lunchbox.tools</title>
<polygon fill="#343434" stroke="#343434" points="436,-180 304,-180 304,-144 436,-144 436,-180"/>
<text text-anchor="middle" x="370" y="-158.3" font-family="Courier,monospace" font-size="14.00" fill="#de958e">lunchbox.tools</text>
</g>
<!-- lunchbox.tools&#45;&gt;rolling_pin.app -->
<g id="edge16" class="edge">
<title>lunchbox.tools&#45;&gt;rolling_pin.app</title>
<path fill="none" stroke="#de958e" d="M315.9745,-143.8998C293.044,-134.9212 266.6661,-122.803 245,-108 230.7363,-98.2546 200.4224,-66.5318 179.1535,-43.5031"/>
<polygon fill="#de958e" stroke="#de958e" points="181.6671,-41.0658 172.3236,-36.0709 176.513,-45.8023 181.6671,-41.0658"/>
</g>
<!-- lunchbox.tools&#45;&gt;rolling_pin.blob_etl -->
<g id="edge17" class="edge">
<title>lunchbox.tools&#45;&gt;rolling_pin.blob_etl</title>
<path fill="none" stroke="#de958e" d="M363.6914,-143.8314C360.9883,-136.0463 357.7684,-126.7729 354.769,-118.1347"/>
<polygon fill="#de958e" stroke="#de958e" points="357.98,-116.7119 351.3935,-108.4133 351.3673,-119.0081 357.98,-116.7119"/>
</g>
<!-- lunchbox.tools&#45;&gt;rolling_pin.repo_etl -->
<g id="edge18" class="edge">
<title>lunchbox.tools&#45;&gt;rolling_pin.repo_etl</title>
<path fill="none" stroke="#de958e" d="M436.2355,-146.0232C439.1963,-145.3343 442.1283,-144.6572 445,-144 495.4223,-132.4612 551.7478,-120.1503 597.9609,-110.2016"/>
<polygon fill="#de958e" stroke="#de958e" points="598.923,-113.5749 607.9639,-108.0511 597.4516,-106.7312 598.923,-113.5749"/>
</g>
<!-- pydot -->
<g id="node12" class="node">
<title>pydot</title>
<polygon fill="#343434" stroke="#343434" points="297,-252 239,-252 239,-216 297,-216 297,-252"/>
<text text-anchor="middle" x="268" y="-230.3" font-family="Courier,monospace" font-size="14.00" fill="#de958e">pydot</text>
</g>
<!-- pydot&#45;&gt;rolling_pin.blob_etl -->
<g id="edge19" class="edge">
<title>pydot&#45;&gt;rolling_pin.blob_etl</title>
<path fill="none" stroke="#de958e" d="M248.023,-215.7216C230.0917,-197.0317 208.7595,-167.4909 224,-144 232.8132,-130.4158 245.9279,-120.2193 260.3124,-112.5745"/>
<polygon fill="#de958e" stroke="#de958e" points="261.9539,-115.6681 269.4058,-108.1368 258.8838,-109.3772 261.9539,-115.6681"/>
</g>
<!-- pydot&#45;&gt;rolling_pin.tools -->
<g id="edge20" class="edge">
<title>pydot&#45;&gt;rolling_pin.tools</title>
<path fill="none" stroke="#de958e" d="M297.1248,-229.7117C368.7764,-219.1618 555.9319,-191.6051 668.1675,-175.0796"/>
<polygon fill="#de958e" stroke="#de958e" points="668.7362,-178.5337 678.1197,-173.6143 667.7165,-171.6084 668.7362,-178.5337"/>
</g>
<!-- networkx -->
<g id="node13" class="node">
<title>networkx</title>
<polygon fill="#343434" stroke="#343434" points="621.5,-180 538.5,-180 538.5,-144 621.5,-144 621.5,-180"/>
<text text-anchor="middle" x="580" y="-158.3" font-family="Courier,monospace" font-size="14.00" fill="#de958e">networkx</text>
</g>
<!-- networkx&#45;&gt;rolling_pin.blob_etl -->
<g id="edge21" class="edge">
<title>networkx&#45;&gt;rolling_pin.blob_etl</title>
<path fill="none" stroke="#de958e" d="M538.3135,-147.0816C535.1685,-146.0191 532.0379,-144.9811 529,-144 493.1013,-132.4065 452.9324,-120.4964 419.3069,-110.8214"/>
<polygon fill="#de958e" stroke="#de958e" points="420.1283,-107.4159 409.5509,-108.0241 418.1989,-114.1448 420.1283,-107.4159"/>
</g>
<!-- networkx&#45;&gt;rolling_pin.repo_etl -->
<g id="edge22" class="edge">
<title>networkx&#45;&gt;rolling_pin.repo_etl</title>
<path fill="none" stroke="#de958e" d="M608.5147,-143.8314C622.8342,-134.7074 640.3624,-123.539 655.7338,-113.7449"/>
<polygon fill="#de958e" stroke="#de958e" points="657.9417,-116.4882 664.4945,-108.1628 654.1801,-110.5847 657.9417,-116.4882"/>
</g>
<!-- pandas -->
<g id="node14" class="node">
<title>pandas</title>
<polygon fill="#343434" stroke="#343434" points="520,-180 454,-180 454,-144 520,-144 520,-180"/>
<text text-anchor="middle" x="487" y="-158.3" font-family="Courier,monospace" font-size="14.00" fill="#de958e">pandas</text>
</g>
<!-- pandas&#45;&gt;rolling_pin.blob_etl -->
<g id="edge23" class="edge">
<title>pandas&#45;&gt;rolling_pin.blob_etl</title>
<path fill="none" stroke="#de958e" d="M453.7073,-145.1192C434.5701,-135.4158 410.2841,-123.1018 389.5233,-112.5752"/>
<polygon fill="#de958e" stroke="#de958e" points="391.0682,-109.4344 380.5663,-108.0336 387.9025,-115.6777 391.0682,-109.4344"/>
</g>
<!-- pandas&#45;&gt;rolling_pin.radon_etl -->
<g id="edge24" class="edge">
<title>pandas&#45;&gt;rolling_pin.radon_etl</title>
<path fill="none" stroke="#de958e" d="M510.6986,-143.9987C523.9572,-133.7258 540.6542,-120.4499 555,-108 572.5705,-92.7516 572.1445,-82.3094 593,-72 632.4562,-52.4958 739.9859,-37.3628 822.6782,-28.1432"/>
<polygon fill="#de958e" stroke="#de958e" points="823.0758,-31.6207 832.6332,-27.0483 822.3105,-24.6626 823.0758,-31.6207"/>
</g>
<!-- pandas&#45;&gt;rolling_pin.repo_etl -->
<g id="edge25" class="edge">
<title>pandas&#45;&gt;rolling_pin.repo_etl</title>
<path fill="none" stroke="#de958e" d="M520.2341,-147.7925C523.5205,-146.4767 526.8167,-145.1916 530,-144 560.9784,-132.4042 595.7239,-120.7159 625.1516,-111.1936"/>
<polygon fill="#de958e" stroke="#de958e" points="626.4681,-114.4468 634.9144,-108.0506 624.3229,-107.7835 626.4681,-114.4468"/>
</g>
<!-- numpy -->
<g id="node15" class="node">
<title>numpy</title>
<polygon fill="#343434" stroke="#343434" points="976,-180 918,-180 918,-144 976,-144 976,-180"/>
<text text-anchor="middle" x="947" y="-158.3" font-family="Courier,monospace" font-size="14.00" fill="#de958e">numpy</text>
</g>
<!-- numpy&#45;&gt;rolling_pin.radon_etl -->
<g id="edge26" class="edge">
<title>numpy&#45;&gt;rolling_pin.radon_etl</title>
<path fill="none" stroke="#de958e" d="M968.3127,-143.7308C977.8134,-134.1756 987.979,-121.6372 993,-108 998.5282,-92.9854 999.7975,-86.4843 993,-72 987.5409,-60.3676 978.2088,-50.3739 968.2927,-42.2592"/>
<polygon fill="#de958e" stroke="#de958e" points="970.355,-39.4304 960.2779,-36.1588 966.1154,-45.0005 970.355,-39.4304"/>
</g>
<!-- numpy&#45;&gt;rolling_pin.repo_etl -->
<g id="edge27" class="edge">
<title>numpy&#45;&gt;rolling_pin.repo_etl</title>
<path fill="none" stroke="#de958e" d="M917.863,-153.7407C881.2139,-143.352 816.9766,-125.143 766.5193,-110.8401"/>
<polygon fill="#de958e" stroke="#de958e" points="767.1993,-107.395 756.6238,-108.0351 765.2902,-114.1297 767.1993,-107.395"/>
</g>
<!-- cufflinks -->
<g id="node16" class="node">
<title>cufflinks</title>
<polygon fill="#343434" stroke="#343434" points="1174.5,-108 1083.5,-108 1083.5,-72 1174.5,-72 1174.5,-108"/>
<text text-anchor="middle" x="1129" y="-86.3" font-family="Courier,monospace" font-size="14.00" fill="#de958e">cufflinks</text>
</g>
<!-- cufflinks&#45;&gt;rolling_pin.radon_etl -->
<g id="edge28" class="edge">
<title>cufflinks&#45;&gt;rolling_pin.radon_etl</title>
<path fill="none" stroke="#de958e" d="M1083.39,-73.6621C1055.1707,-63.5537 1018.6227,-50.4619 988.062,-39.5147"/>
<polygon fill="#de958e" stroke="#de958e" points="988.9628,-36.1197 978.3682,-36.0423 986.6021,-42.7097 988.9628,-36.1197"/>
</g>
<!-- radon.cli -->
<g id="node17" class="node">
<title>radon.cli</title>
<polygon fill="#343434" stroke="#343434" points="545.5,-108 454.5,-108 454.5,-72 545.5,-72 545.5,-108"/>
<text text-anchor="middle" x="500" y="-86.3" font-family="Courier,monospace" font-size="14.00" fill="#de958e">radon.cli</text>
</g>
<!-- radon.cli&#45;&gt;rolling_pin.radon_etl -->
<g id="edge29" class="edge">
<title>radon.cli&#45;&gt;rolling_pin.radon_etl</title>
<path fill="none" stroke="#de958e" d="M545.6813,-75.5472C550.4907,-74.2503 555.3287,-73.0376 560,-72 647.5982,-52.5421 748.5305,-38.297 822.5088,-29.339"/>
<polygon fill="#de958e" stroke="#de958e" points="823.2519,-32.775 832.7644,-28.11 822.419,-25.8248 823.2519,-32.775"/>
</g>
<!-- radon.complexity -->
<g id="node18" class="node">
<title>radon.complexity</title>
<polygon fill="#343434" stroke="#343434" points="951.5,-108 802.5,-108 802.5,-72 951.5,-72 951.5,-108"/>
<text text-anchor="middle" x="877" y="-86.3" font-family="Courier,monospace" font-size="14.00" fill="#de958e">radon.complexity</text>
</g>
<!-- radon.complexity&#45;&gt;rolling_pin.radon_etl -->
<g id="edge30" class="edge">
<title>radon.complexity&#45;&gt;rolling_pin.radon_etl</title>
<path fill="none" stroke="#de958e" d="M889.8695,-71.8314C895.6835,-63.6232 902.6696,-53.7606 909.0646,-44.7323"/>
<polygon fill="#de958e" stroke="#de958e" points="912.0331,-46.5966 914.9573,-36.4133 906.321,-42.5505 912.0331,-46.5966"/>
</g>
</g>
</svg>
