<?xml version="1.0" encoding="UTF-8" standalone="no"?>
<!DOCTYPE svg PUBLIC "-//W3C//DTD SVG 1.1//EN"
 "http://www.w3.org/Graphics/SVG/1.1/DTD/svg11.dtd">
<!-- Generated by graphviz version 2.43.0 (0)
 -->
<!-- Title: %3 Pages: 1 -->
<svg width="1134pt" height="1002pt"
 viewBox="0.00 0.00 1134.00 1002.00" xmlns="http://www.w3.org/2000/svg" xmlns:xlink="http://www.w3.org/1999/xlink">
<g id="graph0" class="graph" transform="scale(1 1) rotate(0) translate(4 998)">
<title>%3</title>
<polygon fill="#242424" stroke="transparent" points="-4,4 -4,-998 1130,-998 1130,4 -4,4"/>
<!-- __init__ -->
<g id="node1" class="node">
<title>__init__</title>
<polygon fill="#343434" stroke="#343434" points="136.5,-112 53.5,-112 53.5,-76 136.5,-76 136.5,-112"/>
<text text-anchor="middle" x="95" y="-90.3" font-family="Courier,monospace" font-size="14.00" fill="#b6ecf3">__init__</text>
</g>
<!-- cli -->
<g id="node2" class="node">
<title>cli</title>
<polygon fill="#343434" stroke="#343434" points="122,-166 68,-166 68,-130 122,-130 122,-166"/>
<text text-anchor="middle" x="95" y="-144.3" font-family="Courier,monospace" font-size="14.00" fill="#b6ecf3">cli</text>
</g>
<!-- rolling_pin.__init__ -->
<g id="node3" class="node">
<title>rolling_pin.__init__</title>
<polygon fill="#343434" stroke="#343434" points="432.5,-848 250.5,-848 250.5,-812 432.5,-812 432.5,-848"/>
<text text-anchor="middle" x="341.5" y="-826.3" font-family="Courier,monospace" font-size="14.00" fill="#b6ecf3">rolling_pin.__init__</text>
</g>
<!-- rolling_pin.blob_etl -->
<g id="node4" class="node">
<title>rolling_pin.blob_etl</title>
<polygon fill="#343434" stroke="#343434" points="675,-404 493,-404 493,-368 675,-368 675,-404"/>
<text text-anchor="middle" x="584" y="-382.3" font-family="Courier,monospace" font-size="14.00" fill="#b6ecf3">rolling_pin.blob_etl</text>
</g>
<!-- rolling_pin.conform_etl -->
<g id="node7" class="node">
<title>rolling_pin.conform_etl</title>
<polygon fill="#343434" stroke="#343434" points="917,-688 711,-688 711,-652 917,-652 917,-688"/>
<text text-anchor="middle" x="814" y="-666.3" font-family="Courier,monospace" font-size="14.00" fill="#b6ecf3">rolling_pin.conform_etl</text>
</g>
<!-- rolling_pin.blob_etl&#45;&gt;rolling_pin.conform_etl -->
<g id="edge1" class="edge">
<title>rolling_pin.blob_etl&#45;&gt;rolling_pin.conform_etl</title>
<path fill="none" stroke="#b6ecf3" d="M618.34,-404.13C636.95,-415.59 659.45,-431.84 675,-451 699.83,-481.59 691.17,-497.96 711,-532 735.05,-573.3 769.01,-617.02 791.01,-643.92"/>
<polygon fill="#b6ecf3" stroke="#b6ecf3" points="788.37,-646.22 797.44,-651.7 793.77,-641.76 788.37,-646.22"/>
</g>
<!-- rolling_pin.radon_etl -->
<g id="node8" class="node">
<title>rolling_pin.radon_etl</title>
<polygon fill="#343434" stroke="#343434" points="909,-289 719,-289 719,-253 909,-253 909,-289"/>
<text text-anchor="middle" x="814" y="-267.3" font-family="Courier,monospace" font-size="14.00" fill="#b6ecf3">rolling_pin.radon_etl</text>
</g>
<!-- rolling_pin.blob_etl&#45;&gt;rolling_pin.radon_etl -->
<g id="edge2" class="edge">
<title>rolling_pin.blob_etl&#45;&gt;rolling_pin.radon_etl</title>
<path fill="none" stroke="#b6ecf3" d="M641.39,-367.9C652.69,-363.73 664.36,-359.03 675,-354 711.61,-336.7 750.96,-312.41 778.24,-294.57"/>
<polygon fill="#b6ecf3" stroke="#b6ecf3" points="780.23,-297.45 786.65,-289.03 776.38,-291.61 780.23,-297.45"/>
</g>
<!-- rolling_pin.toml_etl -->
<g id="node10" class="node">
<title>rolling_pin.toml_etl</title>
<polygon fill="#343434" stroke="#343434" points="905,-523 723,-523 723,-487 905,-487 905,-523"/>
<text text-anchor="middle" x="814" y="-501.3" font-family="Courier,monospace" font-size="14.00" fill="#b6ecf3">rolling_pin.toml_etl</text>
</g>
<!-- rolling_pin.blob_etl&#45;&gt;rolling_pin.toml_etl -->
<g id="edge3" class="edge">
<title>rolling_pin.blob_etl&#45;&gt;rolling_pin.toml_etl</title>
<path fill="none" stroke="#b6ecf3" d="M619.63,-404.07C659.75,-425.02 725.92,-459.55 769.48,-482.29"/>
<polygon fill="#b6ecf3" stroke="#b6ecf3" points="767.94,-485.43 778.42,-486.95 771.17,-479.22 767.94,-485.43"/>
</g>
<!-- rolling_pin.command -->
<g id="node5" class="node">
<title>rolling_pin.command</title>
<polygon fill="#343434" stroke="#343434" points="1126,-450 953,-450 953,-414 1126,-414 1126,-450"/>
<text text-anchor="middle" x="1039.5" y="-428.3" font-family="Courier,monospace" font-size="14.00" fill="#b6ecf3">rolling_pin.command</text>
</g>
<!-- rolling_pin.conform_config -->
<g id="node6" class="node">
<title>rolling_pin.conform_config</title>
<polygon fill="#343434" stroke="#343434" points="457,-940 226,-940 226,-904 457,-904 457,-940"/>
<text text-anchor="middle" x="341.5" y="-918.3" font-family="Courier,monospace" font-size="14.00" fill="#b6ecf3">rolling_pin.conform_config</text>
</g>
<!-- rolling_pin.conform_config&#45;&gt;rolling_pin.conform_etl -->
<g id="edge4" class="edge">
<title>rolling_pin.conform_config&#45;&gt;rolling_pin.conform_etl</title>
<path fill="none" stroke="#b6ecf3" d="M438.52,-903.99C508.01,-887.93 602.12,-859.73 675,-814 725.35,-782.41 770.22,-728.44 794.33,-696.3"/>
<polygon fill="#b6ecf3" stroke="#b6ecf3" points="797.16,-698.37 800.28,-688.24 791.53,-694.21 797.16,-698.37"/>
</g>
<!-- rolling_pin.conform_etl&#45;&gt;rolling_pin.command -->
<g id="edge5" class="edge">
<title>rolling_pin.conform_etl&#45;&gt;rolling_pin.command</title>
<path fill="none" stroke="#b6ecf3" d="M832.17,-651.72C871.67,-609.65 969.11,-505.9 1014.5,-457.55"/>
<polygon fill="#b6ecf3" stroke="#b6ecf3" points="1017.29,-459.7 1021.58,-450.02 1012.18,-454.91 1017.29,-459.7"/>
</g>
<!-- rolling_pin.radon_etl&#45;&gt;rolling_pin.command -->
<g id="edge6" class="edge">
<title>rolling_pin.radon_etl&#45;&gt;rolling_pin.command</title>
<path fill="none" stroke="#b6ecf3" d="M853.49,-289.19C873.11,-299.09 896.99,-312.14 917,-326 952.5,-350.6 989.35,-384.05 1013.02,-406.75"/>
<polygon fill="#b6ecf3" stroke="#b6ecf3" points="1010.6,-409.28 1020.22,-413.72 1015.47,-404.25 1010.6,-409.28"/>
</g>
<!-- rolling_pin.repo_etl -->
<g id="node9" class="node">
<title>rolling_pin.repo_etl</title>
<polygon fill="#343434" stroke="#343434" points="675,-312 493,-312 493,-276 675,-276 675,-312"/>
<text text-anchor="middle" x="584" y="-290.3" font-family="Courier,monospace" font-size="14.00" fill="#b6ecf3">rolling_pin.repo_etl</text>
</g>
<!-- rolling_pin.repo_etl&#45;&gt;rolling_pin.command -->
<g id="edge7" class="edge">
<title>rolling_pin.repo_etl&#45;&gt;rolling_pin.command</title>
<path fill="none" stroke="#b6ecf3" d="M644.29,-312.04C728.06,-337.53 880.73,-383.99 969.49,-411"/>
<polygon fill="#b6ecf3" stroke="#b6ecf3" points="968.61,-414.39 979.2,-413.95 970.65,-407.69 968.61,-414.39"/>
</g>
<!-- rolling_pin.toml_etl&#45;&gt;rolling_pin.command -->
<g id="edge8" class="edge">
<title>rolling_pin.toml_etl&#45;&gt;rolling_pin.command</title>
<path fill="none" stroke="#b6ecf3" d="M870.25,-486.96C901.41,-476.78 940.52,-464 973.2,-453.33"/>
<polygon fill="#b6ecf3" stroke="#b6ecf3" points="974.69,-456.52 983.11,-450.09 972.52,-449.87 974.69,-456.52"/>
</g>
<!-- rolling_pin.tools -->
<g id="node11" class="node">
<title>rolling_pin.tools</title>
<polygon fill="#343434" stroke="#343434" points="420,-526 263,-526 263,-490 420,-490 420,-526"/>
<text text-anchor="middle" x="341.5" y="-504.3" font-family="Courier,monospace" font-size="14.00" fill="#b6ecf3">rolling_pin.tools</text>
</g>
<!-- rolling_pin.tools&#45;&gt;rolling_pin.blob_etl -->
<g id="edge9" class="edge">
<title>rolling_pin.tools&#45;&gt;rolling_pin.blob_etl</title>
<path fill="none" stroke="#b6ecf3" d="M420.09,-494.8C433.22,-490.27 446.11,-484.18 457,-476 481.26,-457.79 469.38,-437.04 493,-418 497.28,-414.55 501.95,-411.46 506.86,-408.69"/>
<polygon fill="#b6ecf3" stroke="#b6ecf3" points="508.59,-411.73 515.88,-404.05 505.39,-405.51 508.59,-411.73"/>
</g>
<!-- rolling_pin.tools&#45;&gt;rolling_pin.conform_etl -->
<g id="edge10" class="edge">
<title>rolling_pin.tools&#45;&gt;rolling_pin.conform_etl</title>
<path fill="none" stroke="#b6ecf3" d="M420.08,-518.49C433.67,-523.27 446.72,-530.14 457,-540 494.42,-575.91 451.97,-619.27 493,-651 524.66,-675.49 621.78,-678.45 700.79,-676.35"/>
<polygon fill="#b6ecf3" stroke="#b6ecf3" points="700.93,-679.85 710.83,-676.06 700.73,-672.85 700.93,-679.85"/>
</g>
<!-- rolling_pin.tools&#45;&gt;rolling_pin.radon_etl -->
<g id="edge11" class="edge">
<title>rolling_pin.tools&#45;&gt;rolling_pin.radon_etl</title>
<path fill="none" stroke="#b6ecf3" d="M365.08,-489.71C388.97,-469.9 427.26,-436.86 457,-405 474.72,-386.02 470.95,-372.71 493,-359 563.17,-315.37 595.51,-343.58 675,-321 703.04,-313.04 733.57,-302.21 758.77,-292.66"/>
<polygon fill="#b6ecf3" stroke="#b6ecf3" points="760.06,-295.92 768.16,-289.08 757.57,-289.38 760.06,-295.92"/>
</g>
<!-- rolling_pin.tools&#45;&gt;rolling_pin.repo_etl -->
<g id="edge12" class="edge">
<title>rolling_pin.tools&#45;&gt;rolling_pin.repo_etl</title>
<path fill="none" stroke="#b6ecf3" d="M368.05,-489.96C393.3,-471.11 431.7,-439.49 457,-405 479.82,-373.89 464.57,-352.09 493,-326 496.56,-322.74 500.46,-319.8 504.6,-317.17"/>
<polygon fill="#b6ecf3" stroke="#b6ecf3" points="506.43,-320.16 513.37,-312.16 502.95,-314.08 506.43,-320.16"/>
</g>
<!-- IPython.display -->
<g id="node12" class="node">
<title>IPython.display</title>
<polygon fill="#343434" stroke="#343434" points="165,-499 25,-499 25,-463 165,-463 165,-499"/>
<text text-anchor="middle" x="95" y="-477.3" font-family="Courier,monospace" font-size="14.00" fill="#de958e">IPython.display</text>
</g>
<!-- IPython.display&#45;&gt;rolling_pin.blob_etl -->
<g id="edge13" class="edge">
<title>IPython.display&#45;&gt;rolling_pin.blob_etl</title>
<path fill="none" stroke="#de958e" d="M165.22,-480.64C239.16,-478.46 358.96,-469.71 457,-438 474.42,-432.37 476.32,-425.54 493,-418 501.02,-414.38 509.57,-410.88 518.1,-407.62"/>
<polygon fill="#de958e" stroke="#de958e" points="519.55,-410.82 527.69,-404.04 517.1,-404.26 519.55,-410.82"/>
</g>
<!-- IPython.display&#45;&gt;rolling_pin.conform_etl -->
<g id="edge14" class="edge">
<title>IPython.display&#45;&gt;rolling_pin.conform_etl</title>
<path fill="none" stroke="#de958e" d="M121.81,-499.08C182.82,-540.58 342.17,-641.8 493,-677 560.66,-692.79 638.57,-691.49 700.57,-686.02"/>
<polygon fill="#de958e" stroke="#de958e" points="701.14,-689.48 710.77,-685.07 700.49,-682.51 701.14,-689.48"/>
</g>
<!-- IPython.display&#45;&gt;rolling_pin.repo_etl -->
<g id="edge15" class="edge">
<title>IPython.display&#45;&gt;rolling_pin.repo_etl</title>
<path fill="none" stroke="#de958e" d="M100.35,-462.92C111.96,-419.19 148.24,-308.06 226,-264 315.32,-213.39 355.03,-252.03 457,-264 474.36,-266.04 492.8,-269.61 510.06,-273.58"/>
<polygon fill="#de958e" stroke="#de958e" points="509.53,-277.06 520.07,-275.97 511.15,-270.25 509.53,-277.06"/>
</g>
<!-- IPython.display&#45;&gt;rolling_pin.tools -->
<g id="edge16" class="edge">
<title>IPython.display&#45;&gt;rolling_pin.tools</title>
<path fill="none" stroke="#de958e" d="M165.08,-488.63C192.37,-491.64 224.04,-495.14 252.91,-498.33"/>
<polygon fill="#de958e" stroke="#de958e" points="252.66,-501.82 262.99,-499.44 253.43,-494.86 252.66,-501.82"/>
</g>
<!-- rolling_pin -->
<g id="node13" class="node">
<title>rolling_pin</title>
<polygon fill="#343434" stroke="#343434" points="148.5,-724 41.5,-724 41.5,-688 148.5,-688 148.5,-724"/>
<text text-anchor="middle" x="95" y="-702.3" font-family="Courier,monospace" font-size="14.00" fill="#a0d17b">rolling_pin</text>
</g>
<!-- rolling_pin&#45;&gt;rolling_pin.__init__ -->
<g id="edge17" class="edge">
<title>rolling_pin&#45;&gt;rolling_pin.__init__</title>
<path fill="none" stroke="#a0d17b" d="M116.65,-724.06C141.18,-744.66 184.06,-778.04 226,-798 234.37,-801.98 243.32,-805.55 252.4,-808.73"/>
<polygon fill="#a0d17b" stroke="#a0d17b" points="251.3,-812.05 261.89,-811.91 253.52,-805.41 251.3,-812.05"/>
</g>
<!-- rolling_pin&#45;&gt;rolling_pin.blob_etl -->
<g id="edge18" class="edge">
<title>rolling_pin&#45;&gt;rolling_pin.blob_etl</title>
<path fill="none" stroke="#a0d17b" d="M139.07,-687.98C164.26,-677.64 196.76,-664.64 226,-654 327.56,-617.02 384.35,-658.02 457,-578 505.99,-524.03 444.65,-472.55 493,-418 495.71,-414.95 498.73,-412.18 501.97,-409.68"/>
<polygon fill="#a0d17b" stroke="#a0d17b" points="504.09,-412.47 510.45,-404 500.2,-406.66 504.09,-412.47"/>
</g>
<!-- rolling_pin&#45;&gt;rolling_pin.command -->
<g id="edge19" class="edge">
<title>rolling_pin&#45;&gt;rolling_pin.command</title>
<path fill="none" stroke="#a0d17b" d="M104.86,-724.14C122.47,-757.85 165.47,-829.24 226,-857 408.9,-940.88 484.61,-864.1 675,-799 785.44,-761.24 833.2,-778.24 917,-697 987.03,-629.11 1020.48,-513.25 1032.74,-460.12"/>
<polygon fill="#a0d17b" stroke="#a0d17b" points="1036.22,-460.59 1034.97,-450.07 1029.38,-459.07 1036.22,-460.59"/>
</g>
<!-- rolling_pin&#45;&gt;rolling_pin.conform_config -->
<g id="edge20" class="edge">
<title>rolling_pin&#45;&gt;rolling_pin.conform_config</title>
<path fill="none" stroke="#a0d17b" d="M108.7,-724.32C140.61,-770.29 221.89,-887.11 226,-890 231.15,-893.63 236.7,-896.85 242.47,-899.7"/>
<polygon fill="#a0d17b" stroke="#a0d17b" points="241.17,-902.95 251.72,-903.9 244.06,-896.58 241.17,-902.95"/>
</g>
<!-- rolling_pin&#45;&gt;rolling_pin.conform_etl -->
<g id="edge21" class="edge">
<title>rolling_pin&#45;&gt;rolling_pin.conform_etl</title>
<path fill="none" stroke="#a0d17b" d="M148.61,-718.93C272.26,-748.32 578.2,-815.1 675,-781 722.77,-764.17 766.21,-723.04 791.1,-695.85"/>
<polygon fill="#a0d17b" stroke="#a0d17b" points="793.85,-698.02 797.92,-688.24 788.64,-693.35 793.85,-698.02"/>
</g>
<!-- rolling_pin&#45;&gt;rolling_pin.radon_etl -->
<g id="edge22" class="edge">
<title>rolling_pin&#45;&gt;rolling_pin.radon_etl</title>
<path fill="none" stroke="#a0d17b" d="M148.69,-695.68C247.56,-676.21 451.54,-635.51 457,-630 514.12,-572.36 435.83,-508.59 493,-451 551.21,-392.35 602.59,-452.82 675,-413 726.99,-384.41 771.6,-329.84 795.15,-297.3"/>
<polygon fill="#a0d17b" stroke="#a0d17b" points="798.01,-299.32 800.95,-289.14 792.3,-295.27 798.01,-299.32"/>
</g>
<!-- rolling_pin&#45;&gt;rolling_pin.repo_etl -->
<g id="edge23" class="edge">
<title>rolling_pin&#45;&gt;rolling_pin.repo_etl</title>
<path fill="none" stroke="#a0d17b" d="M118.53,-687.97C140.79,-668.74 173.79,-636.13 190,-600 217.76,-538.14 175.49,-342.24 226,-297 262.55,-264.26 390.42,-270.87 482.69,-280.68"/>
<polygon fill="#a0d17b" stroke="#a0d17b" points="482.59,-284.19 492.91,-281.79 483.35,-277.23 482.59,-284.19"/>
</g>
<!-- rolling_pin&#45;&gt;rolling_pin.toml_etl -->
<g id="edge24" class="edge">
<title>rolling_pin&#45;&gt;rolling_pin.toml_etl</title>
<path fill="none" stroke="#a0d17b" d="M148.51,-718.3C224.22,-732.82 365,-747.44 457,-682 490.43,-658.22 461.31,-623.05 493,-597 556.84,-544.53 595.8,-582.58 675,-559 704.76,-550.14 737.12,-537.63 763.03,-526.89"/>
<polygon fill="#a0d17b" stroke="#a0d17b" points="764.39,-530.11 772.27,-523.02 761.69,-523.65 764.39,-530.11"/>
</g>
<!-- rolling_pin&#45;&gt;rolling_pin.tools -->
<g id="edge25" class="edge">
<title>rolling_pin&#45;&gt;rolling_pin.tools</title>
<path fill="none" stroke="#a0d17b" d="M118.56,-687.73C162.69,-652 260.41,-572.86 310.15,-532.58"/>
<polygon fill="#a0d17b" stroke="#a0d17b" points="312.42,-535.24 317.99,-526.23 308.02,-529.8 312.42,-535.24"/>
</g>
<!-- click -->
<g id="node14" class="node">
<title>click</title>
<polygon fill="#343434" stroke="#343434" points="843,-235 785,-235 785,-199 843,-199 843,-235"/>
<text text-anchor="middle" x="814" y="-213.3" font-family="Courier,monospace" font-size="14.00" fill="#de958e">click</text>
</g>
<!-- click&#45;&gt;rolling_pin.command -->
<g id="edge26" class="edge">
<title>click&#45;&gt;rolling_pin.command</title>
<path fill="none" stroke="#de958e" d="M843.32,-218.97C865.22,-221.72 895.36,-228.29 917,-244 974.24,-285.55 1011.5,-363.04 1028.26,-404.37"/>
<polygon fill="#de958e" stroke="#de958e" points="1025.06,-405.79 1031.99,-413.81 1031.57,-403.23 1025.06,-405.79"/>
</g>
<!-- lunchbox.tools -->
<g id="node15" class="node">
<title>lunchbox.tools</title>
<polygon fill="#343434" stroke="#343434" points="407.5,-396 275.5,-396 275.5,-360 407.5,-360 407.5,-396"/>
<text text-anchor="middle" x="341.5" y="-374.3" font-family="Courier,monospace" font-size="14.00" fill="#de958e">lunchbox.tools</text>
</g>
<!-- lunchbox.tools&#45;&gt;rolling_pin.blob_etl -->
<g id="edge27" class="edge">
<title>lunchbox.tools&#45;&gt;rolling_pin.blob_etl</title>
<path fill="none" stroke="#de958e" d="M407.58,-380.16C430.67,-380.93 457.22,-381.82 482.57,-382.66"/>
<polygon fill="#de958e" stroke="#de958e" points="482.48,-386.16 492.59,-382.99 482.71,-379.16 482.48,-386.16"/>
</g>
<!-- lunchbox.tools&#45;&gt;rolling_pin.repo_etl -->
<g id="edge28" class="edge">
<title>lunchbox.tools&#45;&gt;rolling_pin.repo_etl</title>
<path fill="none" stroke="#de958e" d="M407.78,-367.06C424.25,-363.1 441.61,-357.86 457,-351 474.79,-343.07 475.67,-334.9 493,-326 500.13,-322.34 507.78,-318.92 515.49,-315.78"/>
<polygon fill="#de958e" stroke="#de958e" points="516.87,-319 524.91,-312.09 514.32,-312.48 516.87,-319"/>
</g>
<!-- cufflinks -->
<g id="node16" class="node">
<title>cufflinks</title>
<polygon fill="#343434" stroke="#343434" points="629.5,-166 538.5,-166 538.5,-130 629.5,-130 629.5,-166"/>
<text text-anchor="middle" x="584" y="-144.3" font-family="Courier,monospace" font-size="14.00" fill="#de958e">cufflinks</text>
</g>
<!-- cufflinks&#45;&gt;rolling_pin.radon_etl -->
<g id="edge29" class="edge">
<title>cufflinks&#45;&gt;rolling_pin.radon_etl</title>
<path fill="none" stroke="#de958e" d="M629.6,-154.05C645.28,-157.96 662.17,-164.4 675,-175 701.66,-197.04 683.98,-222.4 711,-244 712.56,-245.24 714.16,-246.43 715.82,-247.56"/>
<polygon fill="#de958e" stroke="#de958e" points="714.05,-250.59 724.42,-252.78 717.69,-244.6 714.05,-250.59"/>
</g>
<!-- networkx -->
<g id="node17" class="node">
<title>networkx</title>
<polygon fill="#343434" stroke="#343434" points="383,-342 300,-342 300,-306 383,-306 383,-342"/>
<text text-anchor="middle" x="341.5" y="-320.3" font-family="Courier,monospace" font-size="14.00" fill="#de958e">networkx</text>
</g>
<!-- networkx&#45;&gt;rolling_pin.blob_etl -->
<g id="edge30" class="edge">
<title>networkx&#45;&gt;rolling_pin.blob_etl</title>
<path fill="none" stroke="#de958e" d="M383.13,-333.17C405.06,-338.22 432.57,-344.73 457,-351 474.19,-355.41 492.63,-360.39 509.95,-365.18"/>
<polygon fill="#de958e" stroke="#de958e" points="509.43,-368.67 520,-367.98 511.3,-361.93 509.43,-368.67"/>
</g>
<!-- networkx&#45;&gt;rolling_pin.repo_etl -->
<g id="edge31" class="edge">
<title>networkx&#45;&gt;rolling_pin.repo_etl</title>
<path fill="none" stroke="#de958e" d="M383.03,-318.94C410.32,-315.54 447.58,-310.89 482.55,-306.53"/>
<polygon fill="#de958e" stroke="#de958e" points="483.34,-309.96 492.83,-305.25 482.47,-303.01 483.34,-309.96"/>
</g>
<!-- pandas -->
<g id="node18" class="node">
<title>pandas</title>
<polygon fill="#343434" stroke="#343434" points="128,-220 62,-220 62,-184 128,-184 128,-220"/>
<text text-anchor="middle" x="95" y="-198.3" font-family="Courier,monospace" font-size="14.00" fill="#de958e">pandas</text>
</g>
<!-- pandas&#45;&gt;rolling_pin.blob_etl -->
<g id="edge32" class="edge">
<title>pandas&#45;&gt;rolling_pin.blob_etl</title>
<path fill="none" stroke="#de958e" d="M101.11,-220.18C113.96,-262 152.02,-364.53 226,-405 320.06,-456.46 449.73,-429.82 524.13,-407.05"/>
<polygon fill="#de958e" stroke="#de958e" points="525.31,-410.35 533.81,-404.01 523.22,-403.67 525.31,-410.35"/>
</g>
<!-- pandas&#45;&gt;rolling_pin.conform_etl -->
<g id="edge33" class="edge">
<title>pandas&#45;&gt;rolling_pin.conform_etl</title>
<path fill="none" stroke="#de958e" d="M128.16,-197.87C147.38,-194.21 171.56,-187.43 190,-175 211.53,-160.49 202.66,-140.37 226,-129 318.29,-84.03 373,-69.97 457,-129 495.65,-156.16 457.35,-198.01 493,-229 555.37,-283.21 618.67,-206.54 675,-267 756.02,-353.97 666.28,-421.88 711,-532 728.78,-575.78 763.68,-618.28 787.66,-644.28"/>
<polygon fill="#de958e" stroke="#de958e" points="785.32,-646.91 794.72,-651.8 790.43,-642.12 785.32,-646.91"/>
</g>
<!-- pandas&#45;&gt;rolling_pin.radon_etl -->
<g id="edge34" class="edge">
<title>pandas&#45;&gt;rolling_pin.radon_etl</title>
<path fill="none" stroke="#de958e" d="M128.4,-199.5C148.19,-196.46 172.9,-189.75 190,-175 219.22,-149.81 193.99,-117.54 226,-96 308.81,-40.29 597.02,-22.7 675,-85 731.61,-130.22 660.7,-191.85 711,-244 711.79,-244.82 712.61,-245.62 713.45,-246.4"/>
<polygon fill="#de958e" stroke="#de958e" points="711.48,-249.31 721.49,-252.77 715.83,-243.82 711.48,-249.31"/>
</g>
<!-- pandas&#45;&gt;rolling_pin.repo_etl -->
<g id="edge35" class="edge">
<title>pandas&#45;&gt;rolling_pin.repo_etl</title>
<path fill="none" stroke="#de958e" d="M128.22,-196.89C193.61,-188.02 345.17,-175.27 457,-226 477.61,-235.35 473.87,-249.91 493,-262 498.75,-265.63 504.96,-268.92 511.34,-271.88"/>
<polygon fill="#de958e" stroke="#de958e" points="510.21,-275.21 520.78,-275.99 513.01,-268.79 510.21,-275.21"/>
</g>
<!-- pandas&#45;&gt;rolling_pin.tools -->
<g id="edge36" class="edge">
<title>pandas&#45;&gt;rolling_pin.tools</title>
<path fill="none" stroke="#de958e" d="M102.31,-220.27C117.73,-262.78 160.88,-369.86 226,-438 244.38,-457.23 269.15,-473.24 290.94,-485.06"/>
<polygon fill="#de958e" stroke="#de958e" points="289.59,-488.31 300.07,-489.87 292.86,-482.12 289.59,-488.31"/>
</g>
<!-- pydot -->
<g id="node19" class="node">
<title>pydot</title>
<polygon fill="#343434" stroke="#343434" points="124,-591 66,-591 66,-555 124,-555 124,-591"/>
<text text-anchor="middle" x="95" y="-569.3" font-family="Courier,monospace" font-size="14.00" fill="#de958e">pydot</text>
</g>
<!-- pydot&#45;&gt;rolling_pin.blob_etl -->
<g id="edge37" class="edge">
<title>pydot&#45;&gt;rolling_pin.blob_etl</title>
<path fill="none" stroke="#de958e" d="M124.29,-579.44C190.77,-592.79 358.71,-615.89 457,-535 499.01,-500.43 455.37,-457.29 493,-418 495.97,-414.9 499.26,-412.1 502.77,-409.57"/>
<polygon fill="#de958e" stroke="#de958e" points="504.75,-412.46 511.33,-404.15 501,-406.55 504.75,-412.46"/>
</g>
<!-- pydot&#45;&gt;rolling_pin.tools -->
<g id="edge38" class="edge">
<title>pydot&#45;&gt;rolling_pin.tools</title>
<path fill="none" stroke="#de958e" d="M124.05,-565.54C157.66,-556.61 215.37,-541.27 262.75,-528.67"/>
<polygon fill="#de958e" stroke="#de958e" points="263.93,-531.98 272.69,-526.03 262.13,-525.21 263.93,-531.98"/>
</g>
<!-- numpy -->
<g id="node20" class="node">
<title>numpy</title>
<polygon fill="#343434" stroke="#343434" points="370.5,-174 312.5,-174 312.5,-138 370.5,-138 370.5,-174"/>
<text text-anchor="middle" x="341.5" y="-152.3" font-family="Courier,monospace" font-size="14.00" fill="#de958e">numpy</text>
</g>
<!-- numpy&#45;&gt;rolling_pin.radon_etl -->
<g id="edge39" class="edge">
<title>numpy&#45;&gt;rolling_pin.radon_etl</title>
<path fill="none" stroke="#de958e" d="M370.86,-141.27C432.92,-111.31 582.56,-51.74 675,-121 720.58,-155.15 670.2,-204.25 711,-244 711.96,-244.93 712.95,-245.84 713.96,-246.71"/>
<polygon fill="#de958e" stroke="#de958e" points="712.09,-249.68 722.2,-252.83 716.26,-244.06 712.09,-249.68"/>
</g>
<!-- numpy&#45;&gt;rolling_pin.repo_etl -->
<g id="edge40" class="edge">
<title>numpy&#45;&gt;rolling_pin.repo_etl</title>
<path fill="none" stroke="#de958e" d="M370.92,-157.49C396.12,-160.19 432.59,-167.64 457,-188 485.08,-211.43 465.74,-237.61 493,-262 496.67,-265.28 500.7,-268.23 504.95,-270.89"/>
<polygon fill="#de958e" stroke="#de958e" points="503.53,-274.1 513.96,-275.92 506.94,-267.99 503.53,-274.1"/>
</g>
<!-- lunchbox.enforce -->
<g id="node21" class="node">
<title>lunchbox.enforce</title>
<polygon fill="#343434" stroke="#343434" points="658.5,-642 509.5,-642 509.5,-606 658.5,-606 658.5,-642"/>
<text text-anchor="middle" x="584" y="-620.3" font-family="Courier,monospace" font-size="14.00" fill="#de958e">lunchbox.enforce</text>
</g>
<!-- lunchbox.enforce&#45;&gt;rolling_pin.conform_etl -->
<g id="edge41" class="edge">
<title>lunchbox.enforce&#45;&gt;rolling_pin.conform_etl</title>
<path fill="none" stroke="#de958e" d="M658.71,-638.87C676.25,-642.41 695.24,-646.24 713.71,-649.97"/>
<polygon fill="#de958e" stroke="#de958e" points="713.11,-653.42 723.61,-651.96 714.5,-646.56 713.11,-653.42"/>
</g>
<!-- lunchbox.enforce&#45;&gt;rolling_pin.toml_etl -->
<g id="edge42" class="edge">
<title>lunchbox.enforce&#45;&gt;rolling_pin.toml_etl</title>
<path fill="none" stroke="#de958e" d="M641.96,-605.9C653.1,-601.76 664.56,-597.07 675,-592 712.47,-573.8 752.44,-547.8 779.66,-528.96"/>
<polygon fill="#de958e" stroke="#de958e" points="781.84,-531.71 788.04,-523.12 777.83,-525.97 781.84,-531.71"/>
</g>
<!-- radon.cli -->
<g id="node22" class="node">
<title>radon.cli</title>
<polygon fill="#343434" stroke="#343434" points="629.5,-36 538.5,-36 538.5,0 629.5,0 629.5,-36"/>
<text text-anchor="middle" x="584" y="-14.3" font-family="Courier,monospace" font-size="14.00" fill="#de958e">radon.cli</text>
</g>
<!-- radon.cli&#45;&gt;rolling_pin.radon_etl -->
<g id="edge43" class="edge">
<title>radon.cli&#45;&gt;rolling_pin.radon_etl</title>
<path fill="none" stroke="#de958e" d="M629.74,-24.31C646.2,-28.84 663.59,-36.63 675,-50 731.92,-116.71 651.37,-179.7 711,-244 711.78,-244.84 712.58,-245.65 713.4,-246.44"/>
<polygon fill="#de958e" stroke="#de958e" points="711.38,-249.31 721.33,-252.92 715.8,-243.89 711.38,-249.31"/>
</g>
<!-- radon.complexity -->
<g id="node23" class="node">
<title>radon.complexity</title>
<polygon fill="#343434" stroke="#343434" points="658.5,-220 509.5,-220 509.5,-184 658.5,-184 658.5,-220"/>
<text text-anchor="middle" x="584" y="-198.3" font-family="Courier,monospace" font-size="14.00" fill="#de958e">radon.complexity</text>
</g>
<!-- radon.complexity&#45;&gt;rolling_pin.radon_etl -->
<g id="edge44" class="edge">
<title>radon.complexity&#45;&gt;rolling_pin.radon_etl</title>
<path fill="none" stroke="#de958e" d="M636.57,-220C659.29,-227.73 686.37,-236.64 711,-244 718,-246.09 725.29,-248.18 732.62,-250.23"/>
<polygon fill="#de958e" stroke="#de958e" points="732.03,-253.7 742.6,-252.99 733.9,-246.95 732.03,-253.7"/>
</g>
<!-- schematics -->
<g id="node24" class="node">
<title>schematics</title>
<polygon fill="#343434" stroke="#343434" points="144.5,-940 45.5,-940 45.5,-904 144.5,-904 144.5,-940"/>
<text text-anchor="middle" x="95" y="-918.3" font-family="Courier,monospace" font-size="14.00" fill="#de958e">schematics</text>
</g>
<!-- schematics&#45;&gt;rolling_pin.conform_config -->
<g id="edge45" class="edge">
<title>schematics&#45;&gt;rolling_pin.conform_config</title>
<path fill="none" stroke="#de958e" d="M144.6,-922C165.31,-922 190.53,-922 215.88,-922"/>
<polygon fill="#de958e" stroke="#de958e" points="215.97,-925.5 225.97,-922 215.97,-918.5 215.97,-925.5"/>
</g>
<!-- schematics.exceptions -->
<g id="node25" class="node">
<title>schematics.exceptions</title>
<polygon fill="#343434" stroke="#343434" points="190,-886 0,-886 0,-850 190,-850 190,-886"/>
<text text-anchor="middle" x="95" y="-864.3" font-family="Courier,monospace" font-size="14.00" fill="#de958e">schematics.exceptions</text>
</g>
<!-- schematics.exceptions&#45;&gt;rolling_pin.conform_config -->
<g id="edge46" class="edge">
<title>schematics.exceptions&#45;&gt;rolling_pin.conform_config</title>
<path fill="none" stroke="#de958e" d="M177.75,-886.06C200.59,-891.1 225.55,-896.61 248.92,-901.77"/>
<polygon fill="#de958e" stroke="#de958e" points="248.3,-905.22 258.82,-903.96 249.81,-898.39 248.3,-905.22"/>
</g>
<!-- schematics.types -->
<g id="node26" class="node">
<title>schematics.types</title>
<polygon fill="#343434" stroke="#343434" points="169.5,-994 20.5,-994 20.5,-958 169.5,-958 169.5,-994"/>
<text text-anchor="middle" x="95" y="-972.3" font-family="Courier,monospace" font-size="14.00" fill="#de958e">schematics.types</text>
</g>
<!-- schematics.types&#45;&gt;rolling_pin.conform_config -->
<g id="edge47" class="edge">
<title>schematics.types&#45;&gt;rolling_pin.conform_config</title>
<path fill="none" stroke="#de958e" d="M169.69,-959.72C194.63,-954.22 222.78,-948 248.93,-942.22"/>
<polygon fill="#de958e" stroke="#de958e" points="249.84,-945.61 258.85,-940.03 248.33,-938.77 249.84,-945.61"/>
</g>
<!-- toml -->
<g id="node27" class="node">
<title>toml</title>
<polygon fill="#343434" stroke="#343434" points="611,-496 557,-496 557,-460 611,-460 611,-496"/>
<text text-anchor="middle" x="584" y="-474.3" font-family="Courier,monospace" font-size="14.00" fill="#de958e">toml</text>
</g>
<!-- toml&#45;&gt;rolling_pin.toml_etl -->
<g id="edge48" class="edge">
<title>toml&#45;&gt;rolling_pin.toml_etl</title>
<path fill="none" stroke="#de958e" d="M611.15,-481.1C636.17,-484.06 675.51,-488.72 712.84,-493.14"/>
<polygon fill="#de958e" stroke="#de958e" points="712.45,-496.62 722.79,-494.32 713.27,-489.67 712.45,-496.62"/>
</g>
<!-- toml.decoder -->
<g id="node28" class="node">
<title>toml.decoder</title>
<polygon fill="#343434" stroke="#343434" points="642,-550 526,-550 526,-514 642,-514 642,-550"/>
<text text-anchor="middle" x="584" y="-528.3" font-family="Courier,monospace" font-size="14.00" fill="#de958e">toml.decoder</text>
</g>
<!-- toml.decoder&#45;&gt;rolling_pin.toml_etl -->
<g id="edge49" class="edge">
<title>toml.decoder&#45;&gt;rolling_pin.toml_etl</title>
<path fill="none" stroke="#de958e" d="M642.24,-525.22C663.69,-522.68 688.74,-519.72 712.93,-516.85"/>
<polygon fill="#de958e" stroke="#de958e" points="713.35,-520.32 722.87,-515.67 712.53,-513.37 713.35,-520.32"/>
</g>
<!-- yaml -->
<g id="node29" class="node">
<title>yaml</title>
<polygon fill="#343434" stroke="#343434" points="611,-772 557,-772 557,-736 611,-736 611,-772"/>
<text text-anchor="middle" x="584" y="-750.3" font-family="Courier,monospace" font-size="14.00" fill="#de958e">yaml</text>
</g>
<!-- yaml&#45;&gt;rolling_pin.conform_etl -->
<g id="edge50" class="edge">
<title>yaml&#45;&gt;rolling_pin.conform_etl</title>
<path fill="none" stroke="#de958e" d="M611.04,-744.89C629.04,-738.55 653.51,-729.87 675,-722 701.74,-712.21 731.3,-701.11 756.18,-691.69"/>
<polygon fill="#de958e" stroke="#de958e" points="757.71,-694.85 765.82,-688.03 755.23,-688.3 757.71,-694.85"/>
</g>
</g>
</svg>
