<?xml version="1.0" encoding="UTF-8" standalone="no"?>
<!DOCTYPE svg PUBLIC "-//W3C//DTD SVG 1.1//EN"
 "http://www.w3.org/Graphics/SVG/1.1/DTD/svg11.dtd">
<!-- Generated by graphviz version 2.40.1 (20161225.0304)
 -->
<!-- Title: %3 Pages: 1 -->
<svg width="658pt" height="188pt"
 viewBox="0.00 0.00 658.20 188.00" xmlns="http://www.w3.org/2000/svg" xmlns:xlink="http://www.w3.org/1999/xlink">
<g id="graph0" class="graph" transform="scale(1 1) rotate(0) translate(4 184)">
<title>%3</title>
<polygon fill="#242424" stroke="transparent" points="-4,4 -4,-184 654.1959,-184 654.1959,4 -4,4"/>
<!-- cli -->
<g id="node1" class="node">
<title>cli</title>
<polygon fill="#343434" stroke="#343434" points="223,-180 169,-180 169,-144 223,-144 223,-180"/>
<text text-anchor="middle" x="196" y="-158.3" font-family="Courier,monospace" font-size="14.00" fill="#b6ecf3">cli</text>
</g>
<!-- rolling_pin.blob_etl -->
<g id="node2" class="node">
<title>rolling_pin.blob_etl</title>
<polygon fill="#343434" stroke="#343434" points="594,-36 412,-36 412,0 594,0 594,-36"/>
<text text-anchor="middle" x="503" y="-14.3" font-family="Courier,monospace" font-size="14.00" fill="#b6ecf3">rolling_pin.blob_etl</text>
</g>
<!-- rolling_pin.repo_etl -->
<g id="node3" class="node">
<title>rolling_pin.repo_etl</title>
<polygon fill="#343434" stroke="#343434" points="390,-36 208,-36 208,0 390,0 390,-36"/>
<text text-anchor="middle" x="299" y="-14.3" font-family="Courier,monospace" font-size="14.00" fill="#b6ecf3">rolling_pin.repo_etl</text>
</g>
<!-- rolling_pin.tools -->
<g id="node4" class="node">
<title>rolling_pin.tools</title>
<polygon fill="#343434" stroke="#343434" points="548.5,-108 391.5,-108 391.5,-72 548.5,-72 548.5,-108"/>
<text text-anchor="middle" x="470" y="-86.3" font-family="Courier,monospace" font-size="14.00" fill="#b6ecf3">rolling_pin.tools</text>
</g>
<!-- rolling_pin.tools&#45;&gt;rolling_pin.blob_etl -->
<g id="edge1" class="edge">
<title>rolling_pin.tools&#45;&gt;rolling_pin.blob_etl</title>
<path fill="none" stroke="#b6ecf3" d="M478.3273,-71.8314C481.973,-63.8771 486.3309,-54.369 490.3627,-45.5723"/>
<polygon fill="#b6ecf3" stroke="#b6ecf3" points="493.5757,-46.9622 494.5606,-36.4133 487.2123,-44.0456 493.5757,-46.9622"/>
</g>
<!-- rolling_pin.tools&#45;&gt;rolling_pin.repo_etl -->
<g id="edge2" class="edge">
<title>rolling_pin.tools&#45;&gt;rolling_pin.repo_etl</title>
<path fill="none" stroke="#b6ecf3" d="M426.8495,-71.8314C403.8776,-62.159 375.4491,-50.1891 351.2368,-39.9944"/>
<polygon fill="#b6ecf3" stroke="#b6ecf3" points="352.4148,-36.6929 341.8402,-36.038 349.6984,-43.1443 352.4148,-36.6929"/>
</g>
<!-- rolling_pin.utils -->
<g id="node5" class="node">
<title>rolling_pin.utils</title>
<polygon fill="#343434" stroke="#343434" points="233.5,-108 76.5,-108 76.5,-72 233.5,-72 233.5,-108"/>
<text text-anchor="middle" x="155" y="-86.3" font-family="Courier,monospace" font-size="14.00" fill="#b6ecf3">rolling_pin.utils</text>
</g>
<!-- rolling_pin.utils&#45;&gt;rolling_pin.repo_etl -->
<g id="edge3" class="edge">
<title>rolling_pin.utils&#45;&gt;rolling_pin.repo_etl</title>
<path fill="none" stroke="#b6ecf3" d="M191.3373,-71.8314C210.3396,-62.3302 233.7758,-50.6121 253.9252,-40.5374"/>
<polygon fill="#b6ecf3" stroke="#b6ecf3" points="255.545,-43.6407 262.924,-36.038 252.4145,-37.3797 255.545,-43.6407"/>
</g>
<!-- IPython.display -->
<g id="node6" class="node">
<title>IPython.display</title>
<polygon fill="#343434" stroke="#343434" points="540,-180 400,-180 400,-144 540,-144 540,-180"/>
<text text-anchor="middle" x="470" y="-158.3" font-family="Courier,monospace" font-size="14.00" fill="#de958e">IPython.display</text>
</g>
<!-- IPython.display&#45;&gt;rolling_pin.tools -->
<g id="edge4" class="edge">
<title>IPython.display&#45;&gt;rolling_pin.tools</title>
<path fill="none" stroke="#de958e" d="M470,-143.8314C470,-136.131 470,-126.9743 470,-118.4166"/>
<polygon fill="#de958e" stroke="#de958e" points="473.5001,-118.4132 470,-108.4133 466.5001,-118.4133 473.5001,-118.4132"/>
</g>
<!-- networkx -->
<g id="node7" class="node">
<title>networkx</title>
<polygon fill="#343434" stroke="#343434" points="373.5,-108 290.5,-108 290.5,-72 373.5,-72 373.5,-108"/>
<text text-anchor="middle" x="332" y="-86.3" font-family="Courier,monospace" font-size="14.00" fill="#de958e">networkx</text>
</g>
<!-- networkx&#45;&gt;rolling_pin.blob_etl -->
<g id="edge5" class="edge">
<title>networkx&#45;&gt;rolling_pin.blob_etl</title>
<path fill="none" stroke="#de958e" d="M373.8313,-72.3868C397.0651,-62.6042 426.1798,-50.3453 450.8836,-39.9437"/>
<polygon fill="#de958e" stroke="#de958e" points="452.256,-43.1636 460.1141,-36.0572 449.5395,-36.7121 452.256,-43.1636"/>
</g>
<!-- networkx&#45;&gt;rolling_pin.repo_etl -->
<g id="edge6" class="edge">
<title>networkx&#45;&gt;rolling_pin.repo_etl</title>
<path fill="none" stroke="#de958e" d="M323.6727,-71.8314C320.027,-63.8771 315.6691,-54.369 311.6373,-45.5723"/>
<polygon fill="#de958e" stroke="#de958e" points="314.7877,-44.0456 307.4394,-36.4133 308.4243,-46.9622 314.7877,-44.0456"/>
</g>
<!-- rolling_pin -->
<g id="node8" class="node">
<title>rolling_pin</title>
<polygon fill="#343434" stroke="#343434" points="348.5,-180 241.5,-180 241.5,-144 348.5,-144 348.5,-180"/>
<text text-anchor="middle" x="295" y="-158.3" font-family="Courier,monospace" font-size="14.00" fill="#a0d17b">rolling_pin</text>
</g>
<!-- rolling_pin&#45;&gt;rolling_pin.blob_etl -->
<g id="edge7" class="edge">
<title>rolling_pin&#45;&gt;rolling_pin.blob_etl</title>
<path fill="none" stroke="#a0d17b" d="M348.7483,-151.5017C362.5018,-148.931 377.2815,-146.2688 391,-144 446.5934,-134.8057 605.0922,-150.579 642,-108 667.6127,-78.4516 626.7673,-54.8952 582.8549,-39.3051"/>
<polygon fill="#a0d17b" stroke="#a0d17b" points="583.7587,-35.9155 573.1642,-36.0028 581.5007,-42.5414 583.7587,-35.9155"/>
</g>
<!-- rolling_pin&#45;&gt;rolling_pin.repo_etl -->
<g id="edge8" class="edge">
<title>rolling_pin&#45;&gt;rolling_pin.repo_etl</title>
<path fill="none" stroke="#a0d17b" d="M289.1728,-143.7141C284.1252,-125.5197 278.1869,-96.8103 282,-72 283.3374,-63.2979 285.8204,-54.074 288.4834,-45.759"/>
<polygon fill="#a0d17b" stroke="#a0d17b" points="291.8406,-46.7579 291.7561,-36.1634 285.2154,-44.4982 291.8406,-46.7579"/>
</g>
<!-- rolling_pin&#45;&gt;rolling_pin.tools -->
<g id="edge9" class="edge">
<title>rolling_pin&#45;&gt;rolling_pin.tools</title>
<path fill="none" stroke="#a0d17b" d="M339.1599,-143.8314C362.7732,-134.1162 392.0202,-122.0831 416.87,-111.8592"/>
<polygon fill="#a0d17b" stroke="#a0d17b" points="418.2415,-115.0797 426.1577,-108.038 415.5781,-108.6061 418.2415,-115.0797"/>
</g>
<!-- rolling_pin&#45;&gt;rolling_pin.utils -->
<g id="edge10" class="edge">
<title>rolling_pin&#45;&gt;rolling_pin.utils</title>
<path fill="none" stroke="#a0d17b" d="M259.6721,-143.8314C241.3507,-134.4089 218.7898,-122.8062 199.3105,-112.7883"/>
<polygon fill="#a0d17b" stroke="#a0d17b" points="200.8102,-109.6239 190.3166,-108.1628 197.6088,-115.8489 200.8102,-109.6239"/>
</g>
<!-- numpy -->
<g id="node9" class="node">
<title>numpy</title>
<polygon fill="#343434" stroke="#343434" points="58,-108 0,-108 0,-72 58,-72 58,-108"/>
<text text-anchor="middle" x="29" y="-86.3" font-family="Courier,monospace" font-size="14.00" fill="#de958e">numpy</text>
</g>
<!-- numpy&#45;&gt;rolling_pin.repo_etl -->
<g id="edge11" class="edge">
<title>numpy&#45;&gt;rolling_pin.repo_etl</title>
<path fill="none" stroke="#de958e" d="M58.1981,-75.4109C61.1371,-74.1723 64.105,-73.0095 67,-72 109.0262,-57.3448 156.7211,-45.4677 197.8902,-36.6231"/>
<polygon fill="#de958e" stroke="#de958e" points="198.8753,-39.9922 207.9338,-34.4973 197.4258,-33.1439 198.8753,-39.9922"/>
</g>
<!-- pandas -->
<g id="node10" class="node">
<title>pandas</title>
<polygon fill="#343434" stroke="#343434" points="633,-108 567,-108 567,-72 633,-72 633,-108"/>
<text text-anchor="middle" x="600" y="-86.3" font-family="Courier,monospace" font-size="14.00" fill="#de958e">pandas</text>
</g>
<!-- pandas&#45;&gt;rolling_pin.blob_etl -->
<g id="edge12" class="edge">
<title>pandas&#45;&gt;rolling_pin.blob_etl</title>
<path fill="none" stroke="#de958e" d="M575.5228,-71.8314C563.4605,-62.8779 548.746,-51.9558 535.7314,-42.2955"/>
<polygon fill="#de958e" stroke="#de958e" points="537.5852,-39.3127 527.4694,-36.1628 533.413,-44.9335 537.5852,-39.3127"/>
</g>
<!-- pandas&#45;&gt;rolling_pin.repo_etl -->
<g id="edge13" class="edge">
<title>pandas&#45;&gt;rolling_pin.repo_etl</title>
<path fill="none" stroke="#de958e" d="M566.7565,-75.0428C563.8223,-73.9395 560.8752,-72.9059 558,-72 528.7432,-62.7822 459.513,-48.4836 399.9846,-36.9151"/>
<polygon fill="#de958e" stroke="#de958e" points="400.6244,-33.4741 390.1415,-35.0098 399.294,-40.3465 400.6244,-33.4741"/>
</g>
</g>
</svg>
