<?xml version="1.0" encoding="UTF-8" standalone="no"?>
<!DOCTYPE svg PUBLIC "-//W3C//DTD SVG 1.1//EN"
 "http://www.w3.org/Graphics/SVG/1.1/DTD/svg11.dtd">
<!-- Generated by graphviz version 2.43.0 (0)
 -->
<!-- Title: %3 Pages: 1 -->
<svg width="1134pt" height="1007pt"
 viewBox="0.00 0.00 1134.00 1006.91" xmlns="http://www.w3.org/2000/svg" xmlns:xlink="http://www.w3.org/1999/xlink">
<g id="graph0" class="graph" transform="scale(1 1) rotate(0) translate(4 1002.91)">
<title>%3</title>
<polygon fill="#242424" stroke="transparent" points="-4,4 -4,-1002.91 1130,-1002.91 1130,4 -4,4"/>
<!-- cli -->
<g id="node1" class="node">
<title>cli</title>
<polygon fill="#343434" stroke="#343434" points="122,-136.91 68,-136.91 68,-100.91 122,-100.91 122,-136.91"/>
<text text-anchor="middle" x="95" y="-115.21" font-family="Courier,monospace" font-size="14.00" fill="#b6ecf3">cli</text>
</g>
<!-- rolling_pin.blob_etl -->
<g id="node2" class="node">
<title>rolling_pin.blob_etl</title>
<polygon fill="#343434" stroke="#343434" points="675,-381.91 493,-381.91 493,-345.91 675,-345.91 675,-381.91"/>
<text text-anchor="middle" x="584" y="-360.21" font-family="Courier,monospace" font-size="14.00" fill="#b6ecf3">rolling_pin.blob_etl</text>
</g>
<!-- rolling_pin.conform_etl -->
<g id="node5" class="node">
<title>rolling_pin.conform_etl</title>
<polygon fill="#343434" stroke="#343434" points="917,-722.91 711,-722.91 711,-686.91 917,-686.91 917,-722.91"/>
<text text-anchor="middle" x="814" y="-701.21" font-family="Courier,monospace" font-size="14.00" fill="#b6ecf3">rolling_pin.conform_etl</text>
</g>
<!-- rolling_pin.blob_etl&#45;&gt;rolling_pin.conform_etl -->
<g id="edge1" class="edge">
<title>rolling_pin.blob_etl&#45;&gt;rolling_pin.conform_etl</title>
<path fill="none" stroke="#b6ecf3" d="M650.47,-382.1C659.82,-387.19 668.47,-393.67 675,-401.91 734.09,-476.47 665.15,-529.56 711,-612.91 726.29,-640.7 753.22,-664.45 775.58,-680.85"/>
<polygon fill="#b6ecf3" stroke="#b6ecf3" points="773.71,-683.82 783.89,-686.77 777.77,-678.12 773.71,-683.82"/>
</g>
<!-- rolling_pin.radon_etl -->
<g id="node6" class="node">
<title>rolling_pin.radon_etl</title>
<polygon fill="#343434" stroke="#343434" points="909,-339.91 719,-339.91 719,-303.91 909,-303.91 909,-339.91"/>
<text text-anchor="middle" x="814" y="-318.21" font-family="Courier,monospace" font-size="14.00" fill="#b6ecf3">rolling_pin.radon_etl</text>
</g>
<!-- rolling_pin.blob_etl&#45;&gt;rolling_pin.radon_etl -->
<g id="edge2" class="edge">
<title>rolling_pin.blob_etl&#45;&gt;rolling_pin.radon_etl</title>
<path fill="none" stroke="#b6ecf3" d="M675.11,-347.31C686.18,-345.27 697.57,-343.17 708.83,-341.1"/>
<polygon fill="#b6ecf3" stroke="#b6ecf3" points="709.47,-344.54 718.67,-339.28 708.21,-337.65 709.47,-344.54"/>
</g>
<!-- rolling_pin.toml_etl -->
<g id="node8" class="node">
<title>rolling_pin.toml_etl</title>
<polygon fill="#343434" stroke="#343434" points="905,-603.91 723,-603.91 723,-567.91 905,-567.91 905,-603.91"/>
<text text-anchor="middle" x="814" y="-582.21" font-family="Courier,monospace" font-size="14.00" fill="#b6ecf3">rolling_pin.toml_etl</text>
</g>
<!-- rolling_pin.blob_etl&#45;&gt;rolling_pin.toml_etl -->
<g id="edge3" class="edge">
<title>rolling_pin.blob_etl&#45;&gt;rolling_pin.toml_etl</title>
<path fill="none" stroke="#b6ecf3" d="M640.85,-382.08C652.79,-387.4 664.84,-393.97 675,-401.91 731.56,-446.11 776.73,-518.96 798.62,-558.43"/>
<polygon fill="#b6ecf3" stroke="#b6ecf3" points="795.82,-560.61 803.68,-567.71 801.97,-557.26 795.82,-560.61"/>
</g>
<!-- rolling_pin.command -->
<g id="node3" class="node">
<title>rolling_pin.command</title>
<polygon fill="#343434" stroke="#343434" points="1126,-543.91 953,-543.91 953,-507.91 1126,-507.91 1126,-543.91"/>
<text text-anchor="middle" x="1039.5" y="-522.21" font-family="Courier,monospace" font-size="14.00" fill="#b6ecf3">rolling_pin.command</text>
</g>
<!-- rolling_pin.conform_config -->
<g id="node4" class="node">
<title>rolling_pin.conform_config</title>
<polygon fill="#343434" stroke="#343434" points="457,-944.91 226,-944.91 226,-908.91 457,-908.91 457,-944.91"/>
<text text-anchor="middle" x="341.5" y="-923.21" font-family="Courier,monospace" font-size="14.00" fill="#b6ecf3">rolling_pin.conform_config</text>
</g>
<!-- rolling_pin.conform_config&#45;&gt;rolling_pin.conform_etl -->
<g id="edge4" class="edge">
<title>rolling_pin.conform_config&#45;&gt;rolling_pin.conform_etl</title>
<path fill="none" stroke="#b6ecf3" d="M457.28,-920.36C524.42,-912.37 608.73,-894.9 675,-856.91 729.07,-825.91 773.67,-766.33 796.5,-731.69"/>
<polygon fill="#b6ecf3" stroke="#b6ecf3" points="799.6,-733.33 802.09,-723.03 793.72,-729.53 799.6,-733.33"/>
</g>
<!-- rolling_pin.conform_etl&#45;&gt;rolling_pin.command -->
<g id="edge5" class="edge">
<title>rolling_pin.conform_etl&#45;&gt;rolling_pin.command</title>
<path fill="none" stroke="#b6ecf3" d="M837.66,-686.76C877.99,-654.46 962.24,-586.98 1007.75,-550.53"/>
<polygon fill="#b6ecf3" stroke="#b6ecf3" points="1010.16,-553.09 1015.78,-544.1 1005.79,-547.62 1010.16,-553.09"/>
</g>
<!-- rolling_pin.radon_etl&#45;&gt;rolling_pin.command -->
<g id="edge6" class="edge">
<title>rolling_pin.radon_etl&#45;&gt;rolling_pin.command</title>
<path fill="none" stroke="#b6ecf3" d="M834.83,-340.01C874.93,-376.61 965.67,-459.43 1011.27,-501.05"/>
<polygon fill="#b6ecf3" stroke="#b6ecf3" points="1008.96,-503.69 1018.71,-507.84 1013.68,-498.52 1008.96,-503.69"/>
</g>
<!-- rolling_pin.repo_etl -->
<g id="node7" class="node">
<title>rolling_pin.repo_etl</title>
<polygon fill="#343434" stroke="#343434" points="675,-446.91 493,-446.91 493,-410.91 675,-410.91 675,-446.91"/>
<text text-anchor="middle" x="584" y="-425.21" font-family="Courier,monospace" font-size="14.00" fill="#b6ecf3">rolling_pin.repo_etl</text>
</g>
<!-- rolling_pin.repo_etl&#45;&gt;rolling_pin.command -->
<g id="edge7" class="edge">
<title>rolling_pin.repo_etl&#45;&gt;rolling_pin.command</title>
<path fill="none" stroke="#b6ecf3" d="M669.24,-446.93C747.23,-463.61 863.05,-488.38 944.12,-505.72"/>
<polygon fill="#b6ecf3" stroke="#b6ecf3" points="943.82,-509.24 954.33,-507.9 945.28,-502.39 943.82,-509.24"/>
</g>
<!-- rolling_pin.toml_etl&#45;&gt;rolling_pin.command -->
<g id="edge8" class="edge">
<title>rolling_pin.toml_etl&#45;&gt;rolling_pin.command</title>
<path fill="none" stroke="#b6ecf3" d="M882.06,-567.91C907.03,-561.2 935.56,-553.54 961.36,-546.62"/>
<polygon fill="#b6ecf3" stroke="#b6ecf3" points="962.35,-549.97 971.1,-544 960.54,-543.21 962.35,-549.97"/>
</g>
<!-- rolling_pin.tools -->
<g id="node9" class="node">
<title>rolling_pin.tools</title>
<polygon fill="#343434" stroke="#343434" points="420,-236.91 263,-236.91 263,-200.91 420,-200.91 420,-236.91"/>
<text text-anchor="middle" x="341.5" y="-215.21" font-family="Courier,monospace" font-size="14.00" fill="#b6ecf3">rolling_pin.tools</text>
</g>
<!-- rolling_pin.tools&#45;&gt;rolling_pin.blob_etl -->
<g id="edge9" class="edge">
<title>rolling_pin.tools&#45;&gt;rolling_pin.blob_etl</title>
<path fill="none" stroke="#b6ecf3" d="M420.17,-230.59C433.51,-235.27 446.46,-241.8 457,-250.91 486.81,-276.66 464.1,-305.14 493,-331.91 496.54,-335.19 500.44,-338.13 504.57,-340.78"/>
<polygon fill="#b6ecf3" stroke="#b6ecf3" points="502.91,-343.86 513.32,-345.81 506.39,-337.79 502.91,-343.86"/>
</g>
<!-- rolling_pin.tools&#45;&gt;rolling_pin.conform_etl -->
<g id="edge10" class="edge">
<title>rolling_pin.tools&#45;&gt;rolling_pin.conform_etl</title>
<path fill="none" stroke="#b6ecf3" d="M420.16,-234.02C432.94,-238.14 445.68,-243.35 457,-249.91 476.58,-261.25 473.47,-274.48 493,-285.91 565.51,-328.32 620.01,-273.4 675,-336.91 755.98,-430.43 653.51,-503.37 711,-612.91 725.64,-640.81 752.34,-664.41 774.75,-680.73"/>
<polygon fill="#b6ecf3" stroke="#b6ecf3" points="772.9,-683.71 783.09,-686.62 776.94,-677.99 772.9,-683.71"/>
</g>
<!-- rolling_pin.tools&#45;&gt;rolling_pin.radon_etl -->
<g id="edge11" class="edge">
<title>rolling_pin.tools&#45;&gt;rolling_pin.radon_etl</title>
<path fill="none" stroke="#b6ecf3" d="M420.19,-235.92C502.63,-253.96 632.83,-282.46 720.5,-301.66"/>
<polygon fill="#b6ecf3" stroke="#b6ecf3" points="719.92,-305.11 730.44,-303.83 721.42,-298.28 719.92,-305.11"/>
</g>
<!-- rolling_pin.tools&#45;&gt;rolling_pin.repo_etl -->
<g id="edge12" class="edge">
<title>rolling_pin.tools&#45;&gt;rolling_pin.repo_etl</title>
<path fill="none" stroke="#b6ecf3" d="M356.57,-236.96C387.44,-276.22 460.92,-367.73 493,-390.91 501.15,-396.79 510.34,-401.99 519.66,-406.5"/>
<polygon fill="#b6ecf3" stroke="#b6ecf3" points="518.45,-409.79 529,-410.78 521.37,-403.43 518.45,-409.79"/>
</g>
<!-- IPython.display -->
<g id="node10" class="node">
<title>IPython.display</title>
<polygon fill="#343434" stroke="#343434" points="165,-431.91 25,-431.91 25,-395.91 165,-395.91 165,-431.91"/>
<text text-anchor="middle" x="95" y="-410.21" font-family="Courier,monospace" font-size="14.00" fill="#de958e">IPython.display</text>
</g>
<!-- IPython.display&#45;&gt;rolling_pin.blob_etl -->
<g id="edge13" class="edge">
<title>IPython.display&#45;&gt;rolling_pin.blob_etl</title>
<path fill="none" stroke="#de958e" d="M115.2,-395.59C138.99,-374.29 181.83,-340.33 226,-326.91 324.24,-297.07 355.38,-312.3 457,-326.91 479.31,-330.11 503.17,-336.36 524.07,-342.82"/>
<polygon fill="#de958e" stroke="#de958e" points="523.16,-346.21 533.75,-345.9 525.28,-339.54 523.16,-346.21"/>
</g>
<!-- IPython.display&#45;&gt;rolling_pin.conform_etl -->
<g id="edge14" class="edge">
<title>IPython.display&#45;&gt;rolling_pin.conform_etl</title>
<path fill="none" stroke="#de958e" d="M102.79,-432.14C118.77,-473.02 162.27,-573.31 226,-635.91 323.1,-731.29 361.32,-751.45 493,-785.91 571.25,-806.38 596.94,-807.12 675,-785.91 715.4,-774.93 756.05,-748.81 782.66,-729.18"/>
<polygon fill="#de958e" stroke="#de958e" points="784.91,-731.87 790.79,-723.06 780.7,-726.28 784.91,-731.87"/>
</g>
<!-- IPython.display&#45;&gt;rolling_pin.repo_etl -->
<g id="edge15" class="edge">
<title>IPython.display&#45;&gt;rolling_pin.repo_etl</title>
<path fill="none" stroke="#de958e" d="M115.2,-432.22C138.99,-453.53 181.83,-487.49 226,-500.91 324.24,-530.75 363.21,-542.68 457,-500.91 478.85,-491.18 473.12,-474.21 493,-460.91 498.34,-457.34 504.12,-454.11 510.09,-451.21"/>
<polygon fill="#de958e" stroke="#de958e" points="511.91,-454.23 519.58,-446.92 509.03,-447.85 511.91,-454.23"/>
</g>
<!-- IPython.display&#45;&gt;rolling_pin.tools -->
<g id="edge16" class="edge">
<title>IPython.display&#45;&gt;rolling_pin.tools</title>
<path fill="none" stroke="#de958e" d="M112.56,-395.65C136.26,-370.09 181.88,-322.96 226,-288.91 248.53,-271.52 275.64,-254.78 297.82,-242.04"/>
<polygon fill="#de958e" stroke="#de958e" points="299.71,-244.99 306.68,-237.01 296.25,-238.9 299.71,-244.99"/>
</g>
<!-- rolling_pin -->
<g id="node11" class="node">
<title>rolling_pin</title>
<polygon fill="#343434" stroke="#343434" points="148.5,-691.91 41.5,-691.91 41.5,-655.91 148.5,-655.91 148.5,-691.91"/>
<text text-anchor="middle" x="95" y="-670.21" font-family="Courier,monospace" font-size="14.00" fill="#a0d17b">rolling_pin</text>
</g>
<!-- rolling_pin&#45;&gt;rolling_pin.blob_etl -->
<g id="edge17" class="edge">
<title>rolling_pin&#45;&gt;rolling_pin.blob_etl</title>
<path fill="none" stroke="#a0d17b" d="M103.34,-655.81C130.32,-589.31 222.65,-362.15 226,-359.91 266.54,-332.81 392.12,-340.54 482.88,-350.51"/>
<polygon fill="#a0d17b" stroke="#a0d17b" points="482.61,-354 492.94,-351.64 483.39,-347.05 482.61,-354"/>
</g>
<!-- rolling_pin&#45;&gt;rolling_pin.command -->
<g id="edge18" class="edge">
<title>rolling_pin&#45;&gt;rolling_pin.command</title>
<path fill="none" stroke="#a0d17b" d="M103.13,-692.15C118.8,-729.34 160.15,-813.14 226,-845.91 404.65,-934.82 480.26,-889.48 675,-845.91 791.02,-819.95 829.13,-811.99 917,-731.91 973.39,-680.51 1011.43,-596.75 1028.41,-553.58"/>
<polygon fill="#a0d17b" stroke="#a0d17b" points="1031.76,-554.6 1032.08,-544.01 1025.23,-552.09 1031.76,-554.6"/>
</g>
<!-- rolling_pin&#45;&gt;rolling_pin.conform_config -->
<g id="edge19" class="edge">
<title>rolling_pin&#45;&gt;rolling_pin.conform_config</title>
<path fill="none" stroke="#a0d17b" d="M105.67,-692.09C132.58,-742.4 207.57,-880.72 226,-894.91 230.5,-898.37 235.35,-901.46 240.43,-904.21"/>
<polygon fill="#a0d17b" stroke="#a0d17b" points="239.28,-907.54 249.79,-908.81 242.36,-901.26 239.28,-907.54"/>
</g>
<!-- rolling_pin&#45;&gt;rolling_pin.conform_etl -->
<g id="edge20" class="edge">
<title>rolling_pin&#45;&gt;rolling_pin.conform_etl</title>
<path fill="none" stroke="#a0d17b" d="M105.48,-692.11C123.69,-724.82 167.03,-792.58 226,-818.91 317.11,-859.59 581.11,-852.67 675,-818.91 723.44,-801.49 766.97,-758.88 791.67,-730.98"/>
<polygon fill="#a0d17b" stroke="#a0d17b" points="794.52,-733.03 798.41,-723.18 789.22,-728.45 794.52,-733.03"/>
</g>
<!-- rolling_pin&#45;&gt;rolling_pin.radon_etl -->
<g id="edge21" class="edge">
<title>rolling_pin&#45;&gt;rolling_pin.radon_etl</title>
<path fill="none" stroke="#a0d17b" d="M148.7,-671.46C243.09,-666.63 433.37,-654.67 457,-635.91 495.3,-605.49 456.45,-564.41 493,-531.91 554.88,-476.87 604.51,-535.38 675,-491.91 732.87,-456.22 777.23,-387.43 798.72,-349.2"/>
<polygon fill="#a0d17b" stroke="#a0d17b" points="801.93,-350.63 803.68,-340.18 795.8,-347.25 801.93,-350.63"/>
</g>
<!-- rolling_pin&#45;&gt;rolling_pin.repo_etl -->
<g id="edge22" class="edge">
<title>rolling_pin&#45;&gt;rolling_pin.repo_etl</title>
<path fill="none" stroke="#a0d17b" d="M116.06,-655.87C140.35,-634.97 183.35,-600.99 226,-581.91 322.15,-538.89 373.45,-593.05 457,-528.91 484.13,-508.08 467.13,-483.27 493,-460.91 496.9,-457.54 501.18,-454.51 505.69,-451.8"/>
<polygon fill="#a0d17b" stroke="#a0d17b" points="507.48,-454.81 514.6,-446.96 504.14,-448.66 507.48,-454.81"/>
</g>
<!-- rolling_pin&#45;&gt;rolling_pin.toml_etl -->
<g id="edge23" class="edge">
<title>rolling_pin&#45;&gt;rolling_pin.toml_etl</title>
<path fill="none" stroke="#a0d17b" d="M148.55,-677.5C251.48,-683.1 486.1,-688.67 675,-639.91 705.73,-631.98 738.88,-619.15 764.99,-607.99"/>
<polygon fill="#a0d17b" stroke="#a0d17b" points="766.49,-611.15 774.28,-603.96 763.71,-604.73 766.49,-611.15"/>
</g>
<!-- rolling_pin&#45;&gt;rolling_pin.tools -->
<g id="edge24" class="edge">
<title>rolling_pin&#45;&gt;rolling_pin.tools</title>
<path fill="none" stroke="#a0d17b" d="M103.92,-655.67C120.75,-616.64 160.89,-521.99 190,-440.91 207.95,-390.9 197.77,-371.92 226,-326.91 247.1,-293.28 281.12,-263.04 306.61,-243.17"/>
<polygon fill="#a0d17b" stroke="#a0d17b" points="308.74,-245.94 314.56,-237.09 304.49,-240.38 308.74,-245.94"/>
</g>
<!-- lunchbox.tools -->
<g id="node12" class="node">
<title>lunchbox.tools</title>
<polygon fill="#343434" stroke="#343434" points="407.5,-404.91 275.5,-404.91 275.5,-368.91 407.5,-368.91 407.5,-404.91"/>
<text text-anchor="middle" x="341.5" y="-383.21" font-family="Courier,monospace" font-size="14.00" fill="#de958e">lunchbox.tools</text>
</g>
<!-- lunchbox.tools&#45;&gt;rolling_pin.blob_etl -->
<g id="edge25" class="edge">
<title>lunchbox.tools&#45;&gt;rolling_pin.blob_etl</title>
<path fill="none" stroke="#de958e" d="M407.58,-380.68C430.67,-378.48 457.22,-375.94 482.57,-373.51"/>
<polygon fill="#de958e" stroke="#de958e" points="482.96,-376.99 492.59,-372.55 482.3,-370.02 482.96,-376.99"/>
</g>
<!-- lunchbox.tools&#45;&gt;rolling_pin.repo_etl -->
<g id="edge26" class="edge">
<title>lunchbox.tools&#45;&gt;rolling_pin.repo_etl</title>
<path fill="none" stroke="#de958e" d="M407.58,-398.27C430.67,-402.31 457.22,-406.94 482.57,-411.37"/>
<polygon fill="#de958e" stroke="#de958e" points="482.13,-414.85 492.59,-413.12 483.34,-407.95 482.13,-414.85"/>
</g>
<!-- pandas -->
<g id="node13" class="node">
<title>pandas</title>
<polygon fill="#343434" stroke="#343434" points="128,-190.91 62,-190.91 62,-154.91 128,-154.91 128,-190.91"/>
<text text-anchor="middle" x="95" y="-169.21" font-family="Courier,monospace" font-size="14.00" fill="#de958e">pandas</text>
</g>
<!-- pandas&#45;&gt;rolling_pin.blob_etl -->
<g id="edge27" class="edge">
<title>pandas&#45;&gt;rolling_pin.blob_etl</title>
<path fill="none" stroke="#de958e" d="M128.19,-170.75C206.15,-166.11 402.68,-158.19 457,-191.91 484.73,-209.12 474.48,-229.04 493,-255.91 513.39,-285.49 540.09,-316.76 559.1,-337.99"/>
<polygon fill="#de958e" stroke="#de958e" points="556.68,-340.54 565.98,-345.62 561.88,-335.85 556.68,-340.54"/>
</g>
<!-- pandas&#45;&gt;rolling_pin.conform_etl -->
<g id="edge28" class="edge">
<title>pandas&#45;&gt;rolling_pin.conform_etl</title>
<path fill="none" stroke="#de958e" d="M128.02,-169.76C154.3,-167.33 192.52,-164.19 226,-162.91 328.59,-158.97 367.66,-112.32 457,-162.91 484.06,-178.23 468.66,-203.55 493,-222.91 559.55,-275.84 621.35,-215.94 675,-281.91 721.69,-339.31 677.32,-547.03 711,-612.91 725.34,-640.96 752.05,-664.56 774.54,-680.84"/>
<polygon fill="#de958e" stroke="#de958e" points="772.72,-683.83 782.92,-686.71 776.74,-678.1 772.72,-683.83"/>
</g>
<!-- pandas&#45;&gt;rolling_pin.radon_etl -->
<g id="edge29" class="edge">
<title>pandas&#45;&gt;rolling_pin.radon_etl</title>
<path fill="none" stroke="#de958e" d="M128.28,-166.4C146.87,-161.98 170.37,-155.23 190,-145.91 207.6,-137.55 208.17,-128.74 226,-120.91 410.32,-39.91 522.2,70.18 675,-60.91 754.86,-129.42 640.65,-216.66 711,-294.91 711.64,-295.62 712.3,-296.32 712.98,-297"/>
<polygon fill="#de958e" stroke="#de958e" points="710.88,-299.81 720.76,-303.63 715.42,-294.48 710.88,-299.81"/>
</g>
<!-- pandas&#45;&gt;rolling_pin.repo_etl -->
<g id="edge30" class="edge">
<title>pandas&#45;&gt;rolling_pin.repo_etl</title>
<path fill="none" stroke="#de958e" d="M128.09,-180.3C149.07,-186.86 175.24,-198.64 190,-218.91 255.84,-309.28 141.47,-394.72 226,-467.91 264.81,-501.51 406.24,-475.58 457,-467.91 480.36,-464.37 505.37,-457.35 526.89,-450.23"/>
<polygon fill="#de958e" stroke="#de958e" points="528.17,-453.49 536.52,-446.96 525.92,-446.86 528.17,-453.49"/>
</g>
<!-- pandas&#45;&gt;rolling_pin.tools -->
<g id="edge31" class="edge">
<title>pandas&#45;&gt;rolling_pin.tools</title>
<path fill="none" stroke="#de958e" d="M128.22,-178.97C159.85,-184.92 209.55,-194.27 252.9,-202.43"/>
<polygon fill="#de958e" stroke="#de958e" points="252.43,-205.9 262.91,-204.31 253.73,-199.02 252.43,-205.9"/>
</g>
<!-- click -->
<g id="node14" class="node">
<title>click</title>
<polygon fill="#343434" stroke="#343434" points="843,-285.91 785,-285.91 785,-249.91 843,-249.91 843,-285.91"/>
<text text-anchor="middle" x="814" y="-264.21" font-family="Courier,monospace" font-size="14.00" fill="#de958e">click</text>
</g>
<!-- click&#45;&gt;rolling_pin.command -->
<g id="edge32" class="edge">
<title>click&#45;&gt;rolling_pin.command</title>
<path fill="none" stroke="#de958e" d="M843.27,-269.3C865.43,-271.72 895.94,-278.13 917,-294.91 984.03,-348.3 1018.33,-448.88 1031.68,-497.78"/>
<polygon fill="#de958e" stroke="#de958e" points="1028.35,-498.89 1034.28,-507.67 1035.12,-497.11 1028.35,-498.89"/>
</g>
<!-- networkx -->
<g id="node15" class="node">
<title>networkx</title>
<polygon fill="#343434" stroke="#343434" points="383,-458.91 300,-458.91 300,-422.91 383,-422.91 383,-458.91"/>
<text text-anchor="middle" x="341.5" y="-437.21" font-family="Courier,monospace" font-size="14.00" fill="#de958e">networkx</text>
</g>
<!-- networkx&#45;&gt;rolling_pin.blob_etl -->
<g id="edge33" class="edge">
<title>networkx&#45;&gt;rolling_pin.blob_etl</title>
<path fill="none" stroke="#de958e" d="M383.16,-432.83C405.22,-428.08 432.84,-421.5 457,-413.91 482.24,-405.97 509.62,-395.36 532.38,-385.96"/>
<polygon fill="#de958e" stroke="#de958e" points="533.96,-389.09 541.84,-382.01 531.26,-382.63 533.96,-389.09"/>
</g>
<!-- networkx&#45;&gt;rolling_pin.repo_etl -->
<g id="edge34" class="edge">
<title>networkx&#45;&gt;rolling_pin.repo_etl</title>
<path fill="none" stroke="#de958e" d="M383.03,-438.89C410.32,-437.52 447.58,-435.66 482.55,-433.92"/>
<polygon fill="#de958e" stroke="#de958e" points="483.01,-437.4 492.83,-433.41 482.66,-430.41 483.01,-437.4"/>
</g>
<!-- pydot -->
<g id="node16" class="node">
<title>pydot</title>
<polygon fill="#343434" stroke="#343434" points="124,-263.91 66,-263.91 66,-227.91 124,-227.91 124,-263.91"/>
<text text-anchor="middle" x="95" y="-242.21" font-family="Courier,monospace" font-size="14.00" fill="#de958e">pydot</text>
</g>
<!-- pydot&#45;&gt;rolling_pin.blob_etl -->
<g id="edge35" class="edge">
<title>pydot&#45;&gt;rolling_pin.blob_etl</title>
<path fill="none" stroke="#de958e" d="M124.37,-246.27C186.9,-247.98 340.31,-257.24 457,-305.91 475.22,-313.5 475.53,-322.73 493,-331.91 499.92,-335.54 507.34,-338.92 514.84,-342.01"/>
<polygon fill="#de958e" stroke="#de958e" points="513.77,-345.35 524.35,-345.78 516.34,-338.85 513.77,-345.35"/>
</g>
<!-- pydot&#45;&gt;rolling_pin.tools -->
<g id="edge36" class="edge">
<title>pydot&#45;&gt;rolling_pin.tools</title>
<path fill="none" stroke="#de958e" d="M124.05,-242.81C155.3,-239.36 207.39,-233.61 252.64,-228.61"/>
<polygon fill="#de958e" stroke="#de958e" points="253.23,-232.07 262.78,-227.49 252.46,-225.11 253.23,-232.07"/>
</g>
<!-- numpy -->
<g id="node17" class="node">
<title>numpy</title>
<polygon fill="#343434" stroke="#343434" points="370.5,-626.91 312.5,-626.91 312.5,-590.91 370.5,-590.91 370.5,-626.91"/>
<text text-anchor="middle" x="341.5" y="-605.21" font-family="Courier,monospace" font-size="14.00" fill="#de958e">numpy</text>
</g>
<!-- numpy&#45;&gt;rolling_pin.radon_etl -->
<g id="edge37" class="edge">
<title>numpy&#45;&gt;rolling_pin.radon_etl</title>
<path fill="none" stroke="#de958e" d="M370.89,-605.05C396.07,-600.34 432.53,-590.19 457,-568.91 483.39,-545.95 465.45,-520.46 493,-498.91 558.46,-447.69 602.11,-495.85 675,-455.91 724.52,-428.77 768.83,-379.01 793.21,-348.36"/>
<polygon fill="#de958e" stroke="#de958e" points="796.14,-350.29 799.55,-340.26 790.63,-345.98 796.14,-350.29"/>
</g>
<!-- numpy&#45;&gt;rolling_pin.repo_etl -->
<g id="edge38" class="edge">
<title>numpy&#45;&gt;rolling_pin.repo_etl</title>
<path fill="none" stroke="#de958e" d="M370.7,-608.35C396.44,-606.32 433.91,-599.35 457,-576.91 495.71,-539.28 455.61,-499.85 493,-460.91 495.97,-457.81 499.26,-455.02 502.78,-452.49"/>
<polygon fill="#de958e" stroke="#de958e" points="504.76,-455.38 511.34,-447.07 501.02,-449.46 504.76,-455.38"/>
</g>
<!-- lunchbox.enforce -->
<g id="node18" class="node">
<title>lunchbox.enforce</title>
<polygon fill="#343434" stroke="#343434" points="658.5,-722.91 509.5,-722.91 509.5,-686.91 658.5,-686.91 658.5,-722.91"/>
<text text-anchor="middle" x="584" y="-701.21" font-family="Courier,monospace" font-size="14.00" fill="#de958e">lunchbox.enforce</text>
</g>
<!-- lunchbox.enforce&#45;&gt;rolling_pin.conform_etl -->
<g id="edge39" class="edge">
<title>lunchbox.enforce&#45;&gt;rolling_pin.conform_etl</title>
<path fill="none" stroke="#de958e" d="M658.71,-704.91C672.11,-704.91 686.36,-704.91 700.58,-704.91"/>
<polygon fill="#de958e" stroke="#de958e" points="700.92,-708.41 710.92,-704.91 700.92,-701.41 700.92,-708.41"/>
</g>
<!-- lunchbox.enforce&#45;&gt;rolling_pin.toml_etl -->
<g id="edge40" class="edge">
<title>lunchbox.enforce&#45;&gt;rolling_pin.toml_etl</title>
<path fill="none" stroke="#de958e" d="M641.96,-686.81C653.1,-682.67 664.56,-677.98 675,-672.91 712.47,-654.71 752.44,-628.71 779.66,-609.87"/>
<polygon fill="#de958e" stroke="#de958e" points="781.84,-612.62 788.04,-604.03 777.83,-606.88 781.84,-612.62"/>
</g>
<!-- plotly.express -->
<g id="node19" class="node">
<title>plotly.express</title>
<polygon fill="#343434" stroke="#343434" points="650,-213.91 518,-213.91 518,-177.91 650,-177.91 650,-213.91"/>
<text text-anchor="middle" x="584" y="-192.21" font-family="Courier,monospace" font-size="14.00" fill="#de958e">plotly.express</text>
</g>
<!-- plotly.express&#45;&gt;rolling_pin.radon_etl -->
<g id="edge41" class="edge">
<title>plotly.express&#45;&gt;rolling_pin.radon_etl</title>
<path fill="none" stroke="#de958e" d="M650.14,-212.48C659.09,-216.57 667.7,-221.64 675,-227.91 700.64,-249.93 684.47,-273.96 711,-294.91 712.62,-296.18 714.29,-297.4 716.01,-298.56"/>
<polygon fill="#de958e" stroke="#de958e" points="714.58,-301.78 724.96,-303.89 718.16,-295.77 714.58,-301.78"/>
</g>
<!-- radon.cli -->
<g id="node20" class="node">
<title>radon.cli</title>
<polygon fill="#343434" stroke="#343434" points="629.5,-159.91 538.5,-159.91 538.5,-123.91 629.5,-123.91 629.5,-159.91"/>
<text text-anchor="middle" x="584" y="-138.21" font-family="Courier,monospace" font-size="14.00" fill="#de958e">radon.cli</text>
</g>
<!-- radon.cli&#45;&gt;rolling_pin.radon_etl -->
<g id="edge42" class="edge">
<title>radon.cli&#45;&gt;rolling_pin.radon_etl</title>
<path fill="none" stroke="#de958e" d="M629.9,-146.39C645.99,-150.11 663.08,-156.83 675,-168.91 715.91,-210.36 669.42,-254.13 711,-294.91 711.96,-295.85 712.94,-296.75 713.95,-297.63"/>
<polygon fill="#de958e" stroke="#de958e" points="712.07,-300.59 722.18,-303.76 716.25,-294.98 712.07,-300.59"/>
</g>
<!-- radon.complexity -->
<g id="node21" class="node">
<title>radon.complexity</title>
<polygon fill="#343434" stroke="#343434" points="658.5,-105.91 509.5,-105.91 509.5,-69.91 658.5,-69.91 658.5,-105.91"/>
<text text-anchor="middle" x="584" y="-84.21" font-family="Courier,monospace" font-size="14.00" fill="#de958e">radon.complexity</text>
</g>
<!-- radon.complexity&#45;&gt;rolling_pin.radon_etl -->
<g id="edge43" class="edge">
<title>radon.complexity&#45;&gt;rolling_pin.radon_etl</title>
<path fill="none" stroke="#de958e" d="M658.86,-102.34C664.87,-105.71 670.39,-109.84 675,-114.91 729.91,-175.24 655.11,-235.48 711,-294.91 711.78,-295.74 712.59,-296.55 713.42,-297.34"/>
<polygon fill="#de958e" stroke="#de958e" points="711.41,-300.22 721.39,-303.78 715.81,-294.77 711.41,-300.22"/>
</g>
<!-- schematics -->
<g id="node22" class="node">
<title>schematics</title>
<polygon fill="#343434" stroke="#343434" points="144.5,-890.91 45.5,-890.91 45.5,-854.91 144.5,-854.91 144.5,-890.91"/>
<text text-anchor="middle" x="95" y="-869.21" font-family="Courier,monospace" font-size="14.00" fill="#de958e">schematics</text>
</g>
<!-- schematics&#45;&gt;rolling_pin.conform_config -->
<g id="edge44" class="edge">
<title>schematics&#45;&gt;rolling_pin.conform_config</title>
<path fill="none" stroke="#de958e" d="M144.6,-883.64C174.39,-890.22 213.47,-898.85 248.89,-906.68"/>
<polygon fill="#de958e" stroke="#de958e" points="248.26,-910.12 258.78,-908.86 249.77,-903.28 248.26,-910.12"/>
</g>
<!-- schematics.exceptions -->
<g id="node23" class="node">
<title>schematics.exceptions</title>
<polygon fill="#343434" stroke="#343434" points="190,-998.91 0,-998.91 0,-962.91 190,-962.91 190,-998.91"/>
<text text-anchor="middle" x="95" y="-977.21" font-family="Courier,monospace" font-size="14.00" fill="#de958e">schematics.exceptions</text>
</g>
<!-- schematics.exceptions&#45;&gt;rolling_pin.conform_config -->
<g id="edge45" class="edge">
<title>schematics.exceptions&#45;&gt;rolling_pin.conform_config</title>
<path fill="none" stroke="#de958e" d="M177.75,-962.85C200.59,-957.81 225.55,-952.29 248.92,-947.13"/>
<polygon fill="#de958e" stroke="#de958e" points="249.81,-950.52 258.82,-944.95 248.3,-943.69 249.81,-950.52"/>
</g>
<!-- schematics.types -->
<g id="node24" class="node">
<title>schematics.types</title>
<polygon fill="#343434" stroke="#343434" points="169.5,-944.91 20.5,-944.91 20.5,-908.91 169.5,-908.91 169.5,-944.91"/>
<text text-anchor="middle" x="95" y="-923.21" font-family="Courier,monospace" font-size="14.00" fill="#de958e">schematics.types</text>
</g>
<!-- schematics.types&#45;&gt;rolling_pin.conform_config -->
<g id="edge46" class="edge">
<title>schematics.types&#45;&gt;rolling_pin.conform_config</title>
<path fill="none" stroke="#de958e" d="M169.69,-926.91C184.22,-926.91 199.85,-926.91 215.54,-926.91"/>
<polygon fill="#de958e" stroke="#de958e" points="215.84,-930.41 225.84,-926.91 215.84,-923.41 215.84,-930.41"/>
</g>
<!-- toml -->
<g id="node25" class="node">
<title>toml</title>
<polygon fill="#343434" stroke="#343434" points="611,-576.91 557,-576.91 557,-540.91 611,-540.91 611,-576.91"/>
<text text-anchor="middle" x="584" y="-555.21" font-family="Courier,monospace" font-size="14.00" fill="#de958e">toml</text>
</g>
<!-- toml&#45;&gt;rolling_pin.toml_etl -->
<g id="edge47" class="edge">
<title>toml&#45;&gt;rolling_pin.toml_etl</title>
<path fill="none" stroke="#de958e" d="M611.15,-562C636.17,-564.97 675.51,-569.63 712.84,-574.05"/>
<polygon fill="#de958e" stroke="#de958e" points="712.45,-577.52 722.79,-575.22 713.27,-570.57 712.45,-577.52"/>
</g>
<!-- toml.decoder -->
<g id="node26" class="node">
<title>toml.decoder</title>
<polygon fill="#343434" stroke="#343434" points="642,-630.91 526,-630.91 526,-594.91 642,-594.91 642,-630.91"/>
<text text-anchor="middle" x="584" y="-609.21" font-family="Courier,monospace" font-size="14.00" fill="#de958e">toml.decoder</text>
</g>
<!-- toml.decoder&#45;&gt;rolling_pin.toml_etl -->
<g id="edge48" class="edge">
<title>toml.decoder&#45;&gt;rolling_pin.toml_etl</title>
<path fill="none" stroke="#de958e" d="M642.24,-606.13C663.69,-603.59 688.74,-600.62 712.93,-597.76"/>
<polygon fill="#de958e" stroke="#de958e" points="713.35,-601.23 722.87,-596.58 712.53,-594.28 713.35,-601.23"/>
</g>
<!-- yaml -->
<g id="node27" class="node">
<title>yaml</title>
<polygon fill="#343434" stroke="#343434" points="611,-776.91 557,-776.91 557,-740.91 611,-740.91 611,-776.91"/>
<text text-anchor="middle" x="584" y="-755.21" font-family="Courier,monospace" font-size="14.00" fill="#de958e">yaml</text>
</g>
<!-- yaml&#45;&gt;rolling_pin.conform_etl -->
<g id="edge49" class="edge">
<title>yaml&#45;&gt;rolling_pin.conform_etl</title>
<path fill="none" stroke="#de958e" d="M611.15,-752.71C639.31,-746.04 685.6,-735.08 726.76,-725.33"/>
<polygon fill="#de958e" stroke="#de958e" points="727.62,-728.73 736.54,-723.02 726.01,-721.91 727.62,-728.73"/>
</g>
</g>
</svg>
