<?xml version="1.0" encoding="UTF-8" standalone="no"?>
<!DOCTYPE svg PUBLIC "-//W3C//DTD SVG 1.1//EN"
 "http://www.w3.org/Graphics/SVG/1.1/DTD/svg11.dtd">
<!-- Generated by graphviz version 2.43.0 (0)
 -->
<!-- Title: %3 Pages: 1 -->
<svg width="1134pt" height="1098pt"
 viewBox="0.00 0.00 1134.00 1098.00" xmlns="http://www.w3.org/2000/svg" xmlns:xlink="http://www.w3.org/1999/xlink">
<g id="graph0" class="graph" transform="scale(1 1) rotate(0) translate(4 1094)">
<title>%3</title>
<polygon fill="#242424" stroke="transparent" points="-4,4 -4,-1094 1130,-1094 1130,4 -4,4"/>
<!-- cli -->
<g id="node1" class="node">
<title>cli</title>
<polygon fill="#343434" stroke="#343434" points="122,-359 68,-359 68,-323 122,-323 122,-359"/>
<text text-anchor="middle" x="95" y="-337.3" font-family="Courier,monospace" font-size="14.00" fill="#b6ecf3">cli</text>
</g>
<!-- rolling_pin.blob_etl -->
<g id="node2" class="node">
<title>rolling_pin.blob_etl</title>
<polygon fill="#343434" stroke="#343434" points="675,-642 493,-642 493,-606 675,-606 675,-642"/>
<text text-anchor="middle" x="584" y="-620.3" font-family="Courier,monospace" font-size="14.00" fill="#b6ecf3">rolling_pin.blob_etl</text>
</g>
<!-- rolling_pin.conform_etl -->
<g id="node5" class="node">
<title>rolling_pin.conform_etl</title>
<polygon fill="#343434" stroke="#343434" points="917,-642 711,-642 711,-606 917,-606 917,-642"/>
<text text-anchor="middle" x="814" y="-620.3" font-family="Courier,monospace" font-size="14.00" fill="#b6ecf3">rolling_pin.conform_etl</text>
</g>
<!-- rolling_pin.blob_etl&#45;&gt;rolling_pin.conform_etl -->
<g id="edge1" class="edge">
<title>rolling_pin.blob_etl&#45;&gt;rolling_pin.conform_etl</title>
<path fill="none" stroke="#b6ecf3" d="M675.11,-624C683.52,-624 692.11,-624 700.69,-624"/>
<polygon fill="#b6ecf3" stroke="#b6ecf3" points="700.74,-627.5 710.74,-624 700.74,-620.5 700.74,-627.5"/>
</g>
<!-- rolling_pin.radon_etl -->
<g id="node6" class="node">
<title>rolling_pin.radon_etl</title>
<polygon fill="#343434" stroke="#343434" points="909,-404 719,-404 719,-368 909,-368 909,-404"/>
<text text-anchor="middle" x="814" y="-382.3" font-family="Courier,monospace" font-size="14.00" fill="#b6ecf3">rolling_pin.radon_etl</text>
</g>
<!-- rolling_pin.blob_etl&#45;&gt;rolling_pin.radon_etl -->
<g id="edge2" class="edge">
<title>rolling_pin.blob_etl&#45;&gt;rolling_pin.radon_etl</title>
<path fill="none" stroke="#b6ecf3" d="M602.51,-605.72C642.9,-563.56 742.62,-459.47 788.8,-411.26"/>
<polygon fill="#b6ecf3" stroke="#b6ecf3" points="791.35,-413.66 795.74,-404.02 786.3,-408.82 791.35,-413.66"/>
</g>
<!-- rolling_pin.toml_etl -->
<g id="node8" class="node">
<title>rolling_pin.toml_etl</title>
<polygon fill="#343434" stroke="#343434" points="905,-266 723,-266 723,-230 905,-230 905,-266"/>
<text text-anchor="middle" x="814" y="-244.3" font-family="Courier,monospace" font-size="14.00" fill="#b6ecf3">rolling_pin.toml_etl</text>
</g>
<!-- rolling_pin.blob_etl&#45;&gt;rolling_pin.toml_etl -->
<g id="edge3" class="edge">
<title>rolling_pin.blob_etl&#45;&gt;rolling_pin.toml_etl</title>
<path fill="none" stroke="#b6ecf3" d="M606.24,-605.71C626.98,-586.66 657.85,-554.9 675,-521 708.3,-455.19 676.88,-424.39 711,-359 728.65,-325.17 759.29,-293.87 782.39,-273.19"/>
<polygon fill="#b6ecf3" stroke="#b6ecf3" points="785,-275.55 790.21,-266.33 780.38,-270.29 785,-275.55"/>
</g>
<!-- rolling_pin.command -->
<g id="node3" class="node">
<title>rolling_pin.command</title>
<polygon fill="#343434" stroke="#343434" points="1126,-358 953,-358 953,-322 1126,-322 1126,-358"/>
<text text-anchor="middle" x="1039.5" y="-336.3" font-family="Courier,monospace" font-size="14.00" fill="#b6ecf3">rolling_pin.command</text>
</g>
<!-- rolling_pin.conform_config -->
<g id="node4" class="node">
<title>rolling_pin.conform_config</title>
<polygon fill="#343434" stroke="#343434" points="457,-1036 226,-1036 226,-1000 457,-1000 457,-1036"/>
<text text-anchor="middle" x="341.5" y="-1014.3" font-family="Courier,monospace" font-size="14.00" fill="#b6ecf3">rolling_pin.conform_config</text>
</g>
<!-- rolling_pin.conform_config&#45;&gt;rolling_pin.conform_etl -->
<g id="edge4" class="edge">
<title>rolling_pin.conform_config&#45;&gt;rolling_pin.conform_etl</title>
<path fill="none" stroke="#b6ecf3" d="M457.32,-1035.37C526.96,-1039.51 613.89,-1032.58 675,-986 784.17,-902.79 806.98,-722.19 811.74,-652.36"/>
<polygon fill="#b6ecf3" stroke="#b6ecf3" points="815.25,-652.33 812.36,-642.14 808.27,-651.91 815.25,-652.33"/>
</g>
<!-- rolling_pin.conform_etl&#45;&gt;rolling_pin.command -->
<g id="edge5" class="edge">
<title>rolling_pin.conform_etl&#45;&gt;rolling_pin.command</title>
<path fill="none" stroke="#b6ecf3" d="M829.32,-605.8C867.72,-557.01 973.08,-423.13 1017.89,-366.18"/>
<polygon fill="#b6ecf3" stroke="#b6ecf3" points="1020.86,-368.07 1024.3,-358.05 1015.36,-363.74 1020.86,-368.07"/>
</g>
<!-- rolling_pin.radon_etl&#45;&gt;rolling_pin.command -->
<g id="edge6" class="edge">
<title>rolling_pin.radon_etl&#45;&gt;rolling_pin.command</title>
<path fill="none" stroke="#b6ecf3" d="M902.69,-367.95C915.85,-365.24 929.47,-362.44 942.78,-359.7"/>
<polygon fill="#b6ecf3" stroke="#b6ecf3" points="943.8,-363.06 952.89,-357.62 942.39,-356.21 943.8,-363.06"/>
</g>
<!-- rolling_pin.repo_etl -->
<g id="node7" class="node">
<title>rolling_pin.repo_etl</title>
<polygon fill="#343434" stroke="#343434" points="675,-750 493,-750 493,-714 675,-714 675,-750"/>
<text text-anchor="middle" x="584" y="-728.3" font-family="Courier,monospace" font-size="14.00" fill="#b6ecf3">rolling_pin.repo_etl</text>
</g>
<!-- rolling_pin.repo_etl&#45;&gt;rolling_pin.command -->
<g id="edge7" class="edge">
<title>rolling_pin.repo_etl&#45;&gt;rolling_pin.command</title>
<path fill="none" stroke="#b6ecf3" d="M675.28,-731.91C748.58,-727.16 850.36,-709.31 917,-651 1003.63,-575.2 1028.97,-429.87 1035.98,-368.48"/>
<polygon fill="#b6ecf3" stroke="#b6ecf3" points="1039.48,-368.68 1037.05,-358.37 1032.52,-367.94 1039.48,-368.68"/>
</g>
<!-- rolling_pin.toml_etl&#45;&gt;rolling_pin.command -->
<g id="edge8" class="edge">
<title>rolling_pin.toml_etl&#45;&gt;rolling_pin.command</title>
<path fill="none" stroke="#b6ecf3" d="M858.89,-266.07C895.1,-280.97 946.62,-302.18 985.2,-318.06"/>
<polygon fill="#b6ecf3" stroke="#b6ecf3" points="984.13,-321.4 994.71,-321.97 986.8,-314.93 984.13,-321.4"/>
</g>
<!-- rolling_pin.tools -->
<g id="node9" class="node">
<title>rolling_pin.tools</title>
<polygon fill="#343434" stroke="#343434" points="420,-516 263,-516 263,-480 420,-480 420,-516"/>
<text text-anchor="middle" x="341.5" y="-494.3" font-family="Courier,monospace" font-size="14.00" fill="#b6ecf3">rolling_pin.tools</text>
</g>
<!-- rolling_pin.tools&#45;&gt;rolling_pin.blob_etl -->
<g id="edge9" class="edge">
<title>rolling_pin.tools&#45;&gt;rolling_pin.blob_etl</title>
<path fill="none" stroke="#b6ecf3" d="M420.29,-510.94C433.4,-515.5 446.23,-521.66 457,-530 482.2,-549.5 468.49,-571.64 493,-592 497.04,-595.36 501.46,-598.37 506.11,-601.08"/>
<polygon fill="#b6ecf3" stroke="#b6ecf3" points="504.79,-604.35 515.27,-605.92 508.06,-598.16 504.79,-604.35"/>
</g>
<!-- rolling_pin.tools&#45;&gt;rolling_pin.conform_etl -->
<g id="edge10" class="edge">
<title>rolling_pin.tools&#45;&gt;rolling_pin.conform_etl</title>
<path fill="none" stroke="#b6ecf3" d="M388.95,-516.1C425.36,-530.13 473.07,-548.14 493,-554 533.75,-565.97 635.88,-587.8 713.89,-603.91"/>
<polygon fill="#b6ecf3" stroke="#b6ecf3" points="713.26,-607.36 723.76,-605.95 714.68,-600.5 713.26,-607.36"/>
</g>
<!-- rolling_pin.tools&#45;&gt;rolling_pin.radon_etl -->
<g id="edge11" class="edge">
<title>rolling_pin.tools&#45;&gt;rolling_pin.radon_etl</title>
<path fill="none" stroke="#b6ecf3" d="M349.86,-479.99C367.49,-439.6 416.45,-342.38 493,-305 565.69,-269.51 596.94,-283.78 675,-305 715.4,-315.98 756.05,-342.1 782.66,-361.73"/>
<polygon fill="#b6ecf3" stroke="#b6ecf3" points="780.7,-364.63 790.79,-367.85 784.91,-359.04 780.7,-364.63"/>
</g>
<!-- rolling_pin.tools&#45;&gt;rolling_pin.repo_etl -->
<g id="edge12" class="edge">
<title>rolling_pin.tools&#45;&gt;rolling_pin.repo_etl</title>
<path fill="none" stroke="#b6ecf3" d="M369.72,-516.25C395.5,-534.81 433.65,-565.8 457,-601 484.04,-641.76 457.7,-671.14 493,-705 494.1,-706.06 495.25,-707.08 496.43,-708.05"/>
<polygon fill="#b6ecf3" stroke="#b6ecf3" points="494.5,-710.98 504.68,-713.95 498.57,-705.29 494.5,-710.98"/>
</g>
<!-- IPython.display -->
<g id="node10" class="node">
<title>IPython.display</title>
<polygon fill="#343434" stroke="#343434" points="165,-665 25,-665 25,-629 165,-629 165,-665"/>
<text text-anchor="middle" x="95" y="-643.3" font-family="Courier,monospace" font-size="14.00" fill="#de958e">IPython.display</text>
</g>
<!-- IPython.display&#45;&gt;rolling_pin.blob_etl -->
<g id="edge13" class="edge">
<title>IPython.display&#45;&gt;rolling_pin.blob_etl</title>
<path fill="none" stroke="#de958e" d="M117.25,-628.96C141.66,-609.53 183.78,-579.82 226,-568 324.86,-540.32 358.74,-538.25 457,-568 475.4,-573.57 475.81,-583.38 493,-592 500.27,-595.65 508.06,-599.07 515.9,-602.22"/>
<polygon fill="#de958e" stroke="#de958e" points="514.87,-605.58 525.46,-605.93 517.41,-599.05 514.87,-605.58"/>
</g>
<!-- IPython.display&#45;&gt;rolling_pin.conform_etl -->
<g id="edge14" class="edge">
<title>IPython.display&#45;&gt;rolling_pin.conform_etl</title>
<path fill="none" stroke="#de958e" d="M111.79,-665.28C132.08,-689.49 167.37,-734.15 190,-777 212.06,-818.77 187.35,-849.84 226,-877 310,-936.03 355.35,-891.39 457,-877 556.86,-862.86 592.45,-871.94 675,-814 735.86,-771.28 780.04,-693 800.42,-651.51"/>
<polygon fill="#de958e" stroke="#de958e" points="803.69,-652.8 804.86,-642.27 797.38,-649.77 803.69,-652.8"/>
</g>
<!-- IPython.display&#45;&gt;rolling_pin.repo_etl -->
<g id="edge15" class="edge">
<title>IPython.display&#45;&gt;rolling_pin.repo_etl</title>
<path fill="none" stroke="#de958e" d="M113.24,-665.35C136.32,-688.44 179.76,-726.91 226,-742 311.71,-769.98 415.23,-762.95 488.68,-751.65"/>
<polygon fill="#de958e" stroke="#de958e" points="489.51,-755.06 498.84,-750.03 488.41,-748.15 489.51,-755.06"/>
</g>
<!-- IPython.display&#45;&gt;rolling_pin.tools -->
<g id="edge16" class="edge">
<title>IPython.display&#45;&gt;rolling_pin.tools</title>
<path fill="none" stroke="#de958e" d="M111.28,-628.72C133.79,-602.95 178.37,-556.18 226,-530 234.55,-525.3 243.84,-521.25 253.31,-517.76"/>
<polygon fill="#de958e" stroke="#de958e" points="254.52,-521.04 262.82,-514.46 252.22,-514.43 254.52,-521.04"/>
</g>
<!-- lunchbox.tools -->
<g id="node11" class="node">
<title>lunchbox.tools</title>
<polygon fill="#343434" stroke="#343434" points="407.5,-700 275.5,-700 275.5,-664 407.5,-664 407.5,-700"/>
<text text-anchor="middle" x="341.5" y="-678.3" font-family="Courier,monospace" font-size="14.00" fill="#de958e">lunchbox.tools</text>
</g>
<!-- lunchbox.tools&#45;&gt;rolling_pin.blob_etl -->
<g id="edge17" class="edge">
<title>lunchbox.tools&#45;&gt;rolling_pin.blob_etl</title>
<path fill="none" stroke="#de958e" d="M407.62,-666.76C423.76,-662.95 441.02,-658.85 457,-655 470.97,-651.63 485.8,-648.02 500.19,-644.49"/>
<polygon fill="#de958e" stroke="#de958e" points="501.19,-647.85 510.07,-642.07 499.53,-641.05 501.19,-647.85"/>
</g>
<!-- lunchbox.tools&#45;&gt;rolling_pin.repo_etl -->
<g id="edge18" class="edge">
<title>lunchbox.tools&#45;&gt;rolling_pin.repo_etl</title>
<path fill="none" stroke="#de958e" d="M407.58,-695.53C431.76,-700.56 459.74,-706.37 486.15,-711.86"/>
<polygon fill="#de958e" stroke="#de958e" points="485.68,-715.34 496.18,-713.95 487.1,-708.49 485.68,-715.34"/>
</g>
<!-- rolling_pin -->
<g id="node12" class="node">
<title>rolling_pin</title>
<polygon fill="#343434" stroke="#343434" points="148.5,-413 41.5,-413 41.5,-377 148.5,-377 148.5,-413"/>
<text text-anchor="middle" x="95" y="-391.3" font-family="Courier,monospace" font-size="14.00" fill="#a0d17b">rolling_pin</text>
</g>
<!-- rolling_pin&#45;&gt;rolling_pin.blob_etl -->
<g id="edge19" class="edge">
<title>rolling_pin&#45;&gt;rolling_pin.blob_etl</title>
<path fill="none" stroke="#a0d17b" d="M148.53,-392.78C237.19,-390.15 411.32,-390.16 457,-428 501.85,-465.15 460.4,-505.74 493,-554 505.57,-572.61 524.67,-588.47 542.05,-600.37"/>
<polygon fill="#a0d17b" stroke="#a0d17b" points="540.13,-603.29 550.4,-605.88 543.98,-597.45 540.13,-603.29"/>
</g>
<!-- rolling_pin&#45;&gt;rolling_pin.command -->
<g id="edge20" class="edge">
<title>rolling_pin&#45;&gt;rolling_pin.command</title>
<path fill="none" stroke="#a0d17b" d="M148.87,-390.3C164.05,-386.43 179.37,-379.67 190,-368 248.16,-304.13 169.74,-242.55 226,-177 307.94,-81.54 368.99,-104.19 493,-83 688.34,-49.62 758.83,-101.6 917,-221 954.8,-249.54 992.93,-289.03 1016.14,-314.55"/>
<polygon fill="#a0d17b" stroke="#a0d17b" points="1013.55,-316.91 1022.85,-321.99 1018.75,-312.22 1013.55,-316.91"/>
</g>
<!-- rolling_pin&#45;&gt;rolling_pin.conform_config -->
<g id="edge21" class="edge">
<title>rolling_pin&#45;&gt;rolling_pin.conform_config</title>
<path fill="none" stroke="#a0d17b" d="M148.38,-413.24C164.31,-421.39 180.18,-432.71 190,-448 241.67,-528.51 190.26,-788.26 226,-877 244.84,-923.79 284.84,-967.16 312.2,-993.11"/>
<polygon fill="#a0d17b" stroke="#a0d17b" points="309.85,-995.71 319.56,-999.96 314.62,-990.58 309.85,-995.71"/>
</g>
<!-- rolling_pin&#45;&gt;rolling_pin.conform_etl -->
<g id="edge22" class="edge">
<title>rolling_pin&#45;&gt;rolling_pin.conform_etl</title>
<path fill="none" stroke="#a0d17b" d="M148.61,-386.62C236.96,-373.77 410.08,-354.23 457,-390 505.02,-426.6 448.45,-480.24 493,-521 553.65,-576.49 597.08,-527.8 675,-554 710.35,-565.89 747.93,-585.46 774.94,-600.9"/>
<polygon fill="#a0d17b" stroke="#a0d17b" points="773.27,-603.97 783.67,-605.95 776.77,-597.91 773.27,-603.97"/>
</g>
<!-- rolling_pin&#45;&gt;rolling_pin.radon_etl -->
<g id="edge23" class="edge">
<title>rolling_pin&#45;&gt;rolling_pin.radon_etl</title>
<path fill="none" stroke="#a0d17b" d="M148.71,-379.89C162.17,-376.02 176.62,-371.86 190,-368 400.47,-307.21 467.57,-209.53 675,-280 721.6,-295.83 764.78,-334.44 790.02,-360.43"/>
<polygon fill="#a0d17b" stroke="#a0d17b" points="787.52,-362.89 796.95,-367.72 792.6,-358.06 787.52,-362.89"/>
</g>
<!-- rolling_pin&#45;&gt;rolling_pin.repo_etl -->
<g id="edge24" class="edge">
<title>rolling_pin&#45;&gt;rolling_pin.repo_etl</title>
<path fill="none" stroke="#a0d17b" d="M146.93,-413.05C163.15,-421.26 179.57,-432.66 190,-448 255.85,-544.83 140.24,-629.26 226,-709 262,-742.48 390.01,-743.34 482.45,-739.13"/>
<polygon fill="#a0d17b" stroke="#a0d17b" points="482.87,-742.62 492.69,-738.64 482.54,-735.62 482.87,-742.62"/>
</g>
<!-- rolling_pin&#45;&gt;rolling_pin.toml_etl -->
<g id="edge25" class="edge">
<title>rolling_pin&#45;&gt;rolling_pin.toml_etl</title>
<path fill="none" stroke="#a0d17b" d="M148.8,-389.01C163.63,-385.07 178.75,-378.6 190,-368 224.99,-335.03 191.82,-299.81 226,-266 315.13,-177.83 369.32,-195.5 493,-175 572.8,-161.77 596.49,-155.51 675,-175 713.29,-184.5 752.65,-206.8 779.48,-224.27"/>
<polygon fill="#a0d17b" stroke="#a0d17b" points="777.82,-227.36 788.08,-229.98 781.69,-221.53 777.82,-227.36"/>
</g>
<!-- rolling_pin&#45;&gt;rolling_pin.tools -->
<g id="edge26" class="edge">
<title>rolling_pin&#45;&gt;rolling_pin.tools</title>
<path fill="none" stroke="#a0d17b" d="M138.87,-413.06C180.46,-430.58 243.66,-457.2 288.2,-475.97"/>
<polygon fill="#a0d17b" stroke="#a0d17b" points="287.11,-479.3 297.68,-479.96 289.82,-472.85 287.11,-479.3"/>
</g>
<!-- click -->
<g id="node13" class="node">
<title>click</title>
<polygon fill="#343434" stroke="#343434" points="843,-36 785,-36 785,0 843,0 843,-36"/>
<text text-anchor="middle" x="814" y="-14.3" font-family="Courier,monospace" font-size="14.00" fill="#de958e">click</text>
</g>
<!-- click&#45;&gt;rolling_pin.command -->
<g id="edge27" class="edge">
<title>click&#45;&gt;rolling_pin.command</title>
<path fill="none" stroke="#de958e" d="M843.3,-20.4C865.78,-23.69 896.7,-31.5 917,-50 996.03,-122.02 1025.25,-253.61 1034.62,-311.44"/>
<polygon fill="#de958e" stroke="#de958e" points="1031.21,-312.32 1036.19,-321.67 1038.13,-311.26 1031.21,-312.32"/>
</g>
<!-- cufflinks -->
<g id="node14" class="node">
<title>cufflinks</title>
<polygon fill="#343434" stroke="#343434" points="629.5,-350 538.5,-350 538.5,-314 629.5,-314 629.5,-350"/>
<text text-anchor="middle" x="584" y="-328.3" font-family="Courier,monospace" font-size="14.00" fill="#de958e">cufflinks</text>
</g>
<!-- cufflinks&#45;&gt;rolling_pin.radon_etl -->
<g id="edge28" class="edge">
<title>cufflinks&#45;&gt;rolling_pin.radon_etl</title>
<path fill="none" stroke="#de958e" d="M629.5,-342.54C657.1,-349.08 693.49,-357.69 726.58,-365.53"/>
<polygon fill="#de958e" stroke="#de958e" points="726.19,-369.04 736.73,-367.94 727.8,-362.23 726.19,-369.04"/>
</g>
<!-- networkx -->
<g id="node15" class="node">
<title>networkx</title>
<polygon fill="#343434" stroke="#343434" points="383,-646 300,-646 300,-610 383,-610 383,-646"/>
<text text-anchor="middle" x="341.5" y="-624.3" font-family="Courier,monospace" font-size="14.00" fill="#de958e">networkx</text>
</g>
<!-- networkx&#45;&gt;rolling_pin.blob_etl -->
<g id="edge29" class="edge">
<title>networkx&#45;&gt;rolling_pin.blob_etl</title>
<path fill="none" stroke="#de958e" d="M383.03,-627.33C410.32,-626.87 447.58,-626.25 482.55,-625.67"/>
<polygon fill="#de958e" stroke="#de958e" points="482.89,-629.17 492.83,-625.5 482.77,-622.17 482.89,-629.17"/>
</g>
<!-- networkx&#45;&gt;rolling_pin.repo_etl -->
<g id="edge30" class="edge">
<title>networkx&#45;&gt;rolling_pin.repo_etl</title>
<path fill="none" stroke="#de958e" d="M383.18,-630.57C406.42,-633.67 435.18,-640.42 457,-655 479.77,-670.22 470.7,-689.11 493,-705 494.89,-706.35 496.85,-707.63 498.86,-708.84"/>
<polygon fill="#de958e" stroke="#de958e" points="497.52,-712.1 507.98,-713.78 500.86,-705.94 497.52,-712.1"/>
</g>
<!-- pandas -->
<g id="node16" class="node">
<title>pandas</title>
<polygon fill="#343434" stroke="#343434" points="128,-822 62,-822 62,-786 128,-786 128,-822"/>
<text text-anchor="middle" x="95" y="-800.3" font-family="Courier,monospace" font-size="14.00" fill="#de958e">pandas</text>
</g>
<!-- pandas&#45;&gt;rolling_pin.blob_etl -->
<g id="edge31" class="edge">
<title>pandas&#45;&gt;rolling_pin.blob_etl</title>
<path fill="none" stroke="#de958e" d="M110.72,-785.73C130.16,-761.17 164.85,-715.75 190,-674 208.66,-643.01 195.28,-620.1 226,-601 319.76,-542.7 455.45,-576.46 529.63,-602.54"/>
<polygon fill="#de958e" stroke="#de958e" points="528.64,-605.9 539.24,-605.99 531.01,-599.31 528.64,-605.9"/>
</g>
<!-- pandas&#45;&gt;rolling_pin.conform_etl -->
<g id="edge32" class="edge">
<title>pandas&#45;&gt;rolling_pin.conform_etl</title>
<path fill="none" stroke="#de958e" d="M105.52,-822.08C123.78,-854.57 167.21,-921.87 226,-948 319.82,-989.7 356.33,-968.17 457,-948 559.95,-927.38 595.77,-925.89 675,-857 742.07,-798.68 785.34,-699.43 803.38,-651.5"/>
<polygon fill="#de958e" stroke="#de958e" points="806.68,-652.68 806.85,-642.09 800.11,-650.26 806.68,-652.68"/>
</g>
<!-- pandas&#45;&gt;rolling_pin.radon_etl -->
<g id="edge33" class="edge">
<title>pandas&#45;&gt;rolling_pin.radon_etl</title>
<path fill="none" stroke="#de958e" d="M119.3,-822.01C144.15,-839.97 185.43,-866.39 226,-877 325.33,-902.98 355.35,-891.39 457,-877 506.93,-869.93 641.49,-851.68 675,-814 739.97,-740.95 681.42,-690.18 711,-597 733.05,-527.53 774.19,-451.96 796.9,-412.85"/>
<polygon fill="#de958e" stroke="#de958e" points="799.95,-414.57 801.99,-404.17 793.91,-411.03 799.95,-414.57"/>
</g>
<!-- pandas&#45;&gt;rolling_pin.repo_etl -->
<g id="edge34" class="edge">
<title>pandas&#45;&gt;rolling_pin.repo_etl</title>
<path fill="none" stroke="#de958e" d="M128.32,-805.04C192.02,-806.39 337.96,-806.02 457,-780 483.63,-774.18 512.11,-763.72 535.24,-754.05"/>
<polygon fill="#de958e" stroke="#de958e" points="536.65,-757.25 544.48,-750.11 533.91,-750.81 536.65,-757.25"/>
</g>
<!-- pandas&#45;&gt;rolling_pin.tools -->
<g id="edge35" class="edge">
<title>pandas&#45;&gt;rolling_pin.tools</title>
<path fill="none" stroke="#de958e" d="M111.91,-785.78C132.33,-761.64 167.76,-717.06 190,-674 212.83,-629.79 194.92,-606.85 226,-568 242.05,-547.94 265.51,-532.18 287.02,-520.73"/>
<polygon fill="#de958e" stroke="#de958e" points="288.79,-523.76 296.1,-516.09 285.6,-517.52 288.79,-523.76"/>
</g>
<!-- pydot -->
<g id="node17" class="node">
<title>pydot</title>
<polygon fill="#343434" stroke="#343434" points="124,-493 66,-493 66,-457 124,-457 124,-493"/>
<text text-anchor="middle" x="95" y="-471.3" font-family="Courier,monospace" font-size="14.00" fill="#de958e">pydot</text>
</g>
<!-- pydot&#45;&gt;rolling_pin.blob_etl -->
<g id="edge36" class="edge">
<title>pydot&#45;&gt;rolling_pin.blob_etl</title>
<path fill="none" stroke="#de958e" d="M124.24,-464.95C189.2,-443.76 351.67,-401.88 457,-471 490.62,-493.06 468.36,-522.22 493,-554 506.97,-572.01 526.58,-587.99 543.93,-600.11"/>
<polygon fill="#de958e" stroke="#de958e" points="541.99,-603.02 552.24,-605.74 545.93,-597.23 541.99,-603.02"/>
</g>
<!-- pydot&#45;&gt;rolling_pin.tools -->
<g id="edge37" class="edge">
<title>pydot&#45;&gt;rolling_pin.tools</title>
<path fill="none" stroke="#de958e" d="M124.05,-477.64C155.3,-480.58 207.39,-485.48 252.64,-489.74"/>
<polygon fill="#de958e" stroke="#de958e" points="252.5,-493.24 262.78,-490.69 253.15,-486.27 252.5,-493.24"/>
</g>
<!-- numpy -->
<g id="node18" class="node">
<title>numpy</title>
<polygon fill="#343434" stroke="#343434" points="370.5,-868 312.5,-868 312.5,-832 370.5,-832 370.5,-868"/>
<text text-anchor="middle" x="341.5" y="-846.3" font-family="Courier,monospace" font-size="14.00" fill="#de958e">numpy</text>
</g>
<!-- numpy&#45;&gt;rolling_pin.radon_etl -->
<g id="edge38" class="edge">
<title>numpy&#45;&gt;rolling_pin.radon_etl</title>
<path fill="none" stroke="#de958e" d="M370.94,-851.27C435.15,-852.49 592.23,-845.88 675,-759 725.87,-705.6 686.79,-666.67 711,-597 734.99,-527.97 775.52,-451.95 797.58,-412.72"/>
<polygon fill="#de958e" stroke="#de958e" points="800.63,-414.44 802.51,-404.01 794.53,-410.99 800.63,-414.44"/>
</g>
<!-- numpy&#45;&gt;rolling_pin.repo_etl -->
<g id="edge39" class="edge">
<title>numpy&#45;&gt;rolling_pin.repo_etl</title>
<path fill="none" stroke="#de958e" d="M370.74,-845.91C394.82,-841.55 429.76,-833.14 457,-818 475.97,-807.46 475.55,-797.91 493,-785 507.62,-774.18 524.6,-763.7 539.85,-754.96"/>
<polygon fill="#de958e" stroke="#de958e" points="541.61,-757.99 548.6,-750.02 538.17,-751.89 541.61,-757.99"/>
</g>
<!-- lunchbox.enforce -->
<g id="node19" class="node">
<title>lunchbox.enforce</title>
<polygon fill="#343434" stroke="#343434" points="658.5,-512 509.5,-512 509.5,-476 658.5,-476 658.5,-512"/>
<text text-anchor="middle" x="584" y="-490.3" font-family="Courier,monospace" font-size="14.00" fill="#de958e">lunchbox.enforce</text>
</g>
<!-- lunchbox.enforce&#45;&gt;rolling_pin.conform_etl -->
<g id="edge40" class="edge">
<title>lunchbox.enforce&#45;&gt;rolling_pin.conform_etl</title>
<path fill="none" stroke="#de958e" d="M643.14,-512.01C653.96,-516.1 665,-520.8 675,-526 714.93,-546.76 756.47,-577.76 783.41,-599.31"/>
<polygon fill="#de958e" stroke="#de958e" points="781.31,-602.11 791.28,-605.68 785.71,-596.67 781.31,-602.11"/>
</g>
<!-- lunchbox.enforce&#45;&gt;rolling_pin.toml_etl -->
<g id="edge41" class="edge">
<title>lunchbox.enforce&#45;&gt;rolling_pin.toml_etl</title>
<path fill="none" stroke="#de958e" d="M658.66,-478.71C664.63,-475.52 670.2,-471.66 675,-467 711.31,-431.77 685.31,-402.59 711,-359 730.61,-325.72 761.51,-293.92 784.17,-272.95"/>
<polygon fill="#de958e" stroke="#de958e" points="786.77,-275.32 791.81,-266 782.06,-270.14 786.77,-275.32"/>
</g>
<!-- radon.cli -->
<g id="node20" class="node">
<title>radon.cli</title>
<polygon fill="#343434" stroke="#343434" points="629.5,-458 538.5,-458 538.5,-422 629.5,-422 629.5,-458"/>
<text text-anchor="middle" x="584" y="-436.3" font-family="Courier,monospace" font-size="14.00" fill="#de958e">radon.cli</text>
</g>
<!-- radon.cli&#45;&gt;rolling_pin.radon_etl -->
<g id="edge42" class="edge">
<title>radon.cli&#45;&gt;rolling_pin.radon_etl</title>
<path fill="none" stroke="#de958e" d="M629.5,-429.46C657.1,-422.92 693.49,-414.31 726.58,-406.47"/>
<polygon fill="#de958e" stroke="#de958e" points="727.8,-409.77 736.73,-404.06 726.19,-402.96 727.8,-409.77"/>
</g>
<!-- radon.complexity -->
<g id="node21" class="node">
<title>radon.complexity</title>
<polygon fill="#343434" stroke="#343434" points="658.5,-404 509.5,-404 509.5,-368 658.5,-368 658.5,-404"/>
<text text-anchor="middle" x="584" y="-382.3" font-family="Courier,monospace" font-size="14.00" fill="#de958e">radon.complexity</text>
</g>
<!-- radon.complexity&#45;&gt;rolling_pin.radon_etl -->
<g id="edge43" class="edge">
<title>radon.complexity&#45;&gt;rolling_pin.radon_etl</title>
<path fill="none" stroke="#de958e" d="M658.71,-386C674.55,-386 691.58,-386 708.34,-386"/>
<polygon fill="#de958e" stroke="#de958e" points="708.72,-389.5 718.72,-386 708.72,-382.5 708.72,-389.5"/>
</g>
<!-- schematics -->
<g id="node22" class="node">
<title>schematics</title>
<polygon fill="#343434" stroke="#343434" points="144.5,-1036 45.5,-1036 45.5,-1000 144.5,-1000 144.5,-1036"/>
<text text-anchor="middle" x="95" y="-1014.3" font-family="Courier,monospace" font-size="14.00" fill="#de958e">schematics</text>
</g>
<!-- schematics&#45;&gt;rolling_pin.conform_config -->
<g id="edge44" class="edge">
<title>schematics&#45;&gt;rolling_pin.conform_config</title>
<path fill="none" stroke="#de958e" d="M144.6,-1018C165.31,-1018 190.53,-1018 215.88,-1018"/>
<polygon fill="#de958e" stroke="#de958e" points="215.97,-1021.5 225.97,-1018 215.97,-1014.5 215.97,-1021.5"/>
</g>
<!-- schematics.exceptions -->
<g id="node23" class="node">
<title>schematics.exceptions</title>
<polygon fill="#343434" stroke="#343434" points="190,-982 0,-982 0,-946 190,-946 190,-982"/>
<text text-anchor="middle" x="95" y="-960.3" font-family="Courier,monospace" font-size="14.00" fill="#de958e">schematics.exceptions</text>
</g>
<!-- schematics.exceptions&#45;&gt;rolling_pin.conform_config -->
<g id="edge45" class="edge">
<title>schematics.exceptions&#45;&gt;rolling_pin.conform_config</title>
<path fill="none" stroke="#de958e" d="M177.75,-982.06C200.59,-987.1 225.55,-992.61 248.92,-997.77"/>
<polygon fill="#de958e" stroke="#de958e" points="248.3,-1001.22 258.82,-999.96 249.81,-994.39 248.3,-1001.22"/>
</g>
<!-- schematics.types -->
<g id="node24" class="node">
<title>schematics.types</title>
<polygon fill="#343434" stroke="#343434" points="169.5,-1090 20.5,-1090 20.5,-1054 169.5,-1054 169.5,-1090"/>
<text text-anchor="middle" x="95" y="-1068.3" font-family="Courier,monospace" font-size="14.00" fill="#de958e">schematics.types</text>
</g>
<!-- schematics.types&#45;&gt;rolling_pin.conform_config -->
<g id="edge46" class="edge">
<title>schematics.types&#45;&gt;rolling_pin.conform_config</title>
<path fill="none" stroke="#de958e" d="M169.69,-1055.72C194.63,-1050.22 222.78,-1044 248.93,-1038.22"/>
<polygon fill="#de958e" stroke="#de958e" points="249.84,-1041.61 258.85,-1036.03 248.33,-1034.77 249.84,-1041.61"/>
</g>
<!-- toml -->
<g id="node25" class="node">
<title>toml</title>
<polygon fill="#343434" stroke="#343434" points="611,-220 557,-220 557,-184 611,-184 611,-220"/>
<text text-anchor="middle" x="584" y="-198.3" font-family="Courier,monospace" font-size="14.00" fill="#de958e">toml</text>
</g>
<!-- toml&#45;&gt;rolling_pin.toml_etl -->
<g id="edge47" class="edge">
<title>toml&#45;&gt;rolling_pin.toml_etl</title>
<path fill="none" stroke="#de958e" d="M611.15,-207.28C636.33,-212.36 676.02,-220.36 713.56,-227.94"/>
<polygon fill="#de958e" stroke="#de958e" points="713.07,-231.41 723.57,-229.96 714.46,-224.55 713.07,-231.41"/>
</g>
<!-- toml.decoder -->
<g id="node26" class="node">
<title>toml.decoder</title>
<polygon fill="#343434" stroke="#343434" points="642,-128 526,-128 526,-92 642,-92 642,-128"/>
<text text-anchor="middle" x="584" y="-106.3" font-family="Courier,monospace" font-size="14.00" fill="#de958e">toml.decoder</text>
</g>
<!-- toml.decoder&#45;&gt;rolling_pin.toml_etl -->
<g id="edge48" class="edge">
<title>toml.decoder&#45;&gt;rolling_pin.toml_etl</title>
<path fill="none" stroke="#de958e" d="M642.34,-127.34C653.45,-131.55 664.8,-136.45 675,-142 716.6,-164.64 759.01,-199.3 785.63,-222.78"/>
<polygon fill="#de958e" stroke="#de958e" points="783.57,-225.63 793.36,-229.67 788.23,-220.41 783.57,-225.63"/>
</g>
<!-- yaml -->
<g id="node27" class="node">
<title>yaml</title>
<polygon fill="#343434" stroke="#343434" points="611,-696 557,-696 557,-660 611,-660 611,-696"/>
<text text-anchor="middle" x="584" y="-674.3" font-family="Courier,monospace" font-size="14.00" fill="#de958e">yaml</text>
</g>
<!-- yaml&#45;&gt;rolling_pin.conform_etl -->
<g id="edge49" class="edge">
<title>yaml&#45;&gt;rolling_pin.conform_etl</title>
<path fill="none" stroke="#de958e" d="M611.15,-671.81C639.31,-665.14 685.6,-654.17 726.76,-644.43"/>
<polygon fill="#de958e" stroke="#de958e" points="727.62,-647.82 736.54,-642.11 726.01,-641.01 727.62,-647.82"/>
</g>
</g>
</svg>
