<?xml version="1.0" encoding="UTF-8" standalone="no"?>
<!DOCTYPE svg PUBLIC "-//W3C//DTD SVG 1.1//EN"
 "http://www.w3.org/Graphics/SVG/1.1/DTD/svg11.dtd">
<!-- Generated by graphviz version 2.43.0 (0)
 -->
<!-- Title: %3 Pages: 1 -->
<svg width="1134pt" height="1094pt"
 viewBox="0.00 0.00 1134.00 1093.62" xmlns="http://www.w3.org/2000/svg" xmlns:xlink="http://www.w3.org/1999/xlink">
<g id="graph0" class="graph" transform="scale(1 1) rotate(0) translate(4 1089.62)">
<title>%3</title>
<polygon fill="#242424" stroke="transparent" points="-4,4 -4,-1089.62 1130,-1089.62 1130,4 -4,4"/>
<!-- cli -->
<g id="node1" class="node">
<title>cli</title>
<polygon fill="#343434" stroke="#343434" points="122,-200.62 68,-200.62 68,-164.62 122,-164.62 122,-200.62"/>
<text text-anchor="middle" x="95" y="-178.92" font-family="Courier,monospace" font-size="14.00" fill="#b6ecf3">cli</text>
</g>
<!-- rolling_pin\.blob_etl -->
<g id="node2" class="node">
<title>rolling_pin\.blob_etl</title>
<polygon fill="#343434" stroke="#343434" points="675,-479.62 493,-479.62 493,-443.62 675,-443.62 675,-479.62"/>
<text text-anchor="middle" x="584" y="-457.92" font-family="Courier,monospace" font-size="14.00" fill="#b6ecf3">rolling_pin.blob_etl</text>
</g>
<!-- rolling_pin\.conform_etl -->
<g id="node5" class="node">
<title>rolling_pin\.conform_etl</title>
<polygon fill="#343434" stroke="#343434" points="917,-678.62 711,-678.62 711,-642.62 917,-642.62 917,-678.62"/>
<text text-anchor="middle" x="814" y="-656.92" font-family="Courier,monospace" font-size="14.00" fill="#b6ecf3">rolling_pin.conform_etl</text>
</g>
<!-- rolling_pin\.blob_etl&#45;&gt;rolling_pin\.conform_etl -->
<g id="edge1" class="edge">
<title>rolling_pin\.blob_etl&#45;&gt;rolling_pin\.conform_etl</title>
<path fill="none" stroke="#b6ecf3" d="M658.91,-479.69C664.56,-482.29 669.99,-485.25 675,-488.62 731.78,-526.89 776.58,-595.64 798.42,-633.6"/>
<polygon fill="#b6ecf3" stroke="#b6ecf3" points="795.51,-635.56 803.48,-642.55 801.61,-632.12 795.51,-635.56"/>
</g>
<!-- rolling_pin\.radon_etl -->
<g id="node6" class="node">
<title>rolling_pin\.radon_etl</title>
<polygon fill="#343434" stroke="#343434" points="909,-287.62 719,-287.62 719,-251.62 909,-251.62 909,-287.62"/>
<text text-anchor="middle" x="814" y="-265.92" font-family="Courier,monospace" font-size="14.00" fill="#b6ecf3">rolling_pin.radon_etl</text>
</g>
<!-- rolling_pin\.blob_etl&#45;&gt;rolling_pin\.radon_etl -->
<g id="edge2" class="edge">
<title>rolling_pin\.blob_etl&#45;&gt;rolling_pin\.radon_etl</title>
<path fill="none" stroke="#b6ecf3" d="M612,-443.37C630.21,-430.77 654.55,-413.32 675,-396.62 715.81,-363.31 760.15,-321.38 787.27,-295.03"/>
<polygon fill="#b6ecf3" stroke="#b6ecf3" points="789.73,-297.52 794.44,-288.03 784.84,-292.51 789.73,-297.52"/>
</g>
<!-- rolling_pin\.toml_etl -->
<g id="node8" class="node">
<title>rolling_pin\.toml_etl</title>
<polygon fill="#343434" stroke="#343434" points="905,-479.62 723,-479.62 723,-443.62 905,-443.62 905,-479.62"/>
<text text-anchor="middle" x="814" y="-457.92" font-family="Courier,monospace" font-size="14.00" fill="#b6ecf3">rolling_pin.toml_etl</text>
</g>
<!-- rolling_pin\.blob_etl&#45;&gt;rolling_pin\.toml_etl -->
<g id="edge3" class="edge">
<title>rolling_pin\.blob_etl&#45;&gt;rolling_pin\.toml_etl</title>
<path fill="none" stroke="#b6ecf3" d="M675.11,-461.62C687.36,-461.62 700,-461.62 712.43,-461.62"/>
<polygon fill="#b6ecf3" stroke="#b6ecf3" points="712.8,-465.12 722.8,-461.62 712.8,-458.12 712.8,-465.12"/>
</g>
<!-- rolling_pin\.command -->
<g id="node3" class="node">
<title>rolling_pin\.command</title>
<polygon fill="#343434" stroke="#343434" points="1126,-479.62 953,-479.62 953,-443.62 1126,-443.62 1126,-479.62"/>
<text text-anchor="middle" x="1039.5" y="-457.92" font-family="Courier,monospace" font-size="14.00" fill="#b6ecf3">rolling_pin.command</text>
</g>
<!-- rolling_pin\.conform_config -->
<g id="node4" class="node">
<title>rolling_pin\.conform_config</title>
<polygon fill="#343434" stroke="#343434" points="457,-1031.62 226,-1031.62 226,-995.62 457,-995.62 457,-1031.62"/>
<text text-anchor="middle" x="341.5" y="-1009.92" font-family="Courier,monospace" font-size="14.00" fill="#b6ecf3">rolling_pin.conform_config</text>
</g>
<!-- rolling_pin\.conform_config&#45;&gt;rolling_pin\.conform_etl -->
<g id="edge4" class="edge">
<title>rolling_pin\.conform_config&#45;&gt;rolling_pin\.conform_etl</title>
<path fill="none" stroke="#b6ecf3" d="M457.32,-997.87C526.54,-983.5 613,-956.37 675,-905.62 747.27,-846.47 788.6,-738.89 804.86,-688.31"/>
<polygon fill="#b6ecf3" stroke="#b6ecf3" points="808.22,-689.29 807.87,-678.7 801.54,-687.2 808.22,-689.29"/>
</g>
<!-- rolling_pin\.conform_etl&#45;&gt;rolling_pin\.command -->
<g id="edge5" class="edge">
<title>rolling_pin\.conform_etl&#45;&gt;rolling_pin\.command</title>
<path fill="none" stroke="#b6ecf3" d="M836.2,-642.33C856.9,-624.41 889.25,-596.29 917,-571.62 949.62,-542.63 986.78,-508.88 1011.32,-486.5"/>
<polygon fill="#b6ecf3" stroke="#b6ecf3" points="1013.79,-488.97 1018.82,-479.65 1009.07,-483.8 1013.79,-488.97"/>
</g>
<!-- rolling_pin\.radon_etl&#45;&gt;rolling_pin\.command -->
<g id="edge6" class="edge">
<title>rolling_pin\.radon_etl&#45;&gt;rolling_pin\.command</title>
<path fill="none" stroke="#b6ecf3" d="M836.03,-287.69C876.21,-322.21 963.97,-397.6 1009.62,-436.81"/>
<polygon fill="#b6ecf3" stroke="#b6ecf3" points="1007.5,-439.61 1017.37,-443.47 1012.06,-434.3 1007.5,-439.61"/>
</g>
<!-- rolling_pin\.repo_etl -->
<g id="node7" class="node">
<title>rolling_pin\.repo_etl</title>
<polygon fill="#343434" stroke="#343434" points="675,-625.62 493,-625.62 493,-589.62 675,-589.62 675,-625.62"/>
<text text-anchor="middle" x="584" y="-603.92" font-family="Courier,monospace" font-size="14.00" fill="#b6ecf3">rolling_pin.repo_etl</text>
</g>
<!-- rolling_pin\.repo_etl&#45;&gt;rolling_pin\.command -->
<g id="edge7" class="edge">
<title>rolling_pin\.repo_etl&#45;&gt;rolling_pin\.command</title>
<path fill="none" stroke="#b6ecf3" d="M641.06,-589.58C725.12,-562.51 883.46,-511.54 972.81,-482.77"/>
<polygon fill="#b6ecf3" stroke="#b6ecf3" points="974.12,-486.03 982.57,-479.63 971.97,-479.36 974.12,-486.03"/>
</g>
<!-- rolling_pin\.toml_etl&#45;&gt;rolling_pin\.command -->
<g id="edge8" class="edge">
<title>rolling_pin\.toml_etl&#45;&gt;rolling_pin\.command</title>
<path fill="none" stroke="#b6ecf3" d="M905.26,-461.62C917.57,-461.62 930.23,-461.62 942.63,-461.62"/>
<polygon fill="#b6ecf3" stroke="#b6ecf3" points="942.97,-465.12 952.97,-461.62 942.97,-458.12 942.97,-465.12"/>
</g>
<!-- rolling_pin\.tools -->
<g id="node9" class="node">
<title>rolling_pin\.tools</title>
<polygon fill="#343434" stroke="#343434" points="420,-376.62 263,-376.62 263,-340.62 420,-340.62 420,-376.62"/>
<text text-anchor="middle" x="341.5" y="-354.92" font-family="Courier,monospace" font-size="14.00" fill="#b6ecf3">rolling_pin.tools</text>
</g>
<!-- rolling_pin\.tools&#45;&gt;rolling_pin\.blob_etl -->
<g id="edge9" class="edge">
<title>rolling_pin\.tools&#45;&gt;rolling_pin\.blob_etl</title>
<path fill="none" stroke="#b6ecf3" d="M420.09,-373.99C432.94,-378.29 445.73,-383.73 457,-390.62 477.12,-402.93 473.31,-416.63 493,-429.62 498.36,-433.16 504.15,-436.36 510.13,-439.24"/>
<polygon fill="#b6ecf3" stroke="#b6ecf3" points="509.09,-442.61 519.64,-443.52 511.96,-436.23 509.09,-442.61"/>
</g>
<!-- rolling_pin\.tools&#45;&gt;rolling_pin\.conform_etl -->
<g id="edge10" class="edge">
<title>rolling_pin\.tools&#45;&gt;rolling_pin\.conform_etl</title>
<path fill="none" stroke="#b6ecf3" d="M392.06,-376.69C414.74,-387.23 440.23,-402.64 457,-423.62 491.49,-466.79 452.25,-505.31 493,-542.62 553.94,-598.43 597.83,-551.08 675,-580.62 712.57,-595.01 751.94,-618.83 778.97,-636.75"/>
<polygon fill="#b6ecf3" stroke="#b6ecf3" points="777.04,-639.67 787.29,-642.34 780.94,-633.85 777.04,-639.67"/>
</g>
<!-- rolling_pin\.tools&#45;&gt;rolling_pin\.radon_etl -->
<g id="edge11" class="edge">
<title>rolling_pin\.tools&#45;&gt;rolling_pin\.radon_etl</title>
<path fill="none" stroke="#b6ecf3" d="M346.08,-340.41C357.18,-289.44 396.29,-145.44 493,-88.62 562.74,-47.65 611.63,-38.36 675,-88.62 730.07,-132.3 662.03,-192.2 711,-242.62 711.8,-243.45 712.62,-244.24 713.46,-245.02"/>
<polygon fill="#b6ecf3" stroke="#b6ecf3" points="711.5,-247.93 721.52,-251.37 715.83,-242.43 711.5,-247.93"/>
</g>
<!-- rolling_pin\.tools&#45;&gt;rolling_pin\.repo_etl -->
<g id="edge12" class="edge">
<title>rolling_pin\.tools&#45;&gt;rolling_pin\.repo_etl</title>
<path fill="none" stroke="#b6ecf3" d="M393.5,-376.65C416.09,-387.08 441.09,-402.41 457,-423.62 498.66,-479.16 446.66,-523.93 493,-575.62 495.72,-578.66 498.76,-581.41 502.01,-583.9"/>
<polygon fill="#b6ecf3" stroke="#b6ecf3" points="500.25,-586.94 510.52,-589.57 504.13,-581.11 500.25,-586.94"/>
</g>
<!-- IPython\.display -->
<g id="node10" class="node">
<title>IPython\.display</title>
<polygon fill="#343434" stroke="#343434" points="165,-501.62 25,-501.62 25,-465.62 165,-465.62 165,-501.62"/>
<text text-anchor="middle" x="95" y="-479.92" font-family="Courier,monospace" font-size="14.00" fill="#de958e">IPython.display</text>
</g>
<!-- IPython\.display&#45;&gt;rolling_pin\.blob_etl -->
<g id="edge13" class="edge">
<title>IPython\.display&#45;&gt;rolling_pin\.blob_etl</title>
<path fill="none" stroke="#de958e" d="M104.82,-465.37C122.37,-431.44 165.29,-359.59 226,-331.62 319.25,-288.67 372.81,-272.86 457,-331.62 495.05,-358.18 460.02,-396.99 493,-429.62 496.2,-432.79 499.74,-435.65 503.5,-438.23"/>
<polygon fill="#de958e" stroke="#de958e" points="501.7,-441.23 512.06,-443.43 505.33,-435.24 501.7,-441.23"/>
</g>
<!-- IPython\.display&#45;&gt;rolling_pin\.conform_etl -->
<g id="edge14" class="edge">
<title>IPython\.display&#45;&gt;rolling_pin\.conform_etl</title>
<path fill="none" stroke="#de958e" d="M100.46,-501.94C112.23,-545.7 148.65,-655.9 226,-699.62 400.34,-798.18 651.99,-722.88 760.23,-682.23"/>
<polygon fill="#de958e" stroke="#de958e" points="761.54,-685.48 769.64,-678.65 759.05,-678.94 761.54,-685.48"/>
</g>
<!-- IPython\.display&#45;&gt;rolling_pin\.repo_etl -->
<g id="edge15" class="edge">
<title>IPython\.display&#45;&gt;rolling_pin\.repo_etl</title>
<path fill="none" stroke="#de958e" d="M118.36,-501.88C143.08,-520.97 184.86,-550.14 226,-564.62 309.37,-593.98 409.73,-604.02 482.78,-607.13"/>
<polygon fill="#de958e" stroke="#de958e" points="482.77,-610.63 492.9,-607.52 483.04,-603.63 482.77,-610.63"/>
</g>
<!-- IPython\.display&#45;&gt;rolling_pin\.tools -->
<g id="edge16" class="edge">
<title>IPython\.display&#45;&gt;rolling_pin\.tools</title>
<path fill="none" stroke="#de958e" d="M116.62,-465.35C141.11,-444.52 183.96,-410.77 226,-390.62 234.57,-386.52 243.75,-382.86 253.06,-379.61"/>
<polygon fill="#de958e" stroke="#de958e" points="254.39,-382.86 262.78,-376.38 252.18,-376.21 254.39,-382.86"/>
</g>
<!-- rolling_pin -->
<g id="node11" class="node">
<title>rolling_pin</title>
<polygon fill="#343434" stroke="#343434" points="148.5,-793.62 41.5,-793.62 41.5,-757.62 148.5,-757.62 148.5,-793.62"/>
<text text-anchor="middle" x="95" y="-771.92" font-family="Courier,monospace" font-size="14.00" fill="#a0d17b">rolling_pin</text>
</g>
<!-- rolling_pin&#45;&gt;rolling_pin\.blob_etl -->
<g id="edge17" class="edge">
<title>rolling_pin&#45;&gt;rolling_pin\.blob_etl</title>
<path fill="none" stroke="#a0d17b" d="M102.38,-757.49C127.51,-686.19 218.63,-428.76 226,-423.62 310.24,-364.94 355.43,-408.64 457,-423.62 479.84,-426.99 504.27,-433.62 525.49,-440.41"/>
<polygon fill="#a0d17b" stroke="#a0d17b" points="524.4,-443.74 534.99,-443.53 526.58,-437.09 524.4,-443.74"/>
</g>
<!-- rolling_pin&#45;&gt;rolling_pin\.command -->
<g id="edge18" class="edge">
<title>rolling_pin&#45;&gt;rolling_pin\.command</title>
<path fill="none" stroke="#a0d17b" d="M111.36,-794C133.64,-819.12 177.57,-863.15 226,-881.62 412.51,-952.78 487.66,-962.56 675,-893.62 807.56,-844.85 828.25,-797.5 917,-687.62 968.92,-623.35 1009.38,-533.58 1027.74,-489"/>
<polygon fill="#a0d17b" stroke="#a0d17b" points="1031,-490.27 1031.52,-479.69 1024.51,-487.64 1031,-490.27"/>
</g>
<!-- rolling_pin&#45;&gt;rolling_pin\.conform_config -->
<g id="edge19" class="edge">
<title>rolling_pin&#45;&gt;rolling_pin\.conform_config</title>
<path fill="none" stroke="#a0d17b" d="M106.54,-793.94C134.28,-841.93 208.45,-968.55 226,-981.62 230.77,-985.18 235.92,-988.34 241.3,-991.15"/>
<polygon fill="#a0d17b" stroke="#a0d17b" points="240.02,-994.41 250.55,-995.55 243.03,-988.09 240.02,-994.41"/>
</g>
<!-- rolling_pin&#45;&gt;rolling_pin\.conform_etl -->
<g id="edge20" class="edge">
<title>rolling_pin&#45;&gt;rolling_pin\.conform_etl</title>
<path fill="none" stroke="#a0d17b" d="M129.36,-793.66C221.97,-841.06 487.66,-958.97 675,-860.62 744.8,-823.98 786.23,-734.27 803.51,-688.49"/>
<polygon fill="#a0d17b" stroke="#a0d17b" points="806.87,-689.49 807.02,-678.89 800.3,-687.08 806.87,-689.49"/>
</g>
<!-- rolling_pin&#45;&gt;rolling_pin\.radon_etl -->
<g id="edge21" class="edge">
<title>rolling_pin&#45;&gt;rolling_pin\.radon_etl</title>
<path fill="none" stroke="#a0d17b" d="M148.78,-770.32C277.96,-756.22 604.58,-713.39 675,-634.62 735.2,-567.3 678.69,-518.96 711,-434.62 731.26,-381.73 768.93,-327.12 792.38,-295.88"/>
<polygon fill="#a0d17b" stroke="#a0d17b" points="795.33,-297.79 798.59,-287.71 789.76,-293.55 795.33,-297.79"/>
</g>
<!-- rolling_pin&#45;&gt;rolling_pin\.repo_etl -->
<g id="edge22" class="edge">
<title>rolling_pin&#45;&gt;rolling_pin\.repo_etl</title>
<path fill="none" stroke="#a0d17b" d="M107.83,-757.52C128.08,-728.25 172.43,-671.22 226,-645.62 306.3,-607.26 408.08,-599.87 482.41,-600.84"/>
<polygon fill="#a0d17b" stroke="#a0d17b" points="482.64,-604.34 492.7,-601.02 482.77,-597.34 482.64,-604.34"/>
</g>
<!-- rolling_pin&#45;&gt;rolling_pin\.toml_etl -->
<g id="edge23" class="edge">
<title>rolling_pin&#45;&gt;rolling_pin\.toml_etl</title>
<path fill="none" stroke="#a0d17b" d="M148.72,-777.14C219.13,-778.65 347.68,-779.61 457,-770.62 554.66,-762.59 599.67,-800.29 675,-737.62 712.6,-706.34 690.42,-678 711,-633.62 735.83,-580.08 772.67,-521.79 794.61,-488.68"/>
<polygon fill="#a0d17b" stroke="#a0d17b" points="797.74,-490.29 800.39,-480.03 791.92,-486.41 797.74,-490.29"/>
</g>
<!-- rolling_pin&#45;&gt;rolling_pin\.tools -->
<g id="edge24" class="edge">
<title>rolling_pin&#45;&gt;rolling_pin\.tools</title>
<path fill="none" stroke="#a0d17b" d="M102.81,-757.42C118.74,-714.61 159.42,-604.11 190,-510.62 207.31,-457.7 186.26,-429.62 226,-390.62 233.78,-382.99 243.23,-377.14 253.32,-372.67"/>
<polygon fill="#a0d17b" stroke="#a0d17b" points="254.73,-375.87 262.74,-368.94 252.16,-369.37 254.73,-375.87"/>
</g>
<!-- lunchbox\.tools -->
<g id="node12" class="node">
<title>lunchbox\.tools</title>
<polygon fill="#343434" stroke="#343434" points="407.5,-690.62 275.5,-690.62 275.5,-654.62 407.5,-654.62 407.5,-690.62"/>
<text text-anchor="middle" x="341.5" y="-668.92" font-family="Courier,monospace" font-size="14.00" fill="#de958e">lunchbox.tools</text>
</g>
<!-- lunchbox\.tools&#45;&gt;rolling_pin\.blob_etl -->
<g id="edge25" class="edge">
<title>lunchbox\.tools&#45;&gt;rolling_pin\.blob_etl</title>
<path fill="none" stroke="#de958e" d="M357.23,-654.48C394.68,-608.34 490.79,-490.1 493,-488.62 495.28,-487.11 497.64,-485.67 500.07,-484.32"/>
<polygon fill="#de958e" stroke="#de958e" points="501.77,-487.38 509.12,-479.74 498.62,-481.13 501.77,-487.38"/>
</g>
<!-- lunchbox\.tools&#45;&gt;rolling_pin\.conform_etl -->
<g id="edge26" class="edge">
<title>lunchbox\.tools&#45;&gt;rolling_pin\.conform_etl</title>
<path fill="none" stroke="#de958e" d="M352.37,-690.74C372.98,-726.37 424.38,-804.71 493,-834.62 567.15,-866.95 602.17,-869.82 675,-834.62 738.31,-804.03 781.46,-728.72 801.03,-687.93"/>
<polygon fill="#de958e" stroke="#de958e" points="804.22,-689.37 805.29,-678.82 797.88,-686.4 804.22,-689.37"/>
</g>
<!-- lunchbox\.tools&#45;&gt;rolling_pin\.repo_etl -->
<g id="edge27" class="edge">
<title>lunchbox\.tools&#45;&gt;rolling_pin\.repo_etl</title>
<path fill="none" stroke="#de958e" d="M407.58,-655.03C438.09,-646.79 474.65,-636.91 506.48,-628.31"/>
<polygon fill="#de958e" stroke="#de958e" points="507.45,-631.67 516.19,-625.68 505.62,-624.91 507.45,-631.67"/>
</g>
<!-- pandas -->
<g id="node13" class="node">
<title>pandas</title>
<polygon fill="#343434" stroke="#343434" points="128,-254.62 62,-254.62 62,-218.62 128,-218.62 128,-254.62"/>
<text text-anchor="middle" x="95" y="-232.92" font-family="Courier,monospace" font-size="14.00" fill="#de958e">pandas</text>
</g>
<!-- pandas&#45;&gt;rolling_pin\.blob_etl -->
<g id="edge28" class="edge">
<title>pandas&#45;&gt;rolling_pin\.blob_etl</title>
<path fill="none" stroke="#de958e" d="M128.02,-233.05C206.99,-224.96 408.18,-209.04 457,-250.62 518.78,-303.24 439.87,-368.29 493,-429.62 495.54,-432.55 498.36,-435.22 501.4,-437.63"/>
<polygon fill="#de958e" stroke="#de958e" points="499.67,-440.69 509.89,-443.48 503.64,-434.93 499.67,-440.69"/>
</g>
<!-- pandas&#45;&gt;rolling_pin\.conform_etl -->
<g id="edge29" class="edge">
<title>pandas&#45;&gt;rolling_pin\.conform_etl</title>
<path fill="none" stroke="#de958e" d="M128.21,-229.85C207.14,-214.05 407.38,-179.08 457,-219.62 519.16,-270.42 436.38,-339.71 493,-396.62 551.28,-455.21 607.47,-387 675,-434.62 684.38,-441.24 763.19,-575.21 797.33,-633.7"/>
<polygon fill="#de958e" stroke="#de958e" points="794.35,-635.53 802.41,-642.4 800.39,-632 794.35,-635.53"/>
</g>
<!-- pandas&#45;&gt;rolling_pin\.radon_etl -->
<g id="edge30" class="edge">
<title>pandas&#45;&gt;rolling_pin\.radon_etl</title>
<path fill="none" stroke="#de958e" d="M128.28,-230.12C146.87,-225.7 170.37,-218.95 190,-209.62 207.6,-201.27 209.25,-194.57 226,-184.62 405.04,-78.26 514.75,82.37 675,-50.62 741.81,-106.07 651.9,-179.02 711,-242.62 711.78,-243.46 712.58,-244.28 713.4,-245.07"/>
<polygon fill="#de958e" stroke="#de958e" points="711.38,-247.93 721.34,-251.54 715.81,-242.51 711.38,-247.93"/>
</g>
<!-- pandas&#45;&gt;rolling_pin\.repo_etl -->
<g id="edge31" class="edge">
<title>pandas&#45;&gt;rolling_pin\.repo_etl</title>
<path fill="none" stroke="#de958e" d="M128.21,-249.19C149.25,-259.11 175.42,-275.08 190,-297.62 247.13,-385.99 151.2,-457.62 226,-531.62 262.86,-568.09 406.58,-552.53 457,-564.62 470.16,-567.78 497.65,-577.05 523.61,-586.18"/>
<polygon fill="#de958e" stroke="#de958e" points="522.47,-589.49 533.07,-589.52 524.81,-582.89 522.47,-589.49"/>
</g>
<!-- pandas&#45;&gt;rolling_pin\.tools -->
<g id="edge32" class="edge">
<title>pandas&#45;&gt;rolling_pin\.tools</title>
<path fill="none" stroke="#de958e" d="M128.22,-252.7C170.97,-274.03 246.71,-311.82 295.21,-336.02"/>
<polygon fill="#de958e" stroke="#de958e" points="293.72,-339.19 304.23,-340.53 296.85,-332.93 293.72,-339.19"/>
</g>
<!-- click -->
<g id="node14" class="node">
<title>click</title>
<polygon fill="#343434" stroke="#343434" points="843,-233.62 785,-233.62 785,-197.62 843,-197.62 843,-233.62"/>
<text text-anchor="middle" x="814" y="-211.92" font-family="Courier,monospace" font-size="14.00" fill="#de958e">click</text>
</g>
<!-- click&#45;&gt;rolling_pin\.command -->
<g id="edge33" class="edge">
<title>click&#45;&gt;rolling_pin\.command</title>
<path fill="none" stroke="#de958e" d="M843.17,-217.14C865.27,-219.63 895.75,-226.08 917,-242.62 981.27,-292.66 1016.54,-386.74 1030.84,-433.61"/>
<polygon fill="#de958e" stroke="#de958e" points="1027.54,-434.79 1033.72,-443.39 1034.25,-432.81 1027.54,-434.79"/>
</g>
<!-- networkx -->
<g id="node15" class="node">
<title>networkx</title>
<polygon fill="#343434" stroke="#343434" points="383,-522.62 300,-522.62 300,-486.62 383,-486.62 383,-522.62"/>
<text text-anchor="middle" x="341.5" y="-500.92" font-family="Courier,monospace" font-size="14.00" fill="#de958e">networkx</text>
</g>
<!-- networkx&#45;&gt;rolling_pin\.blob_etl -->
<g id="edge34" class="edge">
<title>networkx&#45;&gt;rolling_pin\.blob_etl</title>
<path fill="none" stroke="#de958e" d="M383.03,-497.38C410.32,-492.5 447.58,-485.84 482.55,-479.58"/>
<polygon fill="#de958e" stroke="#de958e" points="483.6,-482.95 492.83,-477.75 482.37,-476.06 483.6,-482.95"/>
</g>
<!-- networkx&#45;&gt;rolling_pin\.repo_etl -->
<g id="edge35" class="edge">
<title>networkx&#45;&gt;rolling_pin\.repo_etl</title>
<path fill="none" stroke="#de958e" d="M383.12,-510.34C406.06,-514.9 434.55,-522.89 457,-536.62 477.12,-548.93 473.31,-562.63 493,-575.62 498.36,-579.16 504.15,-582.36 510.13,-585.24"/>
<polygon fill="#de958e" stroke="#de958e" points="509.09,-588.61 519.64,-589.52 511.96,-582.23 509.09,-588.61"/>
</g>
<!-- pydot -->
<g id="node16" class="node">
<title>pydot</title>
<polygon fill="#343434" stroke="#343434" points="124,-342.62 66,-342.62 66,-306.62 124,-306.62 124,-342.62"/>
<text text-anchor="middle" x="95" y="-320.92" font-family="Courier,monospace" font-size="14.00" fill="#de958e">pydot</text>
</g>
<!-- pydot&#45;&gt;rolling_pin\.blob_etl -->
<g id="edge36" class="edge">
<title>pydot&#45;&gt;rolling_pin\.blob_etl</title>
<path fill="none" stroke="#de958e" d="M124.48,-309.97C190.65,-278.2 356.73,-211.88 457,-289.62 507.77,-328.99 449.66,-382.2 493,-429.62 495.75,-432.64 498.81,-435.37 502.08,-437.84"/>
<polygon fill="#de958e" stroke="#de958e" points="500.35,-440.89 510.62,-443.47 504.2,-435.04 500.35,-440.89"/>
</g>
<!-- pydot&#45;&gt;rolling_pin\.tools -->
<g id="edge37" class="edge">
<title>pydot&#45;&gt;rolling_pin\.tools</title>
<path fill="none" stroke="#de958e" d="M124.05,-328.52C155.3,-332.87 207.39,-340.11 252.64,-346.41"/>
<polygon fill="#de958e" stroke="#de958e" points="252.39,-349.91 262.78,-347.82 253.36,-342.97 252.39,-349.91"/>
</g>
<!-- numpy -->
<g id="node17" class="node">
<title>numpy</title>
<polygon fill="#343434" stroke="#343434" points="370.5,-468.62 312.5,-468.62 312.5,-432.62 370.5,-432.62 370.5,-468.62"/>
<text text-anchor="middle" x="341.5" y="-446.92" font-family="Courier,monospace" font-size="14.00" fill="#de958e">numpy</text>
</g>
<!-- numpy&#45;&gt;rolling_pin\.radon_etl -->
<g id="edge38" class="edge">
<title>numpy&#45;&gt;rolling_pin\.radon_etl</title>
<path fill="none" stroke="#de958e" d="M370.69,-441.05C396.43,-430.98 433.89,-412.78 457,-385.62 486.8,-350.6 456.04,-315.99 493,-288.62 526.19,-264.05 628.43,-261.58 708.52,-263.85"/>
<polygon fill="#de958e" stroke="#de958e" points="708.56,-267.35 718.67,-264.16 708.78,-260.36 708.56,-267.35"/>
</g>
<!-- numpy&#45;&gt;rolling_pin\.repo_etl -->
<g id="edge39" class="edge">
<title>numpy&#45;&gt;rolling_pin\.repo_etl</title>
<path fill="none" stroke="#de958e" d="M370.84,-450.11C396.33,-451.16 433.31,-456.63 457,-477.62 491.73,-508.4 460.02,-542.99 493,-575.62 496.2,-578.79 499.74,-581.65 503.5,-584.23"/>
<polygon fill="#de958e" stroke="#de958e" points="501.7,-587.23 512.06,-589.43 505.33,-581.24 501.7,-587.23"/>
</g>
<!-- lunchbox\.enforce -->
<g id="node18" class="node">
<title>lunchbox\.enforce</title>
<polygon fill="#343434" stroke="#343434" points="658.5,-533.62 509.5,-533.62 509.5,-497.62 658.5,-497.62 658.5,-533.62"/>
<text text-anchor="middle" x="584" y="-511.92" font-family="Courier,monospace" font-size="14.00" fill="#de958e">lunchbox.enforce</text>
</g>
<!-- lunchbox\.enforce&#45;&gt;rolling_pin\.conform_etl -->
<g id="edge40" class="edge">
<title>lunchbox\.enforce&#45;&gt;rolling_pin\.conform_etl</title>
<path fill="none" stroke="#de958e" d="M644.86,-533.63C655.19,-537.65 665.61,-542.33 675,-547.62 718.2,-572.01 761.37,-610.12 787.63,-635.23"/>
<polygon fill="#de958e" stroke="#de958e" points="785.28,-637.83 794.9,-642.26 790.14,-632.8 785.28,-637.83"/>
</g>
<!-- lunchbox\.enforce&#45;&gt;rolling_pin\.toml_etl -->
<g id="edge41" class="edge">
<title>lunchbox\.enforce&#45;&gt;rolling_pin\.toml_etl</title>
<path fill="none" stroke="#de958e" d="M658.71,-498.17C680.47,-493.01 704.48,-487.33 726.94,-482.01"/>
<polygon fill="#de958e" stroke="#de958e" points="727.88,-485.38 736.8,-479.67 726.26,-478.57 727.88,-485.38"/>
</g>
<!-- plotly\.express -->
<g id="node19" class="node">
<title>plotly\.express</title>
<polygon fill="#343434" stroke="#343434" points="650,-241.62 518,-241.62 518,-205.62 650,-205.62 650,-241.62"/>
<text text-anchor="middle" x="584" y="-219.92" font-family="Courier,monospace" font-size="14.00" fill="#de958e">plotly.express</text>
</g>
<!-- plotly\.express&#45;&gt;rolling_pin\.radon_etl -->
<g id="edge42" class="edge">
<title>plotly\.express&#45;&gt;rolling_pin\.radon_etl</title>
<path fill="none" stroke="#de958e" d="M650.03,-236.74C669.89,-240.75 692.2,-245.25 713.79,-249.61"/>
<polygon fill="#de958e" stroke="#de958e" points="713.15,-253.05 723.65,-251.6 714.54,-246.19 713.15,-253.05"/>
</g>
<!-- radon\.cli -->
<g id="node20" class="node">
<title>radon\.cli</title>
<polygon fill="#343434" stroke="#343434" points="629.5,-187.62 538.5,-187.62 538.5,-151.62 629.5,-151.62 629.5,-187.62"/>
<text text-anchor="middle" x="584" y="-165.92" font-family="Courier,monospace" font-size="14.00" fill="#de958e">radon.cli</text>
</g>
<!-- radon\.cli&#45;&gt;rolling_pin\.radon_etl -->
<g id="edge43" class="edge">
<title>radon\.cli&#45;&gt;rolling_pin\.radon_etl</title>
<path fill="none" stroke="#de958e" d="M629.52,-177.24C644.85,-181.29 661.53,-187.43 675,-196.62 696.44,-211.26 689.32,-228.34 711,-242.62 713.32,-244.15 715.73,-245.6 718.2,-246.96"/>
<polygon fill="#de958e" stroke="#de958e" points="716.88,-250.22 727.39,-251.54 720.01,-243.95 716.88,-250.22"/>
</g>
<!-- radon\.complexity -->
<g id="node21" class="node">
<title>radon\.complexity</title>
<polygon fill="#343434" stroke="#343434" points="658.5,-133.62 509.5,-133.62 509.5,-97.62 658.5,-97.62 658.5,-133.62"/>
<text text-anchor="middle" x="584" y="-111.92" font-family="Courier,monospace" font-size="14.00" fill="#de958e">radon.complexity</text>
</g>
<!-- radon\.complexity&#45;&gt;rolling_pin\.radon_etl -->
<g id="edge44" class="edge">
<title>radon\.complexity&#45;&gt;rolling_pin\.radon_etl</title>
<path fill="none" stroke="#de958e" d="M658.54,-131.04C664.54,-134.21 670.14,-138.02 675,-142.62 709.29,-175.11 676.18,-210.7 711,-242.62 712.14,-243.67 713.31,-244.67 714.52,-245.64"/>
<polygon fill="#de958e" stroke="#de958e" points="712.71,-248.64 722.92,-251.49 716.71,-242.9 712.71,-248.64"/>
</g>
<!-- schematics -->
<g id="node22" class="node">
<title>schematics</title>
<polygon fill="#343434" stroke="#343434" points="144.5,-1031.62 45.5,-1031.62 45.5,-995.62 144.5,-995.62 144.5,-1031.62"/>
<text text-anchor="middle" x="95" y="-1009.92" font-family="Courier,monospace" font-size="14.00" fill="#de958e">schematics</text>
</g>
<!-- schematics&#45;&gt;rolling_pin\.conform_config -->
<g id="edge45" class="edge">
<title>schematics&#45;&gt;rolling_pin\.conform_config</title>
<path fill="none" stroke="#de958e" d="M144.6,-1013.62C165.31,-1013.62 190.53,-1013.62 215.88,-1013.62"/>
<polygon fill="#de958e" stroke="#de958e" points="215.97,-1017.12 225.97,-1013.62 215.97,-1010.12 215.97,-1017.12"/>
</g>
<!-- schematics\.exceptions -->
<g id="node23" class="node">
<title>schematics\.exceptions</title>
<polygon fill="#343434" stroke="#343434" points="190,-977.62 0,-977.62 0,-941.62 190,-941.62 190,-977.62"/>
<text text-anchor="middle" x="95" y="-955.92" font-family="Courier,monospace" font-size="14.00" fill="#de958e">schematics.exceptions</text>
</g>
<!-- schematics\.exceptions&#45;&gt;rolling_pin\.conform_config -->
<g id="edge46" class="edge">
<title>schematics\.exceptions&#45;&gt;rolling_pin\.conform_config</title>
<path fill="none" stroke="#de958e" d="M177.75,-977.68C200.59,-982.72 225.55,-988.24 248.92,-993.4"/>
<polygon fill="#de958e" stroke="#de958e" points="248.3,-996.85 258.82,-995.58 249.81,-990.01 248.3,-996.85"/>
</g>
<!-- schematics\.types -->
<g id="node24" class="node">
<title>schematics\.types</title>
<polygon fill="#343434" stroke="#343434" points="169.5,-1085.62 20.5,-1085.62 20.5,-1049.62 169.5,-1049.62 169.5,-1085.62"/>
<text text-anchor="middle" x="95" y="-1063.92" font-family="Courier,monospace" font-size="14.00" fill="#de958e">schematics.types</text>
</g>
<!-- schematics\.types&#45;&gt;rolling_pin\.conform_config -->
<g id="edge47" class="edge">
<title>schematics\.types&#45;&gt;rolling_pin\.conform_config</title>
<path fill="none" stroke="#de958e" d="M169.69,-1051.35C194.63,-1045.84 222.78,-1039.62 248.93,-1033.85"/>
<polygon fill="#de958e" stroke="#de958e" points="249.84,-1037.23 258.85,-1031.66 248.33,-1030.4 249.84,-1037.23"/>
</g>
<!-- toml -->
<g id="node25" class="node">
<title>toml</title>
<polygon fill="#343434" stroke="#343434" points="611,-333.62 557,-333.62 557,-297.62 611,-297.62 611,-333.62"/>
<text text-anchor="middle" x="584" y="-311.92" font-family="Courier,monospace" font-size="14.00" fill="#de958e">toml</text>
</g>
<!-- toml&#45;&gt;rolling_pin\.toml_etl -->
<g id="edge48" class="edge">
<title>toml&#45;&gt;rolling_pin\.toml_etl</title>
<path fill="none" stroke="#de958e" d="M611.36,-320.47C629.94,-324.6 654.97,-331.64 675,-342.62 720.19,-367.4 763.76,-408.84 789.46,-435.7"/>
<polygon fill="#de958e" stroke="#de958e" points="787.12,-438.32 796.53,-443.19 792.22,-433.52 787.12,-438.32"/>
</g>
<!-- toml\.decoder -->
<g id="node26" class="node">
<title>toml\.decoder</title>
<polygon fill="#343434" stroke="#343434" points="642,-387.62 526,-387.62 526,-351.62 642,-351.62 642,-387.62"/>
<text text-anchor="middle" x="584" y="-365.92" font-family="Courier,monospace" font-size="14.00" fill="#de958e">toml.decoder</text>
</g>
<!-- toml\.decoder&#45;&gt;rolling_pin\.toml_etl -->
<g id="edge49" class="edge">
<title>toml\.decoder&#45;&gt;rolling_pin\.toml_etl</title>
<path fill="none" stroke="#de958e" d="M637.58,-387.64C649.91,-392.05 662.97,-396.88 675,-401.62 704.87,-413.41 737.86,-427.71 764.1,-439.39"/>
<polygon fill="#de958e" stroke="#de958e" points="762.89,-442.68 773.44,-443.57 765.74,-436.29 762.89,-442.68"/>
</g>
<!-- yaml -->
<g id="node27" class="node">
<title>yaml</title>
<polygon fill="#343434" stroke="#343434" points="611,-825.62 557,-825.62 557,-789.62 611,-789.62 611,-825.62"/>
<text text-anchor="middle" x="584" y="-803.92" font-family="Courier,monospace" font-size="14.00" fill="#de958e">yaml</text>
</g>
<!-- yaml&#45;&gt;rolling_pin\.conform_etl -->
<g id="edge50" class="edge">
<title>yaml&#45;&gt;rolling_pin\.conform_etl</title>
<path fill="none" stroke="#de958e" d="M611.27,-800.95C629.81,-795.62 654.83,-787.12 675,-775.62 718.65,-750.74 762.01,-711.63 788.16,-686.06"/>
<polygon fill="#de958e" stroke="#de958e" points="790.74,-688.43 795.39,-678.91 785.82,-683.46 790.74,-688.43"/>
</g>
<!-- lunchbox\.theme -->
<g id="node28" class="node">
<title>lunchbox\.theme</title>
<polygon fill="#343434" stroke="#343434" points="880,-179.62 748,-179.62 748,-143.62 880,-143.62 880,-179.62"/>
<text text-anchor="middle" x="814" y="-157.92" font-family="Courier,monospace" font-size="14.00" fill="#de958e">lunchbox.theme</text>
</g>
<!-- lunchbox\.theme&#45;&gt;rolling_pin\.command -->
<g id="edge51" class="edge">
<title>lunchbox\.theme&#45;&gt;rolling_pin\.command</title>
<path fill="none" stroke="#de958e" d="M880.18,-169.67C893.45,-173.71 906.54,-179.72 917,-188.62 993.83,-254.05 1024.06,-377.68 1034.14,-433.28"/>
<polygon fill="#de958e" stroke="#de958e" points="1030.74,-434.2 1035.89,-443.46 1037.64,-433.01 1030.74,-434.2"/>
</g>
</g>
</svg>
