<?xml version="1.0" encoding="UTF-8" standalone="no"?>
<!DOCTYPE svg PUBLIC "-//W3C//DTD SVG 1.1//EN"
 "http://www.w3.org/Graphics/SVG/1.1/DTD/svg11.dtd">
<!-- Generated by graphviz version 2.40.1 (20161225.0304)
 -->
<!-- Title: %3 Pages: 1 -->
<svg width="1182pt" height="260pt"
 viewBox="0.00 0.00 1181.50 260.00" xmlns="http://www.w3.org/2000/svg" xmlns:xlink="http://www.w3.org/1999/xlink">
<g id="graph0" class="graph" transform="scale(1 1) rotate(0) translate(4 256)">
<title>%3</title>
<polygon fill="#242424" stroke="transparent" points="-4,4 -4,-256 1177.5,-256 1177.5,4 -4,4"/>
<!-- cli -->
<g id="node1" class="node">
<title>cli</title>
<polygon fill="#343434" stroke="#343434" points="101,-252 47,-252 47,-216 101,-216 101,-252"/>
<text text-anchor="middle" x="74" y="-230.3" font-family="Courier,monospace" font-size="14.00" fill="#b6ecf3">cli</text>
</g>
<!-- rolling_pin.app -->
<g id="node2" class="node">
<title>rolling_pin.app</title>
<polygon fill="#343434" stroke="#343434" points="258,-36 118,-36 118,0 258,0 258,-36"/>
<text text-anchor="middle" x="188" y="-14.3" font-family="Courier,monospace" font-size="14.00" fill="#b6ecf3">rolling_pin.app</text>
</g>
<!-- rolling_pin.blob_etl -->
<g id="node3" class="node">
<title>rolling_pin.blob_etl</title>
<polygon fill="#343434" stroke="#343434" points="474,-108 292,-108 292,-72 474,-72 474,-108"/>
<text text-anchor="middle" x="383" y="-86.3" font-family="Courier,monospace" font-size="14.00" fill="#b6ecf3">rolling_pin.blob_etl</text>
</g>
<!-- rolling_pin.blob_etl&#45;&gt;rolling_pin.app -->
<g id="edge1" class="edge">
<title>rolling_pin.blob_etl&#45;&gt;rolling_pin.app</title>
<path fill="none" stroke="#b6ecf3" d="M334.045,-71.9243C307.5032,-62.1243 274.5177,-49.945 246.6142,-39.6422"/>
<polygon fill="#b6ecf3" stroke="#b6ecf3" points="247.5685,-36.2636 236.9752,-36.0831 245.1438,-42.8303 247.5685,-36.2636"/>
</g>
<!-- rolling_pin.radon_etl -->
<g id="node4" class="node">
<title>rolling_pin.radon_etl</title>
<polygon fill="#343434" stroke="#343434" points="1022,-36 832,-36 832,0 1022,0 1022,-36"/>
<text text-anchor="middle" x="927" y="-14.3" font-family="Courier,monospace" font-size="14.00" fill="#b6ecf3">rolling_pin.radon_etl</text>
</g>
<!-- rolling_pin.blob_etl&#45;&gt;rolling_pin.radon_etl -->
<g id="edge2" class="edge">
<title>rolling_pin.blob_etl&#45;&gt;rolling_pin.radon_etl</title>
<path fill="none" stroke="#b6ecf3" d="M474.2501,-73.3535C477.1993,-72.8863 480.1219,-72.4337 483,-72 598.6407,-54.5746 731.885,-38.9628 821.9979,-29.0615"/>
<polygon fill="#b6ecf3" stroke="#b6ecf3" points="822.3875,-32.5399 831.9471,-27.9723 821.6256,-25.5814 822.3875,-32.5399"/>
</g>
<!-- rolling_pin.repo_etl -->
<g id="node5" class="node">
<title>rolling_pin.repo_etl</title>
<polygon fill="#343434" stroke="#343434" points="674,-108 492,-108 492,-72 674,-72 674,-108"/>
<text text-anchor="middle" x="583" y="-86.3" font-family="Courier,monospace" font-size="14.00" fill="#b6ecf3">rolling_pin.repo_etl</text>
</g>
<!-- rolling_pin.tools -->
<g id="node6" class="node">
<title>rolling_pin.tools</title>
<polygon fill="#343434" stroke="#343434" points="731.5,-180 574.5,-180 574.5,-144 731.5,-144 731.5,-180"/>
<text text-anchor="middle" x="653" y="-158.3" font-family="Courier,monospace" font-size="14.00" fill="#b6ecf3">rolling_pin.tools</text>
</g>
<!-- rolling_pin.tools&#45;&gt;rolling_pin.blob_etl -->
<g id="edge3" class="edge">
<title>rolling_pin.tools&#45;&gt;rolling_pin.blob_etl</title>
<path fill="none" stroke="#b6ecf3" d="M585.2161,-143.9243C547.3426,-133.8247 499.9933,-121.1982 460.6352,-110.7027"/>
<polygon fill="#b6ecf3" stroke="#b6ecf3" points="461.376,-107.278 450.8118,-108.0831 459.5723,-114.0417 461.376,-107.278"/>
</g>
<!-- rolling_pin.tools&#45;&gt;rolling_pin.radon_etl -->
<g id="edge4" class="edge">
<title>rolling_pin.tools&#45;&gt;rolling_pin.radon_etl</title>
<path fill="none" stroke="#b6ecf3" d="M731.7087,-153.4154C817.7393,-143.2242 945.3864,-125.4084 960,-108 975.3793,-89.6795 963.0869,-63.5609 949.3473,-44.1757"/>
<polygon fill="#b6ecf3" stroke="#b6ecf3" points="952.048,-41.9437 943.2376,-36.0592 946.4554,-46.1536 952.048,-41.9437"/>
</g>
<!-- rolling_pin.tools&#45;&gt;rolling_pin.repo_etl -->
<g id="edge5" class="edge">
<title>rolling_pin.tools&#45;&gt;rolling_pin.repo_etl</title>
<path fill="none" stroke="#b6ecf3" d="M635.336,-143.8314C627.0268,-135.2848 616.9736,-124.9443 607.9082,-115.6198"/>
<polygon fill="#b6ecf3" stroke="#b6ecf3" points="610.3821,-113.1435 600.9018,-108.4133 605.3631,-118.023 610.3821,-113.1435"/>
</g>
<!-- rolling_pin.utils -->
<g id="node7" class="node">
<title>rolling_pin.utils</title>
<polygon fill="#343434" stroke="#343434" points="226.5,-180 69.5,-180 69.5,-144 226.5,-144 226.5,-180"/>
<text text-anchor="middle" x="148" y="-158.3" font-family="Courier,monospace" font-size="14.00" fill="#b6ecf3">rolling_pin.utils</text>
</g>
<!-- rolling_pin.utils&#45;&gt;rolling_pin.app -->
<g id="edge6" class="edge">
<title>rolling_pin.utils&#45;&gt;rolling_pin.app</title>
<path fill="none" stroke="#b6ecf3" d="M155.4787,-143.7145C159.5373,-133.3527 164.438,-120.0825 168,-108 174.0255,-87.5615 179.1926,-64.042 182.7647,-46.1729"/>
<polygon fill="#b6ecf3" stroke="#b6ecf3" points="186.2476,-46.5985 184.727,-36.1134 179.3771,-45.2582 186.2476,-46.5985"/>
</g>
<!-- rolling_pin.utils&#45;&gt;rolling_pin.repo_etl -->
<g id="edge7" class="edge">
<title>rolling_pin.utils&#45;&gt;rolling_pin.repo_etl</title>
<path fill="none" stroke="#b6ecf3" d="M226.5845,-149.7481C292.1947,-139.4231 388.4599,-124.0523 482.0674,-108.1446"/>
<polygon fill="#b6ecf3" stroke="#b6ecf3" points="482.7237,-111.5833 491.994,-106.4539 481.5483,-104.6827 482.7237,-111.5833"/>
</g>
<!-- flasgger -->
<g id="node8" class="node">
<title>flasgger</title>
<polygon fill="#343434" stroke="#343434" points="159.5,-108 76.5,-108 76.5,-72 159.5,-72 159.5,-108"/>
<text text-anchor="middle" x="118" y="-86.3" font-family="Courier,monospace" font-size="14.00" fill="#de958e">flasgger</text>
</g>
<!-- flasgger&#45;&gt;rolling_pin.app -->
<g id="edge8" class="edge">
<title>flasgger&#45;&gt;rolling_pin.app</title>
<path fill="none" stroke="#de958e" d="M135.664,-71.8314C143.9732,-63.2848 154.0264,-52.9443 163.0918,-43.6198"/>
<polygon fill="#de958e" stroke="#de958e" points="165.6369,-46.023 170.0982,-36.4133 160.6179,-41.1435 165.6369,-46.023"/>
</g>
<!-- flask -->
<g id="node9" class="node">
<title>flask</title>
<polygon fill="#343434" stroke="#343434" points="58,-108 0,-108 0,-72 58,-72 58,-108"/>
<text text-anchor="middle" x="29" y="-86.3" font-family="Courier,monospace" font-size="14.00" fill="#de958e">flask</text>
</g>
<!-- flask&#45;&gt;rolling_pin.app -->
<g id="edge9" class="edge">
<title>flask&#45;&gt;rolling_pin.app</title>
<path fill="none" stroke="#de958e" d="M58.0145,-76.1736C61.0443,-74.7546 64.0819,-73.3421 67,-72 90.121,-61.3664 115.8553,-49.8389 137.6266,-40.1758"/>
<polygon fill="#de958e" stroke="#de958e" points="139.2857,-43.2689 147.0101,-36.0174 136.4496,-36.8692 139.2857,-43.2689"/>
</g>
<!-- rolling_pin -->
<g id="node10" class="node">
<title>rolling_pin</title>
<polygon fill="#343434" stroke="#343434" points="469.5,-252 362.5,-252 362.5,-216 469.5,-216 469.5,-252"/>
<text text-anchor="middle" x="416" y="-230.3" font-family="Courier,monospace" font-size="14.00" fill="#a0d17b">rolling_pin</text>
</g>
<!-- rolling_pin&#45;&gt;rolling_pin.app -->
<g id="edge10" class="edge">
<title>rolling_pin&#45;&gt;rolling_pin.app</title>
<path fill="none" stroke="#a0d17b" d="M383.4516,-215.9236C367.2526,-206.2358 347.8076,-193.5252 332,-180 282.4459,-137.6007 233.9885,-78.3605 207.855,-44.515"/>
<polygon fill="#a0d17b" stroke="#a0d17b" points="210.5634,-42.2949 201.7049,-36.483 205.0056,-46.5506 210.5634,-42.2949"/>
</g>
<!-- rolling_pin&#45;&gt;rolling_pin.blob_etl -->
<g id="edge11" class="edge">
<title>rolling_pin&#45;&gt;rolling_pin.blob_etl</title>
<path fill="none" stroke="#a0d17b" d="M377.3086,-215.9437C363.2133,-207.2204 348.8269,-195.2799 341,-180 330.0929,-158.7068 343.3467,-134.0571 357.7753,-115.9443"/>
<polygon fill="#a0d17b" stroke="#a0d17b" points="360.612,-118.0104 364.4048,-108.1177 355.2707,-113.486 360.612,-118.0104"/>
</g>
<!-- rolling_pin&#45;&gt;rolling_pin.radon_etl -->
<g id="edge12" class="edge">
<title>rolling_pin&#45;&gt;rolling_pin.radon_etl</title>
<path fill="none" stroke="#a0d17b" d="M469.7333,-227.7231C500.2916,-224.1924 539.2782,-219.7532 574,-216 730.3497,-199.0994 781.8507,-242.8638 926,-180 981.243,-155.9084 1036.4378,-125.1365 1008,-72 1001.326,-59.5296 990.3594,-49.4416 978.6199,-41.5111"/>
<polygon fill="#a0d17b" stroke="#a0d17b" points="980.3204,-38.4466 969.9854,-36.1146 976.6104,-44.3826 980.3204,-38.4466"/>
</g>
<!-- rolling_pin&#45;&gt;rolling_pin.repo_etl -->
<g id="edge13" class="edge">
<title>rolling_pin&#45;&gt;rolling_pin.repo_etl</title>
<path fill="none" stroke="#a0d17b" d="M468.0059,-215.8937C487.9875,-207.1915 510.0459,-195.2793 527,-180 546.2961,-162.61 561.3382,-137.0355 570.9512,-117.5887"/>
<polygon fill="#a0d17b" stroke="#a0d17b" points="574.222,-118.8602 575.3529,-108.3259 567.8996,-115.8557 574.222,-118.8602"/>
</g>
<!-- rolling_pin&#45;&gt;rolling_pin.tools -->
<g id="edge14" class="edge">
<title>rolling_pin&#45;&gt;rolling_pin.tools</title>
<path fill="none" stroke="#a0d17b" d="M469.779,-217.6621C503.4845,-207.4224 547.2673,-194.1213 583.581,-183.0893"/>
<polygon fill="#a0d17b" stroke="#a0d17b" points="585.0598,-186.2981 593.6106,-180.0423 583.025,-179.6003 585.0598,-186.2981"/>
</g>
<!-- rolling_pin&#45;&gt;rolling_pin.utils -->
<g id="edge15" class="edge">
<title>rolling_pin&#45;&gt;rolling_pin.utils</title>
<path fill="none" stroke="#a0d17b" d="M362.4103,-219.6028C323.073,-209.0345 269.0646,-194.5248 225.0953,-182.7122"/>
<polygon fill="#a0d17b" stroke="#a0d17b" points="225.8677,-179.2956 215.302,-180.0811 224.0515,-186.0559 225.8677,-179.2956"/>
</g>
<!-- wrapt -->
<g id="node11" class="node">
<title>wrapt</title>
<polygon fill="#343434" stroke="#343434" points="177,-252 119,-252 119,-216 177,-216 177,-252"/>
<text text-anchor="middle" x="148" y="-230.3" font-family="Courier,monospace" font-size="14.00" fill="#de958e">wrapt</text>
</g>
<!-- wrapt&#45;&gt;rolling_pin.utils -->
<g id="edge16" class="edge">
<title>wrapt&#45;&gt;rolling_pin.utils</title>
<path fill="none" stroke="#de958e" d="M148,-215.8314C148,-208.131 148,-198.9743 148,-190.4166"/>
<polygon fill="#de958e" stroke="#de958e" points="151.5001,-190.4132 148,-180.4133 144.5001,-190.4133 151.5001,-190.4132"/>
</g>
<!-- IPython.display -->
<g id="node12" class="node">
<title>IPython.display</title>
<polygon fill="#343434" stroke="#343434" points="723,-252 583,-252 583,-216 723,-216 723,-252"/>
<text text-anchor="middle" x="653" y="-230.3" font-family="Courier,monospace" font-size="14.00" fill="#de958e">IPython.display</text>
</g>
<!-- IPython.display&#45;&gt;rolling_pin.tools -->
<g id="edge17" class="edge">
<title>IPython.display&#45;&gt;rolling_pin.tools</title>
<path fill="none" stroke="#de958e" d="M653,-215.8314C653,-208.131 653,-198.9743 653,-190.4166"/>
<polygon fill="#de958e" stroke="#de958e" points="656.5001,-190.4132 653,-180.4133 649.5001,-190.4133 656.5001,-190.4132"/>
</g>
<!-- networkx -->
<g id="node13" class="node">
<title>networkx</title>
<polygon fill="#343434" stroke="#343434" points="517.5,-180 434.5,-180 434.5,-144 517.5,-144 517.5,-180"/>
<text text-anchor="middle" x="476" y="-158.3" font-family="Courier,monospace" font-size="14.00" fill="#de958e">networkx</text>
</g>
<!-- networkx&#45;&gt;rolling_pin.blob_etl -->
<g id="edge18" class="edge">
<title>networkx&#45;&gt;rolling_pin.blob_etl</title>
<path fill="none" stroke="#de958e" d="M452.5322,-143.8314C440.9673,-134.8779 426.8596,-123.9558 414.3817,-114.2955"/>
<polygon fill="#de958e" stroke="#de958e" points="416.5102,-111.5171 406.4603,-108.1628 412.225,-117.0521 416.5102,-111.5171"/>
</g>
<!-- networkx&#45;&gt;rolling_pin.repo_etl -->
<g id="edge19" class="edge">
<title>networkx&#45;&gt;rolling_pin.repo_etl</title>
<path fill="none" stroke="#de958e" d="M503.0006,-143.8314C516.4331,-134.7927 532.8473,-123.7476 547.3039,-114.0198"/>
<polygon fill="#de958e" stroke="#de958e" points="549.6654,-116.6494 556.008,-108.1628 545.7575,-110.8418 549.6654,-116.6494"/>
</g>
<!-- pandas -->
<g id="node14" class="node">
<title>pandas</title>
<polygon fill="#343434" stroke="#343434" points="416,-180 350,-180 350,-144 416,-144 416,-180"/>
<text text-anchor="middle" x="383" y="-158.3" font-family="Courier,monospace" font-size="14.00" fill="#de958e">pandas</text>
</g>
<!-- pandas&#45;&gt;rolling_pin.blob_etl -->
<g id="edge20" class="edge">
<title>pandas&#45;&gt;rolling_pin.blob_etl</title>
<path fill="none" stroke="#de958e" d="M383,-143.8314C383,-136.131 383,-126.9743 383,-118.4166"/>
<polygon fill="#de958e" stroke="#de958e" points="386.5001,-118.4132 383,-108.4133 379.5001,-118.4133 386.5001,-118.4132"/>
</g>
<!-- pandas&#45;&gt;rolling_pin.radon_etl -->
<g id="edge21" class="edge">
<title>pandas&#45;&gt;rolling_pin.radon_etl</title>
<path fill="none" stroke="#de958e" d="M349.709,-153.7268C326.5507,-146.0449 297.3527,-132.0621 283,-108 274.8036,-94.2589 272.1693,-83.7769 283,-72 318.6504,-33.2351 648.4326,-22.2852 821.7152,-19.202"/>
<polygon fill="#de958e" stroke="#de958e" points="821.9426,-22.6987 831.8808,-19.027 821.822,-15.6998 821.9426,-22.6987"/>
</g>
<!-- pandas&#45;&gt;rolling_pin.repo_etl -->
<g id="edge22" class="edge">
<title>pandas&#45;&gt;rolling_pin.repo_etl</title>
<path fill="none" stroke="#de958e" d="M416.2484,-147.8304C419.5319,-146.5069 422.8235,-145.2097 426,-144 455.8791,-132.6216 489.3407,-120.9656 517.6708,-111.4087"/>
<polygon fill="#de958e" stroke="#de958e" points="519.0979,-114.6215 527.4632,-108.1197 516.8692,-107.9858 519.0979,-114.6215"/>
</g>
<!-- numpy -->
<g id="node15" class="node">
<title>numpy</title>
<polygon fill="#343434" stroke="#343434" points="917,-180 859,-180 859,-144 917,-144 917,-180"/>
<text text-anchor="middle" x="888" y="-158.3" font-family="Courier,monospace" font-size="14.00" fill="#de958e">numpy</text>
</g>
<!-- numpy&#45;&gt;rolling_pin.radon_etl -->
<g id="edge23" class="edge">
<title>numpy&#45;&gt;rolling_pin.radon_etl</title>
<path fill="none" stroke="#de958e" d="M917.1105,-155.7287C941.8467,-148.6949 975.8382,-134.6023 992,-108 1000.3076,-94.3258 998.7975,-86.4843 992,-72 986.5409,-60.3676 977.2088,-50.3739 967.2927,-42.2592"/>
<polygon fill="#de958e" stroke="#de958e" points="969.355,-39.4304 959.2779,-36.1588 965.1154,-45.0005 969.355,-39.4304"/>
</g>
<!-- numpy&#45;&gt;rolling_pin.repo_etl -->
<g id="edge24" class="edge">
<title>numpy&#45;&gt;rolling_pin.repo_etl</title>
<path fill="none" stroke="#de958e" d="M858.7553,-155.0963C815.5892,-144.9063 733.0708,-125.4266 669.5056,-110.421"/>
<polygon fill="#de958e" stroke="#de958e" points="670.0121,-106.9444 659.4754,-108.0532 668.4038,-113.7572 670.0121,-106.9444"/>
</g>
<!-- cufflinks -->
<g id="node16" class="node">
<title>cufflinks</title>
<polygon fill="#343434" stroke="#343434" points="1173.5,-108 1082.5,-108 1082.5,-72 1173.5,-72 1173.5,-108"/>
<text text-anchor="middle" x="1128" y="-86.3" font-family="Courier,monospace" font-size="14.00" fill="#de958e">cufflinks</text>
</g>
<!-- cufflinks&#45;&gt;rolling_pin.radon_etl -->
<g id="edge25" class="edge">
<title>cufflinks&#45;&gt;rolling_pin.radon_etl</title>
<path fill="none" stroke="#de958e" d="M1082.39,-73.6621C1054.1707,-63.5537 1017.6227,-50.4619 987.062,-39.5147"/>
<polygon fill="#de958e" stroke="#de958e" points="987.9628,-36.1197 977.3682,-36.0423 985.6021,-42.7097 987.9628,-36.1197"/>
</g>
<!-- radon.cli -->
<g id="node17" class="node">
<title>radon.cli</title>
<polygon fill="#343434" stroke="#343434" points="783.5,-108 692.5,-108 692.5,-72 783.5,-72 783.5,-108"/>
<text text-anchor="middle" x="738" y="-86.3" font-family="Courier,monospace" font-size="14.00" fill="#de958e">radon.cli</text>
</g>
<!-- radon.cli&#45;&gt;rolling_pin.radon_etl -->
<g id="edge26" class="edge">
<title>radon.cli&#45;&gt;rolling_pin.radon_etl</title>
<path fill="none" stroke="#de958e" d="M783.7516,-72.5708C809.7467,-62.6679 842.5189,-50.1833 870.1546,-39.6554"/>
<polygon fill="#de958e" stroke="#de958e" points="871.5971,-42.8513 879.6959,-36.0206 869.1051,-36.3099 871.5971,-42.8513"/>
</g>
<!-- radon.complexity -->
<g id="node18" class="node">
<title>radon.complexity</title>
<polygon fill="#343434" stroke="#343434" points="950.5,-108 801.5,-108 801.5,-72 950.5,-72 950.5,-108"/>
<text text-anchor="middle" x="876" y="-86.3" font-family="Courier,monospace" font-size="14.00" fill="#de958e">radon.complexity</text>
</g>
<!-- radon.complexity&#45;&gt;rolling_pin.radon_etl -->
<g id="edge27" class="edge">
<title>radon.complexity&#45;&gt;rolling_pin.radon_etl</title>
<path fill="none" stroke="#de958e" d="M888.8695,-71.8314C894.6835,-63.6232 901.6696,-53.7606 908.0646,-44.7323"/>
<polygon fill="#de958e" stroke="#de958e" points="911.0331,-46.5966 913.9573,-36.4133 905.321,-42.5505 911.0331,-46.5966"/>
</g>
</g>
</svg>
