<?xml version="1.0" encoding="UTF-8" standalone="no"?>
<!DOCTYPE svg PUBLIC "-//W3C//DTD SVG 1.1//EN"
 "http://www.w3.org/Graphics/SVG/1.1/DTD/svg11.dtd">
<!-- Generated by graphviz version 2.40.1 (20161225.0304)
 -->
<!-- Title: %3 Pages: 1 -->
<svg width="1325pt" height="260pt"
 viewBox="0.00 0.00 1324.50 260.00" xmlns="http://www.w3.org/2000/svg" xmlns:xlink="http://www.w3.org/1999/xlink">
<g id="graph0" class="graph" transform="scale(1 1) rotate(0) translate(4 256)">
<title>%3</title>
<polygon fill="#242424" stroke="transparent" points="-4,4 -4,-256 1320.5,-256 1320.5,4 -4,4"/>
<!-- cli -->
<g id="node1" class="node">
<title>cli</title>
<polygon fill="#343434" stroke="#343434" points="54,-252 0,-252 0,-216 54,-216 54,-252"/>
<text text-anchor="middle" x="27" y="-230.3" font-family="Courier,monospace" font-size="14.00" fill="#b6ecf3">cli</text>
</g>
<!-- rolling_pin.app -->
<g id="node2" class="node">
<title>rolling_pin.app</title>
<polygon fill="#343434" stroke="#343434" points="317,-36 177,-36 177,0 317,0 317,-36"/>
<text text-anchor="middle" x="247" y="-14.3" font-family="Courier,monospace" font-size="14.00" fill="#b6ecf3">rolling_pin.app</text>
</g>
<!-- rolling_pin.blob_etl -->
<g id="node3" class="node">
<title>rolling_pin.blob_etl</title>
<polygon fill="#343434" stroke="#343434" points="616,-108 434,-108 434,-72 616,-72 616,-108"/>
<text text-anchor="middle" x="525" y="-86.3" font-family="Courier,monospace" font-size="14.00" fill="#b6ecf3">rolling_pin.blob_etl</text>
</g>
<!-- rolling_pin.blob_etl&#45;&gt;rolling_pin.app -->
<g id="edge1" class="edge">
<title>rolling_pin.blob_etl&#45;&gt;rolling_pin.app</title>
<path fill="none" stroke="#b6ecf3" d="M455.2077,-71.9243C416.1294,-61.8033 367.2531,-49.1447 326.6781,-38.6361"/>
<polygon fill="#b6ecf3" stroke="#b6ecf3" points="327.3792,-35.2022 316.821,-36.0831 325.6241,-41.9786 327.3792,-35.2022"/>
</g>
<!-- rolling_pin.radon_etl -->
<g id="node4" class="node">
<title>rolling_pin.radon_etl</title>
<polygon fill="#343434" stroke="#343434" points="1014,-36 824,-36 824,0 1014,0 1014,-36"/>
<text text-anchor="middle" x="919" y="-14.3" font-family="Courier,monospace" font-size="14.00" fill="#b6ecf3">rolling_pin.radon_etl</text>
</g>
<!-- rolling_pin.blob_etl&#45;&gt;rolling_pin.radon_etl -->
<g id="edge2" class="edge">
<title>rolling_pin.blob_etl&#45;&gt;rolling_pin.radon_etl</title>
<path fill="none" stroke="#b6ecf3" d="M616.3818,-73.3008C675.2772,-62.5382 752.0535,-48.508 813.5349,-37.2728"/>
<polygon fill="#b6ecf3" stroke="#b6ecf3" points="814.4471,-40.6642 823.655,-35.4235 813.1887,-33.7782 814.4471,-40.6642"/>
</g>
<!-- rolling_pin.repo_etl -->
<g id="node5" class="node">
<title>rolling_pin.repo_etl</title>
<polygon fill="#343434" stroke="#343434" points="854,-108 672,-108 672,-72 854,-72 854,-108"/>
<text text-anchor="middle" x="763" y="-86.3" font-family="Courier,monospace" font-size="14.00" fill="#b6ecf3">rolling_pin.repo_etl</text>
</g>
<!-- rolling_pin.tools -->
<g id="node6" class="node">
<title>rolling_pin.tools</title>
<polygon fill="#343434" stroke="#343434" points="932.5,-180 775.5,-180 775.5,-144 932.5,-144 932.5,-180"/>
<text text-anchor="middle" x="854" y="-158.3" font-family="Courier,monospace" font-size="14.00" fill="#b6ecf3">rolling_pin.tools</text>
</g>
<!-- rolling_pin.tools&#45;&gt;rolling_pin.blob_etl -->
<g id="edge3" class="edge">
<title>rolling_pin.tools&#45;&gt;rolling_pin.blob_etl</title>
<path fill="none" stroke="#b6ecf3" d="M775.1963,-144.7542C727.7007,-134.36 666.9817,-121.072 617.2543,-110.1894"/>
<polygon fill="#b6ecf3" stroke="#b6ecf3" points="617.9796,-106.7654 607.4625,-108.0465 616.4831,-113.6035 617.9796,-106.7654"/>
</g>
<!-- rolling_pin.tools&#45;&gt;rolling_pin.radon_etl -->
<g id="edge4" class="edge">
<title>rolling_pin.tools&#45;&gt;rolling_pin.radon_etl</title>
<path fill="none" stroke="#b6ecf3" d="M862.2323,-143.7623C873.4655,-118.8764 893.6851,-74.0822 906.7148,-45.2165"/>
<polygon fill="#b6ecf3" stroke="#b6ecf3" points="909.9104,-46.6441 910.8345,-36.0896 903.5302,-43.7641 909.9104,-46.6441"/>
</g>
<!-- rolling_pin.tools&#45;&gt;rolling_pin.repo_etl -->
<g id="edge5" class="edge">
<title>rolling_pin.tools&#45;&gt;rolling_pin.repo_etl</title>
<path fill="none" stroke="#b6ecf3" d="M831.0369,-143.8314C819.8285,-134.9632 806.1791,-124.1637 794.0561,-114.5718"/>
<polygon fill="#b6ecf3" stroke="#b6ecf3" points="795.9697,-111.6229 785.9558,-108.1628 791.6263,-117.1125 795.9697,-111.6229"/>
</g>
<!-- rolling_pin.utils -->
<g id="node7" class="node">
<title>rolling_pin.utils</title>
<polygon fill="#343434" stroke="#343434" points="179.5,-180 22.5,-180 22.5,-144 179.5,-144 179.5,-180"/>
<text text-anchor="middle" x="101" y="-158.3" font-family="Courier,monospace" font-size="14.00" fill="#b6ecf3">rolling_pin.utils</text>
</g>
<!-- rolling_pin.utils&#45;&gt;rolling_pin.app -->
<g id="edge6" class="edge">
<title>rolling_pin.utils&#45;&gt;rolling_pin.app</title>
<path fill="none" stroke="#b6ecf3" d="M114.2787,-143.7199C128.4795,-124.7657 152.1885,-94.7746 176,-72 186.987,-61.4915 199.9885,-51.1015 211.8438,-42.2844"/>
<polygon fill="#b6ecf3" stroke="#b6ecf3" points="214.2157,-44.8863 220.2285,-36.163 210.0881,-39.2327 214.2157,-44.8863"/>
</g>
<!-- rolling_pin.utils&#45;&gt;rolling_pin.repo_etl -->
<g id="edge7" class="edge">
<title>rolling_pin.utils&#45;&gt;rolling_pin.repo_etl</title>
<path fill="none" stroke="#b6ecf3" d="M179.638,-154.5642C282.2022,-144.7128 467.1702,-126.4223 625,-108 636.8117,-106.6213 649.1826,-105.1074 661.4611,-103.5612"/>
<polygon fill="#b6ecf3" stroke="#b6ecf3" points="662.2591,-106.9881 671.7389,-102.2571 661.3779,-100.0438 662.2591,-106.9881"/>
</g>
<!-- flasgger -->
<g id="node8" class="node">
<title>flasgger</title>
<polygon fill="#343434" stroke="#343434" points="377.5,-108 294.5,-108 294.5,-72 377.5,-72 377.5,-108"/>
<text text-anchor="middle" x="336" y="-86.3" font-family="Courier,monospace" font-size="14.00" fill="#de958e">flasgger</text>
</g>
<!-- flasgger&#45;&gt;rolling_pin.app -->
<g id="edge8" class="edge">
<title>flasgger&#45;&gt;rolling_pin.app</title>
<path fill="none" stroke="#de958e" d="M313.5415,-71.8314C302.5795,-62.9632 289.2301,-52.1637 277.3735,-42.5718"/>
<polygon fill="#de958e" stroke="#de958e" points="279.4271,-39.7313 269.4513,-36.1628 275.0245,-45.1734 279.4271,-39.7313"/>
</g>
<!-- rolling_pin -->
<g id="node9" class="node">
<title>rolling_pin</title>
<polygon fill="#343434" stroke="#343434" points="479.5,-252 372.5,-252 372.5,-216 479.5,-216 479.5,-252"/>
<text text-anchor="middle" x="426" y="-230.3" font-family="Courier,monospace" font-size="14.00" fill="#a0d17b">rolling_pin</text>
</g>
<!-- rolling_pin&#45;&gt;rolling_pin.app -->
<g id="edge9" class="edge">
<title>rolling_pin&#45;&gt;rolling_pin.app</title>
<path fill="none" stroke="#a0d17b" d="M372.4996,-219.7767C320.324,-202.7369 243.8853,-168.5957 209,-108 197.1853,-87.4779 209.5603,-62.571 223.254,-44.1661"/>
<polygon fill="#a0d17b" stroke="#a0d17b" points="226.0927,-46.2191 229.5563,-36.2064 220.6047,-41.8738 226.0927,-46.2191"/>
</g>
<!-- rolling_pin&#45;&gt;rolling_pin.blob_etl -->
<g id="edge10" class="edge">
<title>rolling_pin&#45;&gt;rolling_pin.blob_etl</title>
<path fill="none" stroke="#a0d17b" d="M438.5384,-215.7623C455.7962,-190.66 486.9801,-145.3017 506.8039,-116.4671"/>
<polygon fill="#a0d17b" stroke="#a0d17b" points="509.7822,-118.3129 512.5634,-108.0896 504.0139,-114.3472 509.7822,-118.3129"/>
</g>
<!-- rolling_pin&#45;&gt;rolling_pin.radon_etl -->
<g id="edge11" class="edge">
<title>rolling_pin&#45;&gt;rolling_pin.radon_etl</title>
<path fill="none" stroke="#a0d17b" d="M418.994,-215.9675C407.441,-182.8581 389.0437,-112.1009 425,-72 450.4609,-43.6043 676.4351,-28.6724 813.7772,-22.1524"/>
<polygon fill="#a0d17b" stroke="#a0d17b" points="814.0915,-25.6416 823.9172,-21.6786 813.7647,-18.6492 814.0915,-25.6416"/>
</g>
<!-- rolling_pin&#45;&gt;rolling_pin.repo_etl -->
<g id="edge12" class="edge">
<title>rolling_pin&#45;&gt;rolling_pin.repo_etl</title>
<path fill="none" stroke="#a0d17b" d="M479.7387,-227.2821C561.3435,-216.6522 709.0794,-195.5657 728,-180 746.5219,-164.7623 755.2728,-138.4484 759.3892,-118.1967"/>
<polygon fill="#a0d17b" stroke="#a0d17b" points="762.8533,-118.7061 761.1465,-108.2497 755.96,-117.4882 762.8533,-118.7061"/>
</g>
<!-- rolling_pin&#45;&gt;rolling_pin.tools -->
<g id="edge13" class="edge">
<title>rolling_pin&#45;&gt;rolling_pin.tools</title>
<path fill="none" stroke="#a0d17b" d="M479.7561,-225.8664C546.0005,-215.7208 661.9555,-197.5632 761,-180 762.4675,-179.7398 763.9476,-179.4754 765.4376,-179.2076"/>
<polygon fill="#a0d17b" stroke="#a0d17b" points="766.1759,-182.6307 775.3867,-177.3952 764.9213,-175.7441 766.1759,-182.6307"/>
</g>
<!-- rolling_pin&#45;&gt;rolling_pin.utils -->
<g id="edge14" class="edge">
<title>rolling_pin&#45;&gt;rolling_pin.utils</title>
<path fill="none" stroke="#a0d17b" d="M372.3329,-222.1107C322.7373,-211.1233 248.1101,-194.5905 189.6657,-181.6429"/>
<polygon fill="#a0d17b" stroke="#a0d17b" points="190.2132,-178.1794 179.6929,-179.4335 188.6991,-185.0137 190.2132,-178.1794"/>
</g>
<!-- IPython.display -->
<g id="node10" class="node">
<title>IPython.display</title>
<polygon fill="#343434" stroke="#343434" points="924,-252 784,-252 784,-216 924,-216 924,-252"/>
<text text-anchor="middle" x="854" y="-230.3" font-family="Courier,monospace" font-size="14.00" fill="#de958e">IPython.display</text>
</g>
<!-- IPython.display&#45;&gt;rolling_pin.blob_etl -->
<g id="edge15" class="edge">
<title>IPython.display&#45;&gt;rolling_pin.blob_etl</title>
<path fill="none" stroke="#de958e" d="M783.7178,-226.0927C697.0511,-215.6957 559.0379,-196.779 542,-180 525.9619,-164.2056 522.4627,-138.3595 522.5392,-118.4075"/>
<polygon fill="#de958e" stroke="#de958e" points="526.0405,-118.4246 522.875,-108.3138 519.0444,-118.1919 526.0405,-118.4246"/>
</g>
<!-- IPython.display&#45;&gt;rolling_pin.repo_etl -->
<g id="edge16" class="edge">
<title>IPython.display&#45;&gt;rolling_pin.repo_etl</title>
<path fill="none" stroke="#de958e" d="M901.992,-215.9585C917.5962,-207.5363 933.1587,-195.7985 942,-180 949.8137,-166.0377 951.541,-156.844 942,-144 931.694,-130.1261 898.9894,-118.4508 864.3038,-109.5456"/>
<polygon fill="#de958e" stroke="#de958e" points="865.0339,-106.1207 854.4851,-107.1078 863.347,-112.9144 865.0339,-106.1207"/>
</g>
<!-- IPython.display&#45;&gt;rolling_pin.tools -->
<g id="edge17" class="edge">
<title>IPython.display&#45;&gt;rolling_pin.tools</title>
<path fill="none" stroke="#de958e" d="M854,-215.8314C854,-208.131 854,-198.9743 854,-190.4166"/>
<polygon fill="#de958e" stroke="#de958e" points="857.5001,-190.4132 854,-180.4133 850.5001,-190.4133 857.5001,-190.4132"/>
</g>
<!-- networkx -->
<g id="node11" class="node">
<title>networkx</title>
<polygon fill="#343434" stroke="#343434" points="718.5,-180 635.5,-180 635.5,-144 718.5,-144 718.5,-180"/>
<text text-anchor="middle" x="677" y="-158.3" font-family="Courier,monospace" font-size="14.00" fill="#de958e">networkx</text>
</g>
<!-- networkx&#45;&gt;rolling_pin.blob_etl -->
<g id="edge18" class="edge">
<title>networkx&#45;&gt;rolling_pin.blob_etl</title>
<path fill="none" stroke="#de958e" d="M638.644,-143.8314C618.4956,-134.2874 593.6248,-122.5065 572.2917,-112.4013"/>
<polygon fill="#de958e" stroke="#de958e" points="573.6159,-109.1558 563.0802,-108.038 570.6193,-115.482 573.6159,-109.1558"/>
</g>
<!-- networkx&#45;&gt;rolling_pin.repo_etl -->
<g id="edge19" class="edge">
<title>networkx&#45;&gt;rolling_pin.repo_etl</title>
<path fill="none" stroke="#de958e" d="M698.7014,-143.8314C709.1921,-135.0485 721.9455,-124.3712 733.3194,-114.8489"/>
<polygon fill="#de958e" stroke="#de958e" points="735.8847,-117.2659 741.3055,-108.1628 731.3911,-111.8986 735.8847,-117.2659"/>
</g>
<!-- flask -->
<g id="node12" class="node">
<title>flask</title>
<polygon fill="#343434" stroke="#343434" points="276,-108 218,-108 218,-72 276,-72 276,-108"/>
<text text-anchor="middle" x="247" y="-86.3" font-family="Courier,monospace" font-size="14.00" fill="#de958e">flask</text>
</g>
<!-- flask&#45;&gt;rolling_pin.app -->
<g id="edge20" class="edge">
<title>flask&#45;&gt;rolling_pin.app</title>
<path fill="none" stroke="#de958e" d="M247,-71.8314C247,-64.131 247,-54.9743 247,-46.4166"/>
<polygon fill="#de958e" stroke="#de958e" points="250.5001,-46.4132 247,-36.4133 243.5001,-46.4133 250.5001,-46.4132"/>
</g>
<!-- pydot -->
<g id="node13" class="node">
<title>pydot</title>
<polygon fill="#343434" stroke="#343434" points="651,-252 593,-252 593,-216 651,-216 651,-252"/>
<text text-anchor="middle" x="622" y="-230.3" font-family="Courier,monospace" font-size="14.00" fill="#de958e">pydot</text>
</g>
<!-- pydot&#45;&gt;rolling_pin.blob_etl -->
<g id="edge21" class="edge">
<title>pydot&#45;&gt;rolling_pin.blob_etl</title>
<path fill="none" stroke="#de958e" d="M592.7977,-229.0348C565.8261,-222.7322 527.2631,-208.9689 509,-180 497.2522,-161.3657 502.9477,-136.4799 510.6244,-117.5999"/>
<polygon fill="#de958e" stroke="#de958e" points="513.877,-118.8991 514.7375,-108.3393 507.4796,-116.0577 513.877,-118.8991"/>
</g>
<!-- pydot&#45;&gt;rolling_pin.tools -->
<g id="edge22" class="edge">
<title>pydot&#45;&gt;rolling_pin.tools</title>
<path fill="none" stroke="#de958e" d="M651.383,-224.8812C685.1205,-214.4109 741.5689,-196.8924 786.3278,-183.0017"/>
<polygon fill="#de958e" stroke="#de958e" points="787.4648,-186.3136 795.978,-180.0068 785.39,-179.6282 787.4648,-186.3136"/>
</g>
<!-- pandas -->
<g id="node14" class="node">
<title>pandas</title>
<polygon fill="#343434" stroke="#343434" points="617,-180 551,-180 551,-144 617,-144 617,-180"/>
<text text-anchor="middle" x="584" y="-158.3" font-family="Courier,monospace" font-size="14.00" fill="#de958e">pandas</text>
</g>
<!-- pandas&#45;&gt;rolling_pin.blob_etl -->
<g id="edge23" class="edge">
<title>pandas&#45;&gt;rolling_pin.blob_etl</title>
<path fill="none" stroke="#de958e" d="M569.1118,-143.8314C562.247,-135.454 553.9699,-125.3531 546.4489,-116.1749"/>
<polygon fill="#de958e" stroke="#de958e" points="549.1341,-113.9297 540.0886,-108.4133 543.7197,-118.3665 549.1341,-113.9297"/>
</g>
<!-- pandas&#45;&gt;rolling_pin.radon_etl -->
<g id="edge24" class="edge">
<title>pandas&#45;&gt;rolling_pin.radon_etl</title>
<path fill="none" stroke="#de958e" d="M597.6957,-143.8317C615.7891,-120.3113 647.2064,-81.2356 663,-72 688.6683,-56.99 755.0408,-43.2089 813.7691,-33.3257"/>
<polygon fill="#de958e" stroke="#de958e" points="814.5827,-36.7387 823.8755,-31.6501 813.4377,-29.833 814.5827,-36.7387"/>
</g>
<!-- pandas&#45;&gt;rolling_pin.repo_etl -->
<g id="edge25" class="edge">
<title>pandas&#45;&gt;rolling_pin.repo_etl</title>
<path fill="none" stroke="#de958e" d="M617.3094,-147.9852C620.5805,-146.6303 623.8526,-145.2835 627,-144 653.3739,-133.245 682.7322,-121.5528 707.4022,-111.8073"/>
<polygon fill="#de958e" stroke="#de958e" points="708.9432,-114.962 716.9608,-108.036 706.374,-108.4505 708.9432,-114.962"/>
</g>
<!-- wrapt -->
<g id="node15" class="node">
<title>wrapt</title>
<polygon fill="#343434" stroke="#343434" points="130,-252 72,-252 72,-216 130,-216 130,-252"/>
<text text-anchor="middle" x="101" y="-230.3" font-family="Courier,monospace" font-size="14.00" fill="#de958e">wrapt</text>
</g>
<!-- wrapt&#45;&gt;rolling_pin.utils -->
<g id="edge26" class="edge">
<title>wrapt&#45;&gt;rolling_pin.utils</title>
<path fill="none" stroke="#de958e" d="M101,-215.8314C101,-208.131 101,-198.9743 101,-190.4166"/>
<polygon fill="#de958e" stroke="#de958e" points="104.5001,-190.4132 101,-180.4133 97.5001,-190.4133 104.5001,-190.4132"/>
</g>
<!-- cufflinks -->
<g id="node16" class="node">
<title>cufflinks</title>
<polygon fill="#343434" stroke="#343434" points="1001.5,-108 910.5,-108 910.5,-72 1001.5,-72 1001.5,-108"/>
<text text-anchor="middle" x="956" y="-86.3" font-family="Courier,monospace" font-size="14.00" fill="#de958e">cufflinks</text>
</g>
<!-- cufflinks&#45;&gt;rolling_pin.radon_etl -->
<g id="edge27" class="edge">
<title>cufflinks&#45;&gt;rolling_pin.radon_etl</title>
<path fill="none" stroke="#de958e" d="M946.6633,-71.8314C942.5757,-63.8771 937.6896,-54.369 933.1691,-45.5723"/>
<polygon fill="#de958e" stroke="#de958e" points="936.1461,-43.7078 928.4624,-36.4133 929.9201,-46.9074 936.1461,-43.7078"/>
</g>
<!-- numpy -->
<g id="node17" class="node">
<title>numpy</title>
<polygon fill="#343434" stroke="#343434" points="1053,-180 995,-180 995,-144 1053,-144 1053,-180"/>
<text text-anchor="middle" x="1024" y="-158.3" font-family="Courier,monospace" font-size="14.00" fill="#de958e">numpy</text>
</g>
<!-- numpy&#45;&gt;rolling_pin.radon_etl -->
<g id="edge28" class="edge">
<title>numpy&#45;&gt;rolling_pin.radon_etl</title>
<path fill="none" stroke="#de958e" d="M1025.7655,-143.8097C1026.7154,-124.3811 1025.4421,-93.4888 1011,-72 1002.3561,-59.1385 989.5346,-48.9157 976.1896,-40.9808"/>
<polygon fill="#de958e" stroke="#de958e" points="977.8251,-37.8856 967.3832,-36.092 974.4276,-44.0058 977.8251,-37.8856"/>
</g>
<!-- numpy&#45;&gt;rolling_pin.repo_etl -->
<g id="edge29" class="edge">
<title>numpy&#45;&gt;rolling_pin.repo_etl</title>
<path fill="none" stroke="#de958e" d="M994.8888,-150.7491C988.3858,-148.392 981.492,-146.0134 975,-144 935.0395,-131.6068 890.2157,-119.8807 852.1129,-110.5423"/>
<polygon fill="#de958e" stroke="#de958e" points="852.6114,-107.0615 842.0673,-108.0972 850.9559,-113.863 852.6114,-107.0615"/>
</g>
<!-- radon.cli -->
<g id="node18" class="node">
<title>radon.cli</title>
<polygon fill="#343434" stroke="#343434" points="1149.5,-108 1058.5,-108 1058.5,-72 1149.5,-72 1149.5,-108"/>
<text text-anchor="middle" x="1104" y="-86.3" font-family="Courier,monospace" font-size="14.00" fill="#de958e">radon.cli</text>
</g>
<!-- radon.cli&#45;&gt;rolling_pin.radon_etl -->
<g id="edge30" class="edge">
<title>radon.cli&#45;&gt;rolling_pin.radon_etl</title>
<path fill="none" stroke="#de958e" d="M1058.2697,-72.2022C1033.1114,-62.4109 1001.6892,-50.1817 975.0619,-39.8187"/>
<polygon fill="#de958e" stroke="#de958e" points="976.0778,-36.4584 965.4893,-36.0931 973.5389,-42.9818 976.0778,-36.4584"/>
</g>
<!-- radon.complexity -->
<g id="node19" class="node">
<title>radon.complexity</title>
<polygon fill="#343434" stroke="#343434" points="1316.5,-108 1167.5,-108 1167.5,-72 1316.5,-72 1316.5,-108"/>
<text text-anchor="middle" x="1242" y="-86.3" font-family="Courier,monospace" font-size="14.00" fill="#de958e">radon.complexity</text>
</g>
<!-- radon.complexity&#45;&gt;rolling_pin.radon_etl -->
<g id="edge31" class="edge">
<title>radon.complexity&#45;&gt;rolling_pin.radon_etl</title>
<path fill="none" stroke="#de958e" d="M1167.4917,-73.3913C1120.5072,-62.918 1059.5211,-49.3236 1009.7253,-38.2236"/>
<polygon fill="#de958e" stroke="#de958e" points="1010.4448,-34.7982 999.9229,-36.0385 1008.9218,-41.6305 1010.4448,-34.7982"/>
</g>
</g>
</svg>
