<?xml version="1.0" encoding="UTF-8" standalone="no"?>
<!DOCTYPE svg PUBLIC "-//W3C//DTD SVG 1.1//EN"
 "http://www.w3.org/Graphics/SVG/1.1/DTD/svg11.dtd">
<!-- Generated by graphviz version 2.40.1 (20161225.0304)
 -->
<!-- Title: %3 Pages: 1 -->
<svg width="686pt" height="188pt"
 viewBox="0.00 0.00 686.04 188.00" xmlns="http://www.w3.org/2000/svg" xmlns:xlink="http://www.w3.org/1999/xlink">
<g id="graph0" class="graph" transform="scale(1 1) rotate(0) translate(4 184)">
<title>%3</title>
<polygon fill="#242424" stroke="transparent" points="-4,4 -4,-184 682.045,-184 682.045,4 -4,4"/>
<!-- cli -->
<g id="node1" class="node">
<title>cli</title>
<polygon fill="#343434" stroke="#343434" points="54,-180 0,-180 0,-144 54,-144 54,-180"/>
<text text-anchor="middle" x="27" y="-158.3" font-family="Courier,monospace" font-size="14.00" fill="#b6ecf3">cli</text>
</g>
<!-- rolling_pin.blob_etl -->
<g id="node2" class="node">
<title>rolling_pin.blob_etl</title>
<polygon fill="#343434" stroke="#343434" points="233,-36 51,-36 51,0 233,0 233,-36"/>
<text text-anchor="middle" x="142" y="-14.3" font-family="Courier,monospace" font-size="14.00" fill="#b6ecf3">rolling_pin.blob_etl</text>
</g>
<!-- rolling_pin.repo_etl -->
<g id="node3" class="node">
<title>rolling_pin.repo_etl</title>
<polygon fill="#343434" stroke="#343434" points="529,-36 347,-36 347,0 529,0 529,-36"/>
<text text-anchor="middle" x="438" y="-14.3" font-family="Courier,monospace" font-size="14.00" fill="#b6ecf3">rolling_pin.repo_etl</text>
</g>
<!-- rolling_pin.tools -->
<g id="node4" class="node">
<title>rolling_pin.tools</title>
<polygon fill="#343434" stroke="#343434" points="220.5,-108 63.5,-108 63.5,-72 220.5,-72 220.5,-108"/>
<text text-anchor="middle" x="142" y="-86.3" font-family="Courier,monospace" font-size="14.00" fill="#b6ecf3">rolling_pin.tools</text>
</g>
<!-- rolling_pin.tools&#45;&gt;rolling_pin.blob_etl -->
<g id="edge1" class="edge">
<title>rolling_pin.tools&#45;&gt;rolling_pin.blob_etl</title>
<path fill="none" stroke="#b6ecf3" d="M142,-71.8314C142,-64.131 142,-54.9743 142,-46.4166"/>
<polygon fill="#b6ecf3" stroke="#b6ecf3" points="145.5001,-46.4132 142,-36.4133 138.5001,-46.4133 145.5001,-46.4132"/>
</g>
<!-- rolling_pin.tools&#45;&gt;rolling_pin.repo_etl -->
<g id="edge2" class="edge">
<title>rolling_pin.tools&#45;&gt;rolling_pin.repo_etl</title>
<path fill="none" stroke="#b6ecf3" d="M216.3112,-71.9243C258.1751,-61.7412 310.5999,-48.9892 353.9573,-38.4428"/>
<polygon fill="#b6ecf3" stroke="#b6ecf3" points="355.0255,-41.7851 363.915,-36.0207 353.371,-34.9834 355.0255,-41.7851"/>
</g>
<!-- rolling_pin.utils -->
<g id="node5" class="node">
<title>rolling_pin.utils</title>
<polygon fill="#343434" stroke="#343434" points="581.5,-108 424.5,-108 424.5,-72 581.5,-72 581.5,-108"/>
<text text-anchor="middle" x="503" y="-86.3" font-family="Courier,monospace" font-size="14.00" fill="#b6ecf3">rolling_pin.utils</text>
</g>
<!-- rolling_pin.utils&#45;&gt;rolling_pin.repo_etl -->
<g id="edge3" class="edge">
<title>rolling_pin.utils&#45;&gt;rolling_pin.repo_etl</title>
<path fill="none" stroke="#b6ecf3" d="M486.5978,-71.8314C478.9585,-63.3694 469.7317,-53.1489 461.3793,-43.8971"/>
<polygon fill="#b6ecf3" stroke="#b6ecf3" points="463.9221,-41.4906 454.6231,-36.4133 458.7262,-46.1813 463.9221,-41.4906"/>
</g>
<!-- IPython.display -->
<g id="node6" class="node">
<title>IPython.display</title>
<polygon fill="#343434" stroke="#343434" points="212,-180 72,-180 72,-144 212,-144 212,-180"/>
<text text-anchor="middle" x="142" y="-158.3" font-family="Courier,monospace" font-size="14.00" fill="#de958e">IPython.display</text>
</g>
<!-- IPython.display&#45;&gt;rolling_pin.tools -->
<g id="edge4" class="edge">
<title>IPython.display&#45;&gt;rolling_pin.tools</title>
<path fill="none" stroke="#de958e" d="M142,-143.8314C142,-136.131 142,-126.9743 142,-118.4166"/>
<polygon fill="#de958e" stroke="#de958e" points="145.5001,-118.4132 142,-108.4133 138.5001,-118.4133 145.5001,-118.4132"/>
</g>
<!-- networkx -->
<g id="node7" class="node">
<title>networkx</title>
<polygon fill="#343434" stroke="#343434" points="321.5,-108 238.5,-108 238.5,-72 321.5,-72 321.5,-108"/>
<text text-anchor="middle" x="280" y="-86.3" font-family="Courier,monospace" font-size="14.00" fill="#de958e">networkx</text>
</g>
<!-- networkx&#45;&gt;rolling_pin.blob_etl -->
<g id="edge5" class="edge">
<title>networkx&#45;&gt;rolling_pin.blob_etl</title>
<path fill="none" stroke="#de958e" d="M245.1768,-71.8314C227.1989,-62.4516 205.0797,-50.9112 185.9384,-40.9244"/>
<polygon fill="#de958e" stroke="#de958e" points="187.2969,-37.6855 176.8121,-36.1628 184.0589,-43.8916 187.2969,-37.6855"/>
</g>
<!-- networkx&#45;&gt;rolling_pin.repo_etl -->
<g id="edge6" class="edge">
<title>networkx&#45;&gt;rolling_pin.repo_etl</title>
<path fill="none" stroke="#de958e" d="M319.8701,-71.8314C340.9077,-62.2446 366.8983,-50.4008 389.1396,-40.2655"/>
<polygon fill="#de958e" stroke="#de958e" points="390.7683,-43.3697 398.4166,-36.038 387.8655,-36.9999 390.7683,-43.3697"/>
</g>
<!-- rolling_pin -->
<g id="node8" class="node">
<title>rolling_pin</title>
<polygon fill="#343434" stroke="#343434" points="446.5,-180 339.5,-180 339.5,-144 446.5,-144 446.5,-180"/>
<text text-anchor="middle" x="393" y="-158.3" font-family="Courier,monospace" font-size="14.00" fill="#a0d17b">rolling_pin</text>
</g>
<!-- rolling_pin&#45;&gt;rolling_pin.blob_etl -->
<g id="edge7" class="edge">
<title>rolling_pin&#45;&gt;rolling_pin.blob_etl</title>
<path fill="none" stroke="#a0d17b" d="M339.2212,-155.277C245.9529,-143.3618 63.1997,-118.7811 54,-108 43.6142,-95.8289 46.1863,-85.9623 54,-72 61.1835,-59.1638 72.8042,-49.0081 85.2791,-41.1336"/>
<polygon fill="#a0d17b" stroke="#a0d17b" points="87.1339,-44.1036 94.008,-36.0415 83.6067,-38.0572 87.1339,-44.1036"/>
</g>
<!-- rolling_pin&#45;&gt;rolling_pin.repo_etl -->
<g id="edge8" class="edge">
<title>rolling_pin&#45;&gt;rolling_pin.repo_etl</title>
<path fill="none" stroke="#a0d17b" d="M446.7823,-159.2575C518.516,-154.3449 639.6728,-141.2385 667,-108 708.5604,-57.4495 618.3701,-35.1702 539.2325,-25.4285"/>
<polygon fill="#a0d17b" stroke="#a0d17b" points="539.4898,-21.9348 529.1502,-24.2461 538.6744,-28.8872 539.4898,-21.9348"/>
</g>
<!-- rolling_pin&#45;&gt;rolling_pin.tools -->
<g id="edge9" class="edge">
<title>rolling_pin&#45;&gt;rolling_pin.tools</title>
<path fill="none" stroke="#a0d17b" d="M339.4621,-146.6425C303.0175,-136.1883 254.3443,-122.2263 214.4419,-110.7801"/>
<polygon fill="#a0d17b" stroke="#a0d17b" points="215.3398,-107.3966 204.7624,-108.0036 213.4097,-114.1253 215.3398,-107.3966"/>
</g>
<!-- rolling_pin&#45;&gt;rolling_pin.utils -->
<g id="edge10" class="edge">
<title>rolling_pin&#45;&gt;rolling_pin.utils</title>
<path fill="none" stroke="#a0d17b" d="M420.7576,-143.8314C434.697,-134.7074 451.7598,-123.539 466.7231,-113.7449"/>
<polygon fill="#a0d17b" stroke="#a0d17b" points="468.801,-116.5679 475.2512,-108.1628 464.9674,-110.711 468.801,-116.5679"/>
</g>
<!-- numpy -->
<g id="node9" class="node">
<title>numpy</title>
<polygon fill="#343434" stroke="#343434" points="658,-108 600,-108 600,-72 658,-72 658,-108"/>
<text text-anchor="middle" x="629" y="-86.3" font-family="Courier,monospace" font-size="14.00" fill="#de958e">numpy</text>
</g>
<!-- numpy&#45;&gt;rolling_pin.repo_etl -->
<g id="edge11" class="edge">
<title>numpy&#45;&gt;rolling_pin.repo_etl</title>
<path fill="none" stroke="#de958e" d="M599.6756,-75.7431C596.7622,-74.4373 593.8348,-73.168 591,-72 562.4607,-60.241 530.3204,-48.6547 502.891,-39.2477"/>
<polygon fill="#de958e" stroke="#de958e" points="503.9934,-35.9259 493.399,-36.0146 501.7364,-42.552 503.9934,-35.9259"/>
</g>
<!-- pandas -->
<g id="node10" class="node">
<title>pandas</title>
<polygon fill="#343434" stroke="#343434" points="406,-108 340,-108 340,-72 406,-72 406,-108"/>
<text text-anchor="middle" x="373" y="-86.3" font-family="Courier,monospace" font-size="14.00" fill="#de958e">pandas</text>
</g>
<!-- pandas&#45;&gt;rolling_pin.repo_etl -->
<g id="edge12" class="edge">
<title>pandas&#45;&gt;rolling_pin.repo_etl</title>
<path fill="none" stroke="#de958e" d="M389.4022,-71.8314C397.0415,-63.3694 406.2683,-53.1489 414.6207,-43.8971"/>
<polygon fill="#de958e" stroke="#de958e" points="417.2738,-46.1813 421.3769,-36.4133 412.0779,-41.4906 417.2738,-46.1813"/>
</g>
</g>
</svg>
