<?xml version="1.0" encoding="UTF-8" standalone="no"?>
<!DOCTYPE svg PUBLIC "-//W3C//DTD SVG 1.1//EN"
 "http://www.w3.org/Graphics/SVG/1.1/DTD/svg11.dtd">
<!-- Generated by graphviz version 2.40.1 (20161225.0304)
 -->
<!-- Title: %3 Pages: 1 -->
<svg width="1143pt" height="879pt"
 viewBox="0.00 0.00 1143.00 878.72" xmlns="http://www.w3.org/2000/svg" xmlns:xlink="http://www.w3.org/1999/xlink">
<g id="graph0" class="graph" transform="scale(1 1) rotate(0) translate(4 874.7168)">
<title>%3</title>
<polygon fill="#242424" stroke="transparent" points="-4,4 -4,-874.7168 1139,-874.7168 1139,4 -4,4"/>
<!-- cli -->
<g id="node1" class="node">
<title>cli</title>
<polygon fill="#343434" stroke="#343434" points="122,-365.3926 68,-365.3926 68,-329.3926 122,-329.3926 122,-365.3926"/>
<text text-anchor="middle" x="95" y="-343.6926" font-family="Courier,monospace" font-size="14.00" fill="#b6ecf3">cli</text>
</g>
<!-- rolling_pin.blob_etl -->
<g id="node2" class="node">
<title>rolling_pin.blob_etl</title>
<polygon fill="#343434" stroke="#343434" points="675,-373.3926 493,-373.3926 493,-337.3926 675,-337.3926 675,-373.3926"/>
<text text-anchor="middle" x="584" y="-351.6926" font-family="Courier,monospace" font-size="14.00" fill="#b6ecf3">rolling_pin.blob_etl</text>
</g>
<!-- rolling_pin.conform_etl -->
<g id="node4" class="node">
<title>rolling_pin.conform_etl</title>
<polygon fill="#343434" stroke="#343434" points="917,-660.3926 711,-660.3926 711,-624.3926 917,-624.3926 917,-660.3926"/>
<text text-anchor="middle" x="814" y="-638.6926" font-family="Courier,monospace" font-size="14.00" fill="#b6ecf3">rolling_pin.conform_etl</text>
</g>
<!-- rolling_pin.blob_etl&#45;&gt;rolling_pin.conform_etl -->
<g id="edge1" class="edge">
<title>rolling_pin.blob_etl&#45;&gt;rolling_pin.conform_etl</title>
<path fill="none" stroke="#b6ecf3" d="M615.4345,-373.5016C634.1506,-385.2831 657.571,-401.8696 675,-420.3926 732.7961,-481.8165 779.807,-570.7655 801.3231,-615.114"/>
<polygon fill="#b6ecf3" stroke="#b6ecf3" points="798.2847,-616.8727 805.7611,-624.3797 804.5979,-613.8489 798.2847,-616.8727"/>
</g>
<!-- rolling_pin.radon_etl -->
<g id="node5" class="node">
<title>rolling_pin.radon_etl</title>
<polygon fill="#343434" stroke="#343434" points="909,-327.3926 719,-327.3926 719,-291.3926 909,-291.3926 909,-327.3926"/>
<text text-anchor="middle" x="814" y="-305.6926" font-family="Courier,monospace" font-size="14.00" fill="#b6ecf3">rolling_pin.radon_etl</text>
</g>
<!-- rolling_pin.blob_etl&#45;&gt;rolling_pin.radon_etl -->
<g id="edge2" class="edge">
<title>rolling_pin.blob_etl&#45;&gt;rolling_pin.radon_etl</title>
<path fill="none" stroke="#b6ecf3" d="M674.242,-337.3442C687.1791,-334.7568 700.555,-332.0816 713.6721,-329.4582"/>
<polygon fill="#b6ecf3" stroke="#b6ecf3" points="714.5214,-332.8577 723.6408,-327.4644 713.1485,-325.9936 714.5214,-332.8577"/>
</g>
<!-- rolling_pin.conform_config -->
<g id="node3" class="node">
<title>rolling_pin.conform_config</title>
<polygon fill="#343434" stroke="#343434" points="457,-764.3926 226,-764.3926 226,-728.3926 457,-728.3926 457,-764.3926"/>
<text text-anchor="middle" x="341.5" y="-742.6926" font-family="Courier,monospace" font-size="14.00" fill="#b6ecf3">rolling_pin.conform_config</text>
</g>
<!-- rolling_pin.conform_config&#45;&gt;rolling_pin.conform_etl -->
<g id="edge3" class="edge">
<title>rolling_pin.conform_config&#45;&gt;rolling_pin.conform_etl</title>
<path fill="none" stroke="#b6ecf3" d="M457.2177,-757.453C522.6353,-759.9776 605.0727,-756.8169 675,-734.3926 717.954,-720.618 760.133,-689.5094 786.556,-667.2825"/>
<polygon fill="#b6ecf3" stroke="#b6ecf3" points="788.9209,-669.8652 794.2337,-660.6987 784.3642,-664.5513 788.9209,-669.8652"/>
</g>
<!-- rolling_pin.repo_etl -->
<g id="node6" class="node">
<title>rolling_pin.repo_etl</title>
<polygon fill="#343434" stroke="#343434" points="1135,-373.3926 953,-373.3926 953,-337.3926 1135,-337.3926 1135,-373.3926"/>
<text text-anchor="middle" x="1044" y="-351.6926" font-family="Courier,monospace" font-size="14.00" fill="#b6ecf3">rolling_pin.repo_etl</text>
</g>
<!-- rolling_pin.radon_etl&#45;&gt;rolling_pin.repo_etl -->
<g id="edge4" class="edge">
<title>rolling_pin.radon_etl&#45;&gt;rolling_pin.repo_etl</title>
<path fill="none" stroke="#b6ecf3" d="M904.242,-327.441C917.1791,-330.0284 930.555,-332.7036 943.6721,-335.327"/>
<polygon fill="#b6ecf3" stroke="#b6ecf3" points="943.1485,-338.7915 953.6408,-337.3207 944.5214,-331.9275 943.1485,-338.7915"/>
</g>
<!-- rolling_pin.tools -->
<g id="node7" class="node">
<title>rolling_pin.tools</title>
<polygon fill="#343434" stroke="#343434" points="420,-632.3926 263,-632.3926 263,-596.3926 420,-596.3926 420,-632.3926"/>
<text text-anchor="middle" x="341.5" y="-610.6926" font-family="Courier,monospace" font-size="14.00" fill="#b6ecf3">rolling_pin.tools</text>
</g>
<!-- rolling_pin.tools&#45;&gt;rolling_pin.blob_etl -->
<g id="edge5" class="edge">
<title>rolling_pin.tools&#45;&gt;rolling_pin.blob_etl</title>
<path fill="none" stroke="#b6ecf3" d="M420.2358,-605.2719C434.0689,-600.3929 447.1623,-593.1334 457,-582.3926 516.5259,-517.402 435.7132,-454.3652 493,-387.3926 495.4867,-384.4854 498.2542,-381.8423 501.2327,-379.4392"/>
<polygon fill="#b6ecf3" stroke="#b6ecf3" points="503.3669,-382.2177 509.5612,-373.6223 499.3587,-376.4789 503.3669,-382.2177"/>
</g>
<!-- rolling_pin.tools&#45;&gt;rolling_pin.conform_etl -->
<g id="edge6" class="edge">
<title>rolling_pin.tools&#45;&gt;rolling_pin.conform_etl</title>
<path fill="none" stroke="#b6ecf3" d="M420.0542,-619.0476C496.6643,-623.5875 613.9902,-630.5401 700.692,-635.678"/>
<polygon fill="#b6ecf3" stroke="#b6ecf3" points="700.6526,-639.1817 710.8422,-636.2795 701.0668,-632.194 700.6526,-639.1817"/>
</g>
<!-- rolling_pin.tools&#45;&gt;rolling_pin.radon_etl -->
<g id="edge7" class="edge">
<title>rolling_pin.tools&#45;&gt;rolling_pin.radon_etl</title>
<path fill="none" stroke="#b6ecf3" d="M381.7625,-596.3834C406.7275,-583.3143 437.6257,-563.3792 457,-537.3926 489.5191,-493.7749 452.7887,-457.0403 493,-420.3926 554.0741,-364.731 597.2278,-410.3164 675,-382.3926 710.9557,-369.4828 749.2049,-348.8278 776.4588,-332.778"/>
<polygon fill="#b6ecf3" stroke="#b6ecf3" points="778.4644,-335.6571 785.2608,-327.5294 774.8793,-329.6449 778.4644,-335.6571"/>
</g>
<!-- rolling_pin.tools&#45;&gt;rolling_pin.repo_etl -->
<g id="edge8" class="edge">
<title>rolling_pin.tools&#45;&gt;rolling_pin.repo_etl</title>
<path fill="none" stroke="#b6ecf3" d="M381.6091,-596.2645C411.9171,-582.8567 454.701,-564.5456 493,-550.3926 678.5048,-481.8412 732.9631,-487.7925 917,-415.3926 945.0466,-404.3591 975.6138,-389.9942 999.7305,-378.0864"/>
<polygon fill="#b6ecf3" stroke="#b6ecf3" points="1001.5788,-381.0761 1008.9725,-373.4878 998.4604,-374.8091 1001.5788,-381.0761"/>
</g>
<!-- IPython.display -->
<g id="node8" class="node">
<title>IPython.display</title>
<polygon fill="#343434" stroke="#343434" points="165,-848.3926 25,-848.3926 25,-812.3926 165,-812.3926 165,-848.3926"/>
<text text-anchor="middle" x="95" y="-826.6926" font-family="Courier,monospace" font-size="14.00" fill="#de958e">IPython.display</text>
</g>
<!-- IPython.display&#45;&gt;rolling_pin.blob_etl -->
<g id="edge9" class="edge">
<title>IPython.display&#45;&gt;rolling_pin.blob_etl</title>
<path fill="none" stroke="#de958e" d="M165.3395,-821.5467C267.7888,-808.3452 447.0346,-783.9169 457,-773.3926 511.2152,-716.1366 453.4044,-488.5814 493,-420.3926 502.9535,-403.2514 519.441,-389.4443 535.668,-379.0381"/>
<polygon fill="#de958e" stroke="#de958e" points="537.8815,-381.7888 544.613,-373.6073 534.2486,-375.8053 537.8815,-381.7888"/>
</g>
<!-- IPython.display&#45;&gt;rolling_pin.conform_etl -->
<g id="edge10" class="edge">
<title>IPython.display&#45;&gt;rolling_pin.conform_etl</title>
<path fill="none" stroke="#de958e" d="M165.2112,-836.1094C278.6416,-842.3139 506.5019,-842.0388 675,-759.3926 721.3956,-736.6361 765.3353,-695.0896 790.9615,-668.1222"/>
<polygon fill="#de958e" stroke="#de958e" points="793.7268,-670.2894 797.9998,-660.5944 788.6136,-665.5086 793.7268,-670.2894"/>
</g>
<!-- IPython.display&#45;&gt;rolling_pin.repo_etl -->
<g id="edge11" class="edge">
<title>IPython.display&#45;&gt;rolling_pin.repo_etl</title>
<path fill="none" stroke="#de958e" d="M165.153,-845.1546C324.0329,-874.0647 713.3152,-918.6871 917,-713.3926 1010.9374,-618.7127 1035.7145,-450.1975 1041.9782,-383.5978"/>
<polygon fill="#de958e" stroke="#de958e" points="1045.4808,-383.7187 1042.8609,-373.4529 1038.5071,-383.1118 1045.4808,-383.7187"/>
</g>
<!-- IPython.display&#45;&gt;rolling_pin.tools -->
<g id="edge12" class="edge">
<title>IPython.display&#45;&gt;rolling_pin.tools</title>
<path fill="none" stroke="#de958e" d="M165.1495,-818.3149C174.1887,-814.5931 182.7902,-809.7341 190,-803.3926 220.4987,-776.5671 202.435,-752.4753 226,-719.3926 248.6009,-687.6633 282.2381,-658.4601 307.391,-638.9506"/>
<polygon fill="#de958e" stroke="#de958e" points="309.7375,-641.5628 315.5677,-632.7163 305.4933,-635.9962 309.7375,-641.5628"/>
</g>
<!-- cufflinks -->
<g id="node9" class="node">
<title>cufflinks</title>
<polygon fill="#343434" stroke="#343434" points="629.5,-281.3926 538.5,-281.3926 538.5,-245.3926 629.5,-245.3926 629.5,-281.3926"/>
<text text-anchor="middle" x="584" y="-259.6926" font-family="Courier,monospace" font-size="14.00" fill="#de958e">cufflinks</text>
</g>
<!-- cufflinks&#45;&gt;rolling_pin.radon_etl -->
<g id="edge13" class="edge">
<title>cufflinks&#45;&gt;rolling_pin.radon_etl</title>
<path fill="none" stroke="#de958e" d="M629.7156,-272.5357C653.8442,-277.3614 684.4603,-283.4846 713.7742,-289.3474"/>
<polygon fill="#de958e" stroke="#de958e" points="713.1621,-292.7942 723.6543,-291.3234 714.5349,-285.9302 713.1621,-292.7942"/>
</g>
<!-- rolling_pin -->
<g id="node10" class="node">
<title>rolling_pin</title>
<polygon fill="#343434" stroke="#343434" points="148.5,-632.3926 41.5,-632.3926 41.5,-596.3926 148.5,-596.3926 148.5,-632.3926"/>
<text text-anchor="middle" x="95" y="-610.6926" font-family="Courier,monospace" font-size="14.00" fill="#a0d17b">rolling_pin</text>
</g>
<!-- rolling_pin&#45;&gt;rolling_pin.blob_etl -->
<g id="edge14" class="edge">
<title>rolling_pin&#45;&gt;rolling_pin.blob_etl</title>
<path fill="none" stroke="#a0d17b" d="M148.6417,-604.6699C225.7686,-588.1655 368.4309,-547.8777 457,-463.3926 484.0447,-437.5949 465.2306,-412.4085 493,-387.3926 496.62,-384.1315 500.5926,-381.1983 504.7908,-378.5606"/>
<polygon fill="#a0d17b" stroke="#a0d17b" points="506.6892,-381.5084 513.6844,-373.5511 503.2538,-375.4094 506.6892,-381.5084"/>
</g>
<!-- rolling_pin&#45;&gt;rolling_pin.conform_config -->
<g id="edge15" class="edge">
<title>rolling_pin&#45;&gt;rolling_pin.conform_config</title>
<path fill="none" stroke="#a0d17b" d="M148.5712,-621.3989C163.2232,-625.3827 178.2772,-631.6228 190,-641.3926 217.7897,-664.5524 198.1337,-691.325 226,-714.3926 230.1022,-717.7884 234.5387,-720.8251 239.2015,-723.5404"/>
<polygon fill="#a0d17b" stroke="#a0d17b" points="237.9377,-726.8298 248.419,-728.3762 241.1897,-720.631 237.9377,-726.8298"/>
</g>
<!-- rolling_pin&#45;&gt;rolling_pin.conform_etl -->
<g id="edge16" class="edge">
<title>rolling_pin&#45;&gt;rolling_pin.conform_etl</title>
<path fill="none" stroke="#a0d17b" d="M148.7974,-628.0031C172.3291,-633.2997 200.3625,-638.7295 226,-641.3926 390.3949,-658.469 582.0408,-654.3456 700.7123,-649.0075"/>
<polygon fill="#a0d17b" stroke="#a0d17b" points="701.0718,-652.4947 710.9001,-648.5381 700.7496,-645.5021 701.0718,-652.4947"/>
</g>
<!-- rolling_pin&#45;&gt;rolling_pin.radon_etl -->
<g id="edge17" class="edge">
<title>rolling_pin&#45;&gt;rolling_pin.radon_etl</title>
<path fill="none" stroke="#a0d17b" d="M148.6483,-601.4276C164.1994,-595.1276 179.7346,-585.8818 190,-572.3926 256.3837,-485.1607 144.1915,-401.3554 226,-328.3926 261.0327,-297.1479 548.9792,-300.9798 708.5285,-305.6227"/>
<polygon fill="#a0d17b" stroke="#a0d17b" points="708.7485,-309.1307 718.848,-305.9294 708.9564,-302.1338 708.7485,-309.1307"/>
</g>
<!-- rolling_pin&#45;&gt;rolling_pin.repo_etl -->
<g id="edge18" class="edge">
<title>rolling_pin&#45;&gt;rolling_pin.repo_etl</title>
<path fill="none" stroke="#a0d17b" d="M148.9953,-627.4122C162.5901,-631.3205 177.0066,-636.0211 190,-641.3926 206.915,-648.3852 208.979,-654.6622 226,-661.3926 324.4373,-700.3162 356.5334,-686.0551 457,-719.3926 473.4513,-724.8515 476.0033,-730.9932 493,-734.3926 572.3181,-750.2562 594.8063,-744.9749 675,-734.3926 785.4106,-719.8229 833.599,-743.1967 917,-669.3926 1004.6553,-591.8237 1032.7796,-445.048 1040.9549,-383.5819"/>
<polygon fill="#a0d17b" stroke="#a0d17b" points="1044.4519,-383.8235 1042.2203,-373.4664 1037.506,-382.9546 1044.4519,-383.8235"/>
</g>
<!-- rolling_pin&#45;&gt;rolling_pin.tools -->
<g id="edge19" class="edge">
<title>rolling_pin&#45;&gt;rolling_pin.tools</title>
<path fill="none" stroke="#a0d17b" d="M148.7909,-614.3926C179.0901,-614.3926 217.7047,-614.3926 252.3996,-614.3926"/>
<polygon fill="#a0d17b" stroke="#a0d17b" points="252.5478,-617.8927 262.5478,-614.3926 252.5477,-610.8927 252.5478,-617.8927"/>
</g>
<!-- lunchbox.tools -->
<g id="node11" class="node">
<title>lunchbox.tools</title>
<polygon fill="#343434" stroke="#343434" points="407.5,-373.3926 275.5,-373.3926 275.5,-337.3926 407.5,-337.3926 407.5,-373.3926"/>
<text text-anchor="middle" x="341.5" y="-351.6926" font-family="Courier,monospace" font-size="14.00" fill="#de958e">lunchbox.tools</text>
</g>
<!-- lunchbox.tools&#45;&gt;rolling_pin.blob_etl -->
<g id="edge20" class="edge">
<title>lunchbox.tools&#45;&gt;rolling_pin.blob_etl</title>
<path fill="none" stroke="#de958e" d="M407.7642,-355.3926C430.9148,-355.3926 457.4585,-355.3926 482.8002,-355.3926"/>
<polygon fill="#de958e" stroke="#de958e" points="482.8178,-358.8927 492.8178,-355.3926 482.8178,-351.8927 482.8178,-358.8927"/>
</g>
<!-- lunchbox.tools&#45;&gt;rolling_pin.repo_etl -->
<g id="edge21" class="edge">
<title>lunchbox.tools&#45;&gt;rolling_pin.repo_etl</title>
<path fill="none" stroke="#de958e" d="M364.6186,-337.1425C390.4856,-315.6018 432.0284,-277.4799 457,-236.3926 483.2782,-193.1554 451.954,-157.9768 493,-128.3926 558.6205,-81.096 597.167,-106.3689 675,-128.3926 817.0442,-168.5855 958.1794,-280.5768 1016.3073,-330.6496"/>
<polygon fill="#de958e" stroke="#de958e" points="1014.1058,-333.3733 1023.95,-337.2902 1018.697,-328.0893 1014.1058,-333.3733"/>
</g>
<!-- networkx -->
<g id="node12" class="node">
<title>networkx</title>
<polygon fill="#343434" stroke="#343434" points="383,-227.3926 300,-227.3926 300,-191.3926 383,-191.3926 383,-227.3926"/>
<text text-anchor="middle" x="341.5" y="-205.6926" font-family="Courier,monospace" font-size="14.00" fill="#de958e">networkx</text>
</g>
<!-- networkx&#45;&gt;rolling_pin.blob_etl -->
<g id="edge22" class="edge">
<title>networkx&#45;&gt;rolling_pin.blob_etl</title>
<path fill="none" stroke="#de958e" d="M371.7225,-227.5884C415.5886,-253.9985 496.9141,-302.9615 545.1695,-332.0142"/>
<polygon fill="#de958e" stroke="#de958e" points="543.406,-335.0379 553.7785,-337.1974 547.0166,-329.0409 543.406,-335.0379"/>
</g>
<!-- networkx&#45;&gt;rolling_pin.repo_etl -->
<g id="edge23" class="edge">
<title>networkx&#45;&gt;rolling_pin.repo_etl</title>
<path fill="none" stroke="#de958e" d="M358.4476,-191.1182C384.3997,-164.6324 436.9079,-116.7422 493,-98.3926 672.8605,-39.5543 760.978,-30.2996 917,-137.3926 985.1292,-184.1562 1021.8155,-280.388 1036.4022,-327.7809"/>
<polygon fill="#de958e" stroke="#de958e" points="1033.0534,-328.799 1039.2599,-337.3857 1039.7627,-326.8028 1033.0534,-328.799"/>
</g>
<!-- pandas -->
<g id="node13" class="node">
<title>pandas</title>
<polygon fill="#343434" stroke="#343434" points="128,-419.3926 62,-419.3926 62,-383.3926 128,-383.3926 128,-419.3926"/>
<text text-anchor="middle" x="95" y="-397.6926" font-family="Courier,monospace" font-size="14.00" fill="#de958e">pandas</text>
</g>
<!-- pandas&#45;&gt;rolling_pin.blob_etl -->
<g id="edge24" class="edge">
<title>pandas&#45;&gt;rolling_pin.blob_etl</title>
<path fill="none" stroke="#de958e" d="M128.101,-401.3886C191.9782,-400.9983 336.578,-398.2537 457,-382.3926 470.5775,-380.6042 484.8633,-378.1441 498.7566,-375.4317"/>
<polygon fill="#de958e" stroke="#de958e" points="499.6723,-378.8177 508.7879,-373.418 498.2946,-371.9546 499.6723,-378.8177"/>
</g>
<!-- pandas&#45;&gt;rolling_pin.conform_etl -->
<g id="edge25" class="edge">
<title>pandas&#45;&gt;rolling_pin.conform_etl</title>
<path fill="none" stroke="#de958e" d="M128.0089,-405.9313C218.6248,-419.211 477.6163,-462.7037 675,-550.3926 715.2649,-568.2805 756.8009,-597.432 783.8543,-618.1225"/>
<polygon fill="#de958e" stroke="#de958e" points="781.7183,-620.8951 791.7678,-624.2503 786.004,-615.3604 781.7183,-620.8951"/>
</g>
<!-- pandas&#45;&gt;rolling_pin.radon_etl -->
<g id="edge26" class="edge">
<title>pandas&#45;&gt;rolling_pin.radon_etl</title>
<path fill="none" stroke="#de958e" d="M128.1511,-400.4593C148.833,-398.0655 174.3985,-391.4922 190,-374.3926 248.5174,-310.2561 165.0464,-244.2184 226,-182.3926 310.9986,-96.1777 372.5328,-140.4526 493,-128.3926 573.4866,-120.3351 602.4459,-92.6307 675,-128.3926 740.3076,-160.5826 783.4804,-239.8267 802.6442,-281.9827"/>
<polygon fill="#de958e" stroke="#de958e" points="799.546,-283.631 806.7893,-291.363 805.9487,-280.8016 799.546,-283.631"/>
</g>
<!-- pandas&#45;&gt;rolling_pin.repo_etl -->
<g id="edge27" class="edge">
<title>pandas&#45;&gt;rolling_pin.repo_etl</title>
<path fill="none" stroke="#de958e" d="M128.396,-400.678C149.1784,-398.374 174.7639,-391.8185 190,-374.3926 263.89,-289.8825 151.5408,-208.4016 226,-124.3926 307.5221,-32.4148 371.1588,-68.5323 493,-52.3926 679.8126,-27.6463 760.0947,51.9723 917,-52.3926 1011.756,-115.4191 1035.9541,-264.2536 1042.0192,-326.8585"/>
<polygon fill="#de958e" stroke="#de958e" points="1038.5631,-327.511 1042.927,-337.1653 1045.5361,-326.8968 1038.5631,-327.511"/>
</g>
<!-- pandas&#45;&gt;rolling_pin.tools -->
<g id="edge28" class="edge">
<title>pandas&#45;&gt;rolling_pin.tools</title>
<path fill="none" stroke="#de958e" d="M116.0165,-419.5528C160.2223,-457.751 262.8657,-546.4449 312.9644,-589.735"/>
<polygon fill="#de958e" stroke="#de958e" points="310.6818,-592.3883 320.5367,-596.2783 315.2586,-587.0918 310.6818,-592.3883"/>
</g>
<!-- pydot -->
<g id="node14" class="node">
<title>pydot</title>
<polygon fill="#343434" stroke="#343434" points="124,-563.3926 66,-563.3926 66,-527.3926 124,-527.3926 124,-563.3926"/>
<text text-anchor="middle" x="95" y="-541.6926" font-family="Courier,monospace" font-size="14.00" fill="#de958e">pydot</text>
</g>
<!-- pydot&#45;&gt;rolling_pin.blob_etl -->
<g id="edge29" class="edge">
<title>pydot&#45;&gt;rolling_pin.blob_etl</title>
<path fill="none" stroke="#de958e" d="M124.0033,-535.233C185.9148,-513.3164 335.2859,-459.2127 457,-405.3926 473.3605,-398.1582 476.5298,-394.3734 493,-387.3926 501.4926,-383.793 510.5431,-380.2611 519.5184,-376.9343"/>
<polygon fill="#de958e" stroke="#de958e" points="520.9981,-380.1205 529.1981,-373.4114 518.604,-373.5425 520.9981,-380.1205"/>
</g>
<!-- pydot&#45;&gt;rolling_pin.tools -->
<g id="edge30" class="edge">
<title>pydot&#45;&gt;rolling_pin.tools</title>
<path fill="none" stroke="#de958e" d="M124.2448,-553.5787C159.2623,-563.3808 219.2057,-580.1601 267.2682,-593.6137"/>
<polygon fill="#de958e" stroke="#de958e" points="266.4472,-597.0184 277.0206,-596.3436 268.3342,-590.2775 266.4472,-597.0184"/>
</g>
<!-- numpy -->
<g id="node15" class="node">
<title>numpy</title>
<polygon fill="#343434" stroke="#343434" points="613,-465.3926 555,-465.3926 555,-429.3926 613,-429.3926 613,-465.3926"/>
<text text-anchor="middle" x="584" y="-443.6926" font-family="Courier,monospace" font-size="14.00" fill="#de958e">numpy</text>
</g>
<!-- numpy&#45;&gt;rolling_pin.radon_etl -->
<g id="edge31" class="edge">
<title>numpy&#45;&gt;rolling_pin.radon_etl</title>
<path fill="none" stroke="#de958e" d="M613.2952,-439.7195C631.6505,-434.2835 655.4489,-426.0631 675,-415.3926 692.7924,-405.682 694.9201,-399.7336 711,-387.3926 734.6156,-369.2681 761.4277,-348.9727 781.7751,-333.6283"/>
<polygon fill="#de958e" stroke="#de958e" points="783.9124,-336.4003 789.792,-327.5866 779.6994,-330.81 783.9124,-336.4003"/>
</g>
<!-- numpy&#45;&gt;rolling_pin.repo_etl -->
<g id="edge32" class="edge">
<title>numpy&#45;&gt;rolling_pin.repo_etl</title>
<path fill="none" stroke="#de958e" d="M613.124,-441.5678C678.2696,-428.5387 838.3164,-396.5293 943.9433,-375.4039"/>
<polygon fill="#de958e" stroke="#de958e" points="944.8709,-378.7878 953.9903,-373.3945 943.4981,-371.9237 944.8709,-378.7878"/>
</g>
<!-- radon.cli -->
<g id="node16" class="node">
<title>radon.cli</title>
<polygon fill="#343434" stroke="#343434" points="629.5,-227.3926 538.5,-227.3926 538.5,-191.3926 629.5,-191.3926 629.5,-227.3926"/>
<text text-anchor="middle" x="584" y="-205.6926" font-family="Courier,monospace" font-size="14.00" fill="#de958e">radon.cli</text>
</g>
<!-- radon.cli&#45;&gt;rolling_pin.radon_etl -->
<g id="edge33" class="edge">
<title>radon.cli&#45;&gt;rolling_pin.radon_etl</title>
<path fill="none" stroke="#de958e" d="M629.9622,-221.1385C644.5681,-225.371 660.6492,-230.5605 675,-236.3926 709.9383,-250.5914 747.7131,-270.7658 775.0527,-286.3091"/>
<polygon fill="#de958e" stroke="#de958e" points="773.4895,-289.4473 783.9052,-291.3874 776.9727,-283.3755 773.4895,-289.4473"/>
</g>
<!-- radon.complexity -->
<g id="node17" class="node">
<title>radon.complexity</title>
<polygon fill="#343434" stroke="#343434" points="658.5,-173.3926 509.5,-173.3926 509.5,-137.3926 658.5,-137.3926 658.5,-173.3926"/>
<text text-anchor="middle" x="584" y="-151.6926" font-family="Courier,monospace" font-size="14.00" fill="#de958e">radon.complexity</text>
</g>
<!-- radon.complexity&#45;&gt;rolling_pin.radon_etl -->
<g id="edge34" class="edge">
<title>radon.complexity&#45;&gt;rolling_pin.radon_etl</title>
<path fill="none" stroke="#de958e" d="M656.2983,-173.5028C662.7855,-176.1165 669.1178,-179.0684 675,-182.3926 722.3426,-209.1465 766.8537,-254.7601 792.2208,-283.4238"/>
<polygon fill="#de958e" stroke="#de958e" points="789.6436,-285.7937 798.8545,-291.0292 794.9189,-281.1924 789.6436,-285.7937"/>
</g>
<!-- schematics -->
<g id="node18" class="node">
<title>schematics</title>
<polygon fill="#343434" stroke="#343434" points="144.5,-794.3926 45.5,-794.3926 45.5,-758.3926 144.5,-758.3926 144.5,-794.3926"/>
<text text-anchor="middle" x="95" y="-772.6926" font-family="Courier,monospace" font-size="14.00" fill="#de958e">schematics</text>
</g>
<!-- schematics&#45;&gt;rolling_pin.conform_config -->
<g id="edge35" class="edge">
<title>schematics&#45;&gt;rolling_pin.conform_config</title>
<path fill="none" stroke="#de958e" d="M144.5864,-770.3577C165.3136,-767.8351 190.431,-764.7783 215.6917,-761.7039"/>
<polygon fill="#de958e" stroke="#de958e" points="216.2451,-765.1625 225.749,-760.4799 215.3993,-758.2138 216.2451,-765.1625"/>
</g>
<!-- lunchbox.enforce -->
<g id="node19" class="node">
<title>lunchbox.enforce</title>
<polygon fill="#343434" stroke="#343434" points="658.5,-595.3926 509.5,-595.3926 509.5,-559.3926 658.5,-559.3926 658.5,-595.3926"/>
<text text-anchor="middle" x="584" y="-573.6926" font-family="Courier,monospace" font-size="14.00" fill="#de958e">lunchbox.enforce</text>
</g>
<!-- lunchbox.enforce&#45;&gt;rolling_pin.conform_etl -->
<g id="edge36" class="edge">
<title>lunchbox.enforce&#45;&gt;rolling_pin.conform_etl</title>
<path fill="none" stroke="#de958e" d="M647.7624,-595.4124C676.4284,-603.5137 710.4336,-613.1238 740.1965,-621.5351"/>
<polygon fill="#de958e" stroke="#de958e" points="739.5386,-624.9862 750.1136,-624.3377 741.4424,-618.25 739.5386,-624.9862"/>
</g>
<!-- schematics.exceptions -->
<g id="node20" class="node">
<title>schematics.exceptions</title>
<polygon fill="#343434" stroke="#343434" points="190,-740.3926 0,-740.3926 0,-704.3926 190,-704.3926 190,-740.3926"/>
<text text-anchor="middle" x="95" y="-718.6926" font-family="Courier,monospace" font-size="14.00" fill="#de958e">schematics.exceptions</text>
</g>
<!-- schematics.exceptions&#45;&gt;rolling_pin.conform_config -->
<g id="edge37" class="edge">
<title>schematics.exceptions&#45;&gt;rolling_pin.conform_config</title>
<path fill="none" stroke="#de958e" d="M190.3033,-731.6716C198.6776,-732.4869 207.2336,-733.32 215.8053,-734.1546"/>
<polygon fill="#de958e" stroke="#de958e" points="215.573,-737.6484 225.8651,-735.134 216.2514,-730.6813 215.573,-737.6484"/>
</g>
<!-- schematics.types -->
<g id="node21" class="node">
<title>schematics.types</title>
<polygon fill="#343434" stroke="#343434" points="169.5,-686.3926 20.5,-686.3926 20.5,-650.3926 169.5,-650.3926 169.5,-686.3926"/>
<text text-anchor="middle" x="95" y="-664.6926" font-family="Courier,monospace" font-size="14.00" fill="#de958e">schematics.types</text>
</g>
<!-- schematics.types&#45;&gt;rolling_pin.conform_config -->
<g id="edge38" class="edge">
<title>schematics.types&#45;&gt;rolling_pin.conform_config</title>
<path fill="none" stroke="#de958e" d="M164.8312,-686.4266C173.3999,-689.1692 181.9629,-692.1707 190,-695.3926 206.7926,-702.1244 209.1852,-707.7165 226,-714.3926 235.9943,-718.3607 246.6604,-722.0308 257.3198,-725.3615"/>
<polygon fill="#de958e" stroke="#de958e" points="256.5022,-728.7709 267.0876,-728.3236 258.5337,-722.0721 256.5022,-728.7709"/>
</g>
<!-- yaml -->
<g id="node22" class="node">
<title>yaml</title>
<polygon fill="#343434" stroke="#343434" points="611,-725.3926 557,-725.3926 557,-689.3926 611,-689.3926 611,-725.3926"/>
<text text-anchor="middle" x="584" y="-703.6926" font-family="Courier,monospace" font-size="14.00" fill="#de958e">yaml</text>
</g>
<!-- yaml&#45;&gt;rolling_pin.conform_etl -->
<g id="edge39" class="edge">
<title>yaml&#45;&gt;rolling_pin.conform_etl</title>
<path fill="none" stroke="#de958e" d="M611.2872,-699.681C642.9264,-690.7395 696.3738,-675.6348 740.4458,-663.1796"/>
<polygon fill="#de958e" stroke="#de958e" points="741.5998,-666.4907 750.271,-660.4029 739.696,-659.7545 741.5998,-666.4907"/>
</g>
</g>
</svg>
